/* XPM */
static const char * straight_connector_xpm[] = {
"32 32 6 1",
" 	c None",
".	c #F8FCF8",
"+	c #808080",
"@	c #FFFA00",
"#	c #000000",
"$	c #29D82F",
"...............................+",
".+++++++++++++++++++++++++++++.+",
".+@@@@@@@@@@@@@@@@@@@@@@@@@@@@.+",
".+@@@@@@@@@@@@@@@@@@@@@@@@@@@@.+",
".+@@@@@@@@@@@@@@@@@@@@@@@@@@@@.+",
".+@@####@@@@@@@@@@@@@@@@@@@@@@.+",
".+@@#$$#@@@@@@@@@@@@@@@@@@@@@@.+",
".+@@#$$#@@@@@@@@@@@@@@@@@@@@@@.+",
".+@@####@@@@@@@@@@@@@@@@@@@@@@.+",
".+@@@@@@#@@@@@@@@@@@@@@@@@@@@@.+",
".+@@@@@@@#@@@@@@@@@@@@@@@@@@@@.+",
".+@@@@@@@@#@@@@@@@@@@@@@@@@@@@.+",
".+@@@@@@@@@#@@@@@@@@@@@@@@@@@@.+",
".+@@@@@@@@@@#@@@@@@@@@@@@@@@@@.+",
".+@@@@@@@@@@@#@@@@@@@@@@@@@@@@.+",
".+@@@@@@@@@@@@#@@@@@@@@@@@@@@@.+",
".+@@@@@@@@@@@@@#@@@@@@@@@@@@@@.+",
".+@@@@@@@@@@@@@@#@@@@@@@@@@@@@.+",
".+@@@@@@@@@@@@@@@#@@@@@@@@@@@@.+",
".+@@@@@@@@@@@@@@@@#@@@@@@@@@@@.+",
".+@@@@@@@@@@@@@@@@@#@@@@@@@@@@.+",
".+@@@@@@@@@@@@@@@@@@#@@@@@@@@@.+",
".+@@@@@@@@@@@@@@@@@@@#@@@@@@@@.+",
".+@@@@@@@@@@@@@@@@@@@@#@@@@@@@.+",
".+@@@@@@@@@@@@@@@@@@@@@####@@@.+",
".+@@@@@@@@@@@@@@@@@@@@@#$$#@@@.+",
".+@@@@@@@@@@@@@@@@@@@@@#$$#@@@.+",
".+@@@@@@@@@@@@@@@@@@@@@####@@@.+",
".+@@@@@@@@@@@@@@@@@@@@@@@@@@@@.+",
".+@@@@@@@@@@@@@@@@@@@@@@@@@@@@.+",
"...............................+",
"++++++++++++++++++++++++++++++++"};
