/* XPM */
static char*abottom[]={
"30 30 2 1",
". c none",
"# c #000000",
"..............................",
"..............................",
"..............................",
"..............................",
"..............................",
"..............................",
"..............................",
"..##############..............",
"..##############..............",
"..##..........##..............",
"..##..........##..............",
"..##..........##..............",
"..##..........##......#.......",
"..##..........##......#.......",
"..##..........##.....###......",
"..##..........##.....#.#......",
"..##..........##....##.##.....",
"..##..........##....#...#.....",
"..##..........##...##...##....",
"..##..........##...#.....#....",
"..##..........##..##.....##...",
"..##..........##..#.......#...",
"..##############.###########..",
".#.#.#.#.#.#.#.#.#.#.#.#.#.#.#",
"..............................",
"..............................",
"..............................",
"..............................",
"..............................",
".............................."};
