/* XPM */
static char*dhdist[]={
"30 30 2 1",
". c none",
"# c #000000",
"..............................",
"............#....#............",
"..............................",
"............######............",
"..............................",
"............#....#............",
"..............................",
"............#....#............",
"..............................",
"..###########....###########..",
"..##########......##########..",
"..##.......##....##.......##..",
"..##.......#......#.......##..",
"..##.......##....##.......##..",
"..##.......#......#.......##..",
"..##.......##....##.......##..",
"..##.......#......#.......##..",
"..##.......##....##.......##..",
"..##.......#......#.......##..",
"..##.......##....##.......##..",
"..##.......#......#.......##..",
"..###########....###########..",
"..##########......##########..",
"............#....#............",
"..............................",
"............#....#............",
"..............................",
"..............................",
"..............................",
".............................."};
