/* XPM */
static char *magick[] = {
/* columns rows colors chars-per-pixel */
"80 80 20 1",
"  c #393963636b6b",
". c #424284848c8c",
"X c #10106b6b7373",
"o c #42426b6b7373",
"O c #6b6b9494a5a5",
"+ c #8c8cadad9494",
"@ c #bdbdd6d6c6c6",
"# c #cecedededede",
"$ c #cecee7e7adad",
"% c #292952526b6b",
"& c Gray97",
"* c #18184a4a6363",
"= c #393963637373",
"- c #7b7b94948c8c",
"; c #636384847b7b",
": c #313163637373",
"> c #b5b5c6c69c9c",
", c #a5a5c6c6cece",
"< c #181842426363",
"1 c #8c8cadadbdbd",
/* pixels */
"++O;.o%*X.O1,,,O.X<%o;---------;;o%<<*<<<*%%=o :Xo...:%*%%<<<***:=o;;-;;%%oO1111",
"OO;;;o=%*X.O,,1O.X*%=oo;oo;;----;o=*<<<<**:ooooo..;.=:%%:%%%*%%: o;--++-;==.OOOO",
"...oooo:%%.O111O:**%:%%%%%%%o;;;;o:%******=;;;O;...:%*<*%%=oooooo;;-+++--o=:....",
"...:%==:%X.O11O.X*%%o%*%X:X**o;;;oo:=XX***o.O+-.o..X****<%=;;;;;;;;---++-;o:::o.",
"...:%:o:::.O11O.*<=o=%<*...X<=;;;...o.:**%o;---....o...X**%;;---;;.;;;;;;;oo:%:.",
"OOO.:=ooo..OO1O:% o;o:**=..:%.---;;o::X*<=;--;.%:...OO+O;::o;---;ooooo%==ooo:::.",
".O..o=oo...OOO.*%;;;;o:<*X.=.++++-;.%X**%;-+-;%*...O1,@,,O%%;---;=:..:**%oo.ooo.",
";..:X=.o...OOO.%=;---;o=<*:oO+>++-;o%<<%o-+>+;<XOOOO1@@#,O*%;--;o :.O.::::...;.;",
"O.o%*X:o....OO.%%;;----;o=o.-+++++-;oo=o;+>>+o:O111O+1,@1.*:;--;o%*:......o.-O--",
"-;o:%%X:...OOOO:%%=;;-+-;;oo;---+---;;;;-+++; .1@,O..OOOO*<o;--;;:***:.....;--++",
"--;oo%%X....O111.*<%o;-+-;o=oo;----------++-o%O,@,O.XXXX**%;--+--;o%%%::o..O-+++",
"--;;;o%:.O;OO1,@,O:*<:;;;;=%*%=o;;---------.%*.11O.X**<*<%o;--+++--;oo:=:o.;O---",
";;;-;o%:OOOOO1@##,1.*<*=oo%*<*%oo;;--------o**:OO.oX%%%*%o;--+++>++-+-;o=oo;----",
";;;;.=%oOOO..O1@##,1.X*<:=:**<%:o;;;-+++--;=<**X..X*%*%%o;;--+>>>>+++---;o.;++O;",
"=oooo**.OO.X*X:O11111.X<%ooo%%%=oo;-++>++-;=<***X.:X***%o;;--+>>>>+++++--o;-++-o",
"%%%%<*.OO.X*<<**X.OOO;X<o--;=%%%=o;-+>>>++;:<<**X...X*<%oo;-+>>$$>++--++;o.+1+.%",
"*%%%*oO1O.*<%%%<<**X.X*%;++;=<<<*=;->>>>>+-o%<<X:OOO.X*<%o;-+>$$$>+-;;;;oo.+1O:%",
"%%%X.O11O.*<=;oo=%<<**<%;++;%*X**<o-+>$$>>-;o%<*X.OOO:*<<%o-+>$$>+-oooo= :O++;%*",
"%=:o.O11O.**=o;;;oo%<<<%;-;o<XOO:*%;+>>>>>++;;:<*.OOO.X*<*=;+>$$>-;%*%%%:.+1Oo%%",
"oo%.O111O.X%%=o;;;;o***<*:=<*O,,OX<o;+++++>++-;%<*X..X***<%;+>>>+-=*<<**.O11-= o",
";o=.O111O.X***o;;-;o<*.:***X.,#@OX<%o;;;;--+++-;o***XXX**<:;-+>>+;:%***.O1,+.oo;",
";o=:.OOOO..X*<=;--;=<.O11;.O,##,OX**:%%%%%o;-++-;o**X:X**<=;-+++-;o%<*:O1@,+.o;;",
";;o=:..OO..X*<o;--;%*.1#@,@,##@1.*<<<<**X*<%o;---o%*:..X**o;-+++--.=**:O,@1+.o;;",
";;o==%:....X*%;-++;o<XO,######,OX*<%<*:O1O:*<%o;;o<*OOO:*%;-++++++-;=<XO111Ooo;;",
";;;o=%*:.O.X%=-+++-;%*X.1,#&&@1:*<%*<*O@##1.**<%:%*:O,OX<o-+++++++-;o= :OO-;.;;;",
";;;;o:X:.O.%%;-++++-;:<*XO,@@,.*<%%**X1#&&#1.X*<<<*.O1O*%;+>+++++++-;ooo:...;;;;",
";-;;o%X...:%=-++++++--;%<*.OOOX**=:<*.1#&#@1O.X****XO.X<o->>>>>>>++--;oooo.;;;;;",
"---;o=:.O:**;-+++-++++-;=<**X**<%o%<*.1#@,1O...X****X*<%-+>>>>>>>++--;;ooo.OO;;;",
"-++-o=oO.:*%;-+-;;;;-++-;o%<<<*:o:%*XO1,1O.XXXX**<<<<<=;+>>>>$$$$>>+--;o=:O+>-;-",
"+++-o=:.o**=;--;%*<%o;;;;;;o=:=oo%<*.O,1;X******<<%%:o;+>$>>>>$$$>>>++;o%XO1++;-",
"+++;= :::%*=;;;:<***<%=o;;;;;;o;o%<XO11OX*<%%<<<<%%o;-+>$$>++>>$$>>>>+-=<*.OO;;-",
"++-o%%%XX***=o:<*.;.X*<*:oo;;;;;o**XO1O.*<ooo%%**%:o;+>$$>+-;;->>>>>>+-o*XX..:o-",
"--;%<**XX.X**<<*.O1O.:**<<%o;;;;=<*.OO.X<:;;;o%%%%%=;+>$$>;:*%o;+>>>>+-;=:***:o-",
";;:<*X*X.OO.:XX.O1,1O.:X*<<%oo;o%<*.O..*<o;;;o=%***%=;+>>-=<**<:;+++++-;o=*<*%o;",
"=:<*:XX:.11111O1,@,1OO.:X*<<%===<*X...X**=;;;o%%*<<<<<o;-o<*..*<o-++---;;=%<*:oo",
"%<XX:.:..O1,,,@@#@,,1O..:**<<%%%<*X..X*<%=oo;o=%<<**:*<*%%<X..X<=-+--;;ooo%<*o.%",
":::..:XX:.O1,######@,1O.X**<<<**<**XX**<%:oo;;oo%<*.OO.*<*<*XX*<o;-;o==::%**:.O.",
".....::***.O1,##&&##@,1.X**<<<<*<<****<%%=o;---;=<X.1#O*<%:*<*<*o;;o%%% %<*X..O.",
";.O..:%*%**:O1@##&&&&#1.*<<<<<<%%%<<<%%%:oo;+++-;=<XOO.*%;;;%<<<:oo%%X..**X:OO.O",
"O;;.o%*%%%**.O1,##&&&#1X<:oo%*%%=::==o;;oo;-+>>++;=<*X*<o-+-=<**<<%<%.OO:*.....;",
"-OO.=*<:=:**:O11,@#&&@O*%;-;o%*%%=o;;;-;;;;-+>>>>+-;%<*=;++-%*..:X%**.OO:X.;.:X.",
"O+-.%*%%%%%*:.OO11@##1X<;+>-o%<<*%o;-++-;;;;-++>>>>+-;o;-+-o<X1,1.**XX.:*%o..**o",
"-+-o**:= %*X:..;OO1,1.*:+>>-o<**<*o;-++-;o=oo;-+>>$>+--;--;%*O,&,O***%****=o%*%.",
"--.%*:o::XX:.....OOO.X<o+>+;%**X*<=;-++-;=*<%o;-++>>>+-;;;o<*O@@1.%%:%<<*****<%.",
"--:<X.;.o:X:........X*%;++-o<*::*<=-++-;o*<<<<:o;-+++-;;;o%<X;11.**oo=*****<<%o;",
"-.%<*.OO..:.::XXX:.:*<%;-;o%*X.:X<o-++-o%<**<<<%=;;-+-;;o=*<*...*%:o;o***X**%o.-",
";o%<%o....::X****X***<=o;o%<*X.X*%;++-;%<****<<<*%o--+-;o:<**XX**%o;.=%XX::::.;-",
";o=%%:Xoo::X**<<<<*<<%ooo:<**XX*<%;++-o<******<<<%o-+++-;=<*****<=o;;o%%=....;;O",
".oo==%%%:::X*<%:%%*%:ooo=*<**XXX**o;;o%**XXX****<%;+>>>+-;:<**<<%o;;;o=%o..O;;-;",
".oooo=%X%:X*<*:oooooo;;o=*<**XX:X*<%o%<*X::.:XX*<%;+>$$>+-o=<<<*%o;;;o=ooo.;-O;.",
"%:=oo%*%XX***oo;;;;;;;;;o%<**X.OO.**<<**X...O;.X*%;+>$$$>>+;o%<<%=o;;;;oooo.-;;o",
"**%%%***X***o;--;;;;;;;-;;=***.1,,O:****XX.OOOO.*%;+>$$$$>>+;%<<<%:o;;;;oo;.;;o:",
"***%<<%*X*<o-+>++------+++-o**.1@#1.**<***.OO1O.**;-+>>>>>>+;*****<%=o;;;o;..o%*",
"..:**<*X**:;+>>>>+++--+>>>>-=*:1,@1.*<<<<*X.OOO:*%o;---++>++o<X..X**<%ooooo..:**",
"O+.*<%%%%%o+>$$$$>>++++>$$$+o<XO11OX*<%*<**X...*<%o;;;;;;--;<*.OOO.:**<%%ooo:%<.",
"11.%%oo=:o;+>$$$$$$>++++>$$+o<X;OOX*<%%%<<**XX**<=ooo=%%=oo:<X.1,111O:*%%%o:%**O",
"1Oo%o;;;o=;;+>>$$$$>+-;;+>+-=*X..X*<*%%%*<<***<<%ooo:%<<<%%%<*:O1,@,1O:%%%% %<:O",
";;oo;--;o: o-->>$$$>+o%%o;;;%*X:X*<*%:%%*<<<<<<%=oo=%*<<<<%%%<*X.1,#@1:%=oo%*%%.",
"oo;;-+-; *<*%o;-+>>>;%<*<%oo%<**X<<%==:%%*<<<<%%=o=%%<<<<<%=o:<*X.1,1O*%;;;o%*%=",
"%o;-++-;%<<*<<*%o;-;o<XX*<=;o%<*<<%:=ooo=%%**%%%==%%*<<<<<%o;o=<*X.OO:%;--;o%<<*",
"%o-+++-o%<******<%=o%**X*<;++-o%<<%%ooo;;oo%%%%:=%%%<<<<<<%=o;o%<**XX%o-++;:<***",
"%;-+++; *****X..X*<%%<**<=->>>;:<<<%%o;;;;;o:%%%%%%*<<<****<%==%*<*<%o-++-;**:=:",
":;+>+-;:<<***X.O.*<:o:%<%;+$$>-%<**<%o;;;;;o=%:%%%<<<<<*X.:**<***<<%o-+>>-o<*.;:",
"*o-++-;%<*<*<*X:X**o-;ooo;+>>>;**X***o;;-;;o:%%%*<<<<<*XO11O:*<<<<<=;+>>+-o%*::%",
"*=;---;%*%%=:%<**<=-++-;oo;++-o<X.X*<o;--;;o%%%*<<*****.1##@O:**<<*=;+>>+-o%****",
"..oo;;;=%%o.;;o%%%o-++-;=%=o;;%*X.:*%;---;.=%%*<****X*X.,###1.***<<%o-+++-;o:%:.",
"++Ooo;;;=o;-+++;=%=o;-;o*<<%oo %*X%%o;----;=%%****XXXX.O1@@@O.X****<*=;;---;;.;O",
"11Ooo-;;;;;-+>+;=*<%=oo%*<<%o;o=%%%=;----;o::%%%*X::X::.O111O:*%XX.X**%o;--+---1",
"1O.:.---;;;;+++;%***%%%%***%;--;;oo;;----;===oo:%*XX:X::.OOOOoX*X.OOO.X=.;--++++",
"OO::;---;;o;;;;o%XXXXXXXX*%:;-++---;--;;;oo=o;;;o%%**X*X:.O1OO.:.O1,111..o.O-+++",
"O.:o;---;o%%:o%%%*::....:X%%o--++---;;;;o= o;--+-;o%%XXX:.O111OOO1,,#,,1O..;O-+O",
"O.:=o;;;o%:%%%%%*XX:......X%%o;-----;;;oo==o;-++>+-o :*X:.1,,,,111,@,,,1OO.OOO+O",
"O.:==o==%%%%%%%%%**XXo.OOO.*%%=o;;;;;;;oo=oo;-+>>+-;=%%*:.O1,,@@,,@@,1OOOO..;-OO",
"O.::==::%X:***%%::%%%X..OO.o**<%o;.;;ooooo=o;-++++-;o:%XX:.O1,@@,,@,1O......;O--",
"..=::...O..XX**%%o=o== :.....**% oooooooo=o;;--++-;o=:%****.O1,,,,,1O..::X%:.;OO",
":%:o..O111O;:***%=;;--;;ooo.:*<<:ooooo===oo;-----;o %:%*<<*X.O11111O.oo.o:*%=.;.",
":X=...O1,@,1O.X**=;-+>+-;;o:%*<*:o..o:::=oo;---;;%%%%%%<<**=..OOOO.:.o.;.=:%X=oo",
":......1,@#@1O.**%;->>>>+-;o= %%=oooo:%%%%o;---;%**::**<*%:=.....o%**o;.o.::==o=",
";;O;.==.1,@@,,1.*<%;+>>>>+-;;ooo =%o:*%*%%:o;;;o**:.o:%*<**:..:X:X**%=::%:.OO...",
"OO-;o=%%.O1@@,1O:*%o;++>+++--;;;o=%%***<<<*%o;;%%:...=***<**%X*%%% =ooo%%X.OOOOO"
};
