/* XPM */
static char *magick[] = {
/* columns rows colors chars-per-pixel */
"100 100 32 1",
"  c #17000c000900",
". c #9a006c004a00",
"X c #d900a1007200",
"o c #5c003d002500",
"O c #bc0079004f00",
"+ c #830053003300",
"@ c #e300b7008200",
"# c #c8008e006200",
"$ c #3d0026001500",
"% c #b30087006100",
"& c #e500a3006f00",
"* c #a90072004b00",
"= c #d90097006600",
"- c #760050003400",
"; c #8b005f003e00",
": c #b1007d005600",
"> c #cd0097006c00",
", c #280012000c00",
"< c #510032001d00",
"1 c #6d0045002a00",
"2 c #f600c4008a00",
"3 c #db00ad007e00",
"4 c #9a0063003e00",
"5 c #c00083005700",
"6 c #eb00ae007a00",
"7 c #44002f001c00",
"8 c #2e001a000f00",
"9 c #200013000d00",
"0 c #b60096006600",
"q c #f300b9008300",
"w c #9d0077005200",
"e c #610047002f00",
/* pixels */
"e##X=>45#=5#5*5#==55.;..:3>3q@q@&5*14*w5>>>#>X%:*.#>5#>%%;-eo<78w;-9$988887o<7;+e4;-;*54+4**5>=*:4+.",
"$.6&5O#&5===5O:5:55#;<$-.#3X3q@0e:O*X::%>XXX:w4.>:*>%w+oe<$7$$o18e8$7$88997o,81o$-:>>:#+4;*#:#X+*;.;",
"$7:54#&&===#5O.*>O*=41o<o:w*.--<<<;#0w17ow%w4.#@X.8-w:o<<7<77<<<-$ oe 8 8889 ,-1o;%*-.+*44OO*&6O55*<",
"1<55O=OOOO=#=O*+.&+4*1o$$eo%.e-e-17e-<e-+-;;%X33:-$$<ww+-;;.-o$879  -o17$+7$8-4O5<<88<56##O.#X.*O*14",
"*4=5O===554O=#O*-**1<1<7799<;-e.$71-$1;-<o<;00#w-$9 81%:;;e7<88 98  9e4o-.+++41-*1+.:;<==*;.#+4-:5#*",
".*#+#&=&&==*4XX&5;&=;1o1e78$77$41o+7<;+o$$<ee--e77$8<14#877$77-    9;w#<$4#4=#$<+o-;4414+-1<;1.*:55#",
";<1O==#=&6&#5:.-o<-;.;1<<ooo;4+1.<o71+1<<$$<<ee<o8o7$--:>4$ew+< 88<$;:4;15OX=18,<+*4+4+;*o $e1.0X#:*",
"<<-5&66q#.-7o;7o+;+1<oo<<<-;4+-4o1o<++1o<<77$$;<<7$<o$$$;e$$<;.1<9$$1**+;>&*4+$8445O#=&&o 9we<oo$8$o",
"-o<+&*;oo<<;;;.7o-:#;<<<-+4+44<%7$$1--<o<<<<<7.8<<$$<o<$o1-<8-o$o+4+++1++1$711o11+O&&*$9  +#%7,99o.-",
"o$$;:18$7.w;o<7<o-w#4$1+**.*.+4e<71;;+-11oo<<o;$<<<$$<-1<o;;o<77;7:=1<741*:>O4O**#+18    -#.:e$ <47o",
"$-+;-w*w;e88$887oe-:57$1O****:.<<7++1-1o-<<<$+e<<<o<$<<+-o1.-.*e$81;o+++*4%55O5O5=<,,9  +6:*w17+-8<o",
"14-<77777$778  7<<-**4$oOO5O:O.<$-4;-o1+1<<<84<<<<7o$o<<-41-*4;:$1oo+-1#.*::#OOO*41<7, o&=#O%:<;<-;7",
"14o7o<<o7o779 8e8 9e.+o <O5O**4$-4;-1111e-<o7.<o<o<-77<oo-+1+=>4+1<1*4:#+5:#%:O*11<1*4*=#>#*:5;++<o<",
"-+o<77ooo7o78998   ,<-%o85:wO*4o.4+1<--1-1<o<;oo111-4oo++1-+<1-$oOoo:4#%+:#55#5O44;44..:%5=5..+.117o",
"+1oo<oeeeoeo$9      9$ooo-8o..4-%.-1<<<11+o71++1-+++++4ooo1*:;oo5=1-..::55O4O*O#=#5*44;+-+;;;:*+$o<-",
"-11eee-eeeoeo99      $7;e   45;-<7$<1ooo1-1$-+++o-4+144++++1+++555o+.4.w%5:4.5*++1++4.;-;oo+;;%-$$1;",
"-+o;+;-eeeeee78       8-8 , -.<8,o,$7$$$$8<1***5**4+O4*+oo<o88*5+4o+.**w::*.4*11+++4O*4+++1;4..+<<4+",
"11e;;.;+--e-eo79 99   9;7 9 7o$$1-<,,,$8$-=#O#5O44OOO#4<ooo< 155+14++445:%**;*54444*44.4+;++4*.1$-;o",
"1o+4w:;e1--;-o<8999    e- 9 ,$<O&&.--++14:>*5OO55#5#O&=o1<<o,#55411444;w*:54.*#;1<o+1;;;-+;+441<+4.-",
"o+14*.-1e;-ee--e8,        998$<*#==&=66&X=&O54====#=&&==4+<$$##*O+$--;+w5w#5O4#+o1<+;1-1e;-oo++1.++o",
"o17o;:;*5>%;-w.o78,87$ 98$$,,,$O==&=>==&6&&OOO&=Oq&665O#*1$,1O5*5+11o<-+*:%>:*5=4*44;++;-++;;+1.:;-o",
"o<$,$*#=5>&%+o;+<$ -o+.%:5*7$98+#=3&==>&XX>*##q*$4>>>**5=*,<+#*441o<.17-w%#>:4O#663&%4...4w4+-+*;e1o",
"<o$,9,4>X@48,8-5-8$5%>==XX&+78$-453363=6&&O=O55;<<+-o-#5=481<#+1$+1o+*+$4>5>**5*#X&q&%;:4;:44w.<8881",
"8$8  9 8ee8$71-O;<O&q66===&577,O1*Oe;=X6X&*=5*++-<o11.*=&+$o1=1+$<$$<;%o1w%#w%:.*#%:X&**%4*45w-9<o,8",
"88$$,9898 98$4-74==.-O#XX6q=.O,=*+9;#X&&6XO5*;1+1<1o;**O=*1$$=1*$o4+1<ww<-:>O:*::5*.%X>4*.::w-14w+$,",
"5>=-78$98898899956&q+$<<+5=*.O<=O5+X:#666:&**O#&#+144:O*5O4$+*1+$$++.;o#41*:+5*:::*.5X3##:.4;-1#&=#%",
">=&;o7 9778898,+q666&4;;*O&=4+4&==55O>q6q:X*;o<1*#+*>X&5O#4+4411$$o+;Ow4#-;:155#:.:>%%@>:4:.1e1%X#==",
"XXXwe8 <$9$8$8.q&&=#=65*OO=&#O*==5#4<,<o:O&4<o<8,1#O+;*5=5+4+4+<8$o111w:%%1:.55::%XXweoowe;%-1o5>&&=",
"X=3%;77$$,$89+6=&=#=&65OO456&5*=&54O+88,8OO*+o<<78$5;44;45111*+,8o<-o1;;wX.4w5X%>1o<;:..e--;4<o4%X3&",
"&6X3.e7$77<8o+;&66qq6&OO5O+4&=4#6=##O8$9$>4o+<<o7$815=#**#1*O$ ,  $-;-+;4%#4o44-<e#%w;-4+4+w+%#.*#6>",
"5Xq3>:::1e++77--#&66q5O5#55*45=*5O5#=1,874%o;<<o7o<<=*1<,1+5< 8,  8o1e;:w:5*--4*:%#*;-;4-;;;X#>O4;87",
"=&63X:>%X3#5+.:14&==O*5#==##O55=&#=#O#414$-o----o<o$4-+*O+-,8,   9,$<<7<1O;-+oe.*0;-;4..;w>w;5wO*o-&",
"56&6#O55>#4#*O+$<##**&&==##5O*O5+O==O*&#*8o1;+4;+4-,<&q&>=O,$$$9  ,,o<1..+++%*71-;ww.4;.w%X.*O5=O55#",
"-5X6X:45X4;*5+<$,;#O5=O#5=&=5O+.&4O=O*o=-1<+.4;.w-;;*O.*%X>=$$;o  , 8+718<o14%*oo-..4w%w..#O5O4*5&O;",
"$, 84#*&4<1O5O5545=O==55OOO=5O*15*<4O4<#+1+<+.:ww*#+++O5.O:6+<<;  ,,8<<;.#O+.=X.o-*X%::.%#w5*44O=5*+",
"<,89;*564*4O#55=O=4*==&=554*#=#=4=Oo<++,+oO55*;45##1+;**.;O5#$1#o $8 8<+;;>#+.#6.1+%#>%4:o$**4O5#O:O",
"1,884=&#*4*#55*4.O4====&&&#O#%w-7*==5+-1-+o*X#>#X#:1#6**O**O6-;5=$<88877<<7;www>6;o.#>>w4o<***45=5##",
"O1884X&.5#*;ow8,1O==&&==&#>#*;;-1$<-4#5-1w8<*=#5*wo17*=**==O:.1#:;$< 9o<oe477.5:>@+1*##%5;o**OO#=55#",
"*=*:*>&;$<<,9$91O##=6&q655+o11o+ww11-%541:o$<.%#4788$8#44O*5#61OO>178 7-44--<$-4*X3;4:#5;14O*O*O##=#",
"*5=:*X#O9 ,99 <;O&66=##5%>>w+--;;;.:55.+o%+$<-.ww&;+781O*+;O5&55#O4<7 o%--o1;;e.%#2#;.#>:44OOO#5=5#5",
":1+%5@&49989 1*O5*4O4O**%#>0w;<eo4w%%.;4oO:-$$1;%:-3>54+11+4#&>*5*O-999e<$<<<ooo+;#@>45***4-+*#O&*O5",
".1<4:@259898OO*444*11*#0w:%&@X3#w.4;e.*-<5.51<8$;*1O4;5o++4**#=5***;7$ +.111o<$$o:>>65*X*4<, <O==#1+",
"1+-;*w>qw-:;:55&===O<;#w.w%%#0>33=::%%;4o*46++4o8+-:5=#+-4;*5:>&1*++$8,$**:*#5>=:-->36wX#$,,, 1:=&5+",
"5*+.:;--%>@3q222q=#O;;w.%>>>>%>%.;#&%X0we5.&%;%;o<+:%4w4.44O55=q=5;+$8 $o.++4*.+<<<71.XX7 ,9  ,4=#*%",
":#;7e-$:X332@22@%o-4%XX%0X0X>%w.w3Xw%X%-1>*:X;-1-e$788<:&55545=6#*+1<88,1e+4.*171;+eo$8o18 8,8 $#51-",
"*w.8,880000332X;eeeo30>>0>X0w..#q0>:..-+1>.*=*;%.e7-;4;oX&O**5&6#$+#+88 88;%*o<;w44+8,99o;$,$$8,.5+4",
"54eo,8e$o;0@30;e;-e$%0>X@@3w;%33>3>X%;-+o:*#:X:>X>%6XXX4>=*4*.#6#4454<<9$ -:<-www;;o989$97+1<<<81#*.",
"+o53>%6w-000...-;ww.+>X3X0..>@33Xw%%;+w;-*%5*==*;++w%%#56&44##>q%O44*o,   8-;**%*;+899$8<<o+1<1o8*.-",
"4#&3>qX>%20;.www330:o>0>X:%@@@@3%:w:%>.;+4#:5*&X#:+;-<$$::*=&#.*$7>55.$$9,$#=O4##;<79871+oo1o11<<;..",
"*&>=>&XX%320030300;ww>@30X30>@XXw*>>%..4o-X>=w#%X%4;e;*4#=qw$9$##*4O4>5>%8 78$9$1;%X1<o1-*4o1oO;o<+*",
"+>%5>;<o1-e-00%%w;7e#%qXXX3@%%0w*:5O4;.*o-*:#*:>>-%X@q3&3:e8<ow#5#;#5**w>.< 98e7--1<;1-1==*4o+O;1o44",
"-*w*>o87<eow00-79$oo:#3XXX@#.#XX>#5w;44.1<46>>w>3;:w>%.;$9$oee;O+##*:::%-;w88,,8w#5OO6Oo*44O**44**44",
"4-*-o $7<oo;.o999$+->X33@301<11%%5>q&0.41o<:3>w#X;w%77 98$8$78e:#+&=+.;.w*-$$$$eX655&qq#14O*O1+###1;",
"*;;e$$$7<o77o798.-w.33030;;,oo<7o+e4>:*;OXX5=%>>%e->;o$88$87$-o5;$&555.+##%;o1<1;q##5&=51oo<+<$4==+*",
":*w.o$o;:%+-e$77%w:#.o899$-<o1oo<<+7o;#4:*5:%&-%X;98e$%e78$$7oe#++4=5#6%w:#:=54*=O#4O*--8 ,<+1<+;+5.",
"*:++-.5:%%*..7$$7#>w$7$7o<oo11o<-oe1o7-5.4w.-oo>:e99$7-$-;..188-+<O5=#.=&%&w#=#-O**-o88    ,-1<,<*5:",
"*544**+;*X6X;oe7w;;;<7-e.:.-+;-1-4eeo<<<++eooo4.e-9,o87w%>&#18$88$5#5#54O:0+4&&#1+o<$  9,   <;<<+45*",
".554+1+5##6XX3+:%1-:98,:66&=6#**o+.;o11o7o-o<<e7-e88<+#=>&X=>1$$81+O=O5#*=:-=:*O*<oo8898    8:<8<--*",
".*#5+45=*OX&Xo;%$78889 %&==5O##*-<ew:e<o<7<<7<$++-87%##*#66>X#o$<4+OO=5&*>*-.*..O*;+1<888$,    87<o*",
"+;44-O#=*O##o 78<o89998+:3&>>*.5#47$-w4eeooo78o4:.17+.5q666q63=14*OO*5==54>#X&qq6XX#%..;1<$  ,,8<$o-",
";44<4>#O#==19   7e898 $e1-4*%5%.>&#*-o-.ee7$$7O+:4*.;#5##:O.:#&%Oo+&5O&=6O.XXqq&663&&&66q=4+*O*5+<<1",
"*4*o*#*>##>.199 oe8899<e1-e-+.O5O5#%:w-o$$$7<4.45.o::*O**O#=666+<$8;14====O&q66&=666qq&>==5===#=5o14",
"+4#+5#5##=6X8 8$.-79$--111-4::w;1<$<$$$<$7<+O5;;#w*7;5XXX=&&6q; 8 <$41*#==#6&q6qqqqq6X&6&#5&&=&==+++",
"+1;*5#:5#XXX;87o;e$+@qwe1e-1o<<oo<<7oo<<7o*:5*.:X4#47o*6q3#5#X5*+$$$-#4+-#6q2qqq6q22666&q5&&#=&=&**+",
"4O5w=5==&&X0X;8903wX6&&-o<oo11oo<o1o<o77+:%:*4O.=.%X*o7o;%#w<1o<o-$o;oo1#;14-;4=q66&&6X&X*&#O.*O5+O4",
"O;X>X#=&XX&3@-89-4::=&&qX41o1<o1oe1o1;*&###O4*&55**6#O+1<<14%+<<<*o771-$99$.-1%:6@&qq&=6&=q:;:*==OO4",
"51:-4%>%%%X@2;7$0X&6q6#&&q5+-11+-1-.:=55>##45=6&=O16&=*-<oo$<o1o7.o,,< 9e887$1<;X=666&=6X&6oo=*#==O*",
"::*o+::%##>#0e9,e-;$ewX2q%:#--;;;.5:4;#:*5O4#&6=#5o:&6&=:+1-4-o1    99 7w17+o<<444*&&5#6O#6*oO5*&&#5",
"O6X:+w%%%%.-e794;.7,9  8-wX; :...5*4#O4+*5.#=#O5#Oo.>*#&6&#5*+1<    9 9$<o.-$7o1o+*5=&&=#&6#14O*+565",
"O:=:>#wwe<778<7o;-9899$89 $8$1;+:+1;4##OO4++5:*O=#41&#+oOX#+o<1,     8::-4w.8<7$$;++*=&55&6&+OOOO+5#",
"#&X#*o<$<$7<<<-7$79$88989o$  8o.;<-*:*#6O4##.*5*##4<5&&5o8$oo18     9$@#$<o<$$o$$O6#O*===&&=*O##=5*5",
"54*55-11o1eo<7$$8$$$9899$< , 1-;<o<1++;.w44:X=**O=Oo+q66&#O456$     99.&=6&&#O41o$$<5q6&q&6&&=#=#5O*",
";X*4=#*;w.;-o777$89999  7e8 8<o<oo<<<o+O:111;#4;45O1oO6q666&6=     $,955>#&6qqq&6><$,:26=*=*#==&5=O4",
"4+&-+:>o7$$$$$$$$8877777<7$$$o<-1o1o11+.41o115*++O5+1-:O&qqq=5 ,99 88 81<<+;..***.-<$1;+=4o$+O*O##O*",
"#.*5+;3;-77$7o;<$$8<<<<<7$8$$e%<,$$oo1o1<oo<<4:4-O541o#&###q&#,99    ;-&;o<oo<o<oooo<$<-<$<<1*OO*5=5",
".o1#>55Xw77$ow%e898-oeeo7<$$88888<o<<<<11ooo<1.;1-;*+o4&&&=#=X$9$9 oX=1&1$8$oooo11<o<o$$<<<o+*==O5>5",
"1+eo1+*#+779e%.<oe$o<ooo<o<<7$<$$$<8<<$oo<o<<<11++45;1oO=&66#=89$$;q;;o*$888,,8$$<111oe<oo<o1.5:;4.1",
"o-:w.o+:w;;7o-e$<.o<o1-+11ooo<<78, 8$$$$8$8$<$o-;+-441145#qq65 98*6=&$$88,8,88,, , 998$<<<<ooo<77;;1",
"$o-w#+1.;-.<o1++71o<<1o1---.<1o<7$$88, 88,,88 977<oo1o114+*&6o 7X&64w$o8<$$$$$,,88999  9,8,8$7<+wee-",
"oo-.>+$44w*o.O#5e-.o+0>%-;>#1--o7<$$<<$<<7$,,$78$88$+1oo+4.=*1$36>*wo<-8$$<$$8$8$8,8898,,    81oo77$",
"1<++;:o+4<8-**1-1;e$78e%;e7-0.---1o14w111ooo<o7$<<$o<11o14+51+oX6#-#8<e$$$$$$<<$8$8$88,,, ,99, 888  ",
"o98ow*4<+<7:5+7$-;898988$88.#6X>%<o;-#;11o1oo<o<$1<<o$<+1o+47*o<+*--8eo$7<<<<oo$oo<$8$$$$$$$88$7$898",
"$9 97-++o<+>#+4;;w8   --e784w>0< e;$;:5-+-1<oooo<+-<o1o#555+$O4+<<4;+o-ooo<O&==O5=5+1<<11e<o<$$7$ ,,",
"    ,$1.<7.>=;+.;.8$97X;+-$o$88 <-<<O5#5w4-+11<oo5O+--$4&&641##545=*1*Oo<1$,55=5O5#4o<oo<$-4+<87o9 9",
"    99<e1$1X*****..%w%X%0>.$ 889-45*4544:#5444+44*#*-+1+q&*o45&=OO#*4-44*4o,$&5=O5#5<<$<<<1+4:o$o$98",
"      8++<78+#w::*4-.%w4.*-88$87+4;5O5O*OO**+444O*5#4*;o*<$4O5=*=O5*<<+,e#1o,OOO*O54$$1*O*O***-ooo,,",
"9  9   $;$7o45:O:.<:#.;-o<<88o$;o<$+O*O***O4444+554=5*4o<<<O*4=5O#*;$$;$8o$78+O44O1<o14O*4*4*.O;<-78",
"8 9    90-$1+4..:5*::ww%5#:.eo-411<14+4O*5*4444+O=+*5.;o<o+5O5*OO5$11<11*O>$814O41<1+++*44*O*O*4e--$",
"7,8     $88$<-;**=5*5%5#=5-7:X.+1<8+OOO555*+*4++O#*4=*41e<.#5#o++44514=O#4o$<4+O1o14+<<+O4OOO:5#;eoo",
"o9,999   9,$$1-4;.#-#5>#*;1+4O;4+1oO+45=O44+44+-O=O+5*.1ooO=O*<4=5=54#=O=41o14*114444o<1O*OO4=#54+*4",
"<$9,o7<7oo-1$o<++4o,#>>41++4#*444O5#O*OOO*+4*+4+4=5**O*11+*OO44&&&=&O&#O5544++<++4444++1+**O*#=X**:-",
";1$$*45#&##O<<+44*1o.44+1+4+**5##5*<+55>=444444**O4O*OOO*#5*54445&6&=&=*14>#O4*OOO4++444*5O*O5554;<4",
"5o,e6&&&&6&&41444*o+*%#+4+4+*+<o11$,<#5O*+4*44+4+O*+4O5=#=&&==OO*OO==#O4o11+*4+1+11o1+11o<144o+++1-;",
"4-O&5&&&#=#=O+++11-.%=5*+;O4O#O4o<$$$O4;++***+4*4O1<O=;,,881=&4*4**44o1111eo-;5=5*+*5#OOO4+++<;.*1.;",
"$=&&*814*#&=OO++1$7.6&.=5=*w.7<4*4*4;O=#O#54.++O4*41;&$,$<<8854145*1o.=+-o+;..-<$<o+4O5*4*444+1*.<o$",
"16&&q*<o-;OO4*4OO;4*=>+++o98<,1O#&qq&q65O;*4++4OO4*5<. ,<<7<<o4+-44o&q6*ooooooo1oo<+=O4O4*5=*4--o7$8",
"&q66&&5O4*O&=5***O:%XXe 8,899<+O#&&6&=#5=O-111;4OO*58   8<o<<$84+45>X=&6>+oo1<oo<o1<+#*O=#OOO1;o7$,o",
"6==5#=&O*O#&=#OO+5*#=#;, 9  <;O===55*5:%>X:;111;*5O#,9988$o<<7<*.***#X&=q6#+11o11-11+**4O*55=-4;187X",
"6&&q&6&O*O4*&&5*5O;%@6o98 ,+OOO4++1-w%%w:Xq3%.--1o*:o1+-e$eo<.11$;%:*&q6&##55-1-+11O5*O4+4O#655#1o#6",
"#&q2q&=O5OO44==*O5:*5>#7<e4#O*OO5#+15%.ww:%>>@66>1:.e;%5%%..w:<8+1.7  8+5X#:+$*4wO5*4*411+.5==**4-$1"
};
