/* XPM */
static char *magick[] = {
/* columns rows colors chars-per-pixel */
"100 100 33 1",
"  c Gray68",
". c #aeaeae",
"X c #b2b2b2",
"o c Gray70",
"O c #b4b4b4",
"+ c Gray71",
"@ c #b6b6b6",
"# c #b7b7b7",
"$ c Gray72",
"% c #b9b9b9",
"& c Gray73",
"* c #bbbbbb",
"= c #bcbcbc",
"- c Gray74",
"; c #bebebe",
": c Gray75",
"> c #c0c0c0",
", c #c1c1c1",
"< c Gray76",
"1 c #c3c3c3",
"2 c Gray77",
"3 c #c5c5c5",
"4 c #c6c6c6",
"5 c Gray78",
"6 c #c8c8c8",
"7 c Gray79",
"8 c #cacaca",
"9 c #cbcbcb",
"0 c Gray80",
"q c #cdcdcd",
"w c #cecece",
"e c Gray81",
"r c #d0d0d0",
/* pixels */
"<222<<<;;&&&;;;<<272;&;2;;<<;;;<&;;<<;&&;#;<&&<<2<;;<222;2w7<<22&&;&<2<;;<<2<;;;;;<<2277<<227www<22<",
"<222<<<<;;;;;<<<;<<;&&;;;;<;;;;;<<<2<<;;<&;<&&;;2<;;<<<;<7w2;<<2&;;;;<<&<277222222222222<<<22222;;;;",
";;<<;;;;&;;<<<22;;;<<<;;<<;;;;;<222<<<<<<&;<&&;;<<;<22<;7w7<;<<<;;;;;<;&;;<<;;;<222<<<<<;;<<<<<<;;<<",
"&;;;;;&;;;<<<<<<;;;<22<;;<;;;<<2<<<;;;;;;&;<;;<;;;<27772ww72<2<;;<<;;<<;#######&;;;;;<<<;;;;<<<<&;<<",
";<<<<<<<;;<<<<;;;;&;<2;;;;;<<227;;&&&&&&;#;<;;<<;;<277727772272;;<<;;<2<;;;;&&&;&&;;;<<<;;;<<<<<&;;;",
";<<<<;<<<<<;;;;&<<;<<2<;;;;<2222;;&&&&;;;#&<<<<;<;;<22<;2272272;;<<;;<222222<<<<<;<<<<<<;;;<<222<<<<",
";;<<;&;;<<;;;;;;22<<<<<<;;;<22<<;;&;;;;;<&;2<<<&<<;<<2<;<22<<<<;;<<;;;<<;;<<<<<<<<<<<<;;;<<<<<<<22<<",
"<<<<<;;;<;;;;;;<<<<;&&&;;;;<<<;&&&;;;;;;2&;2<;;&<;;<222<<2<;&&;;;<<;&&;;##;;;;;;;;;;;;;;<<<<<<<<2<;;",
"<<<<;;;<;;<<<;<<<<;<<2<;&;<<<<;;&&;;;;;;#&&&;<<<2;;27227<<<;<<<<&;<<;;;;&#&;<<;&;;;;;;&;;;<<<<<;&&;;",
"<<<<;;;<<<<<;;<<;;;<<<<;;;<<<<;;&&;;;;;;#;;;;<;&2<<22<<2<<;<<<<<;;<;;;;;;;<<2<<;<<<<<<<;<<2222<<22<<",
"<<<;;;;;22<<;;;<;;;<;;;<<<<;;;;;&&;;;;;;<22222<&<;;;<;&;<;<<<<<<;;<;;;;;2222<<<<<<<<<<<<22222<<<22<<",
";<;;;;;;2<<;&;;<&;<<;;;<<<;&&&&;;;;;<<<<<722<2<;<<;;;;;;;<<<<<<<;;;;;;;<<22<;&;;;;;;;;<<<<<<<<;;2<;;",
";;;;;<<<<;;&;;;<;<2<<;<<;;&&##&&;;;<<<<<;<;&&;;;22<<222<;<<<<<<<<;;;;;;<<<<;&#&;;;;;;;<<<<;;;;;;2<;;",
"<;;;<<<<;;&;;;<<<<2<<;;;;&&&&&&;;;;<;<;;;;&#&;<<;<<;<2<;;<<<<<<<<<;;;<<;<<;;&&&;<<<<<<<2<<<<;;;<;;;;",
"2<<<<<<<<;;;<<<<2<<<<<;&&&&&&;;;;;;;;;;;;<<;;<2<;;;&;<<&;;<<<<<<2<;;;<<<<;&&;;<<2<<<;<<2<<<<<<<<<<<<",
"72<<<<;;<<<<22<<2<;;<;&#&&&;;;<<;;;;;;;&&;;;;<<;<2<;<22;;;<<2<<;2<;;;<<<<;&&;<<<2<<;;;<<<<;;;;<<7777",
"7;;&&<2;;;;<<<<<<;;;;;&#;;;&&;<2;;;;;<<<&;<<<;;;;;;;;;;<;<<<<<;;<<;<<222&&&;<22<<;;;<<<<&;<<<<222722",
";&;<<22&<;<<<;;;<;&&&;;<&;;;;;<2;;<<<<<<&;<<<;;<;;;<<<<222222<<<2<;;<<;;;&;;<<<;<;;;;<<;;;<2<<<2<<;<",
"&#;<;22#<<<<<;;;<;&&;<<2&;<<<<;<&;22<<<<;;<<<;;<<<<<2222227222<<<<;;;;;&;;;;<<;;<;;;;<<<<<272<<<;;;;",
";&;&#;2&<<<<<;;;;;;<2<<;;;;;;;;;;<22;;;<;;<<;<<<;;<<2222<<222<<<&;;&;<<;;;;;;;;;<;;;<<<<<2772<<<<<<<",
"<<<;&;2;;;<<<<<;;;<<<<&#;;;;;;;;<<2<&&;<<<;;<<<<<<<22722;;<<2<<<;;;&;<<;;;;;;;<<<<;;<<<<22772<;;<<<<",
"<<77;<2;;;;<<<<<2<;;&&&&&&&&;<2222<;&&;<<<;;<<<<2<227722;<<<2<<<<2<&;<<&;;;;;;<<<<<<<<<<2222<;;;;;;;",
";<22&;<;;;<<<<<<;;&&&&&&&&;<<22<<<<;;;<<<<;;<<<<2222772<<<<<<<<;;2<&&<<&;;;;;;<<2<<<2222<<<<;;;<;;;;",
";;;&.#<<<<<<<;;;o#&;;;&o<<<222<;<<;;<<<<2<;;<<<<22<2772;<<<<<;;&&<;&&22;;<<;;;;<2<<<2222<<<;&;;<<<<<",
"<2<;;;<2;;<<<;&&.#<<;&;;222<22<<<;;;<<<<7<;<<;<27<<272<<<<<;&&&;;;<;;<2<<<<<<<<<;<<<<;&&&;;;;;;;;<<<",
"22<;;;<2;;;;;&&##;22<;<722<<<<<;<<;;<<<;<;;;;&;27<<22<<<;;<;;&;;&;&&&;<;;;;<<<<2;;<<<<<;<<222222;<<<",
"22<;&;<2<<;;;&&&&;;;##;<<<;<<<<<<;;;<<;;<<<<<<2w72<22<;;;;<<;;;;;<<;;<<;&;;<<<<<;;<<<<<<<<<22<<<;<<2",
"72;&&;<<<<;;;;;;;;;&#o#&;&;;<222;;;;;;;;;<22<<7w2<<2<<<;;;<<<<;;;<<<<2<<;;<<<<<<2222<<;;;<<<<;;;;<22",
"2<;&&&;<;;;&;;<<<222<<<<;;;;<<<<&&&&&;;<&;<;;;27;<<<<<<<<<<2<<;&&;;;;;;&;;;<22<2222<<<<;22222<;;;<27",
"<;;&&;;;&&&&&&;;&&;<22<<2<<<<;;&#&;;;;<<;<<<;<22;<<<<<<<<<<<<;;&#&&&&;;&&;<22722<<<<<<<<22222<<;;<27",
"<;;;;<<<&;&&&&;;###&<<;&22<<<;;&&;<<;<<2<22<<222&<2<;<<<<;;&;;&&&;;;;<<&<<22722<<<<<<<<<;;<<<<<;<277",
"<;;<<2<<<<<<;;;;<;;<<2<;2<<<<<;;;<2<<<<2222<<22;;<2<;;<;;&#&&&&&#;;;;<<;77772<;;22<<<;;;&&;<<<<<2277",
"<;;<;;;&&&;;;&&;;;;<22<;<;<<<<22;;<<<<<<;&;;<22<<;;<272<###&;;;;;<22<<<<<<<<<2<<<<<<<;;;;;<<<<<<2<;&",
"<<<;&&##&;;;&&&;;;;<2<;&<<<<;;;;;;<<<<<<<<;<22<<;;<22<;;&&&;<<<;;<<2<<<<<<<<<<<<<<<<<<<<;<<<<<<<<;&&",
"22<;&&##&&;;&&;;;;;<22<;2222<<<<;<22<<<<2<<<<<<;&;<2<;&&;;;;<<;;;<222222<<<<<<<<<<<<<<<<<<;;<<<2;;;;",
"<<;&####&&&&&&;;;;<27w7277222<<<2272<<<2<<<<<;;;;<22;&&&;;;;;;;&;<222227<2222<<<<<<<<<<<<<;;;<22;;;;",
"&##o###&&&&&&;;<<<27ww77<<<<<<<<772;&;<2;<<<<;;;222<;&;<<<;;<;;&;;<<2222<2772<<<<<<;;;<<<<;;<<22;;;;",
"&&#&&&;;&&;;;;<2222722<<<<<<<<<<72;##&;<<<<2<<<<722;;;<<2<<<<<<;<<227722<2772<<<;;;<<<<<<<;;<22<;;&&",
";;;;;;;;&;;;;<2722272<;;2<2222222;&&;<<<<<22<<<<72<<<<<<22<<2<<;7277ww72;2772<;<<;<<<<<<<;;;<2<<;;&&",
"&&&&###o;;;;;<2722222<;;<<<<;;;;<;&;<72<;<<<;;;;2<<<<2<<<<<<<<<;2<<2222<;<22<;;;<<<<<<<<<;;<22<;<;&&",
"####&&;;&;<<<<<2<<<2<<<<<<<22<;&<<;<2722<2222<<<2<<<<<22<;;<<;;;227772<<<<22<;<<;;<<<;;<<<<<;;;&#&;;",
"&&&&&&&;;<<27wwr<<22<<;;2<<<<<;&;;<<22<<;<22<<<<22<<<<<<;;<222<2<2772<<<<<22<<<<;<<<<;;<;<<<<;;&&;;;",
"&&&&&&&&;<227www2222<;;&2<<<<;;&;;<22<;&;;<2<<<<22222<<<;;<77222<2772<<;<<2<<<;<;<<<<;;;<;<;;;;&;;;;",
"###&&&&;<<2277722222<<;;<<<;;;;&<<222<&#;<<<<<<;22722<<<<<<22<;;<2772<;;<<<<<<<<;<<<<;<<<<<;;;;&;;;&",
"&&&&;;<<w777ww722222<<22<<<;;;;;2222<;;&<2222<<<;<222<<<2<222;&&<2772<;;<<<<<;;<;<<<;;<<<;;;;;;;;&&#",
"&;;<<227w777ww77<<<<<222<<<;;;;<222<;;;;22722<<<;<22<<<<2<<22<;<2722<;;;;<<<<;;<;<<<;;<<<<;;&;&;&&&&",
";;<<<27772227772<<<<<<22;<<<;;<2222<;;;<<2272222;<22<<<22<<222<2722<;;;<;<<<<;;<<<<;;;<<<<;;&&&;&&&&",
";;;<<<227722772<<;;;;<<2;;<<<<<2;<<<;;;;;<222227<777<;<22<<<<<<222<;&&;;;<<<<;;;;<<;;;<<<;;&&&&;&&&&",
"&;2<2777227w7727;<<2<<<2;;;;;;;;<<;;;<<<;277222<;;;;;;;<<;;;<222<<<;;;;<;;<<<;<<&;<<;;<<<;&&&&&&&&;;",
";<222www22772<<<;<<<<<;;&&&&&&&&&&;;;<<<<2w7722<<<22<<;;<<;<<2<<;;;;;;;<<<<;<;<;;<<<<;;;;&&#&;;;&&;;",
";<7227w72772<;;;;;;;<<;&&;;;;;;;;;;;<<<<<77722<;;<222222<<<<<<<<;;;;;;<<<<<<<;;;&;<<<<<<&&&&&;<;&;;;",
"&<2227722772;;&&;&&;22<;<<<<<<<<<<22<<<<<27222<;;<277722<;;;<<<;<<;<<<<<<<;<<<<;;;<;;;;;&&&&;<<<;;;;",
";<<<222<<22<;;;&<;;<272<<<<<<22222222<<<<<2<222;2777<;&#&&&;<<<;2<<<<<<;<<;<<<<<22<;&&&&;&&;;<;;;;;<",
"<<22772<<77<<22<22<272<;;;;;;;;;;;<<<<<<<<2<272<<22<;&##&&&;<<;;<<;;<<;&<;;<<22<<;&&;;<;;;;;;<;;;<<<",
"<2777w2<<77<<22<2222<<;;;;;;;;;;;;<<<<<<<<<<<2<;&&;;;;;;;;;<<<<;<;;<<<;&2<;<22<<##&;2222;;&;<<<;<<<<",
"<277772;;22&&;;&;<<<<;;;2<<<<<<<<<222<;;;;;&;;;#&&;&&&&;;<<<22<;<;;<222;2<;<22<;;;<<22<;&;;;<<<<<<<<",
"<<;<<22222<;;&&&#;;;&;;#&;;<<<<<;;<;;;<2<<<<;&&#&;<2<;;;;;<<2<<;222222<&<<<<<;;;&;<<;&;;;;&;<2<<;;;;",
"&;<22<;;;;;;;<<<&;<;;<;&&;;<<;<;;;<<227772222<<<2222<&&&<<<<<<;;<<<222;&;;;<<;;;<<<<&&&;###&;;;&&&&&",
"&<222<;;;;;<<<<2;<<;;<<;;<<;<;;;&;<22277<<<<<<<<222<;;;;<<<<<;;;<<<<2<;&;;;<<<<<<<;;&;;;#&&;<<;;;;;;",
"<<2<;;<2<<<<<<<<;<<;;<;;<<<<;;;&;<22<<;;&&&&&;;<<<;;;<<2;<<<;;<<<<<<<<;&<<<<<<;<;&&&;;<;&&;<<<<;<<<<",
";<<;&&;2<<<<<<;;<;;;;;;<<<<;;;;&;<2<<;&&;&;;<<222<;;;;;;;<<<;;<<<<<<<<;;<<<<;;;&##&&;;;&#&&;;;;&;;;;",
";<222<<<;<<<<<<;<;;;;;;<<<<;;;;;;<<<<;;;<<<22222;;;;;<<<<<2<;&;;;<<<<;;;<<;;;&&##&;;;;&#&&;;;&;;;;;;",
"<<272222;;;<<<;;2<;;;;<2<<;;;;;;;<<<<<<<<<222<<;&&&<222<;<2<;&;;;;<;;;;;;;;;;&&&&;<<;&&&<<<<;;<<<<<<",
"<;&&&;<<;<<<<;;&7<;<<;<2<;;;;;<<<<<<;;;<<<272<;&<<<222;&#;<<<;;<&;;;;&;;<<<<<;;;&;<<;&;<722<;;<2;;;;",
"&;;;;;;;<<<<<;<<<<<;<22<&&;;<<;;;<<<;;;<22<<<<<<<<<<;;;;#<222772<22<;;<72<;;&&&;;;<2<<<<2<<;;;;;;;;<",
"<<222722<<<<<;;<<<;&;<;&;;;;<<<<&;<<;;<2<<<<;<<<;;;<<<<<&<2<<<<;;<22<<<2;;;;;;;;&;<<<;;;;<<<;;<<;<<<",
";<<22222<<<<<;<<;<;&&;;&;;<<<<<<&;<<<<27<<<<<<<<;;;<<<<<&<<;;;&#;;22<;;<&&&;;;;;&;<<;;;&&;<<;&;2<<<<",
"&;;;<<<<<<<<<;<<;<;;;<<<;;<<;<<;;;<<<<27;<<2222<<<<<;;;;&;;;;;;&;<<<;&&&#&;;;<;;&;;<;;;;;<2<&&;<;;;<",
"<<2222<<<<<<<<<<;<;;;22<;;;;;;;;<<<<<<<2<<<222<<<<<<;;;;&;<;;<<;;;;&&&&&&;;<<<;;&&<<<;;;;<2<&&;<;;;<",
"77772222<<<<<<<;<<;;;<;&;;;;;;;<<<<<<<<<;;<<<<;<;;;<<<<<<2<<<2<;;&&&&;;<;;<<<<;;&;<<<<;<&;<<;;<2;<<2",
"2222222<<<;<<<<;<<;&&;;&;;;;;;<<<<;<<<;<<;;;;;;;;;;<<<<<<2<<<2<;;;;;;;;;;<<<;;;;;;<<<;;;;;<<<<22<222",
"<<2222222<;<<<<;;;;&;<<;;;;;;<<2<;;;<<<<<<<;;;<<<<<<;;;;<<;;<2<;222<<;&#;;;;;;;;<<2<<&&&<<<<<<<22222",
"<<22222<<;<<22<;;;;;;<22<<<22<<2;;;;<<<<&<<;<;;2;<2<;<<<;;<<<;;&;;;<<;;&<;###&&&;<<;&&;<22<<<<;;;<22",
"<22222<<<<<<<<<<&;;;;;<<<;<22222<<<<;<;;;2<;<;&;;22<;<<;;<<<<;;&&&;;;&&#;&#&;<<<<<<;;;;<<<<<<<<<;<22",
"22722<;;<<<<;;;;&;<<;;;;<&&<222<<<<<<<;;<22<2<;<<22<;<<;;<<<<;;&&&&&&&&#;;&;<222<<<<;;<2<<<<<<<<<<<<",
"2222<<;;<<<<;&;;&;<<;;;<<&&;<<;;;;<22<<2<72272<2<22<;;<;<<<<<;;;;;;;;;&&<;<<<<<;<<<<<<<<22<<;;;;<<<<",
"22<<<<<;<22<;&;<&;;&&&<22;&;2<;;<;<72<<2<72272;;<22<;;<;<;<<;;;;;;;;;;;;<<<<<;;&<<<<<<<<<<<;;&;;222<",
"<<<<<<<;<<<<;;&;&&#o#;<22<<22<;;2<272;;<27<;<;##<22;;;<<;;;;;;;;&&&&;;;;;;;;;<;;;;;;<<;;;;;;;;<222<<",
"22<<;;;;;;;;;;&#;###;<<<2<<22<<<2<2w7;&<22;;<;#&<22;;<<<;;;;&&&&&&#&&;;<<;;;<<<<;;;;<<<;;;<;;<2w2<<;",
"222<;;&&&&&&;;&o<;#&222<;;;<<;;<<<2w7;;2<2;;22;<<2<;;;<<;;&&&&&&&&&&;;<<2<<<<<<<<;;;<<<;<<2<;<2w2<;;",
"<<<<<;;&o;;&<;#o&#&<2222;<22<<<2&<ww2<;;;;;<22<<277<<<;;#&;&&;;&#&;&&&;<<<<;;;;<&&;;;;;&&<<;;<22<;;;",
"&;;;;;;;<72;<<&&2<<272<<w77222772772;###;;<<22<;#&;;&;<;&<<;&&&&&;;;;<27;;;;;;<<<<<<<2<<;<<;;277<<<<",
"&;<<;;;<&<;&<<;<<<<77722r7<<<22<;<<;&#&;<;<<2<<;&;<<;;;&;<<&#&&##&;;;<22<<<<<22272<22222<<;;;272;;;;",
";<2<;&;;o;&#;;;<;;<2772772<;;<<;&;;;&;<2<<<<<<;;<222<;;&&&&#o#&#&&;;<<222222222272<<<222<;;;<<<;;;;<",
"<22<;;;<&2<;;;&&;;<22;;;2222<<<2<222<;<<<<<<<<<;#;<;&;;&o#&##&;;<<222222<<<;;;;;<<;;;<<<;&;<2<;&2222",
"<<<<<<22&2<;<;;<&&;2<;<<27772<<2<2272<<<2<<<<<<;&;;&###oo&&&&;<<222277222<<<;;;;;;;;;<;;&&;272222222",
"2<;;<2<<o;;#;<<7&;<27227222<<;<<;;<<<<<<<<<<<<<;<2<&#####;;;;<<<<<<2772<22<<<<<<;;;;<2<<;;<22<<7<<;&",
"7<;;<2<;;2<&&;<w77ww72<2r7<;<<<;;;;;&&;;<<;;<<<<&;;##&&&&;<;;;;;2227ww77<<<;;;;<;;<<22222<<<;&;22<;&",
"2<<<<<<;<<<<2222;<272<22772<<<<;;;<<<<<<<<<<<<<<#&##oo&;&&<<<;;;#&<22222&;<<<;;<<<<<<<<2&<<;;<22<<;;",
"2<<<<<<;;;;<<<<<;<22<<22722<<;;;;<<<<<<<<<<<<<;;&&&###&;;;;;;&;;<<222<<<;<<<<<<<<<<;;<<<&<<;;<<<<<<<",
"2<<<<<<;;;;;;<<<<222<<2722<<;;;;<<;<<<<<<<<<;;;;;;&&&&;;<;;&&;;<27772<;;<<<<<<;;;;;<<<;;;<<;&<<<22<<",
"2<<<<<<<;;;<<<<<2222<<2722<<;;;;;;;<<<<<<<<<;;;&&;&&&&;;;;;;;<2727772<<<2<<<22<;;<<<<<<;;<<;;<<<2<<<",
"<2<<<<;<<;<<<<<<772<<<22<<<;;;;&;;;<<222<;;;;;&&&&&&&&;;&&;<27ww22772<<<<<<<22<;<<<<<<<<<<<;<22<22<<",
"<22<<<<<;<<;<<<<772<<<<2<;<;;;;&;;<22222;;;;;&&&&&#&&&&&&&;2wwww22722<<<<<<<2<<;<<<<<<<<<<<<<22<222<",
"<22<<;;<;<<<<<<<722<<<<<;<<<<;;&;<27772<;;;;;&&&&&#&&;&&<<<7ww772772<<<<<<<<<;;;<<<<<<<<<<<;<22<222<",
"<222<;<<<<<<<<<<722<<<<;;<<<<;;&<27772<;&&&&;&&&;&&&;;;&2222772<22222<22<<22;;&;<<;;;;<<;<;;<22<<<<<",
"222<;;<22<<<<<22<;;<<;;<<<;;;<<<2<<22<;<;;;<<;&;&&&;<<22727ww727272<2<;7<<2<<;<<;;;;<<<;;&;<22222272",
"222<;;<2<<<<<<22<;;<;;;<<<<;;<;<2<<2<;;<;&;<;&&&;&&;<<2<727ww727<72<2<;2<<<<;;;<;;;;<<<;<;;<22272222",
"22<<;;<<<<<;<<<2<;;;<;;<<;<;;<<<<;;<<;;;;&;;;##&;;&;<<2<22277222<2<;<<;2;<<;;;;;;;;;;<<;2<<277222222",
"22<;;;<<<<;;;<<<<;;<<;;<<<<;;<;<<;;<;;;;;&;;&oo#;;&;<<2<2<277222<2;;<;;2;;;;;;;;;;&;<<<<2<<27722<<2<"
};
