/* XPM */
static char *magick[] = {
/* columns rows colors chars-per-pixel */
"128 128 10 1",
"  c Gray0",
". c #cece4242b5b5",
"X c #dede4a4abdbd",
"o c #5a5a21217373",
"O c #7b7b29298484",
"+ c #6b6b21217b7b",
"@ c #adad39399c9c",
"# c #a5a531318c8c",
"$ c #8c8c31319494",
"% c #bdbd3939adad",
/* pixels */
"%@         OOO $@@         %%% @@@ @@@     %.. ...             $@% ..@ #@. X..                         .%% %%@                 .",
".@@@%X %@$$OOO #@@ %%%.... %%% @@@ @@@@@@%%%%% ........%@@$OOO $@% X.@#@%. .........X. .%% %%%%...X......% %%@ @@@@@@@@@@@@%%% .",
"..%@@. %@$$OOO $@% %...... %%% @@@ @@@@@@@%%%% ......%%@@$$OOO @%. .%@@@.. .........XX .%% %%%....X......% %%@ @@@$$$###$@@@@% .",
"...@@% .%$$OOO @@% ....... .%% %@@ @@@@@@@@%%% %%%%%%%@@#OOOO$ %%. %@@@%.X .........XX ... %%.....X......% %@@ @@$#$$$$$$$#$@@ %",
"   @#@ .%@     @%% ... ... ..% %%@         @%%             O$# %..             ... ..X ... ...     ...         @$#     $$$ $$@  ",
"%. @#@ .%@ OOO#@%% ... X.. ... %%%%@@@ @@@@@%% %%%%@@@ $OOOO$@@%.. @@@%.X..... ... ... XXX XXX.... .....%%%%@@@@$# $$$ $$$ $#@ %",
".. @#@ .%$ OOO$@%. ..X .XX ... .%%%%%% @@@%%%% %%%%@@$ OOOO$#@%%.. @#@@....... ... ... ... ....... ....%%%%%@@@@$# $$$ $$$ $$@ %",
".. @#@ .%# OO$@%%. .X. ... X.. ..%%%%% %%%%%%% %%@@@$$ OOOO$$@%%.. @#@%....... ... ... ... ....%.% %%%%%%%%%@@@@$# $$$ $$$ $$@ %",
".. @#@ .@$     %%. X.. ... .XX ... %%% %%%     %%@ @#$ OOO         @@@     ...     ... .%%     %%%                 #$$ $$$ $@@ %",
".. @@% %@$OOO$ %.....% %%%%... X.. ...%%%% %%%%%@@ $$$ OOO $@@%... %@#@%.X ..........% %%%@@@@ @@@@@@@@@%% @@@@@@@$$$# #$$ @@@%%",
".. @@. %@$OOO$ %..X..% @@@@@%% ..X ....... .%%%%%@ $$$ OOO $@@%%.. .@##@%. .X......%%% %@@@@@$ $$$@@@@@@@@ @@@@@@@@@@@ @@@ @%%%.",
"X% @%X %@$OO$# %..X..@ @@@@@@@ @%. .X..... ...%%%@ #$O OOO $@@%%.. .%@##@@ ..X.....%%% @@$#$$$ $$$$$#$@@@@ @@@@@@@@@@@ @@% %%%..",
"   @.. %@$ O$#     .%@         @@@         ...     #$O OOO     %.. X.% @##             @#$ $$O         $@@     %%%     %%%      ",
"@# %X. @$O O$#@%.. ..@ @###### ### @@@ ...X... %%@ #$O OOO$$$@ %%. .X. @@@@#@@.... %%@ #$$ OOOOOOOOOO$ $#@@@@% %%%%%.. ......X.@",
"#@ ... @#O O$#@%%. ..% @###### ### #@@ @%..X.. %%@ #$O OOO$$#@ %%. ... ...%@#@@%.. %%@ $$O OOOOOOOOOOO $$$@@%% %...... ..XX...@#",
"@% ..% @$O O$#@%%. X.% @#####@ @## @@@ @@@..X. %%@ $$O OOO$$#@ %%% ... ..X.%@@@@.. %%@ $$O OO++++++OOO $$#@@%% .....XX ...%@@@@#",
".X .%%         @%. .X. @@# ##@ @@@ @@@ #@@     %%@ $$O     $$@ @%% %%.         @%. .%@ $$O O++             @%%     ...         %",
".. %%@$$$O O$$$@%% ... %@@ ##@ @@@ @@@ ##@ ....%%@@$$O OOO$$#@ @@% %%% %%%....@#@% .%@ $$O +++ ooo+++OOO$$ @%% ....%@@@@@@ @@@ .",
".. %@@#$OO OO$#@@% ... ..@ ### @@@ @@@ ### %...%%@@$$O OOO$$#@ @@@ @@@ @%%%%...@#@ .%% $$O O++ oooo+++OO$$ @%% ...%@@##@@@ ... .",
"%% @@#$$OO OO$$#@@ %.. ... @@# @@@ %%% @## %...%%@@$$O OOO$$#$ @@@ @@@ @@@%%..X@#@ ..% #$O O++ ooooo++OO$$ @%. X.%@@#@@@%. X.. .",
"%@     $OO OOO     %%% ..X     #@@ @@@ @##         $$O OOO     @@@     $@@         ..% @$O O++ ooo o++     @%. X.@     ..X ... %",
"@@@#$$$OOO OOOO$$# @@% ....X.@@##@@@@@ ###@%...%%@ $$OOOO$ $##$$$##$$$ $#$ @%%.X%@@%.. @#$ O++oooo o++OO$$ @%..X.@ #@% X....%% @",
"@$#$$$$OOO OOOOO$$ #@@ %%...X.%@@##@@@ ##@@....%%@ $$OOOO$ $#####$$$$$ $$# @%%...@#@X. @@$ OO++ooo +++OO$# @%..X.@ #@. ....%%% @",
"#$$$$$OOOO OOOOOOO $$# @@%%..X.%@@#### ##@@%....%@ $$OOOO$ $$$$$$$$$$O $$$ @@%%.X@#@.. %@# OO++++o ++OOO$# %%..X.@ @@. ...%%%@ $",
"               OOO O$$             ###         .%@ $$O             OOO $$$         @%. %@@             O$$         @@.     %@@  ",
"$$$$OOOOOOOOOOOOOO OOOO$$$@%%. X.%@@## #@@@%.X..%@ $$O OOO$$$$ $$$ OOO $$$ $@@%... @@..%%@ $OOO+++++OO $$$ %%....% #@%...%%@@$ $",
"$$$OOOOOOOOOOOOOOO OOOOO$$$@%% .X.%@@@ @@@@%.X..%% #$O OOOO$$$ $$O OOO $$$ @@%%... @@...%@ $$OOOOOOOOO $$$ @%%..X. @@@...%%@@$ $",
"$$OOOOOOOOOOOOOOOO OOOOOO$$$@% ..X..%@ @@@@%....%% $$O OOOOOOO OOO O$$ $$$ @@%%... @@%..%@ #$OOOOOOOOO $#@ @%%.... @#@.X..%@@$ $",
"$$ OOO                     #@@         @@@             OOO OOO OOO $$$ $#$ @%% ... @@.     @#$ OOO O$$ $$@ @%% ... @@@         $",
"$$ OOO OOOOOOO OOOOOOOOOOO $#@%%.....% @@@@@%. ..%%@@#$OOO OOOOOOO $$$ #$@@@%% .X% @@...%% @$$ $$$ $$$ #$@@@@% %..X%@@ ....%@@$$",
"$$ OOO OOOOOOO OOOOOOOOOOO $#@@%.....% @@@@@@% X..%%@@$$$$ OOOOOOO $$$ @@@%%%. X.@ @%....% @@@ ##$ $## $$@@@@@ %....%@ @...%%@@#",
"$$ OOO OOOOOOO OOOOOOOOOOO $$@@%%..X.% @###@@@ ....%%@@$#$ OOOOOOO $$# @@%%%.. .@# @.X...% %@@ @@$ $$$ $@@@@@@ %%....@ @.X..%@@#",
"   OOO OOO OOO OOO     OOO         ..@     #@@ ...         $$O     $$$         @@@     ..% %%% @@@ @@@                          ",
"$$ OOOOOOO OOO OOO OOO OOO$$$@%%.. .%@#### ###@@%. ...%%%@ #$OOOOO $#@ @%%..X. #@@ .X. ... %%% %%% %@@@@@@@@@@@@%% ...@##@...%@@",
"$$ OOOO$$$ $OO OOO OOO O$$$$@@%%.. .%@###@ @###@@% .X...%% @#$OOOO $#@ %%..X.@ #@% X.. ... ..% %%% %%%%@@@@@@@@@%% ..X.@#@.X.%%@",
"$O OOO$$$$ $$$ $$O O$$ $$#@@@%%... %@###@@ @@##### @%.X..% @@$$OOO $#@ %..X.@@ @.. ... ... ... ... .%%%%@@@@@@@@%% ....@##@...%@",
"#O         ### ### #$$ @@@             @@@ @@@     @@% X..     OOO $#@ %.. @@@ ... ... ...     ...             @%% %..         @",
"#OOOO$ $@@@@@@ @@@@@@@ @%%%%.. ..%@@##@@@@ %%% @@@ @@@ .X..%%@ $OO O$@%%.X @#@.X.. ... .......XXX. ....%%% @@@@@%% %.. X.@#@X.%@",
"$OOO$$ @@@@%%% %%%%%%% ....... .%@@##@@@@% %%. .%% @@# @.X..%@ $$O O$@%%.. @@@.... ... ....XX..... XX....% %%%%%%% %%. X.@#@X.%@",
"$OOO$$ @@%%%%. ....... .XX...% @@@@@@@@%%% ... ... %@# @%.X..% $$O O$$%... @@%X... ... ..XX..%%@@@ ...X... %%%%%%% %%. ..@#@X.%@",
"   O$# @%%         ...     @@@ ##@         ... ... %@@     ... @#O                 ...             @@% .X. ..%     %%. ..@      ",
"$O O$#@%%. .X.%@@@ @@@@@@@ @@@ @@@ %.............. .%@@#@@ ... @@$OO$#@%.. @@%X........X.. @#####@@@@@ %.. ... %%%%%%. ..@ @..%@",
"$O O$#@%%. X.%@### @@@@@@@ %%. ... ............... .%@@##@ .X. %@$OOO$@%.. @@@.XX....X...@ ###@@@@@@## @@% X.. ..%%%.. X%@ %..%@",
"$O O$#@%%. .%@@#@@ %%..... XX. ... X.............. .%@@### %.. %@$$OO$@%.X @#@%..XXX...%@@ #@@@%%%%@@@ ##@ ..X ....... .@@ ..%@$",
"$O         %@@ %..         ... ...             ...     ### @.X         %.. @@@     ..% @@# @%.     ..%     @%. ...         ..% $",
"$OOO$#@%...@@@ .X. ....%%%%%%% %.. ..XX... ...%%%% @@@@### @....%@$OOO @%...@@ @@@@%@@ #@@@%.. XXXXX.. %@@@#@@ .X...X.%@@@...% $",
"$OOO$#@%...@#@ .X. .%%%%%@@@%% %%% ...XX.. .%%@@@@ @###### @....%@$OOO @%%...@ ##@@@@# #@%..XX .....XX ..%@##@ %.....@@@@%X..% $",
"$OOO$$@%...@#@ X.. %%%@@@@@@@@ @%% ....X.. %@@@@## ####### @%...%@$OOO #@%.... @@#@@## @%..X.. ....... X..%@## @@@@@@@@@%...%% #",
"               ... %%@         @@% %.. X..         ###             $OO         .%@             ...     .X.         ##@          ",
"$OOOO$@%%.X%@@%... %@@$$$$$$$$ #@@ %%. .X.%@@@###@@@@@ @@@@%.X..%@ $OOOO$@ %%..X.. %....X............. ..X..%@@@@@ @@%.X.. %%@@#",
"$OOOO$@@%...@@@%X. %@@#$$$$O$$ $$@ %%. .X.%@@##@@@@@@@ @@@%.....%@ $$OOO$$ @%%...X ...XX.............. ..XX....... .X....% %@@$$",
"$OOOO$$@%..X.@#@.. %@@$$$OOOOO $$# @%% ....@@##@@%%%%% %%%..X..%%@ $$OOOO$ @@%%... ................... ...XXXX.XX. ....%%% @@@#$",
"                   %%@     OOO O$$ @@%                 %.. X..         OOO #@@                                 ...     %@@ @$#  ",
"OO OO$$$@%%...@@@. %%@#$OO OOOOO$$ $@% ....%@##@@%%%.....X ... %%@ $$$OOOO$$$@ %%%%................... ..........% %@@@@@$ #$$$$",
"OO OOO$$@@%%.X.@@% .%@$$$O OOOOOOO $@@ %..X.@###@@%%....X. ... %%@ $$$OOOOO$$$ @%%%%%...........XXXXXX XX......%%% @@$#$$$ $$$$O",
"OO OOO$$#@@%%..@#@ .%@$$$O OOOOOOO $#@ %....%@@##@@%...XX. ..% %%@ @#$$OOOOO$$ @@@%%%%%.......XXX..... XX.....%%%@ #$$$$$O OOOOO",
"       $$# @%. @@@     $$O         $$$                 .X. ... %%% @$$         #$@     %..     ... ... ..X     %@@ $$O OOO      ",
"OOOOOOOO$$ @%% .@@ X.%@#$$OOOO OOOOO$$@@%%..X. @@##@%..X.. ..% %%@ @$$ OOOOOO$ $#$ @@%%%.. .X. %%@ @@% ..X ..%%@@$ $OO OOOOOOO O",
"OOOOOOOOO$ $@% X%@ ..%%@#$OOOO OOOOO$$#@@%%..X .@@##@%.X.. ..% %%@ @$$ OOOOOOO $$$ @@@%%.. X.. @@@ @@@ %.. ..%%@$$ OOO OOOOOOO O",
"OOOOOOOOOO $@% ..@ %..%@$$$OOO OOOOOO$$#@@%%.. ..@@#@@.X.. ..% %%@ @$$ $OOOOOO O$$ #@@%%.. ..% @## @## @%. ..%%@#$ OOO OOOOOOO O",
"           $@% ..@             OOO         %%. ...         ..% %%@ @$$     OOO OO$ $$@     .%@     @@# #@% ..%     OOO OOO $$$  ",
"$O OOOOOOO$$@@ .X@#@...%@$$$OOOOOO OOO$$$$@@%% ... @##@%.. ... %%@ @$#$$$OOOOO OOO $$@ %..X.%@##@@ %@@ ##@ ..%%@#$ OOO O$$ $$$$$",
"$$ OOOOOOO$#@% .X@#@...%%@$$$OOOOO OOOO$$#$@@% ..X %@#@@.. ... %%% @@#$$$$$OOO OOO $#@ %..X.%@#@@% ..% ##@ X..%@$$ OOO O$$ $$$$$",
"$$ OOOOOO$$#@% .X@@@.X.%%@@$$OOOOO OOOOO$$#$@@ %.. .%@@@@. ... %%@ @@##$$$$$$O OOO $$@ %....%@#@%. ... @## ...%@$$ OOO $$$ $###$",
"$$ $$O                             OOO     #@@ %%. X.% @@@ X.. %%%     #$$     OOO O$$         @%. ... @@@         OOO         #",
"$$ $$$$$$#@@%%...@ #%...%% @#$$OOO OOOOOO$ $#@ @%% .X. @@@ .X..%%% @@@@$$# $$$$OOO O$#@%%. .%@ @%..XXX .@@@@X. %@# OOO O$$$##$##",
"#$ $$$#$@@@%%..X.@ @%....% @@#$$$O OOOOO$$ $#$ @%% ..X %@# @.X..%% @@@@@@@ $#$$$OO O$$@@%. .%@ @%..XXX .%@#@.. %@@ $OO O$$$##$$#",
"## #$$@@@%%%..X.@@ @%....% @@$#$$$ $$OOO$$ $$$ @@@ %.. .%@ @%....% %%@@@@@ @@#$$OO O$$$@%. X%@ @..X... ..@#@.X %%@ $OO O$$$$#$$$",
"               @@#     ..% %@@ ##$ $$$ $$$ $$$ $@@     X.@ @@.             @@$         @%. X.@             @%. .%@ $$O OO$      ",
"@@@@@% %.....@@#@@@%.X ..%%%%@ @$$ $$$ $$$ $$$ $$@@@%% .X.@##@ X....%%%%%% @@@#$$O OO$ @%% ..@#@%..XXXX..@ @@.X.%% #$O OOO$$$$#$",
"@@@%%% ....%@###@%..X. ...%%%% @@@ @$# $$$ $$$ $#$@@%% ....@#@ .X....%%%%% @@$#$$O OO$ @%% ..@##@.......%@ @@%...% @$$ OOOO$$$#$",
"@@%%.. .%@@@@@@@..X... ...%%%% %@@ @@@ $#$ $$$ $$$#@@% ....@## .......%%%% @@$#$$O OOO @@% ..@##@%......%@ @@@...% @$$ OOOOO$$#$",
"   ..X                         %%%     @$# $$$     $@@         %.X     %%%     $$O OOO @@%     #@@     .%@     X.. @@$     O$$  ",
"%% .X%@#@@%....... ..%%%......%%%%%%%@@@@$ $$$ $$$$#@@ %..X.@##@%. ...%%%%@@$# $OOOOO$ @@%...% #@@@%%% @@@##@@ X.. %@$$OOO O$$$@",
"%% X.@#@%.X....%%% %%%%%%%.........%%%%@@@ #$$ $$$$#$@ %....%@##%. ...%%%@@$#$ OOOOOO$ @%%...% ##@@@@@ @@##@@% X.. %@@$$OO OO$$@",
"%. .@#@@....%%%%%@ @%%%%%%..........%%%%@@ #$$ $$$$$$@ %%..X.@##@. ...%%%@@#$$ OOOOO$$ @%%...% @###### ###@@%. X.. %@@#$OO OO$$@",
"%.             @@@ @@@                     $#$ $$$     %%.         ...     $$O     $$$     ...         @@@     ...     $$O     @",
"%..@#@ ..%%%@@ $## $@@ %%%.... .......%%%@@$#$ $$$$$#$ @%% ..% @@.X..% @@# OOO OOO$$$@ %%. ...%%@@@@@@ @%%...X....%%@@ $$O OO$ %",
"...@@@ ..%%@@$ $$$ $$@ @%%.... XXX....%%%@@@$$ $$$$$#@ @%% ..% @@.X..% @#$ OOO O$$#@@% %.. X....%%%%%. ...XX.....%%%@@ #$O OO$ %",
".X.@@% .%%@@$$ $$$ $$$ @%%.... XXX....%%%@@@$# $$$$$#$ @%% .X% @@...%% $$O OOO $$$@@%% ... X.......... XX......%%%%%@@ #$O OO$ %",
"   @@.     @#$ $$$ $$$ @%% ..X         %%@         $#$ @%% ..@ @%.     $$O OO$ $@@     ..X         X..                 #$O OO$  ",
".. @@...%@@$$$ $$O $$$ @%% ...XXX..... %%@ @$#$$$$$$#$ @%% ..@#@.. %%@#$OOOO$$ @@% ... XX.....XX.. ... ...%%%%%%%@@@@@$#$O OO$@%",
"%. @@@X.%%@@#$ $$$ $#$ @%% ........... %%@ @$#$$$$$$$@ @%. X.@#@.. %@$$OOOO$$@ %%. ..X ......XX... ..% %%%%%%@@@@@@@@@$#$$ OO$$@",
"%. @#@...%@@$$ $$$ $#@ %%% ..........% %@@ $$#$$$$$$$@ %%. .%@@%X. @@$$OOO$$$@ %.. XX. .....X..... %%% @@@@@@@@@@@@@@@$#$$ OOO#@",
"%.     X..     $$$     %%.         .%% %@@ $$#     #@@ %%.                     ... ... %.. .X. ..% %%@ @@@                 OOO @",
"@%.X%@ %X. %@@@$$# @@@%%%. ....... %%% @@@ $#$ $$$$#@@ %..X@#@.X.%%@#O OO$#@@%...X ..%%%%. ... .%% @@@@$$# #####$$ @@@$$$$$OOO #",
"$@%.X@ @.X .%%@@@@ @%%%%.. .....%% %%@ @@@ ##$ $$$#$@@ %...@#@...%@@$O OO$$@%%..X. .%%%%%. X.. .%% @@$$#$$ $$$##$$ @@@@$#$$OOO $",
"$$@%.. #@% ..%%%%% %%%%... ...%%%% %@@ @@$ $$$ $$#$@@% ...%##@X..%@$$O O$$@@%...X. %%@%%.. X.. %%% @$$$$$$ $$$$$#$ @@@@@@$$$OO O",
"       %@@ .X.     ...     ..%     @@@ $$# $$$     @%%             #$O O$$                 ...                 #$@ @@@ @@@      ",
"OO$$@%.X%@ @@.X....... ....%%% %@@@@@$ #$$ $$$$$#@ @%% ..@ @%...%%@#$O O$$ @%...X......... ...%%%@@$#$$$$$$$$$ $@@@%%% %@@@@$$OO",
"OOO$$@%... @#@%...XX.. ....%%% @@@@$#$ $$$ $$$$#@@ %%. .%@ @....%@@#$O O$$ @%%...X......XX ...%%%@@$#$$$$$$$$# @@%%%%% %%%%@@#$O",
"OOOO$#@%.. @@@@@@@%..X ...%%%@ @@$#$$$ $$$ $$$#$@@ %.. @@# %X..%%@@$$O OO$ @%%.....XXXXX.. ..%%%@@@$#$$$$$$$#$ @%%%%.. ..%%%@@$$",
"                       ... %%@ $#$ $$$         @@% ... @#@ ...         OO$     ...     ...     %%@         $@@ %%%              ",
"@$ OOO #@%%..X.@@#@@%. ..% %@@ #$$ $$O OOO$$$# @%% ..@@#@% ...%%@@$$$OOOOO #@@%%%. ... .....%% %%@@@@$$$$$ @@% %.............%%@",
"@$ OOO $#@@%%..X.@@@@. ..% %@@ $$$ OOO OOO$$#@ %.. .@@@@.X ..%%%@@$$$OOOOO $#@@@%% ... .....%% %%%@@@@@@@@ %%% ...XX.....XX...%%",
"%@ $OO O$#@@%%..X.@#@% ..% @@$ $$O OOO OOO$$@@ %.X @@@@.X. .%%%@@$#$$OOOOO $$#@@@% %%% .....%% %%%%%%%%%%% ... .X...%%%%...X...%",
"%@ $$O OO$ @@%     @@@ ..% @@# $$O     OO$ $@% .X%         %%%             O$$     %%%     ... %%%     %.. ..X                 .",
"%@ #$OOOOO #@@ %.X @#@...% @@# $OOOOOOOO$$ @%% X%@@@%....%%%@@@@$#$$$$ OOOOOOO$$$@ @%%%%%. ... ....... ..X ..%@@@@@##@ @@@%... .",
"%@ #$OOOOO $$@ %.. @#@...% @@$ $OOOOOOOO$$ @%. .@@@.X..%%%%@@@@$##$$$$ OOOOOOO$$$$ @@%%%%. ... ....... ... @@@######## @@@%... .",
"%@ $$OOOOO $#@ %.. @#@...% @@$ OOOOOOOO$$$ %.. @@@.X..%%@@@@@$##$$$$$$ $OOOOOOO$$$ @@%%%.. ... .XX..%@ @@@ @@@@@###### #@@%.X. %",
"@@         $#@ %..         @@$             ...                     $$$ $$O     $$$     ... ..X         ##@         @@# #@% X.. %",
"@$$$OOOOOO $$@ %...@#@...% @@$ OOOOOO$ #@%%.X@@@.X..%%@@$##$$$$$$$ $$$ $$O OOO O$$ @@%%... X..@@@@ @@@@@@% ....... @@# @@. ... %",
"$$$OOOOOOO $@@ %...@#@.X.. @@# $OOOO$$ @%%.X.@@%X..%%@@$#$$$$$$$$$ $$$ $$O OOO O$# @%%...X .%@@##@ %%...XX .XXX... @@# @.. ..% @",
"$OOOOOOOO$ #@@ %...@@@%... @@# $$O$$$$ @%..%@#@...%%@$#$$$$$$$$$$$ $$$ $$O OOO $$$ @%...X. @@@@@@% .X..... .....X. @## ... %%@ #",
"       O$$ $@@ %..     ... %@@ $$$ $#@ %.. @#@         $$$     $$$ $$$ $OO OOO $#@ %.. X.@     .X. ...     ... .X. @#@     %@$  ",
"OOOOOO$$$$$@@% %..X%@@ %X. %@@$#$$ $@@ ..X @#@X..%@@$$ $$O OO$$$$$ $$$$$OO OOO #@@ %.. %@#@@%. ... %%% %%%%%.. .X. @@@...% @#$OO",
"OOO$$$$$#$@@@% ...X.@@ @.. %%@@@@$ @@% ... @@....%@@$# $$$ $$$$$$$ $$$$OOO OO$ @@% ... @##%.X. .%% @@@ @@@%%%. ..% @@...%@ $$OOO",
"O$$$$$#$$@@@@% %....%@ @.. .%%@@@@ @%% ..@ @%...%%@@$# $$$ $$$$$$$ $$$OOOO O$$ @%% ..@ #@@.... %@@ @@$ @@@@%%% ..@ @...%@$ OOOOO",
"               %.. X.@     ..%         X.@         @@$             $$O     $$@ %.. .%@         @@$ $$$     @%% ..@     @@$      ",
"$@@@@@@@@@ @%%%%.. ..@@#@% ... %%%.... .%# @.X..%%%@@@ ##$$$$$$$$$ $OO OOO$$$@ ..X @@# .X..%%@ #$$ $$$$$#$ @%% X.@ @..%@$O OOO$#",
"@@@@@@@@@@ @@%%%%. .X.@@#@ .X. ......X %@# @.....%%%@@ @@@@$$##$$$ $OO OO$$$@% .X. @@@ ...%%@@ $$$ OOO$$$# @%% .%@ ..%@$$O O$$#@",
"@@@@%%%@@@ @@@%%%% ....@## %.X ....X.. @@# @......%%%% @@@@@@@$#$$ $OO OO$$@%% X.@ @@. ..%@@@$ $OO OOOO$$$ @%% .%@ ..%@$OO O$#@@",
"       @@@             %@# @%. ... ..% @## @..         %%%         OOO O$# %%. .@@ %.. .%% @#$ OOO OOO O$$     .@@ X.%     O$#  ",
"@@@@%@ @@@@@@@@@@%%%.. .%@ #@@ @@% @@@@### %...X...... .%% %%@ @$$$OOO $#@ %.. @@@ ....%%@ #$$ OOO OOO O$$$@%% .@@ .%@ $OOOO$# @",
"@@@@@@ @@@@@@@@@@@%%.. X.% @## @@@ @@@###@ @%....XX... ... %%% @$$$OOO $@@ ... @@@ ...%%@@ $$$ OOO OOO O$$$@%. .@@ .%@ $OOOO$$ @",
"@@@@@@ @@$$###$@@@%%%. .X. @@@ ### ####@@@ @@%%%.....X X.. .%% @@$$OOO #@% .X@ #@. ..%%@@$ $$O OOO OOO O$$$@%. .@@ .%% $OOOOO$ $",
"## $$$             %%% ..X ..% @@@                 %%. .XX ..% @@$     @%% ..@ @%.         $$$ OOO         @%. .@@ X.% #$O     $",
"$$ $$$$$$$$$$$ #$@ @%% .....X. %%@ @@@@@@@@@@@@@@@@@@@ %.. ... @$$ OO$$@%. .%# @.X ..%%@@@ $$$$$OOOOOO$$$$ @%% .@@ ..% @$$ OOOOO",
"OO $$$$$$$$$$$ #$@ @%% %.....X ... ..%%%%%@@@@@@@@#@@@ @%. ... @$$ OO$@%.. %@@ %.. ..%%@@@ $#$$$$$$$$$$$$# @%% X%@ %.. @@# OOOOO",
"OO OOOOOOOOO$$ $#$ @@% %%%.... ..X ......%%@@@@####### @%. ... @#O O$$@%.X @#@ .X. .%%%%@@ @$#$$$$$$$$$$#$ @%% ..@ @.. %@@ $$OOO",
"           OOO $$# @@@     ... ... ..X             ### @@. ..% @$O         ##@ .X. ..% %%@             #$@ @%% ..% @@. .%% @$$  ",
"$$$OOOOOOO OOO $$# @@@%%%% %%. ... ... .X..%%@@### ###@@%. ..%@#$OOO$@%.X%@#@% X.....% %%%%%@@@@@@ @@$ @@@@@%% ... @@@ ...%%@@@#",
"@@@$#$$$OO OOO $$# @@@%%%% %%% ... ... ..X..%@@@## ###@@%. ..%@$OOO$@%...@##@. X...... .%%%%%%%%%@ @@@ @@@@%%% ... %@# @.X...%%%",
"%%%@@@#$$O OOO $$# @@@@%%% %%% %%% %.. ...X..%@@@@ #@@@@.. .%@$OOO$$%%..%@#@%. ....... .......%%%% %%@ @@@%%%% %.. X.@ @@@@.X...",
"       $$$ OOO $$$     %%%     %%%     ...     %@@         .%@         %@#                     ..% %%%         %%. ..X          ",
".. ..%@@#$ OOO $#$@@@% %%%%%%% %%% %%%%%.. .X. .%% %%%.....%@$OOO$ %.. @## %.X..........XXXXX..... .%%%%%%%%%%%%%% ....X.@@@@@@@",
"@% ...%@$$ OOO $#@@@%% %%%%%%% %%@ %%%%%%. ... ... ...X...%@$OOO$$ %.. @#@ ...........XX......XX.. ...%%%%%%%%%%%% %%%....X.%@@#",
"@# %..%%@$ OOO $$@@%%% %%%%%%% @@@ @@@%%%% ... .XX .XX...%@$$OOO#@ ... #@@ .X........X..........X. ....%%%%%%%@@@@ @%%%%%...X.%@"
};
