/* XPM */
static char *magick[] = {
/* columns rows colors chars-per-pixel */
"68 60 3 1",
"  c #808000008080",
". c Magenta",
"X c #555500005555",
/* pixels */
"XXXXXXXXXXXXXXXX  ..XXXXX...XXXXX.. ....XXXXXXX                 . XX",
"XXXX. XXXXXXXXXXX  .XXXXXXX.XXXXX.......XXXXXXXX  ................XX",
".XXX....XXXXXXXXX   XXXXXXXXXXXXX  XX XXXXXXXXXX  ................X.",
"XXXXXXX....... X  .. XXXXXXXXXXXX  XXXXXXXXXXXXX.  .XXXXXXXXXXXXXXXX",
"XXXXXXXXXX...XX ......                     XXXXX... XXXXXXXXXXXXXXXX",
"XXXXXXXXXXXXXXXX....XX            ...............XX. XXXXXXXXXXXXXXX",
"     XXX.. XXXXXX.XXXXXX         .............XXXXXXX.XXXX...XXX    ",
"         XX  XXX  XXXXXX         ...XXXXXXXXXXXXXXXXXX....XXXX      ",
"  ...    XXX       XXXX          .XXXXXXXXXXXXXXXXXXXXXXXXXXXXX     ",
"...........         X       ...  XXXXXXXXXXXXXXXXXXXXXXXXXXXXX......",
"....XXX......       .............XXXXXX .....  X ...   XXXXXX.......",
"XXXXXXXXXXXXX.................XXX.XXXX ........    XXX  .XXXXXXXXXXX",
"XXXXXXXXXXXXXXX.......XXXXXXXXXXX..     ..XXXXX    XXX  .XXXXXXXXXXX",
"XXXXXXXXXXXXXXXXXXXXXXXXXXXXXXXXXXXXX....XXXXXXXX...      XXXXXXXXXX",
"XXXXXXXXXXXXXXXXXXXXXXXXXXXXXXXXXXXXX.....XXXXXXX...      XXXXXXXXXX",
"XXXXXXXXX XXXXXXXXXXXXXXXXXXXXXXXXXXXXXXXXXX. XXX  XXX             X",
"            XXXX                 XXXXXXXXXXXXXX    XXX       ....   ",
"             ....                XXXXXX  XXXXXX                 ..  ",
"            ...............      ..........XXXX..   ...........XXXX ",
"X....        ..XXXX.........     ....XXXX.........................XX",
"XX...         XXXXXXXXXXXXXXX     .XXXXXXXXXXXXXXXX...XXXXXXXXXXXXXX",
"XXXXXXX     ...XXXXXXXXXXXXXXX    XXXXXXXXXXXXXXXXXXXXXXXXXXXXXXXXXX",
"XXXXXXX.    ...  .XXXXXXXXXXXX      XXXXXXXXXXXXXXXXXXXXXXXXXXXXXXXX",
"XXXXXXX..   ..XXX.....      ...          XXXXXXXXXXXXXXXXXXXXXXXXXXX",
"XXX.   .XX    XXX..XXXX      .                  XXXXXXXXXXX..XXXX  X",
"XXXXXX  XXX   XXX.XXXXXX      XXX   ..            XXXXXXXX..XXXXX  X",
"  XXXX   X.....   XXXXXXX      X .......           XXXXXX  XXXXXX   ",
"   ................XXXXX        ......XX.                   XXXX    ",
"...........XXXXXX.....       ....XXXXXXXXX                  ........",
".....XXXXXXXXXXXXXXXXX..   ......XXXXXXXXXX             ............",
"XXXXXXXXXXXXXXXXXXXXXXXX          ...XXX.    ......  .XXXXX       ..",
"XXXXXXXXXXXXXXXXXXXXXXXX          ..XXXXXX  ........  XXXXXXX      X",
"XXXXXXXXXX       XXXXXXXX           XXXXXXX  ..XXXXXX  XXXXXXX      ",
"..  XXXXX                           XXXXXX.  .XXXXXXXX...XXXXX      ",
"XX  XX            ......         ....   ..XXX .XXX  ..XXXXXXXX      ",
"              .  ........X  ...  XXXXX    XXXX XXX    XXXXXXX       ",
"            ........XXXXXXX....  XXXXXX   XXX   X     XXXXX         ",
"           ....XXXXXXXXXXXX...XXXXXXXX      ...   ..........    .   ",
"            XXXXX XXXXXXXXX..XXXX ..... .......   ......XXX..  .....",
"             XX ..XXXX XXXX .XXXX....XXX......XXX  .XXXXXXXXXX....X.",
"XX             ......   ..   XXXX ..XXXXX XXXXXXX   XXXXXXXXXXX..XXX",
"XX..           ....           XX   XXXXXXXXXXXXXX    XXXXXXXXX  XXXX",
"X...            .XXXX               XXXXX    XX                ..XXX",
"XXXXXX    ...... XXXX ...........    XXXX..                     ..XX",
"XXXXXX .......... XX................    ...                      XXX",
"XXXXX.......XXXXXX. ....XXXXXXXXX....  ..XXXX    .......          XX",
".........XXXXXXXXXX  .XXXXXXXXXXX.XXXXX  XXXX  ...........      ....",
"..XXXXXXXXXXXXXXXXXXX XXXXXXXXXXX XXXXX  XXXX  ....XXXXXXX.... .....",
"XXXXXXXXXXXXXXXXXXXXX  XXXXXXXXXX XXXXX        ..XXXXXXXXXXX......XX",
"XXXXXXXXXXXXXXXXXXXXX       XXXXX ...XX        ..XXXXXXXXXXXXXXX.XXX",
"XXXXXXXXXXXXXX XXX                 .XXXX    .... XXXXXXXXXXXXXXXXXXX",
"XX.....                             XXXXX   .....XXXXXXXXXXXXXXXXXXX",
"  ...XXX          ....  .. ........  XXX......XXXX.X     XXXX ..... ",
"X   XXXXX    .......... ......................XXXXXXX. ........  XXX",
"X . XXXXX   ........XXXX..XX.XXXXXXXX...XXXXXXXXXXXXXX......... XXXX",
" ...      .....XXXXXXXXXX XXXXXXXXXXXXXXXXXXXXXXXXXXXXXX.XXXXXXXX   ",
"  . X    .....XXXXXXXXXXXXXXXXXXXXXXXXXXXXXXXXXXXXXXXXXXXXXXXXXXX   ",
". .XXX......XXXXXXXXXXXXXXX  XXXXXXXXXXXXXXXX     .XXXXXXXXXXXXXX ..",
"....X......XXXXXXX.XXXX  .....  .     .......       XX      XXX ....",
"XXX.XXXXXXXXXXXX ....... ........     ....XXXX      X           ...."
};
