/* XPM */
static char *magick[] = {
/* columns rows colors chars-per-pixel */
"128 128 13 1",
"  c #111111111111",
". c Gray40",
"X c #bbbbbbbbbbbb",
"o c #222222222222",
"O c #777777777777",
"+ c Gray80",
"@ c Gray20",
"# c #888888888888",
"$ c #dddddddddddd",
"% c #444444444444",
"& c Gray60",
"* c #555555555555",
"= c #aaaaaaaaaaaa",
/* pixels */
"O##&&==&&&==&&=&&####&########OO..***%%%*.*.*....OOO###&##O...OO##&&=&=XX++XX=&######OO.**%%%@@o@o@@@%%%****%**%**%*****.O.O..OO",
"#&===&=&&=&&&&############O####OO..*%*%*%**.....O.OOO##&&OO....OO##&===XXX+X==&####O##O..*%%@@@@o@@@%@*%*****%%%****%***...*.O.O",
"#&==&&&&&&&&#&###OOO#O###O######OO...%*%*%.*O.O..OOOO##&&#.....OO##&&X=X++X+=&&##O###OO.***@@@@o@@@%*%***.*****%****.**.***...O#",
"&===&&&==&&#&O##OOOOO##O###O##&##OO.**%%%**....OOOOOO####O......OO#&&=X+X+XX&&#O#####OO..*%%@@@@@@%*%.**.**.**%%***.**.*****..O#",
"&&&&=&===&##O###OO#OO###O##O##O&##O..**%***..O.O.O.O#O###O..*...OO##===+++X==#&#####OOO..**%%@@@%@%%....*..*********...*****..##",
"&&&&&===&##OOO#OO#OO#O##&#O#OOO#O#O..*%*%**...OOOOOOO###O.......OO#&&=+X++==&&O#####OO...**%%%%@%%%*....O..*.******....**%**..##",
"O#&&===&&#OO#O##OOOO#######OOO#O##O..**%%**...O.#.OO##&#O..*..O.OO#&==X+XX==&#######OO.O..***%*%%%**.OOO....****%**O.O.**%*%.OO#",
"###&====#OOOOOO##O#O#O&####OOOOOOO#..*%*%**.O.OOOOOO#&##..*.O.OOOO#&===XXX=&&#O##&###.O....***%*%%*..OOOO.....*****.O..**%**..OO",
"O#&&=&&&#O#OO##O#####&#&####OO#OOOO..**%***...O.OOOO#&#O.**...OO.##&==XX=&&&##&#####OO.O..O..*.%***.OO##OO...*.%**..OO.****....O",
"O#&&&&&##OOOOOO####&&&####O###O##OO.***%%%**...O..OO###O..*.O..OOO#&&====&&#####&###OOO..O..O..*.*..OO##OO.....***..OO...*....O.",
"O#&&&####OO#OOO##&&&&&###O#####OOO..***%****.O..OOO###OO..*.*O.OOO#&&==&&&&######&###OO...OO.O......O#O#OO..*..***..O..........O",
"O####OOOOO#OOO#O&#==&#&O###O##O#OOO.********...O.OO###OO........OO#&&&&&&&#####&&####OOOOOOO#OOO...OOO##OO.....***..OOOOO...*..O",
"O#OOOOOOOOOO#OO##&==&&#&####OO#OO....****%*.*.O.#O##&OO....*....OO##&&&&######&&#&&###OOO####OOOO.OO.OOO#.O...*.%....OO.O.O.O.OO",
"#.OOO...OOO#OO###=&=&&&&###OOO.O.......***.*..OOO#####...*....O.OOO#####&###&#&#&&#&#O#O#######.OOOOOOO#OO.*..*****....O...O.OOO",
"OO........OOO#O#&&=&&&&&&#OOO.O.....*.....*OOOO######O...*..*..OOOO#O######O#&#&&&&####O##&&###OO...OOO.OO....*.**.*....O.O.#OOO",
"O..*****...OOO#&&&&&=&&=&##...*......O.O.OOOO#####&##OO.*.**...OOO############&&#&&###O###&&&##OO.O...OOO.O.*..*.**.**....O#O##O",
"O.*.*****...OO##==&&&&==&#OO......*...OO#O######&&#&#OO..**.*..O#########O###&&&&&#&###O##&&&##OO..O............*.*****..OO####O",
"..**%%%***...O#&&=&&&&==&&O....**......OO#O###&&&&&##OO..*.**.OO##&&&&#&O###&#&&&&&#O#O#&#&&&##O...*..O.O.........*****..OO#&##O",
"..*%*%%%****.OO&=&=&==&=&#OO...*...***..OO#####&#&&&#O.O*.***..##&&&&&&######&#&&##&######&&&##.O.....*....*...OO.O.*.*.O.#####O",
"..*%%%%%*%**..##&====&=&&##O......*****..OO#O####&&&#OO..**.*..O#&==&&&###O##&&&&&&O#O#O######OO...***..*...O.OOOOO..*.*.O#&&##O",
"O.**%@@@%%%**.O#&&=&====&#OO..*...*%*%**OOOO#OO######O...***..OO#&===#&##O#O&#&&#&###########OOOO...*.**....OOO####O.**..##&#&OO",
"..*%%@@@@%*%*.O##&&=====&#OOO..O..*%%%**..OOOOOOO##&O#....*...OO#=&&&&###OO#O&#&&####O##O#OOO#OOO...*****...OO#####OO.**.O#&&#OO",
"...%%@@@@@%%*.OO##&=====#&#OOOOO.**%%%***.OO###O###O#.O***.*OOO##&&&&&##O#OOO####&#O##O##OOOOOO.OO..*.%*...OO####&##O.*.O##&&##.",
".**%%%@o@@@%*..OO#&&====&##OOOOO.*%%%%***..OOO####O#.O*.*.*O.OO#&#&&&##O##OOOO##&#O#####OOOOO.OOO.O*.*****.O###&&&##O....#&&&#OO",
".*.%%@@@o@%%*..OO##&&X==&&###OO.***%*.*....OO####OOO...***..OOO######OO#O##O#OO#O###OOOO#O#.OO.#OO.O*.***..O###&#&##OO..O##&&OO.",
"..%*%@@o@o@%*...OO##=&==&&###OO..%%*.*......O######..*****.OOO#O###OOOOO###OOOOO#OOOOO#OOOOO.OOOOOO..****..OO###&#&##O..O#&&##O.",
"***%%%@oo@%%%.O.O.O##&&&&&##OO.**%***.......######.O.****.O.OOO#O#OOOOOO##O#OO.OOO#OOOO#OOOOOOOO#.O..*.**.O.OO###&###OOOO#&&&#.O",
"*.*%%@@@@@@%*...OOOO#######OO..*%***..O.*...O###&OO.*%***..O.#OOOOOO.OOOOO#OO.OOOO.OO#OO###OO#O#.OO....*...OOOO#&####OOOOO&&##O.",
".%**%%@@@@@**..OO.OOOO###OOO..**%**..OO.O*..O####O.*.***...OO.OOO.OOOO#OOOOOOOO.OOOOOOO######OOOOO.......*....OO###&##OO###=##O*",
"**%%%%@@%@%%*O.O......OOOO...***%**.OO.O....OO##O..*****..O..O..OOOOOOO#OOO....OOOO.OOO######OOOO...O.........OOO#&####OO#&&&OO.",
"***%%%%@@%***.OO...*..*.....***%***..OO...OOOOOOOO.***...*......O.OO##OO#.O....O.OO#OOO#######OOO.O..O..*****..O#O#####O#O&&&#O.",
"**%%%%%%%%%*..O.O.**%***.*.***%***........O.OOO.O*.........**..O.#O#O###OO.***..OO#OO##O#####OOOO...O.....**...OO###&######&&&..",
"***%%%%%%%**..OO*.***%%*******%***.O.O.O.O.OO.O..O..O.*..**...O.#O###O##O..****.OO###O###O###OOOO.....O..****..OO####&##O##&&#O.",
"****%%%%%**..OO..***@%%*%%***%**%..*O...O..OOOO.O......***...OOO########O..**%**.O######O#OOOOOOO........**%.*.OO#O&###OO##=&#O.",
".***%%%%%**..OO.**%%%%%@*%%%%*%%***..O...O.O.OO#.O.O...*...OOO######&##OO.**%***OO###&##OOOOO#OOO........*.**.O.OO###&#OOO&&=&O.",
".****%*%%*..OO...%%%%%%%%%%%*%*%***.O..O..OOO##OO....*....OO#########&OO..*%*%%**O##&###OO#O###OOO....*..**.*...OO#&&##O#O#==##.",
"..***%%***.OO.O***%%%@%%%%%%@%%****...OOOOO####OO.O*.....OO#&&&&##O&##OO.**%%*%*..O#O##OO#######OO..*...........OO##&##OOO#&=&#O",
"O..**%*%*..O.O*.*%%%%%%%@@@@@%%%%***..OO##&###O#.O......OO#&&=&####O#OO.***%*%%*..OO#OOO###&&&###OO....*......O..O#####OO##=&=#O",
"OO.***%**.OO...**%%%%%%@%@%@%@%%%%**.OO###&&#&OO..OOOOOOO#&&==&##O##OO.***%*%****..OOOOO&&&&&#&###OO....*.OOO..O.OO#&##OOO#&&&&#",
"##..****.......**%%%%@@%@@@@@%@%%%*..O###=&&#OO.OOOO#O###&&==&##OO##O.**%%*%*%***.O.OOOO#&&===&&&##OO..*O.O.OO...OO##O#O####&#&&",
"##O.***..O....*.*%%%%%%@@@@@o@%@%%**.O#&=&=&&OOOO####&##&&=&&&####O#O.*%%%%%******....OO#&==X==&#&#OO..O.OO#OOO..OOOO####O###&#&",
"##O....*.....*.*%**%%%%%@@@@@@@@@%%*.#&&&==&#O.O#&&=&&#&&&&&&###O###O**%%%*%******...O.##&=X=XX&=##OO.OOO#OOO.OOO..OO########O&#",
"#&#OO....*.....*.%*%%%%@@@@@@oo@@@**O##==&&#####&&=&=#&&#=&&########.*%%@@%%**%*.**...#O&&===X=X&&#OOOOO#O###OO.O.OO###&#&O#O#O#",
"#O#OOO...*.*..*.****%%%@%@@@@o@o@%%*O#&&&&####&&==&=#&&&&#&#&#O###&O.**@%@%%%****.**..O#&&=====X==#OOOO###&##OOOO.OO##&&&##OOOO#",
"###OOO....*.*....***%%%@@%@@o@ooo@**OO#&&###&&===&&#&#&#&&####&###OO.*%@@%%%%*****...OO#&&&##&&=X&&OO.O##&#&##OOOOO##&#&#&#O#OOO",
"O##OOOO....*...*..***%%@%@@@@o o@@@..O##O###&XXX&&###&#&&#&#####&&O.*%%@%@%@*%*%.**..O#&&&###O&===#OOOO##&&&##OO.O###&&#&##O.OOO",
"##O#OO.O..........**%%%@@%@@ooooo@%*..OOOO#&=X+==&&###&&#&#####&#OO.**%@@%%%%%*****..O#&&&#OO##&==&#OOO##&&&&#OOOO##&&&=###OO.OO",
"OO#O#.OOO....*.....*%%%%%@@@ooooo@%%**..OO&=X+XX&#&###&&######&&##..*%%@%@%%*%****..O#&&&#OOOOO&&&##OOO#&&&&&##OOO#&&&&&&##.O.O#",
"O###O#OOOO...*....**%%%%%%@@@ooo@@@%%**.O#&=XX===&&#&#&#&###&&###.O**%%@@@%%%*%***..O#&&OOOOOOO#&&&O#O###=&&&##O##&&&&&&&##OO.OO",
"O####O###OO..***..***%%%%@%@ooooo@@@%**.O#&XXXX==&&&######&##&##OO.***%@%@%%%%%***.OO&&##OOOOOO##&##O#OO&&&&&##O###&&==&&##OOOOO",
"##&&&###O#...*.******%%*%%@o@oooo@@@%%..##&=XXX===&&&##&###&&##OO..**%%%@%%@%*%***.O####OO.OO.OO####OOO#&&&&&###O&&&=&=&&##OOOOO",
"&#&#&&&##OOO.**.*.***%*%%%@@ooooo@@%%%*.O#&=X=X==&&&&&##&##&&#OO.O.**%%@@@%%%%***..####OOOO...OOO#&#OOOO#&&&&#####&&====&&##OO##",
"#&&&&&&&#OO*.**********%%%@@oooo@@%%%*.OO&&==X=X===&&&&###&#&#O..*..*%%%%%%%%%%**OO#&##OOOO..O.OO###OOOO#&&&&##O&#&=====&&######",
"###&&&&&#O...******.****%%%@oo@o@%%%**..#O#&=XX====&&#&##&&&#OO.*.****%%%%%%%*%*..O&#&OOO.O.O...O##&OO.####&&####&#==X==&&&####&",
"####&&&&OO..*.*%****.****@@@@oo@@%%**.*.OO#&&=XX=&=&&=#&&&&&#O..*******%%%%%*%**.O####OOO..O..O.OO&##O#OO#&#&####&&====&&#&&&&##",
"OO##&&=##OO.*******.*...%*%@@@@@@%***..O.#O##==X===&&&&&&#&##O.*****.***%%*%***..O##&O##.O.....O.#O##OOOO###&##&#&==X=&&#######O",
"OOO#&==&OO...******....**%%%@%@%%%%*.*O.OOO##=X========&&=##OO.********.**%****.OO###&OOO.......OOO####OOO##&#&##&=XX=##&####OOO",
"..O##=&&OO...*.***.*OO..**%@@@%%%%***.....OO#&=XX====&=X=&#OO...**%***.***.**.O.OO#&###OO..**...OOOO###OO#O######&=XX&##OOOOOOO.",
"..OO#&=&OO....*....O.OO.*%%%@%%%*%***.O.O.OO#&==X====X==X&#O....******..........OO###&#OO..***.O.OO######OO##&#&&=XX=&&OOOOO#OO.",
"...O&&&&OO.....*....OO...%%@%@%*%%***.*O...OO#&==X==XXXX=&OO.....*.**..O...OO.O.OO##&##OO.**.*...OO#&####OOO#####=+X=&OOOO.O.O..",
"...O#&&&#OO...O...OOO.O*%*%@@%%@*%***......OO#&&==X=XXXX&##.O.....*.O..OOOOOOO..OO#####O..***.....OO####OOOO#O##==+X=&#...O.OOO.",
"..O.##=###OOOOOOOOOOO..**%%@%@%%%****...*.O.O##&&===XXX=&#OO......OO.OOOOO#OOO..OO#O###O...***....OO#&##OOOOOOO#&X+X&#OOOO.OOOO.",
"...OO&&&####OOOOOOOOO..***%%%@%%%%**.***..*OOO##&&=====&##OOO.OOOOOO#OOOOOOO.OOOOO##OOO...****...O.O####OOOOOO##&XX=&##O#OOO##OO",
"O..OO#&&&&#####OO#OO..*.*%%%%%@@%*%.****.*...OO####&&&&##OOOOOOOO####OOOOOOOOOOOO##O#O...****.*...OO####OOOOOO##&==&######&##O#O",
"O.O.O#&&&&&&#####OOO...***%%%@%%%%**.*.**...OOOO###&&&###OOOOOO###OOOOOO.OO.OOOO###OO.....*.***...OO##&OOOOO#O#&==&###&&=&&&#&OO",
"OO..O##&==&&&&####OO...****%%%%%%%****%.**.O..OOOO######OOO######OO#OO.OOO.OOOOO#O#O...**..*.*.*..OOO###O#OOO##&=&##O#&==X==&##O",
"O..OOO#&====&&&&##OO...****%%%%*%**%*****......OOOO###OO#######OOOO.OOO.OOOOOO#OO#OO..**....*****.OO####OO#####&=##O#&=XX+XX&&#O",
"O....O##&====&&#&##O..**.*%**%*%*%%*%**%.*...O...OOOOOO#O#####OOO.OOO.OOOOOOOOO#OOO...*..*..**%*...OO####OO##&&=&OOO#&=++++XX&#O",
".O..OOO#&=XX&=&=###O..*.*.*******%%%******........OOOO#O##&#OOO..O.OOO.OOOOO#OOO#.O.O..*...*****%..O##&#O#&#&&=##..O&=X+$+++==&#",
"#....OO#&==X===&&&#O...***.***%*%*%*%%****...*.....OOOO####OO...O.....OOOOO#OOOO.OO..*.....****%**.OO#&##&#&#&&O...O#=X$$$$XX=&O",
"OO..O.O#&&=XX==&&#&#O**.**...*.*%%*%****.***...*O..OOOO###OO..O...O.O.OOOO#OO#OOO..O.....*.****%**..O&#&&#=#&OOO..##&X+$$$$+X&&#",
"OOOO.OO##&=====&&&&OO..*.*....**%*%%***.***.**....O.OO####O...*......O.OO#OOOOOO.O...O.*..***%%%**..O##&&&#&O.....O#=X+$$$$XX=&#",
"#.O.OOO##&&=====&&##O..*.....****%*%*****.*****..O.OOO##OOO....*......OOOOOO#.O.O.O...O..*.**%*****.O######O...*.O#&=X+$$$+XX&&#",
"#OOOO.#O&#&&===&&&##O.........**********.**%***.O.OOO##OOO....****..O.OO.OOOOOOOOOO.O...***%*%**%**..O###OO......O#&&X+$+$+X=&&#",
"#OOO.#O###&&#&&&&##OOOO.O.O.**.*******.**.*****..OO###OOOO.O..*.***...OOO.OOO.OO.O.OO..****%*******..O.OO...O.OOOO##=X++++XX=&&#",
"#OOOOOO##&####&&###O.OOOOO.******.*****.**%****..OO#O#OOO.O*.*.***.*.O..OOOOOOO.OOOO...**%%%%**%****..O.*..O.OOOOO##==XX+XX=&&##",
"#OOOO##O######O###OO#OO#OO.*.*.....*.***.%**%**..OO##OOOO....**.*.**...O.....OOOOOOO.O.**%*%***.*******.**..#O##&###&=XXXX==&&##",
"O#O#OO###O##OO#OOOOOO###O..**......**.*********..OOOOOOOO...*.******........O..OOOO...****%%*******%******..O##&&###&&=====&&&##",
"###O##O##O#OOOOOOOO#O###OO*....O....****%****...OOO#OO.OO....*.****.*.........OOOOO.O*.******%.****%*%%***..##&#&&###&&==&&&&&##",
"##O#####O#OOOOOOOOOO#&##O.O....OOO...%******.*.O.OO.OOOO.O...**%*******.O......OOOOOO...*%*******%%*%%*%***.OO&&&&##&##&&&&&&###",
"O########OOOOO...OOO####O...O.OOOO..***%**..*O.OO.O.O.OOO.O..*.*%**%.*...O...O..OOOOO#O...****%*%%*%*%%*%**.O##&&&&##&##&&&#&###",
"#####&&##OOOO.OO..OO###O.OOO.OOO.O..**%***..O.O.OO.O..O.OO....***%****O.OOOO..O.OO####O...*****%%%%%%*%%*%**.O#&&#&###&####&&###",
"O###&#&&#OO.OOO.OO.##&#OOOOOOOO.OO..**%%**.O.OOOOOO.O.OOOOO...***%%**..OO.OOO.OOO#####OO....**%%%%%%%%*%%%%..O##&&#&#########&##",
"###&&&&&##.O..OO.OO####OOOOO#OOOO...*****.O.#OOOO.O..O.O.O.O....*%*%*..OO#OO.OOO###&&##OO....*%%%@%%%%@%%%%*.OO#####&######&####",
"##&&&&&&&#O.O.OOOOO######OOO#OOO..O..****..#O#OOOO.OO.OOO.....***%%**.OOOOOO#OO###&&#&#OOOO..*%%%@%%%%%%%%*%..###&######O#O###&#",
"&&&&===&&O#...O.OOO##&###O#O#O#.O..*...*..OO##OOOOOOOOO........**%*%*.OO#OOO##O##&##&&##OO.O.**%%@%%%@%%@*%**.OO###&###O########",
"&&&=&=&&##OO.O.OOO#O##&##OOO#OOOO.....O..O.OOO#OOOOO.OOO.O.***.******.OOO###O#&####&##&O##OO..*%%%%@@%@@%%***..OO##O###O#O#O###&",
"&=====&&#OOOOOOOO#OO######OO##OO.O.O.O.OO.O#OOO#OOOOOOOO..****%*****..OOOO#O&&#&##&##&O&###OO.*%%%@%@@@%%%***.O.OO###OOOOO####&&",
"===&=&&##OO.O.OOO.#O##&####O#O#OO.O.OOOO#OOOOOOO#OO..O..O.*****%%**...OOOO###&&&#####O##&&&#O..*%%@@@@@@%****.*OO.OOOO#OO#O##&&&",
"====&&##OOOOO#OO.OOOO##&&####OOOOO.OOO##O##.O.OOOOOO.OO..***%%%*%**..O.OOO###&#&###OO##&==&&#O.*%%@@@@@%%%*%.*...O...O.O#O##&&&=",
"=X==&##OO.OOOOOOO.OOO###&&##O#O#OOOOO###&OOOOO.OO.OOO.OO***%*%%%***...OOOOO##&&###OOO#&&=X==#O.**@@@@@%@*%****...*...*O.OO##&&==",
"XX=&##OOOOOO#OOO...OOO#&&&####OOOO##&#####OOO..O.OO.OOO*.*%%%%%****.O.OOO#O######OOO##&=XXX=&#.*%@@@o%@%%%%**.*.*.***.*OOO##&===",
"=X=#&OOOOOOOOOO...OOOO#&&&&####O####&&####OOOOOOOOOOOO..**%%%%%%***...OOOOOO####OOOO#==XXXX=&O.*%%@@@@@%%%%********%***.OO#&&===",
"X&&##O#O##O#O....O..OO#&&=&&######&###&##OOOO.O.O.O.O..**%%%%%%***.*...OOOO#OOO.OOO&&==XXXX=#O**%%%%@%@%*%*%%%%**%%*%%*..##&&===",
"&=&######O#.O.O....OOO##=&=&&############OOO.OOOOOOO..****%*%***%****...OOO.OOO..O#&XXXX=X=&#..%**%%%@%%%*%%*%*%%%%%%**..O&#=&==",
"&#####&##OO........OOO#&&==X&#&&###OO###OOO.OOOOO#OO.***%%***%*******....OOO.....O&=XXX=X==#O.**..*%%%@@%%%*%%%%%@%%%%**OO#&&==&",
"&##&&&&&#OO.....O.O.OO#&&X===&&###OOO###OOO.OOO###OO.**%*%*****%*******....O....O#&=XXXX=X#O.......*%@@%%%*%*%%@%@@@%*%..O#&&&&&",
"###&&&&&#O..O....O.OO##&&====&&##OOO#O&O#.O.OO#####.****%%*******%%%**.*...*..*OO#=X=XX=X&#O....OO.*%@%@%%%%%%@@@@@%@%**.O##&&##",
"&#=&&&&##O..O.O...OO###&&==&&##OOOOOO###OOOO.O##&#O.**%%*%*%**.**%**%****.*.**.O#&===X=X&#O....OO..**%@@%%*%*%@@@@@@@%%*..O###&#",
"&&&==&&#O.OOOO..O.OO###&&&&&##OOOO#OO##OOO.OOO#&&#O.****%*%****%**%***********.O#&=====&&OO.O..O...*%%%@%%%%%%@@@oo@@%***.OO####",
"&==&=&#OOO##OOO..O.#O&&#&&&##OOOOOO#O#OOOOO.###&&#OO***%%%*%******************OO#=====##OO.OO.O....**%%%%%@%%%@@o@o@@%%**..#O#&&",
"===X&#OOOO###OOO.*OO###&&##OOO.OO#OOO#OOO.OOO##&&&O..**%%*%*%*******.**.*%***.OO#&&=&##OOO..O....****%%%%%%%@%%@@oo@%%%**.O.##&&",
"===&&#O##&####....OO##&###OOOOO.OO###O#.OOOOO##=&##..******%***.*...*..**.**..OO&&#&&#OO..O....*****%*%%%%%%*%@%@@@@@%%**..O##&=",
"=X=&####&&#&#O#...OOO&###OO...OO#O#O##OOO.OO#O&&&#OO.****%**.*.*.*.......***..OO######O.......****%%*%%%%%%*%%%%@@@@@%**...OO&&=",
"==&&#O&&&&&#&OOO..OO####OO.O..OOO######.O.OO###&=#OO..**.****.*....*...*.....OOO####OOOO.....***%%*%%*%%%%*%***%%@@@%%%...OO#&&=",
"==&O##&===&&#OO..OO#OOOOO...O.OO######OO.O.OO#&&&##OO...****..........*...O..OOOOOOO#O....**%**%%%%%%%%*%*%*****%%%@%%**.OOO#&&=",
"&&###&====&&O#O.OOOOOOO.O....OOO##&&&##OO.OOO##&&&#OO........*..*...*......OOO.#OOOOOO.O.****%%%%@%%%%*%%%*******%%%%%*..OO##&&&",
"##OO##=X=X=&#O.OOOO#OOO..*...OO###&#&##.O.OOO##&&&#OOOO.........O.*..*...OOOOO#.OOOOOO...**%%*%%%%@%%%%%*****....*%%%%*.OO#&##&&",
"#OOO&&=XX==###OO.OOO#O.......OO##&&&&##OOOOO#O&#&&##OO.O...*........**...OOO#OO#OOOO.O..***%%%*%@@%%%%*%****.....**%***.O###&&##",
"OO.O#==XX==&#OO.OOOO.O..*...OO##&&==&&O#OO######&&###OOOO.....*....**.**O.####OOOO#OO...***%%*%%%%%%%%%*****.O.O..****...##&&&##",
"O.OO#&=X=X&&##O#OO.OO.O.O..OOO##&=&=&#############&###OOO.O.*....*.*.*..OO######OOOOOOO.*****%%%*%%%%*%****.*.O.O..*...OO##&#&#O",
"O..O#&=====&##OOOOO....O.OO####&&&&&&#&&&&###OOO##&&##OOOO.....*..*.**..OO#&&&####O#OO..********%%%%%%*%%**....OOO.O..OO####&##O",
"...O#&&=X==#&###OOOO.OO.########&&&&&=&&&###OOO.O##&###OO........***.*..O#&&&=&&###OOO...******%**%*%*%****...OO.OOOOOO######&#O",
".O.OO#&&&=&&&###OOOOOOO#O#O########&&&&#&##OO..OOO#&#&O#.OO.....**.**.*OO##====&&##OOO...***%*%%*****%%%%**...OOOOOOOO####&##OOO",
"..OOO##&&&&&#&####OOOO####OO.OO.O#&#&##&O#OOO...OO#####O#.O...*.*.*....O##===X==&&##OOO....**%%%%%*%%*%*%***.O.OO...OO#######OO.",
"..OOO##&&&&#&####O######OO..O.OOOO##O#OO#OOOOO.O.OOO&##OOOO.O..*.****.OO#&&XXXXX&&##OOOOO..*%%@%%%***%*%%***.OOO....OO###&##OOO.",
"...OO##&#&&&##O#&&&#&#OO....*O.OO#O#O.OO.OOO.OO..OOO####OOOO.O..*.*...OO#&XX++X=X&&###OOOO.*%@%@@%%**%%****.*.O...O..O##&#&#OO..",
".*OOO###&&#O###&====###....*...OOOO....OOOO.OOOOO.OOOOOOOOOOO....*...OO#&==X++X+==&######O*%@@@@@%%%*******..O.......OO##&&#OO..",
"...OO######OO#&&=XX&&O.O.**.*..O#O..*..OO.OOOOOOOO.OOOOO#OOOOO.......OO#&=XX+++XX==&&&&&O.*%@@@@@@%%%%****........*.OOO#&&#&#O..",
"*.O.#O####OOO#&=XX=&#.O*..***..O#O.*..OO.OO.#OOO.O.O..O#O###OOO.O...OO##&=X+X+XXXX==&&&#O.*%@@@o@@%@%%**....O.***....OO##&&&#O..",
"...OOO###OOO##=XX=&&#O...**....OO.*..OO.O..OOO#O#.O.O.OO##O#OOOO.OOOOO##&=X++X+XX====&OO.**%@@@o@@o%%*%.*..O*.*.**....OO#&&&#OO*",
"....OOOO.OOO#&=X==&##OO..***..OOO*.*OOOOO....#OOOOOO..OO##&###OOO#OOO#O&&X+X+XXXXX==###..*%%@@@@oo@@%@*%.....*****....OO##=&#O..",
".*...O..OO##&===&&&&#OO..*...OOO.***.#OO....O.#O#OO.OOOO#########O###O&#=X++XXXX=&=#&OO.**%%%@@o@o@@@%@*%..*.**%***....OO#&&#O..",
".......OO##&===&&&#&##O......O#O.***O.OO.....OOOOOOOOOOO###&#####&#####&==+X+XXX&=#&OO..**%%%@@@oo@o@o%%%**.********...OO#&#OO..",
"*.....OO#&&==&&&#&&&&#OO....O##..***....O.*..OOOO#OOOOO######O##&&&&&#&#=X++X+X=&&##OO.**%*%%@@@@oo@@@@%*%.**.%**%****..####O...",
"......O&&&==&=&&=&&&&##OO..OO#OO.*****..*......OOOOOO######OOOO#&&&&#&&==XX+XX==&###OO..*%%%%@%@ooooo@@%%%**.**********OOO#OOO..",
"..O.###&===&=&&=&==&&&##OOOOO#OO*******..*.....OOOO##O####OOOOO##&==&&&==X+XXX=&&#OOOOO.**%%%@@@@o@o@@@%%***%***%**%***.##OO..O.",
"OOO##&&===&==&&&&&&&&####OO###OOO****%****.......OOO######O...OO#&&&====X+++X==&#O####O.**%%%%@@o@o@@@@%*%%***%******%*.OOO.O..."
};
