/* XPM */
static char *magick[] = {
/* columns rows colors chars-per-pixel */
"32 32 4 1",
"  c Gray0",
". c #be00be00be00",
"X c #a00052002d00",
"o c #800080008000",
/* pixels */
"oXoXoXoXoXoXoXoXoXoXoXoXoXoXoXoX",
"X............................. o",
"o.oXoXoXoXoXoXoXoXoXoXoXoXoXoX X",
"X.XoXoXoXoXoXoXoXoXoXoXoXoXoXo o",
"o.oXoXoXoXoXoXoXoXoXoXoXoXoXoX X",
"X.XoXoXoXoXoXoXoXoXoXoXoXoXoXo o",
"o.oXoX                    oXoX X",
"X.XoXo oXoXoXoXoXoXoXoXoX.XoXo o",
"o.oXoX XoXoXoXoXoXoXoXoXo.oXoX X",
"X.XoXo oX............. oX.XoXo o",
"o.oXoX Xo.oXoXoXoXoXoX Xo.oXoX X",
"X.XoXo oX.XoXoXoXoXoXo oX.XoXo o",
"o.oXoX Xo.oXoXoXoXoXoX Xo.oXoX X",
"X.XoXo oX.XoXoXoXoXoXo oX.XoXo o",
"o.oXoX Xo.oXoX         Xo.oXoX X",
"X.XoXo oX.XoXo oXoXoXoXoX.XoXo o",
"o.oXoX Xo.oXoX XoXoXoXoXo.oXoX X",
"X.XoXo oX.XoXo oX.........XoXo o",
"o.oXoX Xo.oXoX Xo.oXoXoXoXoXoX X",
"X.XoXo oX.XoXo oX.XoXoXoXoXoXo o",
"o.oXoX Xo.oXoX Xo.oXoXoXoXoXoX X",
"X.XoXo oX.XoXo oX.XoXoXoXoXoXo o",
"o.oXoX Xo.oXoX Xo              X",
"X.XoXo oX.XoXo oXoXoXoXoXoXoXoXo",
"o.oXoX Xo.oXoX XoXoXoXoXoXoXoXoX",
"..XoXo oX.XoXo .................",
"oXoXoX Xo.oXoXoXoXoXoXoXoXoXoXoX",
"XoXoXo oX.XoXoXoXoXoXoXoXoXoXoXo",
"oXoXoX Xo.oXoXoXoXoXoXoXoXoXoXoX",
"XoXoXo oX.XoXoXoXoXoXoXoXoXoXoXo",
"       Xo                       ",
"XoXoXoXoXoXoXoXoXoXoXoXoXoXoXoXo"
};
