/* XPM */
static char *magick[] = {
/* columns rows colors chars-per-pixel */
"64 64 8 1",
"  c #ff00cc006600",
". c #d2009d006900",
"X c #cc0099006600",
"o c #c30092006100",
"O c #660033000000",
"+ c #550055005500",
"@ c #220022002200",
"# c #110000000000",
/* pixels */
"oooooooooooOXXX#XXXXXXXXXXXXXXXO ........#XX+XXOooooooooooooooo+",
"ooooooooooooOX#XXXXXXXXXXXXXXXO ..........#XXXOoooooooooooooooOo",
"ooooooooo+oooOXXXXXXXXXXXXXXXO ............#XOoooooooooooooooOoo",
"ooooooooooooOXXXXXXXXXXXXXXXO ..........+...#oooooooooooooooOooo",
"oooooooooooOXXXXXXXXXXXXXXXO ..............#oooooooooooooooOoooo",
"ooooooooooOXXXXXXXXXXXXXXXO ..............#oooooooooooooooOooooo",
"oooooooooOXXXXXXXXXXXXXXXO ..............#oooooooooooooooOoooooo",
"ooooooooOXXXXXXXXXXXXXXXO ..............#oooooooooooooooOooooooo",
"oooooooOXXXXXXXXXXXXXXXO ..............#oooooooooooooooOoooooooo",
"ooooooOXXXXXXXXXXXXXXXO ..............#oooooooooooooooOooooooooo",
"oooooOXXXXXXXXXXXXXXXO ..............#oooooooooooooooOoooooooooo",
"ooooOXXXXXXXXXXXXXXXO ..............#oooooooooooooooOooooooooooo",
"oooOXXXXXXXXXXXXXXXO ..............#oooooooooooooooOoooooooooooo",
"ooOXXXXXXXXXXXXXXXO ..............#oooooooooooooooOooooooooooooo",
"oOXXXXXXXXXXXXXXXO ..............#oooooooooooooooOoooooooooooooo",
"OXXXXXXXXXXXXXXXO ..............#oooooooooooooooOooooooooooooooo",
"XXXXXXXXXXXXXXXO ..............#oooooooooooooooOoooooooooooooooO",
"XXXXXXXXXXXXXXO ..............#oooooooooooooooOoooooooooooooooOX",
"XXXXXXXXXXXXXO ..............#oooooooooooooooOoooooooooooooooOXX",
"XXXXXXXXXXXXO ..............#oooooooooooooooOoooooooooooooooOXXX",
"XXXXXXXXXXXO ..............#oooooooooooooooOoooooooooooooooOXXXX",
"XXXXXXXXXXO ..............#oooooooooooooooOoooooooooooooooOXXXXX",
"XXXXXXXXXO ..............#oooooooooooooooOoooooooooooooooOXXXXXX",
"XXXXXXXXO ..............#oooooooooooooooOoooooooooooooooOXXXXXXX",
"XXXXXXXO ..............#oooooooooooooooOoooooooooooooooOXXXXXXXX",
"XXXXXXO ..+...........#ooo@oooooooooooOoooooooooooooooOXXXXXXXXX",
"XXXXXOXO ............#oOoooooooooooooOooo+oooooooooooOXXXXXXXXXX",
"XXXXOXXXO ..........#oooOoooooooooooO OoooooooooooooOXXXXXXXXXXX",
"XXXOXXXXXO ........#oooooOoooooooooO XXOoooooooooooOXXXXXXXXXXXX",
"XXOXXX@XXXO ..+...#ooo+oooOooo+oooO XXXXOoooooooooOXXXXXXXXXXXXX",
"XOXXXXXXXXXO ....#oooooooooOoooooO XX+XXXOooo+oooOXXXXXXXXXXXXXX",
"OXXXXXXXXXXXO ..#oooooooooooOoooO XXXXXXXXOoooooOXXXXXXXXXXXXXXX",
"XXXXXXXXXXXXXO #oooooooooooooOoO XXXXXXXXXXOoooOXXXXXXXXXXXXXXXO",
"XXXXXXXXXX+XXXOooooooooooo+oooO XXXXXXXXXXXXOoOXXXXXXXXXXXXXXXOX",
"XXXXXXXXXXXXXOoooooooooooooooO XXXXXXXXXX+XXX#XXXXXXXXXXXXXXXOXX",
"XXXXXXXXXXXXOoooooooooooooooO XXXXXXXXXXXXXX#XXXXXXXXXXXXXXXOXXX",
"XXXXXXXXXXXOoooooooooooooooO XXXXXXXXXXXXXX#XXXXXXXXXXXXXXXOXXXX",
"XXXXXXXXXXOoooooooooooooooO XXXXXXXXXXXXXX# XX+XXXXXXXXXXXOXXXXX",
"XXXXXXXXXOoooooooooooooooO XXXXXXXXXXXXXX#XO XXXXXXXXXXXXOXXXXXX",
"XXXXXXXXOoooooooooooooooO XXXXXXXXXXXXXX#XXXO XXXXXXXXXXOXXXXXXX",
"XXXXXXXOoooooooooooooooO XXXXXXXXXXXXXX#XXXXXO XXXXXXXXOXXXXXXXX",
"XXXXXXOoooooooooooooooO XXXXXXXXXXXXXX#XXX+XXXO XX+XXXOXXXXXXXXX",
"XXXXXOoooooooooooooooO XXXXXXXXXXXXXX#XXXXXXXXXO XXXXOXXXXXXXXXX",
"XXXXOoooooooooooooooO XXXXXXXXXXXXXX#XXXXXXXXXXXO XXOXXXXXXXXXXX",
"XXXOoooooooooooooooO XXXXXXXXXXXXXX#XXXXXXXXXXXXXO OXXXXXXXXXXXX",
"XXOoooooooooooooooO XXXXXXXXXXXXXX#XXXXXXXXXXX@XXXOXXXXXXXXXXXXX",
"XOoooooooooooooooO XXXXXXXXXXXXXX#XXXXXXXXXXXXXXXOXXXXXXXXXXXXXX",
"OoooooooooooooooO XXXXXXXXXXXXXX#XXXXXXXXXXXXXXXOXXXXXXXXXXXXXXX",
"oooooooooooooooO XXXXXXXXXXXXXX#XXXXXXXXXXXXXXXOXXXXXXXXXXXXXXX+",
"ooooooooooooooO XXXXXXXXXXXXXX#XXXXXXXXXXXXXXXOXXXXXXXXXXXXXXXOo",
"oooooooooooooO XXXXXXXXXXXXXX#XXXXXXXXXXXXXXXOXXXXXXXXXXXXXXXOoo",
"ooooooooooooO XXXXXXXXXXXXXX#XXXXXXXXXXXXXXXOXXXXXXXXXXXXXXXOooo",
"oooooooooooO XXXXXXXXXXXXXX#XXXXXXXXXXXXXXXOXXXXXXXXXXXXXXXOoooo",
"ooooooooooO XXXXXXXXXXXXXX#XXXXXXXXXXXXXXXOXXXXXXXXXXXXXXXOooooo",
"oooooooooO XXXXXXXXXXXXXX#XXXXXXXXXXXXXXXOXXXXXXXXXXXXXXXOoooooo",
"ooooooooO XXXXXXXXXXXXXX#XXXXXXXXXXXXXXXOXXXXXXXXXXXXXXXOooooooo",
"oooooooO XXXXXXXXXXXXXX#XXXXXXXXXXXXXXXOXXXXXXXXXXXXXXXOoooooooo",
"ooooooO XXXXXXXXXXXXXX#XXXXXXXXXXXXXXXOXXXXXXXXXXXXXXXOooooooooo",
"oooooO XX@XXXXXXXXXXX#XXXXXXXXXXXXXXXOXXXXXXXXXXXXXXXOoooooooooo",
"ooooOoOXXXXXXXXXXXXX#XXXXXXXXXXXXXXXOXXX+XXXXXXXXXXXOooooooooooo",
"oooOoooOXXXXXXXXXXX#XXXXXXXXXXXXXXXO #XXXXXXXXXXXXXOoooooooooooo",
"ooOoooooOXXXXXXXXX#XXXXXXXXXXXXXXXO ..#XXXXXXXXXXXOooooooooooooo",
"oOooo@oooOXXX+XXX#XXXXXXXXXXXXXXXO ....#XXXXXXXXXOoooooooooooooo",
"OoooooooooOXXXXX#XXXXXXXXXXXXXXXO ..+...#XXXXXXXOooooooooooooooo"
};
