/* XPM */
static char *Bezier[]={
"32 32 4 1",
"b c #000000",
"# c #808080",
"a c #c0c0c0",
". c #f8fcf8",
"...............................#",
".#############################.#",
".#aaaaaaaaaaaaaaaaaaaaaaaaaaaa.#",
".#aaaaaaaaaaaaaaaaaaaaaaaaaaaa.#",
".#aaaaaaaaaaaaaaaaaaaaaaaaaaaa.#",
".#aaaaaaaaaaaabaaaaaaaaaaaaaaa.#",
".#aaaaaaaaaaaabaaaaaaaaaaaaaaa.#",
".#aaaaaaaaaaaabaaaaaaaaaaaaaaa.#",
".#aaaaaaaaaaaabbbaaaaaaaaaaaaa.#",
".#aaaaaaaaaaaaaabbaaaaaaaaaaaa.#",
".#aaaaaaaaaaaaaaabaaaaaaaaaaaa.#",
".#aaaaaaaaaaaaaaabaaaaaaaaaaaa.#",
".#aaaaaaaaaaaaaabbaaaaaaaaaaaa.#",
".#aaaaaaaaaaaabbbaaaaaaaaaaaaa.#",
".#aaaaaaaaaaaaaabbaaaaaaaaaaaa.#",
".#aaaaaaaaaaaaaaabaaaaaaaaaaaa.#",
".#aaaaaaaaaaaaaaabaaaaaaaaaaaa.#",
".#aaaaaaaaaaaaaabbaaaaaaaaaaaa.#",
".#aaaaaaaaaaaabbbaaaaaaaaaaaaa.#",
".#aaaaaaaaaaaaaabbaaaaaaaaaaaa.#",
".#aaaaaaaaaaaaaaabaaaaaaaaaaaa.#",
".#aaaaaaaaaaaaaaabaaaaaaaaaaaa.#",
".#aaaaaaaaaaaaaabbaaaaaaaaaaaa.#",
".#aaaaaaaaaaaabbbaaaaaaaaaaaaa.#",
".#aaaaaaaaaaaabaaaaaaaaaaaaaaa.#",
".#aaaaaaaaaaaabaaaaaaaaaaaaaaa.#",
".#aaaaaaaaaaaabaaaaaaaaaaaaaaa.#",
".#aaaaaaaaaaaaaaaaaaaaaaaaaaaa.#",
".#aaaaaaaaaaaaaaaaaaaaaaaaaaaa.#",
".#aaaaaaaaaaaaaaaaaaaaaaaaaaaa.#",
"...............................#",
"################################"};
