/* XPM */
static char *NMosfet1[]={
"32 32 4 1",
"b c #000000",
"# c #808080",
"a c #c0c0c0",
". c #f8fcf8",
"...............................#",
".#############################.#",
".#aaaaaaaaaaaaaaaaaaaaaaaaaaaa.#",
".#aaaaaaaaaaaaaaaaaaaaaaaaaaaa.#",
".#aaaaaaaaaaaaaaaaaaaaaaaaaaaa.#",
".#aaaaaaaaaaaaaaabaaaaaaaaaaaa.#",
".#aaaaaaaaaaaaaaabaaaaaaaaaaaa.#",
".#aaaaaaaaaaaaaaabaaaaaaaaaaaa.#",
".#aaaaaaaaaaaaaaabaaaaaaaaaaaa.#",
".#aaaaaaaaaaaaaaabaaaaaaaaaaaa.#",
".#aaaaaaaababbbbbbaaaaaaaaaaaa.#",
".#aaaaaaaababaaaaaaaaaaaaaaaaa.#",
".#aaaaaaaababaaaaaaaaaaaaaaaaa.#",
".#aaaaaaaababaaaaaaaaaaaaaaaaa.#",
".#aaaaaaaababaaaaaaaaaaaaaaaaa.#",
".#aaaabbbbbabaaaaaaaaaaaaaaaaa.#",
".#aaaaaaaababaaaaaaaaaaaaaaaaa.#",
".#aaaaaaaababaaaaaaaaaaaaaaaaa.#",
".#aaaaaaaababaaaaaaaaaaaaaaaaa.#",
".#aaaaaaaababaaaaaaaaaaaaaaaaa.#",
".#aaaaaaaababbbbbbaaaaaaaaaaaa.#",
".#aaaaaaaaaaaaaaabaaaaaaaaaaaa.#",
".#aaaaaaaaaaaaaaabaaaaaaaaaaaa.#",
".#aaaaaaaaaaaaaaabaaaaaaaaaaaa.#",
".#aaaaaaaaaaaaaaabaaaaaaaaaaaa.#",
".#aaaaaaaaaaaaaaabaaaaaaaaaaaa.#",
".#aaaaaaaaaaaaaaaaaaaaaaaaaaaa.#",
".#aaaaaaaaaaaaaaaaaaaaaaaaaaaa.#",
".#aaaaaaaaaaaaaaaaaaaaaaaaaaaa.#",
".#aaaaaaaaaaaaaaaaaaaaaaaaaaaa.#",
"...............................#",
"################################"};
