/* XPM */
static char *Resistor[]={
"32 32 4 1",
"b c #000000",
"# c #808080",
"a c #c0c0c0",
". c #f8fcf8",
"...............................#",
".#############################.#",
".#aaaaaaaaaaaaaaaaaaaaaaaaaaaa.#",
".#aaaaaaaaaaaaaaaaaaaaaaaaaaaa.#",
".#aaaaaaaaaaaaaaaaaaaaaaaaaaaa.#",
".#aaaaaaaaaaaabaaaaaaaaaaaaaaa.#",
".#aaaaaaaaaaaabaaaaaaaaaaaaaaa.#",
".#aaaaaaaaaaaabaaaaaaaaaaaaaaa.#",
".#aaaaaaaaaaaabaaaaaaaaaaaaaaa.#",
".#aaaaaaaaaabbbaaaaaaaaaaaaaaa.#",
".#aaaaaaaabbbbaaaaaaaaaaaaaaaa.#",
".#aaaaaaaaaaaabbbbaaaaaaaaaaaa.#",
".#aaaaaaaaaaaaabbbbaaaaaaaaaaa.#",
".#aaaaaaaaabbbbaaaaaaaaaaaaaaa.#",
".#aaaaaaaabbbbaaaaaaaaaaaaaaaa.#",
".#aaaaaaaaaaaabbbbaaaaaaaaaaaa.#",
".#aaaaaaaaaaaaabbbbaaaaaaaaaaa.#",
".#aaaaaaaaabbbbaaaaaaaaaaaaaaa.#",
".#aaaaaaaabbbbaaaaaaaaaaaaaaaa.#",
".#aaaaaaaaaaaabbbbaaaaaaaaaaaa.#",
".#aaaaaaaaaaaaabbbbaaaaaaaaaaa.#",
".#aaaaaaaaabbbbaaaaaaaaaaaaaaa.#",
".#aaaaaaaabbbbaaaaaaaaaaaaaaaa.#",
".#aaaaaaaaaaaabaaaaaaaaaaaaaaa.#",
".#aaaaaaaaaaaabaaaaaaaaaaaaaaa.#",
".#aaaaaaaaaaaabaaaaaaaaaaaaaaa.#",
".#aaaaaaaaaaaabaaaaaaaaaaaaaaa.#",
".#aaaaaaaaaaaaaaaaaaaaaaaaaaaa.#",
".#aaaaaaaaaaaaaaaaaaaaaaaaaaaa.#",
".#aaaaaaaaaaaaaaaaaaaaaaaaaaaa.#",
"...............................#",
"################################"};
