/* XPM */
static char *VSource2[]={
"32 32 4 1",
"b c #000000",
"# c #808080",
"a c #c0c0c0",
". c #f8fcf8",
"...............................#",
".#############################.#",
".#aaaaaaaaaaaaaaaaaaaaaaaaaaaa.#",
".#aaaaaaaaaaaaaaaaaaaaaaaaaaaa.#",
".#aaaaaaaaaaaaaaaaaaaaaaaaaaaa.#",
".#aaaaaaaaaaaabaaaaaaaaaaaaaaa.#",
".#aaaaaaaaaaaabaaaaaaaaaaaaaaa.#",
".#aaaaaaaaaaaabaaaaaaaaaaaaaaa.#",
".#aaaaaaaabaaabaaaaaaaaaaaaaaa.#",
".#aaaaaaabbbaabaaaaaaaaaaaaaaa.#",
".#aaaaaaaabaaabaaaaaaaaaaaaaaa.#",
".#aaaaaaaaaaaabaaaaaaaaaaaaaaa.#",
".#aaaaaaaaaaaabaaaaaaaaaaaaaaa.#",
".#aaaaaabbbbbbbbbbbbbaaaaaaaaa.#",
".#aaaaaaaaaaaaaaaaaaaaaaaaaaaa.#",
".#aaaaaaaaabbbbbbbaaaaaaaaaaaa.#",
".#aaaaaaaaaaaaaaaaaaaaaaaaaaaa.#",
".#aaaaaabbbbbbbbbbbbbaaaaaaaaa.#",
".#aaaaaaaaaaaaaaaaaaaaaaaaaaaa.#",
".#aaaaaaaaabbbbbbbaaaaaaaaaaaa.#",
".#aaaaaaaaaaaabaaaaaaaaaaaaaaa.#",
".#aaaaaaaaaaaabaaaaaaaaaaaaaaa.#",
".#aaaaaaabbbaabaaaaaaaaaaaaaaa.#",
".#aaaaaaaaaaaabaaaaaaaaaaaaaaa.#",
".#aaaaaaaaaaaabaaaaaaaaaaaaaaa.#",
".#aaaaaaaaaaaabaaaaaaaaaaaaaaa.#",
".#aaaaaaaaaaaabaaaaaaaaaaaaaaa.#",
".#aaaaaaaaaaaaaaaaaaaaaaaaaaaa.#",
".#aaaaaaaaaaaaaaaaaaaaaaaaaaaa.#",
".#aaaaaaaaaaaaaaaaaaaaaaaaaaaa.#",
"...............................#",
"################################"};
