<?xml version="1.0" standalone="no"?>
<!DOCTYPE svg PUBLIC "-//W3C//DTD SVG 20010904//EN" "http://www.w3.org/TR/2001/REC-SVG-20010904/DTD/svg10.dtd">
<!-- Created using Karbon, part of Calligra: http://www.calligra.org/karbon -->
<svg xmlns="http://www.w3.org/2000/svg" xmlns:xlink="http://www.w3.org/1999/xlink" width="595.277pt" height="841.891pt">
<defs/>
<g id="layer0">
  <path id="shape0" transform="translate(93.75, 143.352)" fill="#4d4d4d" d="M30.7572 658.933L0 658.933L0 705.999L30.7572 705.999L30.7572 753.067L61.5145 753.067L61.5145 705.999L492.115 705.999L492.115 658.933M61.5145 658.933L61.5145 611.866L61.5145 564.8L61.5145 423.599L61.5145 376.533L61.5145 329.466L61.5145 282.4L61.5145 141.199L61.5145 140.832L61.5145 94.1333L61.5145 0L30.7572 0L30.7572 282.4L30.7572 329.466L30.7572 564.8L31.8005 659.233M30.7572 611.866M30.7572 611.866L30.7572 658.933M123.029 658.933"/>
  <path id="shape1" transform="translate(265.908, 421.396)" fill="none" stroke="#000000" stroke-width="28.34650580000" stroke-linecap="square" stroke-linejoin="miter" stroke-miterlimit="2.00000000000" d="M1.01561 0L0 260.081L0 260.081L0 260.548"/>
  <path id="shape2" transform="translate(478.353, 297.704)" fill="none" stroke="#000000" stroke-width="28.34650580000" stroke-linecap="square" stroke-linejoin="miter" stroke-miterlimit="2.00000000000" d="M0 339.349C0 137.874 0.187589 24.7572 0.562768 0C0.562768 0 0.562768 0 0.562768 0"/>
  <path id="shape3" transform="translate(492.984, 371.989)" fill="none" stroke="#000000" stroke-width="28.34650580000" stroke-linecap="square" stroke-linejoin="miter" stroke-miterlimit="2.00000000000" d="M0 0C37.893 0 56.8395 0 56.8395 0"/>
  <path id="shape4" transform="translate(274.922, 582.462)" fill="none" stroke="#000000" stroke-width="28.34650580000" stroke-linecap="square" stroke-linejoin="miter" stroke-miterlimit="2.00000000000" d="M61.97 0C13.3121 0 -6.69174 0 1.95856 0"/>
 </g>
</svg>
