/* XPM */
static char * 121_xpm[] = {
"22 22 2 1",
" 	c None",
".	c black",
"                      ",
"                      ",
"     ..          ..   ",
"    ...         ...   ",
"   ....        ....   ",
"  .. ..       .. ..   ",
" ..  ..      ..  ..   ",
" .   ..      .   ..   ",
"     ..          ..   ",
"     ..   ..     ..   ",
"     ..   ..     ..   ",
"     ..          ..   ",
"     ..          ..   ",
"     ..          ..   ",
"     ..   ..     ..   ",
"     ..   ..     ..   ",
"     ..          ..   ",
"     ..          ..   ",
"     ..          ..   ",
"   ......      ...... ",
"                      ",
"                      "};
