/* XPM */
static char * circle_xpm[] = {
"22 22 5 1",
" 	c None",
".	c #000000000000",
"+	c #FFFFFF",
"#	c #C0C0C0",
"$	c #A0A0A4",
"        .....         ",
"      ..     ..       ",
"     .         .      ",
"    .           .     ",
"    .           .     ",
"   .             .    ",
"   .             .    ",
"   .             .    ",
"   .             .    ",
"    .           .     ",
"    .           .     ",
"     .         .      ",
"      ..     ..       ",
"        .....  .......",
"                ..... ",
"                 ...  ",
"                  .   ",
"......................",
".+++++++++++++++++++$.",
".+##################$.",
".$$$$$$$$$$$$$$$$$$$$.",
"......................"};
