/* XPM */
static char * insertrow_xpm[] = {
"20 20 5 1",
" 	c None",
".	c #000000",
"+	c #FFFFFF",
"@	c #DCDCDC",
"#	c #C3C3C3",
"                    ",
"                    ",
"                    ",
"                    ",
"  .......           ",
"  +++++@.           ",
"  @@@@@#.           ",
"  ######.           ",
"  ........... .     ",
"  +++++++++@. ..    ",
"  @@@@@@@@@#.....   ",
"  ##########. ..    ",
"  ........... .     ",
"  +++++@.           ",
"  @@@@@#.           ",
"  ######.           ",
"  .......           ",
"                    ",
"                    ",
"                    "};
