/* XPM */
static char * text_xpm[] = {
"20 20 2 1",
" 	s None	c None",
".	c #FFFF00000000",
"                    ",
"                    ",
"                    ",
"                    ",
"         ..         ",
"        ....        ",
"       ......       ",
"       ..  ..       ",
"       ..  ..       ",
"      ..    ..      ",
"      ..    ..      ",
"      ........      ",
"     ..........     ",
"     ..      ..     ",
"     ..      ..     ",
"    ....    ....    ",
"                    ",
"                    ",
"                    ",
"                    "};
