/* XPM */
static char * pie_xpm[] = {
"20 20 3 1",
" 	c none",
".	c #000000000000",
"X	c #00000000FFFF",
"                    ",
"                    ",
"        ....        ",
"      ..XXXX..      ",
"     .XXXXXXXX.     ",
"    .XXXXXXXXXX.    ",
"    .XXXXXXXXXX.    ",
"   .XXXXXXXXXXXX.   ",
"   .XXXXXXXXXXXX.   ",
"   .XXXXX..XXXXX.   ",
"   .XXXXX. .XXXX.   ",
"   .XXXX.  .XXXX.   ",
"    .XXX.   .XX.    ",
"    .XX.    .XX.    ",
"     .X.     ..     ",
"      .      .      ",
"                    ",
"                    ",
"                    ",
"                    "};
