/* XPM */
static char * last_xpm[] = {
/* See http://www.kde.org */
"22 22 5 1",
" 	c None",
".	c black",
"X	c white",
"o	c #c0c0c0",
"O	c #808080",
"                      ",
"                      ",
"                      ",
"                      ",
"                      ",
"           .     .    ",
"           ..    .    ",
"           .X.   .    ",
"    ........XX.  .    ",
"    .XXXXXXXoXX. .    ",
"    .oooooooooXX..    ",
"    .oooooooooX. .    ",
"    ........oX.O .    ",
"    OOOOOOO.X.O  .    ",
"          O..O   .    ",
"          O.O    .    ",
"          OO          ",
"          O           ",
"                      ",
"                      ",
"                      ",
"                      "};
