/* XPM */
static char * arrow_head_xpm[] = {
"19 19 12 1",
" 	c None",
".	c #000000",
"+	c #FFFFFF",
"@	c #DCDCDC",
"#	c #C3C3C3",
"$	c #808080",
"%	c #C05800",
"&	c #FF8000",
"*	c #FFA858",
"=	c #585858",
"-	c #303030",
";	c #00FF00",
"                   ",
"                   ",
"                   ",
"                   ",
"        ...        ",
"      ..++.        ",
"    ..+@#.         ",
"  ..+#@#@.         ",
" .+#@###...........",
".$$$$$$$.%&&*******",
" .$=$=$=...........",
"  ..-=-=-.         ",
"    ..=--.         ",
"      ..--.        ",
"        ... .......",
"            .;;;;;.",
"             .;;;. ",
"              .;.  ",
"               .   "};
