/* XPM */
static char * lower_xpm[] = {
"22 22 4 1",
" 	s None	c None",
".	c black",
"X	c blue",
"o	c yellow",
"                      ",
"                      ",
"                      ",
"                      ",
"   ............       ",
"   ...XXXXXX...       ",
"   ...XXXXXX...       ",
"   .XXoooooooooooo    ",
"   .XXoooooooooooo    ",
"   .XXoooooooooooo    ",
"   .XXoooooooooooo    ",
"   ...oooooooooooo    ",
"   ...oooooooooooo    ",
"   ...oooooooooooo    ",
"      oooooooooooo    ",
"      oooooooooooo    ",
"      oooooooooooo    ",
"                      ",
"                      ",
"                      ",
"                      ",
"                      "};
