/* XPM */
static char * picture_xpm[] = {
"18 18 203 3",
"   	c #000000001040",
".  	c #0000041028A2",
"X  	c #000000005144",
"o  	c #000000006185",
"O  	c #0000000071C6",
"+  	c #0000000069A6",
"@  	c #000000008617",
"#  	c #0820000079E7",
"$  	c #0000000079E7",
"%  	c #000004106185",
"&  	c #000000004924",
"*  	c #0000041038E3",
"=  	c #104018616185",
"-  	c #10400C308E38",
";  	c #082008209E79",
":  	c #10400C30A699",
">  	c #08200820A699",
",  	c #10400820AEBA",
"<  	c #10400820A699",
"1  	c #104014519E79",
"2  	c #0000041079E7",
"3  	c #000008208617",
"4  	c #104004108E38",
"5  	c #186100009658",
"6  	c #104000009658",
"7  	c #000004109E79",
"8  	c #00002081A699",
"9  	c #00000C3071C6",
"0  	c #00000C30A699",
"q  	c #00000410C71B",
"w  	c #00000410DF7D",
"e  	c #08200410E79D",
"r  	c #08200000DF7D",
"t  	c #08200000E79D",
"y  	c #00000000DF7D",
"u  	c #00000000C71B",
"i  	c #00002081BEFB",
"p  	c #00001C718E38",
"a  	c #08201C7179E7",
"s  	c #186110409658",
"d  	c #10401451D75C",
"f  	c #00000000B6DA",
"g  	c #082010408E38",
"h  	c #000000008E38",
"j  	c #00000820B6DA",
"k  	c #00000000E79D",
"l  	c blue",
"z  	c #08200000FFFF",
"x  	c #00000000F7DE",
"c  	c #00001861FFFF",
"v  	c #00000820A699",
"b  	c #00001C714103",
"n  	c #D75CE38DE79D",
"m  	c #DF7DD75CFFFF",
"M  	c #1040082071C6",
"N  	c #10401040DF7D",
"B  	c #104010409658",
"V  	c #000000005965",
"C  	c #08200000F7DE",
"Z  	c #08200410EFBE",
"A  	c #00000000EFBE",
"S  	c #00000820FFFF",
"D  	c #082020819E79",
"F  	c #E79DEBAD9E79",
"G  	c #FFFFFBEE5965",
"H  	c #FFFFF3CE71C6",
"J  	c #F7DEDF7DC71B",
"K  	c #208118619E79",
"L  	c #00000000BEFB",
"P  	c #08200C309658",
"I  	c #08200000D75C",
"U  	c #00000410FFFF",
"Y  	c #00000410F7DE",
"T  	c #000010409658",
"R  	c #E79DE38DA699",
"E  	c #F7DEEFBE5965",
"W  	c #FFFFE79D71C6",
"Q  	c #EFBEDB6CC71B",
"!  	c #104008209658",
"~  	c #00000820C71B",
"^  	c #08201040B6DA",
"/  	c #00000820E79D",
"(  	c #1040208171C6",
")  	c #D75CDB6CFFFF",
"_  	c #E79DD34CFFFF",
"`  	c #28A210408617",
"'  	c #08200000BEFB",
"]  	c #00000820CF3C",
"[  	c #082010409658",
"{  	c #00000C30AEBA",
"}  	c #08201451C71B",
"|  	c #00000820AEBA",
" . 	c #08200000AEBA",
"...	c #18610C30CF3C",
"X..	c #00000820D75C",
"o..	c #000018619658",
"O..	c #00000000A699",
"+..	c #00000000D75C",
"@..	c #08201861FFFF",
"#..	c #18610000FFFF",
"$..	c #08200000EFBE",
"%..	c #00000410EFBE",
"&..	c #08200820DF7D",
"*..	c #00000410CF3C",
"=..	c #00001040DF7D",
"-..	c #00000410E79D",
";..	c #00001451D75C",
":..	c #0000104079E7",
">..	c #082034D39E79",
",..	c #000038E39E79",
"<..	c #000014518617",
"1..	c #00001451A699",
"2..	c #00001040B6DA",
"3..	c #00000410B6DA",
"4..	c #00000820BEFB",
"5..	c #00001C71DF7D",
"6..	c #00000C30CF3C",
"7..	c #00001861D75C",
"8..	c #00001040AEBA",
"9..	c #000030C29658",
"0..	c #0000249271C6",
"q..	c #000030C29E79",
"w..	c #000020818617",
"e..	c #00003CF369A6",
"r..	c #00000C302081",
"t..	c #00001C7130C2",
"y..	c #000030C21861",
"u..	c #1040C30B4924",
"i..	c #2081E38D5965",
"p..	c #4924CF3C8617",
"a..	c #000034D330C2",
"s..	c #000041038E38",
"d..	c #000034D3A699",
"f..	c #00002CB28617",
"g..	c #000030C271C6",
"h..	c #000030C25965",
"j..	c #0000451428A2",
"k..	c #2081D75C5144",
"l..	c #1861E79D4103",
"z..	c #2081E38D6185",
"x..	c #38E3D75C79E7",
"c..	c #4103A69979E7",
"v..	c #000024921040",
"b..	c #000018610000",
"n..	c #4924C30B5965",
"m..	c #2081FFFF1861",
"M..	c #1040FFFF0820",
"N..	c #1040D75C1040",
"B..	c #38E3DB6C6185",
"V..	c #28A2B6DA9E79",
"C..	c #30C2BAEABEFB",
"Z..	c #38E3CB2BB6DA",
"A..	c #30C2CF3C9658",
"S..	c #30C2D34C79E7",
"D..	c #2081DF7D4924",
"F..	c #0000F7DE0000",
"G..	c green",
"H..	c #1861FBEE0820",
"J..	c #28A2D75C2081",
"K..	c #5965CF3C69A6",
"L..	c #000028A20000",
"P..	c #4924CB2B38E3",
"I..	c #1861FFFF1861",
"U..	c #1861FFFF2081",
"Y..	c #2081E38D28A2",
"T..	c #4103D75C4103",
"R..	c #4924DB6C4924",
"E..	c #1861C30B2081",
"W..	c #30C2F7DE4103",
"Q..	c #0820F3CE30C2",
"!..	c #0000F3CE1861",
"~..	c #0000FFFF0820",
"^..	c #0820FFFF0000",
"/..	c #1861DB6C0000",
"(..	c #4924DB6C28A2",
")..	c #5144C71B4924",
"_..	c #4103C71B30C2",
"`..	c #2081EBAD1040",
"'..	c #0820FBEE0000",
"]..	c #0000EBAD0000",
"[..	c #2081E38D0000",
"{..	c black",
"}..	c #000030C20000",
"|..	c #5144DB6C5965",
" X.	c #38E3CF3C1040",
".X.	c #000096580000",
"XXX	c #1040FFFF0000",
"oXX	c None",
"OXX	c #4103C71B5965",
"+XX	c #5965CF3C30C2",
"@XX	c #4924DF7D1861",
"#XX	c #2081FBEE1861",
"$XX	c #0000EFBE0000",
"%XX	c #0820F7DE0000",
"&XX	c #4924AEBA5144",
"*XX	c #71C6DF7D6185",
"=XX	c #4103C71B38E3",
"-XX	c #30C2D75C38E3",
";XX	c #30C2E38D38E3",
":XX	c #28A2D34C2081",
">XX	c #00001C710000",
",XX	c #000041030000",
"<XX	c #000034D30000",
"   .  X  o  o  o  O  +  X  o  O  @  #  $  $  +  %  &  ",
"*  =  -  ;  :  >  ,  <  1  2  3  4  5  6  7  8  9  &  ",
"O  0  q  w  e  r  t  y  u  i  p  a  s  ,  d  f  g  X  ",
"h  j  k  l  z  x  l  x  c  v  b  n  m  M  f  N  B  V  ",
"O  ,  r  C  Z  A  S  S  k  D  F  G  H  J  K  L  P  V  ",
"+  <  I  A  k  k  U  U  Y  T  R  E  W  Q  !  ~  P  o  ",
"$  ^  /  U  U  x  U  l  U  ~  (  )  _  `  '  ]  [  V  ",
"$  {  /  U  l  x  C  x  U  k  }  |   . ...y  X..o..X  ",
"@  O..+..@..A  #..$..%..Y  S  y  &..*..=..-..;..:..*  ",
"o  >..,..<..1..2..3..4..5..6..7..8..9..0..q..w..e..r..",
"t..y..u..i..p..a..s..d..f..g..h..j..k..l..z..x..c..v..",
"b..n..m..M..N..B..V..C..Z..A..S..D..F..G..H..J..K..L..",
"L..P..I..F..U..Y..T..R..E..W..Q..!..~..^../..(..)..L..",
"L.._..`..'..]..m..[..{..{..{..{..{..{..{..{..{..{..{..",
"}..|.. X..X.M..G..XXX{..oXXoXXoXXoXXoXXoXXoXXoXXoXXoXX",
"}..OXX+XX@XX#XX$XX%XX{..oXX{..{..oXX{..{..oXX{..{..oXX",
"}..&XX*XX=XX-XX;XX:XX{..oXX{..{..oXX{..{..oXX{..{..oXX",
">XXL..L..}..,XX,XX<XX{..oXXoXXoXXoXXoXXoXXoXXoXXoXXoXX"};
