/* XPM */
static char * pie_xpm[] = {
"22 22 6 1",
" 	c none",
".	c #000000000000",
"X	c #00000000FFFF",
"+	c #FFFFFF",
"#	c #C0C0C0",
"$	c #A0A0A4",
"        ....          ",
"      ..XXXX..        ",
"     .XXXXXXXX.       ",
"    .XXXXXXXXXX.      ",
"    .XXXXXXXXXX.      ",
"   .XXXXXXXXXXXX.     ",
"   .XXXXXXXXXXXX.     ",
"   .XXXXX..XXXXX.     ",
"   .XXXXX. .XXXX.     ",
"   .XXXX.  .XXXX.     ",
"    .XXX.   .XX.      ",
"    .XX.    .XX.      ",
"     .X.     ..       ",
"      .      . .......",
"                ..... ",
"                 ...  ",
"                  .   ",
"......................",
".+++++++++++++++++++$.",
".+##################$.",
".$$$$$$$$$$$$$$$$$$$$.",
"......................"};