/* XPM */
static char * rectangleRound_xpm[] = {
"22 22 2 1",
" 	s None	c None",
".	c black",
"                      ",
"                      ",
"                      ",
"                      ",
"                      ",
"                      ",
"    .............     ",
"   .             .    ",
"  .               .   ",
"  .               .   ",
"  .               .   ",
"  .               .   ",
"  .               .   ",
"  .               .   ",
"   .             .    ",
"    ............      ",
"                      ",
"                      ",
"                      ",
"                      ",
"                      ",
"                      "};
