/* XPM */
static char*recttool[]={
"20 20 4 1",
"b c #808080",
"# c #000000",
". c None",
"a c #dcdcdc",
"....................",
"....................",
"....................",
"....................",
"....############....",
"....#aaaaaaaaaa#b...",
"....#aaaaaaaaaa#b...",
"....#aaaaaaaaaa#b...",
"....#aaaaaaaaaa#b...",
"....#aaaaaaaaaa#b...",
"....#aaaaaaaaaa#b...",
"....#aaaaaaaaaa#b...",
"....#aaaaaaaaaa#b...",
"....#aaaaaaaaaa#b...",
"....#aaaaaaaaaa#b...",
"....############b...",
".....bbbbbbbbbbbb...",
"....................",
"....................",
"...................."};
