/* XPM */
static char * screen_xpm[] = {
/* See http://www.kde.org */
"22 22 3 1",
" 	c None",
".	c black",
"X	c cyan",
"                      ",
"                      ",
"                      ",
"      ..........      ",
"     .XXXXXXXXXX.     ",
"    .XXXXX..XXXXX.    ",
"   .XXXXX....XXXXX.   ",
"   .XXXXXX..XXXXXX.   ",
"   .XXXXXX..XXXXXX.   ",
"   .XX.XXX..XXX.XX.   ",
"   .X............X.   ",
"   .X............X.   ",
"   .XX.XXX..XXX.XX.   ",
"   .XXXXXX..XXXXXX.   ",
"   .XXXXXX..XXXXXX.   ",
"   .XXXXX....XXXXX.   ",
"    .XXXXX..XXXXX.    ",
"     .XXXXXXXXXX.     ",
"      ..........      ",
"                      ",
"                      ",
"                      "};
