/* XPM */
static char * shadow_xpm[] = {
"20 20 3 1",
" 	c none",
".	c #FFFF00000000",
"X	c #000000000000",
"                    ",
"                    ",
"                    ",
"                    ",
"  ..............    ",
"  ..............    ",
"  ..............XX  ",
"  ..............XX  ",
"  ..............XX  ",
"  ..............XX  ",
"  ..............XX  ",
"  ..............XX  ",
"  ..............XX  ",
"    XXXXXXXXXXXXXX  ",
"    XXXXXXXXXXXXXX  ",
"                    ",
"                    ",
"                    ",
"                    ",
"                    "};
