/* XPM */
static char * stop_xpm[] = {
/* See http://www.kde.org */
"22 22 3 1",
" 	c None",
".	c blue",
"X	c gray",
"                      ",
"                      ",
"                      ",
"   ................   ",
"   ................X  ",
"   ................X  ",
"   ................X  ",
"   ................X  ",
"   ................X  ",
"   ................X  ",
"   ................X  ",
"   ................X  ",
"   ................X  ",
"   ................X  ",
"   ................X  ",
"   ................X  ",
"   ................X  ",
"   ................X  ",
"   ................X  ",
"    XXXXXXXXXXXXXXXX  ",
"                      ",
"                      "};
