/* XPM */
static char *c10[]={
"10 10 15 1",
"j c #030303",
"f c #080808",
"i c #0d0d0d",
"e c #222222",
"g c #232323",
"d c #848484",
"k c #858585",
"b c #b5b5b5",
"m c #b6b6b6",
"a c #d8d8d8",
"l c #d9d9d9",
"c c #eeeeee",
"h c #efefef",
"# c #f9f9f9",
". c #ffffff",
"..#abba#..",
".cdeffgdh.",
"#dijjjjik.",
"agjjjjjjga",
"bfjjjjjjfb",
"bfjjjjjjfb",
"agjjjjjjga",
".kijjjjik.",
".hkgffgkh.",
"..#lmml#.."};
