/* XPM */
static char *d20[]={
"20 20 12 1",
"f c #303030",
"c c #313131",
"b c #414141",
"j c #424242",
"g c #434343",
"e c #585858",
"h c #595959",
"d c #d8d8d8",
"a c #d9d9d9",
"i c #dadada",
"# c #fefefe",
". c #ffffff",
"....................",
"....................",
"....................",
"....................",
"....................",
"...........###......",
"...........abc......",
".........#defg......",
".........abfhi......",
".......#defja.......",
".......abfhi........",
".....#defja.........",
".....#bfhi..........",
".....#cja...........",
"....................",
"....................",
"....................",
"....................",
"....................",
"...................."};
