/* XPM */
static const char * r1_xpm[] = {
"2 5 2 1",
" 	c None",
".	c #000000",
" .",
"..",
" .",
" .",
" ."};
