/* XPM */
static char *Activity[]={
"32 32 6 1",
"c c #000000",
"# c #808080",
"a c #c0c0c0",
"b c #c3c3c3",
". c #f8fcf8",
"d c #ffffff",
"...............................#",
".#############################.#",
".#aaaaaaaaaaaaaaaaaaaaaaaaaaaa.#",
".#aaaaaaaaaaaaaaaaaaaaaaaaaaaa.#",
".#aabbbbccccccccccccccccbbbbaa.#",
".#aabbccddddddddddddddddccbbaa.#",
".#aabcddddddddddddddddddddc#aa.#",
".#aabcddddddddddddddddddddc#aa.#",
".#aacddddddddddddddddddddddc#a.#",
".#aacddddddddddddddddddddddc#a.#",
".#aacddddddddddddddddddddddc#a.#",
".#aacddddddddddddddddddddddc#a.#",
".#aacddddddddddddddddddddddc#a.#",
".#aacddddddddddddddddddddddc#a.#",
".#aacddddddddddddddddddddddc#a.#",
".#aacddddddddddddddddddddddc#a.#",
".#aacddddddddddddddddddddddc#a.#",
".#aacddddddddddddddddddddddc#a.#",
".#aacddddddddddddddddddddddc#a.#",
".#aacddddddddddddddddddddddc#a.#",
".#aacddddddddddddddddddddddc#a.#",
".#aacddddddddddddddddddddddc#a.#",
".#aacddddddddddddddddddddddc#a.#",
".#aacddddddddddddddddddddddc#a.#",
".#aabcddddddddddddddddddddc#aa.#",
".#aabcddddddddddddddddddddc#ba.#",
".#aabbccddddddddddddddddcc#bba.#",
".#aabbb#cccccccccccccccc###baa.#",
".#aaaaaa################aaaaaa.#",
".#aaaaaaaaaaaaaaaaaaaaaaaaaaaa.#",
"...............................#",
"################################"};
