/* XPM */
static char *Fork[]={
"32 32 5 1",
"c c #000000",
"# c #808080",
"a c #c0c0c0",
"b c #c3c3c3",
". c #f8fcf8",
"...............................#",
".#############################.#",
".#aaaaaaaaaaaaaaaaaaaaaaaaaaaa.#",
".#aaaaaaaaaaaaaaaaaaaaaaaaaaaa.#",
".#aabbbbbbbbbbbbbbbbbbbbbbbaaa.#",
".#aabbbbbbbbbbbbbbbbbbbbbbbaaa.#",
".#aabbbbbbbbbbbbbbbbbbbbbbbaaa.#",
".#aabbbbbbbbbbbbbbbbbbbbbbbaaa.#",
".#aabbbbbbbbbbbbbbbbbbbbbbbaaa.#",
".#aabbbbbbbbbbbbbbbbbbbbbbbaaa.#",
".#aabbbbbbbbbbbbbbbbbbbbbbbaaa.#",
".#aabbbbbbbbbbbbbbbbbbbbbbbaaa.#",
".#aabbbbbbbbbbbbbbbbbbbbbbbaaa.#",
".#acccccccccccccccccccccccccaa.#",
".#accccccccccccccccccccccccc#a.#",
".#aa#########################a.#",
".#aabbbbbbbbbbbbbbbbbbbbbbbaaa.#",
".#aabbbbbbbbbbbbbbbbbbbbbbbaaa.#",
".#aabbbbbbbbbbbbbbbbbbbbbbbaaa.#",
".#aabbbbbbbbbbbbbbbbbbbbbbbaaa.#",
".#aabbbbbbbbbbbbbbbbbbbbbbbaaa.#",
".#aabbbbbbbbbbbbbbbbbbbbbbbaaa.#",
".#aabbbbbbbbbbbbbbbbbbbbbbbaaa.#",
".#aabbbbbbbbbbbbbbbbbbbbbbbaaa.#",
".#aabbbbbbbbbbbbbbbbbbbbbbbaaa.#",
".#aabbbbbbbbbbbbbbbbbbbbbbbaaa.#",
".#aabbbbbbbbbbbbbbbbbbbbbbbaaa.#",
".#aaaaaaaaaaaaaaaaaaaaaaaaaaaa.#",
".#aaaaaaaaaaaaaaaaaaaaaaaaaaaa.#",
".#aaaaaaaaaaaaaaaaaaaaaaaaaaaa.#",
"...............................#",
"################################"};
