/* XPM */
static char * chart_xpm[] = {
"22 22 3 1",
" 	c None",
".	c #000000000000",
"X	c #861782078617",
"                      ",
"                      ",
"  .                   ",
"  .  XXX              ",
"  .  XXX              ",
"  .  XXX              ",
"  .  XXX       XXX    ",
"  .  XXX       XXX    ",
"  .  XXX  XXX  XXX    ",
"  .  XXX  XXX  XXX    ",
"  .  XXX  XXX  XXX    ",
"  .  XXX  XXX  XXX    ",
"  .  XXX  XXX  XXX    ",
"  .  XXX  XXX  XXX    ",
"  .  XXX  XXX  XXX    ",
"  .  XXX  XXX  XXX    ",
"  .  XXX  XXX  XXX    ",
"  .  XXX  XXX  XXX    ",
"  .  XXX  XXX  XXX    ",
" ...................  ",
"  .                   ",
"                      "};
