/* XPM */
static char*kspread[]={
"16 16 6 1",
"c c #a0a0a0",
"a c #00ffff",
"# c #000000",
". c None",
"d c #ffff00",
"b c #ffffff",
"..##############",
"..#aaa#aa#aa#aa#",
"..##############",
"..#aaa#bb#bb#bb#",
"..#aaa#bb#bb#bb#",
"..##############",
"..#aaa#bb#bb#bb#",
"..c######bbb#bb#",
"..##dddd########",
".##d###dd#bb#bb#",
"#dddddd##cbb#bb#",
".#d####cc#######",
"#dddddc##c......",
"###d###dd#......",
"..##dddd#.......",
"....####........"};
