/* XPM */
static char*kspread[]={
"32 32 4 1",
"# c #000000",
". c None",
"b c #dcdcdc",
"a c #ffffff",
"................................",
"................................",
"................................",
"...###########################..",
"...#aaaaaaaa#aaaaaaaa#aaaaaaab..",
"...#aaaaaaaa#aaaaaaaa#aaaaaab...",
"...#aaaaaaaa#aaaaaaaa#aaaaaaab..",
"...#aaaaaaaa#aaaaaaaa#aaaaaaaa..",
"...###########################..",
"...#aaaaaaaa#aaaaaaaa#aaaaaaaa..",
"...#aaaaaaaa#aaaaaaaa#aaaaaaaa..",
"...#aaaaaaaa#aaaaaaaa#aaaaaaaa..",
"...#aaaaaaaa#aaaaaaaa#aaaaaa....",
"...#########################....",
"...#aaaaaaaa#aaaaaaaa#aaaaaa....",
"...#aaaaaaaa#aaaaaaaa#aaaaaaa...",
"...#aaaaaaaa#aaaaaaaa#aaaaaaa...",
"...#aaaaaaaa#aaaaaaaa#aaaaaaa...",
"...##########################...",
"...#aaaaaaaa#aaaaaaaa#aaaaaaa...",
"...#aaaaaaaa#aaaaaaaa#aaaaaaa...",
"...#aaaaaaaa#aaaaaaaa#aaaaaa....",
"...#aaaaaaaa#aaaaaaaa#aaaaaaaa..",
"...###########################..",
"...#aaaaaaaa#aaaaaaaa#aaaaaaaa..",
"...#aaaaaaaa#aaaaaaaa#aaaaaaaa..",
"...#aaabbaaa#aaaabbba#aaaaabaa..",
"...#aab..bbb.......ba#aab.......",
"...###..............####........",
"................................",
"................................",
"................................"};
