/* XPM */
static char * money_xpm[] = {
"21 19 7 1",
" 	c none",
".	c #000000000000",
"X	c #000086170000",
"o	c #FFFFFFFFFFFF",
"O	c #FFFFFFFF0000",
"+	c #861786170000",
"@	c #861786178617",
"                     ",
"                     ",
"                     ",
"                     ",
"   ...............   ",
"   .XX         XX.   ",
"   .X    ...    X.   ",
"   .    .   .    .   ",
"   .    .  ....  .   ",
"   .X    ...oOO.X.   ",
"   .XX     .+++.X.   ",
"   .........   ...   ",
"           .+++.     ",
"    @...@  .   .     ",
"    .oOO.@...@.@     ",
"    @...@.oOO.       ",
"         @...@       ",
"                     ",
"                     "};

