/* XPM */
static char*precminus[]={
"22 22 4 1",
"a c #a0a0a0",
"# c #000000",
". c None",
"b c #ffffff",
"......................",
"......................",
".......#.....###......",
".......##...##..#.....",
"....######..##..#.....",
".......##...##..#.....",
".......#....##..#.....",
"............##..#.....",
".........##..###......",
".........##...........",
"........a#............",
"......................",
"............#########.",
"............#bbbbbbb#.",
"............#bbbbbbb#.",
"............#bbbbbbb#.",
"............#b#####b#.",
"............#bbbbbbb#.",
"............#bbbbbbb#.",
"............#bbbbbbb#.",
"............#########.",
"......................"};
