/* XPM */
static char*precplus[]={
"22 22 4 1",
"a c #a0a0a0",
"# c #000000",
". c None",
"b c #ffffff",
"......................",
"......................",
"...#......###...###...",
"..##.....##..#.##..#..",
".#####...##..#.##..#..",
"..##.....##..#.##..#..",
"...#.....##..#.##..#..",
".........##..#.##..#..",
"......##..###...###...",
"......##..............",
".....a#...............",
"......................",
"............#########.",
"............#bbbbbbb#.",
"............#bbb#bbb#.",
"............#bbb#bbb#.",
"............#b#####b#.",
"............#bbb#bbb#.",
"............#bbb#bbb#.",
"............#bbbbbbb#.",
"............#########.",
"......................"};
