/* XPM */
static char*rowin[]={
"20 20 4 1",
"# c #000000",
". c None",
"a c #dcdcdc",
"b c #ffffff",
"....................",
"....................",
"..#######...........",
"..aaaaaa#...........",
"..aaaaaa#...........",
"..aaaaaa#...........",
"..#######...........",
"..........#..#####..",
".........##..#bbbb..",
"........######bbbb..",
".........##..#bbbb..",
"..........#..#####..",
"..#######...........",
"..aaaaaa#...........",
"..aaaaaa#...........",
"..aaaaaa#...........",
"..#######...........",
"....................",
"....................",
"...................."};
