/* XPM */
static char*rowout[]={
"20 20 4 1",
"# c #000000",
". c None",
"b c #dcdcdc",
"c c #ffffff",
"....................",
"....................",
"....................",
"....................",
"..#######...........",
"..bbbbbb#...........",
"..bbbbbb#...........",
"..bbbbbb#...........",
"..###########..#....",
"..cccccccccc#..##...",
"..cccccccccc######..",
"..cccccccccc#..##...",
"..###########..#....",
"..bbbbbb#...........",
"..bbbbbb#...........",
"..bbbbbb#...........",
"..#######...........",
"....................",
"....................",
"...................."};





