<?xml version="1.0" encoding="UTF-8" standalone="no"?>
<svg
   xmlns:dc="http://purl.org/dc/elements/1.1/"
   xmlns:cc="http://web.resource.org/cc/"
   xmlns:rdf="http://www.w3.org/1999/02/22-rdf-syntax-ns#"
   xmlns:svg="http://www.w3.org/2000/svg"
   xmlns="http://www.w3.org/2000/svg"
   xmlns:sodipodi="http://inkscape.sourceforge.net/DTD/sodipodi-0.dtd"
   xmlns:inkscape="http://www.inkscape.org/namespaces/inkscape"
   height="60"
   width="60"
   _SVGFile__filename="oldscale/actions/aobottom.svg"
   version="1.0"
   y="0"
   x="0"
   id="svg1"
   sodipodi:version="0.32"
   inkscape:version="0.41"
   sodipodi:docname="crsc-action-template_pricequotation.svg"
   sodipodi:docbase="/home/danny/work/kde/koffice/templates/kspread"
   inkscape:export-filename="/home/danny/work/kde/koffice/templates/kspread/cr48-action-template_pricequotation.png"
   inkscape:export-xdpi="72.000000"
   inkscape:export-ydpi="72.000000">
  <sodipodi:namedview
     id="base"
     pagecolor="#ffffff"
     bordercolor="#666666"
     borderopacity="1.0"
     inkscape:pageopacity="0.0000000"
     inkscape:pageshadow="2"
     inkscape:zoom="6.0612328"
     inkscape:cx="64.719876"
     inkscape:cy="29.172597"
     inkscape:window-width="1020"
     inkscape:window-height="691"
     inkscape:window-x="0"
     inkscape:window-y="0"
     inkscape:current-layer="svg1" />
  <defs
     id="defs3" />
  <metadata
     id="metadata7">
    <RDF
       id="RDF8">
      <Work
         about=""
         id="Work9">
        <title
           id="title10">Part of the Flat Icon Collection (Thu Aug 26 14:38:01 2004)</title>
        <description
           id="description12" />
        <subject
           id="subject13">
          <Bag
             id="Bag14">
            <li
               id="li15" />
          </Bag>
        </subject>
        <publisher
           id="publisher16">
          <Agent
             about=""
             id="Agent17">
            <title
               id="title18" />
          </Agent>
        </publisher>
        <creator
           id="creator19">
          <Agent
             about=""
             id="Agent20">
            <title
               id="title21">Danny Allen</title>
          </Agent>
        </creator>
        <rights
           id="rights23">
          <Agent
             about=""
             id="Agent24">
            <title
               id="title25">Danny Allen</title>
          </Agent>
        </rights>
        <date
           id="date27" />
        <format
           id="format28">image/svg+xml</format>
        <type
           id="type30"
           resource="http://purl.org/dc/dcmitype/StillImage" />
        <license
           id="license31"
           resource="http://creativecommons.org/licenses/LGPL/2.1/">
          <date
             id="date32" />
        </license>
        <language
           id="language33">en</language>
      </Work>
    </RDF>
    <rdf:RDF
       id="RDF35">
      <cc:Work
         rdf:about=""
         id="Work36">
        <dc:format
           id="format37">image/svg+xml</dc:format>
        <dc:type
           id="type39"
           rdf:resource="http://purl.org/dc/dcmitype/StillImage" />
      </cc:Work>
    </rdf:RDF>
  </metadata>
  <g
     transform="matrix(1.051254,0.000000,0.000000,1.051254,-1.537634,-1.537634)"
     id="g2079">
    <path
       style="color:#000000;fill:none;fill-opacity:1.0000000;fill-rule:nonzero;stroke:#ffffff;stroke-width:7.1343279;stroke-linecap:round;stroke-linejoin:round;stroke-miterlimit:4.0000000;stroke-dashoffset:0.0000000;stroke-opacity:1.0000000;marker:none;marker-start:none;marker-mid:none;marker-end:none;visibility:visible;display:block"
       d="M 11.750000,54.375000 L 11.750000,5.6250000 L 39.437500,5.6250000 L 48.250000,14.437500 L 48.250000,54.375000 L 11.750000,54.375000 z "
       id="path2077"
       sodipodi:nodetypes="cccccc" />
    <path
       style="color:#000000;fill:#ffffff;fill-opacity:1.0000000;fill-rule:nonzero;stroke:#000000;stroke-width:2.3781095;stroke-linecap:round;stroke-linejoin:round;stroke-miterlimit:4.0000000;stroke-dashoffset:0.0000000;stroke-opacity:1.0000000;marker:none;marker-start:none;marker-mid:none;marker-end:none;visibility:visible;display:block"
       d="M 11.750000,54.375000 L 11.750000,5.6250000 L 39.437500,5.6250000 L 48.250000,14.437500 L 48.250000,54.375000 L 11.750000,54.375000 z "
       id="rect1089"
       sodipodi:nodetypes="cccccc" />
    <path
       style="color:#000000;fill:#000000;fill-opacity:1.0000000;fill-rule:nonzero;stroke:#000000;stroke-width:2.3781095;stroke-linecap:round;stroke-linejoin:round;stroke-miterlimit:4.0000000;stroke-dashoffset:0.0000000;stroke-opacity:1.0000000;marker:none;marker-start:none;marker-mid:none;marker-end:none;visibility:visible;display:block"
       d="M 39.437499,14.437501 L 39.437499,5.6250010 L 48.249999,14.437501 L 39.437499,14.437501 z "
       id="path1713"
       sodipodi:nodetypes="cccc" />
  </g>
  <path
     sodipodi:nodetypes="ccccccccccccccccccccccccccccccccccccccccccc"
     id="path839"
     d="M 29.624497,20.091347 C 30.932524,20.091347 32.175350,20.291865 33.308971,20.678047 C 34.442591,21.064220 35.440855,21.620296 36.312872,22.367741 C 37.184890,23.115180 37.868751,24.018694 38.354587,25.090027 C 38.852882,26.148903 39.082095,27.349134 39.082095,28.657161 C 39.082095,30.999146 38.505444,32.806164 37.321996,34.101733 C 36.151007,35.384842 34.543056,36.236193 32.487592,36.659742 L 32.487592,37.410719 C 32.487592,38.008675 32.350237,38.545615 32.088637,39.006540 C 31.839493,39.455009 31.470026,39.800998 31.009108,40.062600 C 30.560641,40.311752 30.056729,40.438088 29.483690,40.438088 C 28.910649,40.438088 28.395729,40.311744 27.934803,40.062600 C 27.486335,39.800998 27.140345,39.455009 26.878744,39.006540 C 26.629592,38.545615 26.503255,38.008675 26.503255,37.410719 L 26.503255,34.336412 C 26.503255,33.701086 26.617141,33.194276 26.878744,32.857929 C 27.140345,32.521583 27.467207,32.301930 27.840931,32.177358 C 28.214654,32.052787 28.783187,31.915432 29.530626,31.778402 C 31.473977,31.417137 32.440656,30.439444 32.440656,28.844904 C 32.440656,28.197121 32.165957,27.619028 31.642744,27.108274 C 31.131991,26.585062 30.459139,26.333830 29.624497,26.333830 C 28.852142,26.333830 28.242461,26.480744 27.793994,26.779722 C 27.357986,27.078700 26.939264,27.520890 26.503255,28.093928 C 26.079705,28.654510 25.658086,29.085690 25.259453,29.384668 C 24.873269,29.671188 24.336331,29.807091 23.663629,29.807091 C 22.903733,29.807091 22.263909,29.511816 21.715787,28.938777 C 21.180124,28.353278 20.917876,27.681877 20.917876,26.897062 C 20.917876,25.526749 21.358624,24.316950 22.255551,23.282993 C 23.152485,22.249027 24.266076,21.460848 25.611472,20.912726 C 26.956866,20.364605 28.291561,20.091347 29.624497,20.091347 z M 29.436753,43.770542 C 30.022251,43.770542 30.568758,43.928464 31.079512,44.239901 C 31.590265,44.551331 31.977401,44.960492 32.276379,45.483704 C 32.587817,45.994458 32.745739,46.551975 32.745739,47.149931 C 32.745739,47.760338 32.587817,48.339882 32.276379,48.863094 C 31.977401,49.373848 31.579256,49.760984 31.056044,50.059961 C 30.545291,50.358939 30.009792,50.505853 29.436753,50.505853 C 28.863714,50.505853 28.317207,50.358939 27.793994,50.059961 C 27.283241,49.760984 26.861629,49.373848 26.550191,48.863094 C 26.251213,48.339882 26.104301,47.760338 26.104301,47.149931 C 26.104301,46.551975 26.251213,45.994458 26.550191,45.483704 C 26.861629,44.960492 27.283241,44.551340 27.793994,44.239901 C 28.304748,43.928464 28.851257,43.770542 29.436753,43.770542 z "
     style="font-size:12.000000;fill:#000000;fill-opacity:1.0000000;fill-rule:evenodd;stroke:none;stroke-width:3.1250019;stroke-opacity:1.0000000" />
</svg>
