<?xml version="1.0" encoding="UTF-8" standalone="no"?>
<svg
   xmlns:dc="http://purl.org/dc/elements/1.1/"
   xmlns:cc="http://web.resource.org/cc/"
   xmlns:rdf="http://www.w3.org/1999/02/22-rdf-syntax-ns#"
   xmlns:svg="http://www.w3.org/2000/svg"
   xmlns="http://www.w3.org/2000/svg"
   xmlns:sodipodi="http://inkscape.sourceforge.net/DTD/sodipodi-0.dtd"
   xmlns:inkscape="http://www.inkscape.org/namespaces/inkscape"
   height="60"
   width="60"
   _SVGFile__filename="oldscale/actions/aobottom.svg"
   version="1.0"
   y="0"
   x="0"
   id="svg1"
   sodipodi:version="0.32"
   inkscape:version="0.41"
   sodipodi:docname="crsc-action-template_worksheet.svg"
   sodipodi:docbase="/home/danny/work/kde/koffice/templates/kspread"
   inkscape:export-filename="/home/danny/work/kde/koffice/templates/kspread/cr48-action-template_worksheet.png"
   inkscape:export-xdpi="72.000000"
   inkscape:export-ydpi="72.000000">
  <sodipodi:namedview
     id="base"
     pagecolor="#ffffff"
     bordercolor="#666666"
     borderopacity="1.0"
     inkscape:pageopacity="0.0000000"
     inkscape:pageshadow="2"
     inkscape:zoom="6.0612328"
     inkscape:cx="64.719876"
     inkscape:cy="29.172597"
     inkscape:window-width="1020"
     inkscape:window-height="691"
     inkscape:window-x="0"
     inkscape:window-y="0"
     inkscape:current-layer="svg1" />
  <defs
     id="defs3" />
  <metadata
     id="metadata7">
    <RDF
       id="RDF8">
      <Work
         about=""
         id="Work9">
        <title
           id="title10">Part of the Flat Icon Collection (Thu Aug 26 14:38:01 2004)</title>
        <description
           id="description12" />
        <subject
           id="subject13">
          <Bag
             id="Bag14">
            <li
               id="li15" />
          </Bag>
        </subject>
        <publisher
           id="publisher16">
          <Agent
             about=""
             id="Agent17">
            <title
               id="title18" />
          </Agent>
        </publisher>
        <creator
           id="creator19">
          <Agent
             about=""
             id="Agent20">
            <title
               id="title21">Danny Allen</title>
          </Agent>
        </creator>
        <rights
           id="rights23">
          <Agent
             about=""
             id="Agent24">
            <title
               id="title25">Danny Allen</title>
          </Agent>
        </rights>
        <date
           id="date27" />
        <format
           id="format28">image/svg+xml</format>
        <type
           id="type30"
           resource="http://purl.org/dc/dcmitype/StillImage" />
        <license
           id="license31"
           resource="http://creativecommons.org/licenses/LGPL/2.1/">
          <date
             id="date32" />
        </license>
        <language
           id="language33">en</language>
      </Work>
    </RDF>
    <rdf:RDF
       id="RDF35">
      <cc:Work
         rdf:about=""
         id="Work36">
        <dc:format
           id="format37">image/svg+xml</dc:format>
        <dc:type
           id="type39"
           rdf:resource="http://purl.org/dc/dcmitype/StillImage" />
      </cc:Work>
    </rdf:RDF>
  </metadata>
  <path
     style="color:#000000;fill:none;fill-opacity:1.0000000;fill-rule:nonzero;stroke:#ffffff;stroke-width:7.4999909;stroke-linecap:round;stroke-linejoin:round;stroke-miterlimit:4.0000000;stroke-dashoffset:0.0000000;stroke-opacity:1.0000000;marker:none;marker-start:none;marker-mid:none;marker-end:none;visibility:visible;display:block"
     d="M 10.814604,55.624302 L 10.814604,4.3756697 L 39.921200,4.3756697 L 49.185375,13.639846 L 49.185375,55.624302 L 10.814604,55.624302 z "
     id="path2077"
     sodipodi:nodetypes="cccccc" />
  <path
     style="display:block;visibility:visible;marker-end:none;marker-mid:none;marker-start:none;marker:none;stroke-opacity:1.0000000;stroke-dashoffset:0.0000000;stroke-miterlimit:4.0000000;stroke-linejoin:round;stroke-linecap:round;stroke-width:2.4999971;stroke:none;fill-rule:nonzero;fill-opacity:1.0000000;fill:#ffffff;color:#000000"
     d="M 10.814604,55.624302 L 10.814604,4.3756697 L 39.921200,4.3756697 L 49.185375,13.639846 L 49.185375,55.624302 L 10.814604,55.624302 z "
     id="rect1089"
     sodipodi:nodetypes="cccccc" />
  <path
     style="color:#000000;fill:#000000;fill-opacity:1.0000000;fill-rule:nonzero;stroke:#000000;stroke-width:2.4999971;stroke-linecap:round;stroke-linejoin:round;stroke-miterlimit:4.0000000;stroke-dashoffset:0.0000000;stroke-opacity:1.0000000;marker:none;marker-start:none;marker-mid:none;marker-end:none;visibility:visible;display:block"
     d="M 39.921199,13.639847 L 39.921199,4.3756708 L 49.185374,13.639847 L 39.921199,13.639847 z "
     id="path1713"
     sodipodi:nodetypes="cccc" />
  <g
     transform="matrix(0.744828,0.000000,0.000000,0.744828,-28.96453,14.51296)"
     id="g2413">
    <path
       id="rect812"
       d="M 54.555122,28.018637 C 54.043915,28.363049 54.121921,29.120549 54.730021,29.717082 L 80.187309,54.689917 C 80.795411,55.286440 81.696517,55.489421 82.207718,55.145009 L 103.77471,40.615067 C 104.28592,40.270665 104.20791,39.513164 103.59981,38.916632 L 78.142521,13.943797 C 77.534420,13.347264 76.633314,13.144293 76.122112,13.488705 L 54.555122,28.018637 z "
       style="stroke-miterlimit:4.0000000;stroke-dasharray:none;stroke-opacity:1.0000000;stroke-linejoin:round;stroke-width:3.3564796;stroke:#000000;fill-rule:evenodd;fill-opacity:1.0000000;fill:#ffffff;font-size:12.000000" />
    <path
       id="path842"
       d="M 60.436994,30.919393 L 78.203921,18.949593"
       style="stroke-miterlimit:4.0000000;stroke-dasharray:none;stroke-opacity:1.0000000;stroke-linejoin:round;stroke-linecap:round;stroke-width:1.6782398;stroke:#000000;fill-rule:evenodd;fill-opacity:0.75000000;fill:none;font-size:12.000000" />
    <path
       id="path844"
       d="M 64.326323,34.734709 L 82.093250,22.764909"
       style="font-size:12.000000;fill:none;fill-opacity:0.75000000;fill-rule:evenodd;stroke:#000000;stroke-width:1.6782398;stroke-linecap:round;stroke-linejoin:round;stroke-opacity:1.0000000;stroke-dasharray:none;stroke-miterlimit:4.0000000" />
    <path
       id="path845"
       d="M 68.215653,38.550024 L 85.982580,26.580224"
       style="font-size:12.000000;fill:none;fill-opacity:0.75000000;fill-rule:evenodd;stroke:#000000;stroke-width:1.6782398;stroke-linecap:round;stroke-linejoin:round;stroke-opacity:1.0000000;stroke-dasharray:none;stroke-miterlimit:4.0000000" />
    <path
       id="path846"
       d="M 72.104982,42.365340 L 89.871919,30.395540"
       style="stroke-miterlimit:4.0000000;stroke-dasharray:none;stroke-opacity:1.0000000;stroke-linejoin:round;stroke-linecap:round;stroke-width:1.6782398;stroke:#000000;fill-rule:evenodd;fill-opacity:0.75000000;fill:none;font-size:12.000000" />
    <path
       id="path847"
       d="M 75.994312,46.180655 L 93.761248,34.210856"
       style="font-size:12.000000;fill:none;fill-opacity:0.75000000;fill-rule:evenodd;stroke:#000000;stroke-width:1.6782398;stroke-linecap:round;stroke-linejoin:round;stroke-opacity:1.0000000;stroke-dasharray:none;stroke-miterlimit:4.0000000" />
    <path
       id="path848"
       d="M 79.856948,50.013959 L 89.707051,43.377826"
       style="font-size:12.000000;fill:none;fill-opacity:0.75000000;fill-rule:evenodd;stroke:#000000;stroke-width:1.6782398;stroke-linecap:round;stroke-linejoin:round;stroke-opacity:1.0000000;stroke-dasharray:none;stroke-miterlimit:4.0000000" />
    <g
       style="stroke:#ffffff;stroke-opacity:1.0000000"
       transform="translate(-25.83508,0.000000)"
       id="g1762">
      <path
         id="path1121"
         transform="matrix(0.510575,-0.294780,0.294780,0.510575,86.14894,32.56887)"
         d="M 48.097400,30.862810 C 35.200510,40.246280 35.200510,40.246280 35.200510,40.246280 L 43.147170,26.428590 L 48.097400,30.862810 z "
         style="stroke-dasharray:none;stroke-miterlimit:4.0000000;stroke-linejoin:round;stroke-linecap:round;stroke-width:11.386371;fill-rule:evenodd;fill-opacity:1.0000000;fill:none;font-size:12.000000" />
      <rect
         id="rect1122"
         x="-56.329277"
         y="9.3872366"
         width="6.5462775"
         height="47.133202"
         transform="matrix(-0.576408,-0.123839,0.123839,-0.576408,86.14894,32.56887)"
         style="stroke-dasharray:none;stroke-miterlimit:4.0000000;stroke-linejoin:round;stroke-linecap:round;stroke-width:11.386367;fill-rule:evenodd;fill-opacity:1.0000000;fill:none;font-size:12.000000" />
      <path
         id="path1123"
         transform="matrix(-0.780443,-0.167674,0.167674,-0.780443,161.2980,64.86305)"
         d="M 61.966340,18.726220 C 61.966340,19.068630 61.688440,19.346520 61.346040,19.346520 C 61.003630,19.346520 60.725740,19.068630 60.725740,18.726220 C 60.725740,18.383820 61.003630,18.105920 61.346040,18.105920 C 61.688440,18.105920 61.966340,18.383820 61.966340,18.726220 z "
         style="font-size:12.000000;fill:none;fill-opacity:1.0000000;fill-rule:evenodd;stroke-width:8.6125708;stroke-linejoin:round;stroke-miterlimit:4.0000000" />
      <path
         id="path1124"
         transform="matrix(-0.576408,-0.123839,0.123839,-0.576408,86.14894,32.56887)"
         d="M -54.664130,56.373620 C -55.804220,56.373620 -56.722050,57.278710 -56.722050,58.402970 C -56.722050,59.527230 -55.804220,60.432320 -54.664130,60.432320 L -51.317210,60.432320 C -50.177120,60.432320 -49.259290,59.527230 -49.259290,58.402970 C -49.259290,57.278710 -50.177120,56.373620 -51.317210,56.373620 L -54.664130,56.373620 z "
         style="font-size:12.000000;fill:none;fill-opacity:1.0000000;fill-rule:evenodd;stroke-width:11.661217;stroke-linejoin:round;stroke-miterlimit:4.0000000" />
    </g>
    <g
       id="g886"
       transform="matrix(0.646334,-0.373161,0.373161,0.646334,60.74940,22.11327)"
       style="font-size:12.000000">
      <path
         id="path599"
         transform="matrix(0.789955,0.000000,0.000000,0.789955,-7.510137,11.84079)"
         d="M 48.097400,30.862810 C 35.200510,40.246280 35.200510,40.246280 35.200510,40.246280 L 43.147170,26.428590 L 48.097400,30.862810 z "
         style="fill:#000000;fill-opacity:1.0000000;fill-rule:evenodd;stroke:#000000;stroke-width:3.1803343;stroke-linecap:round;stroke-linejoin:round;stroke-opacity:1.0000000" />
      <path
         id="rect598"
         d="M -56.329277,9.3872366 L -49.783000,9.3872366 L -49.783000,56.520438 L -56.329277,56.520438 L -56.329277,9.3872366 z "
         style="stroke-miterlimit:4.0000000;stroke-dasharray:none;stroke-opacity:1.0000000;stroke-linejoin:round;stroke-linecap:round;stroke-width:2.8465910;stroke:#000000;fill-rule:evenodd;fill-opacity:1.0000000;fill:#ffffff"
         transform="matrix(-0.585893,-0.529867,0.529867,-0.585893,-7.510137,11.84079)" />
      <path
         id="path600"
         transform="matrix(-0.793285,-0.717427,0.717427,-0.793285,58.05658,99.66090)"
         d="M 61.966340,18.726220 C 61.966340,19.068630 61.688440,19.346520 61.346040,19.346520 C 61.003630,19.346520 60.725740,19.068630 60.725740,18.726220 C 60.725740,18.383820 61.003630,18.105920 61.346040,18.105920 C 61.688440,18.105920 61.966340,18.383820 61.966340,18.726220 z "
         style="fill:#000000;fill-opacity:1.0000000;fill-rule:evenodd;stroke:#000000;stroke-width:2.3488848;stroke-linejoin:round;stroke-opacity:1.0000000" />
      <path
         id="rect601"
         transform="matrix(-0.585893,-0.529867,0.529867,-0.585893,-7.510137,11.84079)"
         d="M -54.664130,56.373620 C -55.804220,56.373620 -56.722050,57.278710 -56.722050,58.402970 C -56.722050,59.527230 -55.804220,60.432320 -54.664130,60.432320 L -51.317210,60.432320 C -50.177120,60.432320 -49.259290,59.527230 -49.259290,58.402970 C -49.259290,57.278710 -50.177120,56.373620 -51.317210,56.373620 L -54.664130,56.373620 z "
         style="fill:#ffffff;fill-opacity:1.0000000;fill-rule:evenodd;stroke:#000000;stroke-width:2.8465910;stroke-linejoin:round;stroke-opacity:1.0000000;stroke-dasharray:none;stroke-miterlimit:4.0000000" />
    </g>
  </g>
  <path
     style="color:#000000;fill:none;fill-opacity:1.0000000;fill-rule:nonzero;stroke:#000000;stroke-width:2.4999971;stroke-linecap:round;stroke-linejoin:round;stroke-miterlimit:4.0000000;stroke-dashoffset:0.0000000;stroke-opacity:1.0000000;marker:none;marker-start:none;marker-mid:none;marker-end:none;visibility:visible;display:block"
     d="M 10.814604,55.624302 L 10.814604,4.3756697 L 39.921200,4.3756697 L 49.185375,13.639846 L 49.185375,55.624302 L 10.814604,55.624302 z "
     id="path2411"
     sodipodi:nodetypes="cccccc" />
</svg>
