<?xml version="1.0" standalone="no"?>
<!DOCTYPE svg PUBLIC "-//W3C//DTD SVG 20010904//EN"
"http://www.w3.org/TR/2001/REC-SVG-20010904/DTD/svg10.dtd"
[
 <!ATTLIST svg
  xmlns:xlink CDATA #FIXED "http://www.w3.org/1999/xlink">
]>
<!-- Created with Sodipodi ("http://www.sodipodi.com/") -->
<svg
   xml:space="preserve"
   width="144pt"
   height="144pt"
   viewBox="0 0 144 144"
   id="svg293"
   sodipodi:version="0.28"
   sodipodi:docname="/home/kristof/Desktop/kexi_yellow.svg"
   sodipodi:docbase="/home/kristof/Desktop/"
   xmlns="http://www.w3.org/2000/svg"
   xmlns:sodipodi="http://sodipodi.sourceforge.net/DTD/sodipodi-0.dtd"
   xmlns:xlink="http://www.w3.org/1999/xlink">
  <defs
     id="defs391">
    <linearGradient
       id="linearGradient166">
      <stop
         offset="0.000000"
         style="stop-color:#ffa800;stop-opacity:1;"
         id="stop168" />
      <stop
         offset="1.000000"
         style="stop-color:#fff332;stop-opacity:1;"
         id="stop167" />
    </linearGradient>
    <linearGradient
       id="linearGradient163">
      <stop
         offset="0.000000"
         style="stop-color:#ffa800;stop-opacity:1;"
         id="stop165" />
      <stop
         offset="1.000000"
         style="stop-color:#ffcc00;stop-opacity:1;"
         id="stop164" />
    </linearGradient>
    <linearGradient
       id="linearGradient160">
      <stop
         offset="0.000000"
         style="stop-color:#ffa800;stop-opacity:1;"
         id="stop162" />
      <stop
         offset="1.000000"
         style="stop-color:#ffcc00;stop-opacity:1;"
         id="stop161" />
    </linearGradient>
    <linearGradient
       id="linearGradient157">
      <stop
         offset="0.000000"
         style="stop-color:#ffa800;stop-opacity:1;"
         id="stop159" />
      <stop
         offset="1.000000"
         style="stop-color:#ffcc00;stop-opacity:1;"
         id="stop158" />
    </linearGradient>
    <linearGradient
       id="linearGradient154">
      <stop
         offset="0.000000"
         style="stop-color:#ffa800;stop-opacity:1;"
         id="stop156" />
      <stop
         offset="1.000000"
         style="stop-color:#ffcc00;stop-opacity:1;"
         id="stop155" />
    </linearGradient>
    <linearGradient
       id="linearGradient151">
      <stop
         offset="0.000000"
         style="stop-color:#ffa800;stop-opacity:1;"
         id="stop153" />
      <stop
         offset="1.000000"
         style="stop-color:#ffcc00;stop-opacity:1;"
         id="stop152" />
    </linearGradient>
    <linearGradient
       id="linearGradient148">
      <stop
         offset="0.000000"
         style="stop-color:#ffa800;stop-opacity:1;"
         id="stop150" />
      <stop
         offset="1.000000"
         style="stop-color:#ffcc00;stop-opacity:1;"
         id="stop149" />
    </linearGradient>
    <linearGradient
       id="linearGradient145">
      <stop
         offset="0.000000"
         style="stop-color:#ffa800;stop-opacity:1;"
         id="stop147" />
      <stop
         offset="1.000000"
         style="stop-color:#ffcc00;stop-opacity:1;"
         id="stop146" />
    </linearGradient>
    <linearGradient
       id="linearGradient142">
      <stop
         offset="0.000000"
         style="stop-color:#ffa800;stop-opacity:1;"
         id="stop144" />
      <stop
         offset="1.000000"
         style="stop-color:#ffcc00;stop-opacity:1;"
         id="stop143" />
    </linearGradient>
    <linearGradient
       id="linearGradient139">
      <stop
         offset="0.000000"
         style="stop-color:#ffa800;stop-opacity:1;"
         id="stop141" />
      <stop
         offset="1.000000"
         style="stop-color:#ffcc00;stop-opacity:1;"
         id="stop140" />
    </linearGradient>
    <linearGradient
       id="linearGradient136">
      <stop
         offset="0.000000"
         style="stop-color:#ffa800;stop-opacity:1;"
         id="stop138" />
      <stop
         offset="1.000000"
         style="stop-color:#ffcc00;stop-opacity:1;"
         id="stop137" />
    </linearGradient>
    <linearGradient
       id="linearGradient133">
      <stop
         offset="0.000000"
         style="stop-color:#ffa800;stop-opacity:1;"
         id="stop135" />
      <stop
         offset="1.000000"
         style="stop-color:#ffcc00;stop-opacity:1;"
         id="stop134" />
    </linearGradient>
    <linearGradient
       id="linearGradient130">
      <stop
         offset="0.000000"
         style="stop-color:#ffa800;stop-opacity:1;"
         id="stop132" />
      <stop
         offset="1.000000"
         style="stop-color:#ffcc00;stop-opacity:1;"
         id="stop131" />
    </linearGradient>
    <linearGradient
       id="linearGradient127">
      <stop
         offset="0.000000"
         style="stop-color:#ffa800;stop-opacity:1;"
         id="stop129" />
      <stop
         offset="1.000000"
         style="stop-color:#ffcc00;stop-opacity:1;"
         id="stop128" />
    </linearGradient>
    <linearGradient
       id="linearGradient124">
      <stop
         offset="0.000000"
         style="stop-color:#ffcd00;stop-opacity:1;"
         id="stop126" />
      <stop
         offset="1.000000"
         style="stop-color:#fff332;stop-opacity:1;"
         id="stop125" />
    </linearGradient>
    <linearGradient
       id="linearGradient121">
      <stop
         offset="0.000000"
         style="stop-color:#ffcd00;stop-opacity:1;"
         id="stop123" />
      <stop
         offset="1.000000"
         style="stop-color:#fff332;stop-opacity:1;"
         id="stop122" />
    </linearGradient>
    <linearGradient
       id="linearGradient118">
      <stop
         offset="0.000000"
         style="stop-color:#ffcd00;stop-opacity:1;"
         id="stop120" />
      <stop
         offset="1.000000"
         style="stop-color:#fff332;stop-opacity:1;"
         id="stop119" />
    </linearGradient>
    <linearGradient
       id="linearGradient115">
      <stop
         offset="0.000000"
         style="stop-color:#ffcd00;stop-opacity:1;"
         id="stop117" />
      <stop
         offset="1.000000"
         style="stop-color:#fff332;stop-opacity:1;"
         id="stop116" />
    </linearGradient>
    <linearGradient
       id="linearGradient112">
      <stop
         offset="0.000000"
         style="stop-color:#ffcd00;stop-opacity:1;"
         id="stop114" />
      <stop
         offset="1.000000"
         style="stop-color:#fff332;stop-opacity:1;"
         id="stop113" />
    </linearGradient>
    <linearGradient
       id="linearGradient108">
      <stop
         offset="0.000000"
         style="stop-color:#ffcd00;stop-opacity:1;"
         id="stop110" />
      <stop
         offset="1.000000"
         style="stop-color:#fff332;stop-opacity:1;"
         id="stop109" />
    </linearGradient>
    <linearGradient
       id="linearGradient626">
      <stop
         offset="0.000000"
         style="stop-color:#ff0000;stop-opacity:1;"
         id="stop627" />
      <stop
         offset="1.000000"
         style="stop-color:#ff771d;stop-opacity:1;"
         id="stop628" />
    </linearGradient>
    <linearGradient
       id="linearGradient621">
      <stop
         offset="0.000000"
         style="stop-color:#ff1a00;stop-opacity:1;"
         id="stop623" />
      <stop
         offset="1.000000"
         style="stop-color:#970000;stop-opacity:1;"
         id="stop622" />
    </linearGradient>
    <linearGradient
       xlink:href="#linearGradient626"
       id="linearGradient625"
       x1="0.0434781"
       y1="0.953042"
       x2="0.927536"
       y2="0.0686696"
       gradientUnits="objectBoundingBox"
       gradientTransform="translate(-2.82978e-08,-2.09903e-08)"
       spreadMethod="pad" />
    <linearGradient
       x1="126.131"
       y1="96.3356"
       x2="126.131"
       y2="18.2654"
       xlink:href="#linearGradient166"
       id="linearGradient111"
       gradientUnits="userSpaceOnUse"
       gradientTransform="scale(1,1)"
       spreadMethod="pad" />
  </defs>
  <sodipodi:namedview
     id="base" />
  <path
     sodipodi:type="arc"
     style="fill-rule:evenodd;stroke:none;fill:gray;fill-opacity:1;stroke-opacity:1;stroke-width:1pt;stroke-linejoin:miter;stroke-linecap:butt;"
     id="path515"
     d="M 102.183029 67.114212 A 18.239388 18.318691 0 1 0 65.704254,67.114212 A 18.2394 18.3187 0 1 0 102.183 67.1142 L 83.943642 67.114212 z"
     sodipodi:cx="83.943642"
     sodipodi:cy="67.114212"
     sodipodi:rx="18.239388"
     sodipodi:ry="18.318691"
     transform="matrix(2.15652,0,0,2.15584,-109.137,-86.6932)" />
  <g
     id="Layer_x0020_1"
     style="fill-rule:nonzero;clip-rule:nonzero;fill:#FFFFFF;stroke:#FFFFFF;stroke-width:0;stroke-miterlimit:4;">
    <path
       style="fill:none;stroke:none;"
       d="M144,144H0V0h144v144z"
       id="path295" />
    <g
       style="stroke:none;"
       id="g296">
      <path
         style="opacity:0.15;fill:#000000;"
         d="M141.946,86.339c0,0-9.583-7.144-11.612-8.657c0.012-0.294,0.014-0.346,0.024-0.589c0.99-0.692,2.33-1.556,3.575-2.354c3.808-2.444,5.569-3.628,6.449-4.708c0.442-0.542,0.675-1.214,0.675-1.896c0-0.292-0.042-0.584-0.129-0.871      c-1.427-4.704-3.459-9.409-6.042-13.986c-0.422-0.749-1.145-1.28-1.985-1.459c0,0-10.194-2.176-11.073-2.363c-1.526-2.38-3.254-4.684-5.132-6.914c1.465-1.876,3.508-4.494,3.508-4.494c0.426-0.546,0.635-1.197,0.635-1.845c0-0.786-0.307-1.567-0.909-2.152      c-3.535-3.437-7.345-6.604-11.322-9.414c-0.88-0.622-2.025-0.724-3.001-0.268c0,0-4.592,2.146-6.515,3.044c-2.399-1.474-4.885-2.807-7.436-4.001c0.046-2.244,0.129-6.273,0.129-6.294c0-1.214-0.732-2.311-1.859-2.774c-4.843-1.992-9.847-3.551-14.873-4.635      c-1.485-0.32-2.975,0.52-3.469,1.957c0,0-1.129,3.283-1.915,5.566C67.274,17,64.907,16.9,62.591,16.961c-1.405-1.775-6.133-7.749-6.133-7.749c-0.615-0.777-1.574-1.2-2.563-1.131C49.719,8.375,45.7,9.12,41.861,10.178c-0.463-0.142-0.933-0.269-1.431-0.169      c-1.269,0.252-2.233,1.29-2.392,2.574c-0.125,1.016-0.167,3.89-0.167,7.191c0,1.511,0.01,3.091,0.023,4.643c-2.848-1.388-11.075-5.397-11.075-5.397c-1.058-0.516-2.328-0.369-3.235,0.38c-3.252,2.688-6.055,5.795-8.331,9.235c-0.265,0.4-0.43,0.858-0.481,1.335      c-0.094,0.879-0.573,10.581-0.718,13.533c-0.002,0.049-0.003,0.098-0.003,0.147c0,0.995,0.494,1.929,1.324,2.488c0,0,1.369,0.922,2.086,1.405c-3.138,0.184-6.438,0.377-6.438,0.377c-1.421,0.083-2.587,1.153-2.793,2.562L5.84,66.887      c-0.021,0.144-0.031,0.288-0.031,0.433c0,0.126,0.008,0.253,0.024,0.379L7.59,81.493c0.179,1.402,1.327,2.491,2.735,2.611c0,0,11.201,0.986,11.52,1.015c0.921,2.001,1.969,3.97,2.943,5.646c-0.052,0.069-0.118,0.084-0.167,0.165l-0.946,1.534      c-0.845,2.258-2.65,6.625-5.367,12.979c-0.162,0.379-0.242,0.78-0.242,1.179c0,0.648,0.21,1.291,0.617,1.823c2.807,3.67,11.993,12.969,15.994,13.923c0.829,0.197,1.702,0.033,2.403-0.452c0,0,8.722-6.038,11.201-7.755c2.149,1.334,5.337,3.25,7.654,4.383      c0.248,2.202,1.742,15.5,1.742,15.5c0.127,1.126,0.876,2.084,1.938,2.478c8.056,2.987,13.286,4.29,17.489,4.358c1.051,0.017,2.039-0.523,2.596-1.415l6.801-10.874c0.493-0.784,0.767-1.229,0.965-1.575c1.632-0.091,3.833-0.273,5.775-0.614      c1.229,1.58,7.355,9.457,7.355,9.457c0.723,0.93,1.924,1.351,3.069,1.075c5.195-1.249,10.589-5.115,10.816-5.278c0.162-0.117,0.312-0.25,0.447-0.396c0.431-0.466,10.582-11.445,12.104-13.242c0.474-0.559,0.72-1.248,0.72-1.941c0-0.501-0.128-1.004-0.391-1.463      c0,0-0.517-0.903-0.71-1.242c0.073-0.052,0.16-0.074,0.229-0.133l11.991-10.245c0.339-0.29,0.609-0.651,0.791-1.059c1.78-3.991,2.948-8.313,3.47-12.846c0.013-0.115,0.02-0.23,0.02-0.344c0-0.94-0.442-1.835-1.207-2.405z M94.708,91.046      c-9.713,2.066-21.49-0.58-31.501-7.08c-12.604-8.182-19.973-20.655-19.889-31.644c8.731-10.46,27.288-11.688,42.298-1.143c12.992,9.125,19.138,24.524,17.307,36.612c-2.38,1.494-5.133,2.598-8.215,3.254z"
         id="path297" />
      <linearGradient
         id="aigrd1"
         gradientUnits="userSpaceOnUse"
         x1="72.902802"
         y1="-4.174800"
         x2="72.902802"
         y2="62.410500"
         xlink:href="#linearGradient166" />
      <path
         style="fill:url(#aigrd1);"
         d="M88.425,32.417c-18.025-11.702-39.597-10.471-48.18,2.75c-2.726,4.2-3.809,9.105-3.446,14.216c7.919-12.325,27.871-14.404,43.817-3.203c13.741,9.65,19.836,26.324,16.922,38.671c3.231-1.768,5.97-4.203,7.983-7.308      c8.585-13.22,0.929-33.426-17.097-45.127z"
         id="path301" />
      <linearGradient
         id="aigrd2"
         gradientUnits="userSpaceOnUse"
         x1="106.852097"
         y1="78.406303"
         x2="106.852097"
         y2="78.406303"
         xlink:href="#linearGradient148" />
      <path
         style="fill:url(#aigrd2);"
         d="M106.852,78.406z"
         id="path305" />
      <linearGradient
         id="aigrd3"
         gradientUnits="userSpaceOnUse"
         x1="115.468803"
         y1="96.335403"
         x2="115.468803"
         y2="18.266199"
         xlink:href="#linearGradient124" />
      <path
         style="fill:url(#aigrd3);"
         d="M112.471,103.529c0,0.254,0.061,0.51,0.186,0.745c0,0,3.749,7.03,4.626,8.675c-0.043,0.049-0.116,0.136-0.185,0.218l1.368-0.693l-5.413-10.152c-0.04,0.033-0.086,0.052-0.122,0.089c-0.303,0.305-0.46,0.708-0.46,1.118z"
         id="path309" />
      <linearGradient
         id="aigrd4"
         gradientUnits="userSpaceOnUse"
         x1="126.131798"
         y1="96.336403"
         x2="126.131798"
         y2="18.265600"
         xlink:href="#linearGradient108" />
      <path
         style="fill:url(#linearGradient111);"
         d="M132.09,81.941l-10.999-8.209l-0.212-3.823c-0.217,0.267-0.352,0.432-0.352,0.432c-0.23,0.283-0.355,0.638-0.355,1.001c0,0.029,0.001,0.059,0.001,0.088l0.142,2.544c0.026,0.468,0.26,0.902,0.635,1.182c0,0,9.119,6.805,10.421,7.778      c-0.177,1.307-1.086,7.998-1.415,10.416l0.491,0.246l1.642-11.654z"
         id="path313" />
      <linearGradient
         id="aigrd5"
         gradientUnits="userSpaceOnUse"
         x1="136.383301"
         y1="153.057602"
         x2="-6.856700"
         y2="9.817600"
         xlink:href="#linearGradient154" />
      <path
         style="fill:url(#aigrd5);"
         d="M26.306,33.055l-8.973-6.675c-0.009,0.011-4.57-1.099-4.578-1.09c-0.092,0.861-0.704,13.36-0.704,13.36l11.19,7.536l3.064-13.131z"
         id="path317" />
      <linearGradient
         id="aigrd6"
         gradientUnits="userSpaceOnUse"
         x1="100.092300"
         y1="161.630905"
         x2="-27.368000"
         y2="34.170601"
         xlink:href="#linearGradient151" />
      <path
         style="fill:url(#aigrd6);"
         d="M61.79,98.94l-13.742-7.615l-13.586,9.342L21.664,88.126c-0.183,0.17,0.195-0.056-5.598,13.497c3.207,4.193,11.716,12.209,14.307,12.827c12.827-8.88,12.827-8.88,12.827-8.88s8.345,5.304,10.524,5.92c1.936,17.219,0,0,1.936,17.219      c6.78,2.514,12.274,4.103,16.495,4.171c7.793-12.522,7.765-12.334,7.793-12.522l-17.974-4.199L61.79,98.94z"
         id="path321" />
      <linearGradient
         id="aigrd7"
         gradientUnits="userSpaceOnUse"
         x1="122.380402"
         y1="137.483902"
         x2="-8.173200"
         y2="6.930300"
         xlink:href="#linearGradient163" />
      <path
         style="fill:url(#aigrd7);"
         d="M95.446,102.969l-13.01,0.885l-3.091,14.319c0.002,0,0.888,0.936,0.89,0.936c0,0,6.252-0.139,9.213-1.043c8.518,10.951,0,0,8.518,10.951c4.68-1.125,9.762-4.794,9.762-4.794s10.52-11.377,12.018-13.145l-13.936,7.124l-10.363-15.233z"
         id="path325" />
      <linearGradient
         id="aigrd8"
         gradientUnits="userSpaceOnUse"
         x1="175.345200"
         y1="114.981400"
         x2="2.082100"
         y2="-58.281601"
         xlink:href="#linearGradient160" />
      <path
         style="fill:url(#aigrd8);"
         d="M121.866,71.06c1.231-1.511,9.873-6.309,11.19-7.925l-11.634-0.069l0.444,7.994z"
         id="path329" />
      <linearGradient
         id="aigrd9"
         gradientUnits="userSpaceOnUse"
         x1="146.297394"
         y1="124.143097"
         x2="-10.254700"
         y2="-32.409000"
         xlink:href="#linearGradient157" />
      <path
         style="fill:url(#aigrd9);"
         d="M107.04,98.942l12.893,7.015l11.991-10.245l-14.396-8.396L107.04,98.942z"
         id="path333" />
      <linearGradient
         id="aigrd10"
         gradientUnits="userSpaceOnUse"
         x1="150.292496"
         y1="129.427704"
         x2="11.981900"
         y2="-8.882800"
         xlink:href="#linearGradient145" />
      <path
         style="fill:url(#aigrd10);"
         d="M36.016,7.951c-0.25,2.024-0.094,14.307-0.094,14.307c-0.001,0.008,0.001-0.008,0,0l5.896-4.068c0,0-5.801-10.239-5.802-10.239z"
         id="path337" />
      <linearGradient
         id="aigrd11"
         gradientUnits="userSpaceOnUse"
         x1="112.647499"
         y1="166.654297"
         x2="-25.752100"
         y2="28.254700"
         xlink:href="#linearGradient142" />
      <path
         style="fill:url(#aigrd11);"
         d="M25.015,62.481l-16.2-1.549L6.2,45.916L3.809,62.32l1.757,13.794c0,0,0,0,13.295,1.171c2.138,5.221,5.92,10.854,5.92,10.854l6.687-11.122l-6.453-14.536z"
         id="path341" />
      <linearGradient
         id="aigrd12"
         gradientUnits="userSpaceOnUse"
         x1="53.722198"
         y1="108.853996"
         x2="-13.569500"
         y2="41.562401"
         xlink:href="#linearGradient139" />
      <path
         style="fill:url(#aigrd12);"
         d="M6.2,45.916L5.048,61.498l0.518,14.616l2.223-15.27L6.2,45.916z"
         id="path345" />
      <linearGradient
         id="aigrd13"
         gradientUnits="userSpaceOnUse"
         x1="66.733902"
         y1="116.981003"
         x2="8.118600"
         y2="58.365601"
         xlink:href="#linearGradient136" />
      <path
         style="fill:url(#aigrd13);"
         d="M25.015,62.481l-6.154,14.804l6.249,10.854L32.392,76l-7.376-13.52z"
         id="path349" />
      <linearGradient
         id="aigrd14"
         gradientUnits="userSpaceOnUse"
         x1="42.560501"
         y1="121.809097"
         x2="42.560501"
         y2="5.797200"
         xlink:href="#linearGradient121" />
      <path
         style="fill:url(#aigrd14);"
         d="M48.886,5.797l-12.87,2.153l0.255,0.45c4.046-1.231,8.351-2.012,12.834-2.327l-0.22-0.277z"
         id="path353" />
      <linearGradient
         id="aigrd15"
         gradientUnits="userSpaceOnUse"
         x1="6.216800"
         y1="115.264198"
         x2="135.466797"
         y2="115.264198"
         xlink:href="#linearGradient118" />
      <path
         style="fill:url(#aigrd15);"
         d="M114.648,114.415c-1.104,0.56-2.261,1.145-3.356,1.699c1.155-0.524,2.271-1.093,3.356-1.699z"
         id="path357" />
      <linearGradient
         id="aigrd16"
         gradientUnits="userSpaceOnUse"
         x1="70.676300"
         y1="121.831497"
         x2="70.676300"
         y2="5.799800"
         xlink:href="#linearGradient115" />
      <path
         style="fill:url(#aigrd16);"
         d="M122.296,74.16l-0.017-0.2c0.069-0.901,0.115-1.81,0.115-2.73c0-2.471-0.265-5.016-0.772-7.608l11.435-0.487c-1.375-4.536-3.325-9.025-5.783-13.382c-2.799-0.599-10.558-2.253-12.243-2.613c-2.032-3.323-4.443-6.528-7.181-9.545      l4.99-6.392c-3.365-3.271-7.026-6.334-10.962-9.115l-7.944,3.712c-3.365-2.175-6.823-4.009-10.316-5.528l0.168-8.152c-4.776-1.964-9.591-3.447-14.364-4.477l-2.69,7.82c-3.603-0.498-7.144-0.653-10.561-0.461l-7.065-8.927c-4.483,0.314-8.788,1.095-12.834,2.327      l5.546,9.789c-3.018,1.267-5.792,2.896-8.255,4.89c-2.102-1.021-10.205-4.961-13.066-6.367c-2.966,2.452-5.576,5.307-7.741,8.579l12.525,8.231c-1.717,3.58-2.692,7.442-2.985,11.451L6.2,45.916c-0.226,4.868,0.324,9.889,1.589,14.928l17.226,1.637      c1.719,4.618,4.208,9.182,7.376,13.52L21.859,88.07c3.633,4.472,7.847,8.714,12.603,12.598l13.586-9.342l0.054,0.03c0.781,0.552,1.576,1.094,2.388,1.621c3.626,2.354,7.424,4.346,11.3,5.964l0.184,17.218c5.966,2.102,12.019,3.521,17.974,4.199      c0.632-4.201,2.375-15.751,2.489-16.503c4.491,0.267,8.876-0.01,13.01-0.885l10.363,15.233c1.902-0.601,3.733-1.296,5.483-2.088c1.095-0.554,2.251-1.139,3.356-1.699c1.799-1.002,3.499-2.116,5.097-3.336c-1.521-2.718-7.084-12.348-8.771-15.266      c2.494-2.028,4.642-4.407,6.396-7.112c0.064-0.098,0.117-0.202,0.18-0.3l14.374,7.311c1.673-3.752,2.745-7.765,3.229-11.967l-12.856-9.584z M104.967,77.334c-8.448,13.017-29.687,14.23-47.434,2.711C39.784,68.523,32.247,48.63,40.698,35.612      c8.45-13.019,29.688-14.232,47.437-2.711c17.748,11.524,25.285,31.415,16.832,44.433z"
         id="path361" />
      <path
         d="M122.296,74.16l-0.017-0.2c0.069-0.901,0.115-1.81,0.115-2.73c0-2.471-0.265-5.016-0.772-7.608l11.435-0.487c-1.375-4.536-3.325-9.025-5.783-13.382c-2.799-0.599-10.558-2.253-12.243-2.613c-2.032-3.323-4.443-6.528-7.181-9.545l4.99-6.392      c-3.365-3.271-7.026-6.334-10.962-9.115l-7.944,3.712c-3.365-2.175-6.823-4.009-10.316-5.528l0.168-8.152c-4.776-1.964-9.591-3.447-14.364-4.477l-2.69,7.82c-3.603-0.498-7.144-0.653-10.561-0.461l-7.065-8.927c-4.483,0.314-8.788,1.095-12.834,2.327l5.546,9.789      c-3.018,1.267-5.792,2.896-8.255,4.89c-2.102-1.021-10.205-4.961-13.066-6.367c-2.966,2.452-5.576,5.307-7.741,8.579l12.525,8.231c-1.717,3.58-2.692,7.442-2.985,11.451L6.2,45.916c-0.226,4.868,0.324,9.889,1.589,14.928l17.226,1.637      c1.719,4.618,4.208,9.182,7.376,13.52L21.859,88.07c3.633,4.472,7.847,8.714,12.603,12.598l13.586-9.342l0.054,0.03c0.781,0.552,1.576,1.094,2.388,1.621c3.626,2.354,7.424,4.346,11.3,5.964l0.184,17.218c5.966,2.102,12.019,3.521,17.974,4.199      c0.632-4.201,2.375-15.751,2.489-16.503c4.491,0.267,8.876-0.01,13.01-0.885l10.363,15.233c1.902-0.601,3.733-1.296,5.483-2.088c1.095-0.554,2.251-1.139,3.356-1.699c1.799-1.002,3.499-2.116,5.097-3.336c-1.521-2.718-7.084-12.348-8.771-15.266      c2.494-2.028,4.642-4.407,6.396-7.112c0.064-0.098,0.117-0.202,0.18-0.3l14.374,7.311c1.673-3.752,2.745-7.765,3.229-11.967l-12.856-9.584z M104.967,77.334c-8.448,13.017-29.687,14.23-47.434,2.711C39.784,68.523,32.247,48.63,40.698,35.612      c8.45-13.019,29.688-14.232,47.437-2.711c17.748,11.524,25.285,31.415,16.832,44.433z"
         id="path362" />
      <linearGradient
         id="aigrd17"
         gradientUnits="userSpaceOnUse"
         x1="46.714401"
         y1="110.391602"
         x2="7.720500"
         y2="71.397697"
         xlink:href="#linearGradient133" />
      <path
         style="fill:url(#aigrd17);"
         d="M34.461,100.668l-4.089,13.781l12.827-8.88l4.849-14.243l-13.586,9.342z"
         id="path366" />
      <path
         style="opacity:0.4;"
         d="M53.723,111.489L61.79,98.94l0.184,17.218l-6.315,12.55l-1.936-17.219z"
         id="path367" />
      <path
         style="opacity:0.4;"
         d="M95.368,103.226l-5.92,14.84l8.518,10.951l7.844-10.815l-10.441-14.977z"
         id="path368" />
      <linearGradient
         id="aigrd18"
         gradientUnits="userSpaceOnUse"
         x1="6.598100"
         y1="68.167999"
         x2="47.220600"
         y2="73.443298"
         xlink:href="#linearGradient130" />
      <path
         style="opacity:0.5;fill:url(#aigrd18);"
         d="M7.789,60.844l-2.223,15.27l13.295,1.171l6.154-14.804L7.789,60.844z"
         id="path372" />
      <path
         style="fill:none;"
         d="M78.891,48.635c-12.729-8.941-29.232-8.926-37.496-0.202c0.413,10.034,7.507,20.918,18.444,28.018h0c9.357,6.076,20.29,8.566,29.242,6.662c2.197-0.468,4.167-1.258,5.982-2.226c0.08-0.847,0.188-1.688,0.188-2.547      c0-10.912-6.335-22.664-16.361-29.705z"
         id="path373" />
      <linearGradient
         id="aigrd19"
         gradientUnits="userSpaceOnUse"
         x1="95.310501"
         y1="91.098602"
         x2="-32.409100"
         y2="-8.183100"
         xlink:href="#linearGradient127" />
      <path
         style="fill:url(#aigrd19);"
         d="M136.946,81.339c0,0-9.583-7.144-11.612-8.657c0.012-0.294,0.014-0.346,0.024-0.589c0.99-0.692,2.33-1.556,3.575-2.354c3.808-2.444,5.569-3.628,6.449-4.708c0.442-0.542,0.675-1.214,0.675-1.896c0-0.292-0.042-0.584-0.129-0.871      c-1.427-4.704-3.459-9.409-6.042-13.986c-0.422-0.749-1.145-1.28-1.985-1.459c0,0-10.194-2.176-11.073-2.363c-1.526-2.38-3.254-4.684-5.132-6.914c1.465-1.876,3.508-4.494,3.508-4.494c0.426-0.546,0.635-1.197,0.635-1.845c0-0.786-0.307-1.567-0.909-2.152      c-3.535-3.437-7.345-6.604-11.322-9.414c-0.88-0.622-2.025-0.724-3.001-0.268c0,0-4.592,2.146-6.515,3.044c-2.399-1.474-4.885-2.807-7.436-4.001c0.046-2.244,0.129-6.273,0.129-6.294c0-1.214-0.732-2.311-1.859-2.774c-4.843-1.992-9.847-3.551-14.873-4.635      c-1.485-0.32-2.975,0.52-3.469,1.957c0,0-1.129,3.283-1.915,5.566C62.274,12,59.907,11.9,57.591,11.961c-1.405-1.775-6.133-7.749-6.133-7.749c-0.615-0.777-1.574-1.2-2.563-1.131C44.719,3.375,40.7,4.12,36.861,5.178c-0.463-0.142-0.933-0.269-1.431-0.169      c-1.269,0.252-2.233,1.29-2.392,2.574c-0.125,1.016-0.167,3.89-0.167,7.191c0,1.511,0.01,3.091,0.023,4.643c-2.848-1.388-11.075-5.397-11.075-5.397c-1.058-0.516-2.328-0.369-3.235,0.38c-3.252,2.688-6.055,5.795-8.331,9.235c-0.265,0.4-0.43,0.858-0.481,1.335      C9.678,25.85,9.199,35.551,9.055,38.504c-0.002,0.049-0.003,0.098-0.003,0.147c0,0.995,0.494,1.929,1.324,2.488c0,0,1.369,0.922,2.086,1.405c-3.138,0.184-6.438,0.377-6.438,0.377c-1.421,0.083-2.587,1.153-2.793,2.562L0.84,61.887      c-0.021,0.144-0.031,0.288-0.031,0.433c0,0.126,0.008,0.253,0.024,0.379L2.59,76.493c0.179,1.402,1.327,2.491,2.735,2.611c0,0,11.201,0.986,11.52,1.015c0.921,2.001,1.969,3.97,2.943,5.646c-0.052,0.069-0.118,0.084-0.167,0.165l-0.946,1.534      c-0.845,2.258-2.65,6.625-5.367,12.979c-0.162,0.379-0.242,0.78-0.242,1.179c0,0.648,0.21,1.291,0.617,1.823c2.807,3.67,11.993,12.969,15.994,13.923c0.829,0.197,1.702,0.033,2.403-0.452c0,0,8.722-6.038,11.201-7.755c2.149,1.334,5.337,3.25,7.654,4.383      c0.248,2.202,1.742,15.5,1.742,15.5c0.127,1.126,0.876,2.084,1.938,2.478c8.056,2.987,13.286,4.29,17.489,4.358c1.051,0.017,2.039-0.523,2.596-1.415l6.801-10.874c0.493-0.784,0.767-1.229,0.965-1.575c1.632-0.091,3.833-0.273,5.775-0.614      c1.229,1.58,7.355,9.457,7.355,9.457c0.723,0.93,1.924,1.351,3.069,1.075c5.195-1.249,10.589-5.115,10.816-5.278c0.162-0.117,0.312-0.25,0.447-0.396c0.431-0.466,10.582-11.445,12.104-13.242c0.474-0.559,0.72-1.248,0.72-1.941c0-0.501-0.128-1.004-0.391-1.463      c0,0-0.517-0.903-0.71-1.242c0.073-0.052,0.16-0.074,0.229-0.133l11.991-10.245c0.339-0.29,0.609-0.651,0.791-1.059c1.78-3.991,2.948-8.313,3.47-12.846c0.013-0.115,0.02-0.23,0.02-0.344c0-0.94-0.442-1.835-1.207-2.405z M131.923,95.712l-11.991,10.245      l-4.525-2.462c1.797,3.121,3.576,6.221,4.338,7.584c-1.498,1.768-12.018,13.145-12.018,13.145s-5.082,3.669-9.762,4.794c-8.518-10.951,0,0-8.518-10.951c-2.961,0.904-9.213,1.043-9.213,1.043c0,0-0.037-0.039-0.086-0.09c-0.075,0.499-0.143,0.95-0.202,1.338      c-0.028,0.188,0,0-7.793,12.522c-4.221-0.068-9.715-1.658-16.495-4.171c-1.936-17.219,0,0-1.936-17.219c-2.179-0.617-10.524-5.92-10.524-5.92s0,0-12.827,8.88c-2.59-0.617-11.1-8.634-14.307-12.827c5.793-13.553,5.416-13.327,5.598-13.497l1.512,1.482      c-0.438-0.513-0.895-1.019-1.317-1.538l1.664-1.907c-1.295-2.101-3.308-5.57-4.662-8.878l-2.509-0.221c-0.795-0.07-1.528-0.134-2.21-0.194L12.9,76.76c-0.491-0.043-0.948-0.083-1.375-0.121l-1.367-0.121c-0.813-0.071-1.484-0.13-2.034-0.179L7.228,76.26      c-0.125-0.011-0.237-0.021-0.344-0.03l-0.497-0.044c-0.077-0.007-0.147-0.013-0.211-0.019l-0.277-0.024c-0.093-0.008-0.161-0.014-0.209-0.019l-0.108-0.009c-0.015-0.001-0.016-0.001-0.016-0.001L3.809,62.32L6.2,45.916l15.308-0.897l-9.456-6.368      c0,0,0.612-12.499,0.704-13.36c2.165-3.271,4.775-6.127,7.741-8.579c2.861,1.406,10.964,5.346,13.066,6.367c0.752-0.608,1.542-1.171,2.35-1.712c-0.03-2.854-0.105-11.723,0.104-13.417c0,0,0.093,0.165,0.255,0.45c4.046-1.231,8.351-2.012,12.834-2.327      l7.065,8.927c3.417-0.192,6.958-0.037,10.561,0.461l2.69-7.82c4.773,1.029,9.588,2.513,14.364,4.477l-0.168,8.152c3.493,1.519,6.951,3.354,10.316,5.528l7.944-3.712c3.936,2.78,7.597,5.844,10.962,9.115l-4.99,6.392c2.738,3.018,5.149,6.223,7.181,9.545      c1.686,0.36,9.444,2.014,12.243,2.613c2.458,4.357,4.408,8.847,5.783,13.382c-1.201,1.473-8.464,5.58-10.68,7.442c0.004,0.217,0.017,0.437,0.017,0.653c0,0.921-0.045,1.83-0.115,2.73l0.017,0.2l12.856,9.584c-0.484,4.203-1.556,8.215-3.229,11.967z"
         id="path377" />
      <linearGradient
         id="aigrd20"
         gradientUnits="userSpaceOnUse"
         x1="19.146999"
         y1="2.485800"
         x2="97.641296"
         y2="80.981003"
         xlink:href="#linearGradient621" />
      <linearGradient
         id="aigrd21"
         gradientUnits="userSpaceOnUse"
         x1="105.202103"
         y1="96.159203"
         x2="39.035801"
         y2="31.004801"
         xlink:href="#linearGradient112" />
      <path
         style="fill:url(#aigrd21);"
         d="M121.231,73.251c0.285-2.209,0.34-7.574-0.167-10.167l11.992,0.051c-1.375-4.536-3.325-9.025-5.783-13.382c-2.799-0.599-10.558-2.253-12.243-2.613c-2.032-3.323-4.443-6.528-7.181-9.545l4.99-6.392c-3.365-3.271-7.026-6.334-10.962-9.115      l-7.944,3.712c-3.365-2.175-6.823-4.009-10.316-5.528l0.168-8.152c-4.776-1.964-9.591-3.447-14.364-4.477l-2.69,7.82c-3.603-0.498-7.144-0.653-10.561-0.461l-7.065-8.927c-4.483,0.314-8.788,1.095-12.834,2.327l5.546,9.789c-3.018,1.267-5.792,2.896-8.255,4.89      c-2.102-1.021-10.205-4.961-13.066-6.367c-2.966,2.452-5.576,5.307-7.741,8.579l12.976,7.793c-1.717,3.58-2.207,7.825-2.5,11.833L6.2,45.916c-0.226,4.868,0.933,9.296,2.198,14.335l17.333,1c1.719,4.618,5.165,10.329,8.333,14.667l-10,12      c2.903,3.574,4.552,6.248,10.167,10.833c0,0-0.167,0,13.667-9.5c2.833,2.833,11.291,6.882,15.167,8.5l0.5,17.5c5.966,2.102,9.045,2.655,15,3.333c0.632-4.201,2.219-15.581,2.333-16.333c4.491,0.267,11.2-0.125,15.333-1l10.167,15c3-0.833,9.902-4.446,11.5-5.667      c-1.521-2.718-6.646-12.415-8.333-15.333c2.494-2.028,5.746-5.462,7.5-8.167c0.064-0.098,14.5,7.667,14.5,7.667c1.673-3.752,3.104-6.804,3.588-11.006l-13.922-10.494z M104.967,77.334c-8.448,13.017-29.687,14.23-47.434,2.711      C39.784,68.523,32.247,48.63,40.698,35.612c8.45-13.019,29.688-14.232,47.437-2.711c17.748,11.524,25.285,31.415,16.832,44.433z"
         id="path385" />
      <path
         d="M62.231,114.667l-6.625,13.875l8-12l-1.375-1.875z"
         id="path386" />
      <path
         d="M105.356,117.542l-7.25,11.25l9.125-11l-1.875-0.25z"
         id="path387" />
      <path
         d="M33.856,100.167l-3.625,14.125l5.125-14.25l-1.5,0.125z"
         id="path388" />
      <path
         d="M7.606,60.042l-2,15.875l2.75-15l-0.75-0.875z"
         id="path389" />
      <path
         style="fill:url(#aigrd20);"
         d="M 38.916 34.304 C 29.87 48.236 37.75 69.465 56.48 81.626 C 67.182 88.572 79.85 91.384 90.369 89.146 C 97.589 87.611 103.289 83.897 106.852 78.405 C 109.36 74.544 111.872 66.5365 112.049 61.5347 C 112.403 56.6743 112.177 53.5166 111.721 51.3766 C 109.484 40.8586 105.648 31.8478 93.5306 23.6614 C 74.7996 11.5014 49.9055 17.7184 38.916 34.303 L 38.916 34.304 z M 58.207 78.967 C 40.942 67.759 33.481 48.498 41.575 36.03 C 49.668 23.563 70.297 22.538 87.562 33.745 C 97.574 40.246 104.785 49.925 106.851 59.639 C 108.207 66.019 107.288 71.911 104.191 76.681 C 101.095 81.45 96.087 84.687 89.707 86.046 C 79.994 88.112 68.217 85.466 58.206 78.966 L 58.207 78.967 z "
         id="path381"
         sodipodi:nodetypes="ccccccccccccccccc" />
    </g>
  </g>
  <path
     style="fill:url(#aigrd20);"
     d="M 58.207 78.967 C 40.942 67.759 33.481 48.498 41.575 36.03 C 49.668 23.563 73.1254 17.5882 90.3904 28.7952 C 100.402 35.2962 106.73 47.8037 108.796 57.5177 C 110.152 63.8977 107.288 71.911 104.191 76.681 C 101.095 81.45 96.087 84.687 89.707 86.046 C 79.994 88.112 68.217 85.466 58.206 78.966 L 58.207 78.967 z "
     id="path516" />
  <path
     style="fill:url(#linearGradient625);fill-opacity:1;"
     d="M 58.207 78.967 C 40.942 67.759 33.481 48.7223 41.575 36.2543 C 49.668 23.7873 71.2222 12.8301 92.135 26.2575 C 103.891 33.7102 108.316 47.8037 109.113 56.0903 C 109.359 62.6289 107.288 71.911 104.191 76.681 C 101.095 81.45 96.087 84.687 89.707 86.046 C 79.994 88.112 68.217 85.466 58.206 78.966 L 58.207 78.967 z "
     id="path624"
     sodipodi:nodetypes="cccccccc" />
</svg>
