/* XPM */
static const char * const tableview_pointer_xpm[] = {
"16 11 2 1",
" 	c None",
".	c #000000",
"     .          ",
"     ..         ",
"     ...        ",
"     ....       ",
"     .....      ",
"     ......     ",
"     .....      ",
"     ....       ",
"     ...        ",
"     ..         ",
"     .          "};
