/* XPM */
static char *magick[] = {
/* columns rows colors chars-per-pixel */
"5 6 6 1",
"  c gray15",
". c #343434",
"X c #969696",
"o c #aeaeae",
"O c #fefefe",
"+ c None",
/* pixels */
"++oO+",
"+X .O",
"X.OX.",
"X.OX.",
"+X .O",
"++oO+"
};
