/* XPM */
static char *icon[]={
"16 16 4 1",
". c None",
"a c #303030",
"# c #800000",
"b c #dcb730",
"................",
".....####.......",
"......####......",
"...#....###.....",
"..###...###.....",
".#########......",
"...######.a.....",
".bb..###.aa.....",
".bbb.....aa.....",
".bbbbbbb.aa.a...",
".bb.bbbb.aa.....",
".bb.b.bb.aa..aa.",
"..b.b.bb.aaaaaa.",
"....b.bb.aaaaa..",
"......bb.aaa....",
"................"};
