/* XPM */
static char*childrensw[]={
"22 22 3 1",
"a c #0000ff",
". c None",
"# c #ff0000",
"......................",
".####################.",
".#..................#.",
".#..................#.",
".#.aaaaaa...........#.",
".#.a....a...........#.",
".#.a....a...........#.",
".#.a....a...........#.",
".#.a....a....aaaaaa.#.",
".#.aaaaaa....a....a.#.",
".#...........a....a.#.",
".#...........a....a.#.",
".#...........a....a.#.",
".#..aaaaaa...aaaaaa.#.",
".#..a....a..........#.",
".#..a....a..........#.",
".#..a....a..........#.",
".#..a....a..........#.",
".#..aaaaaa..........#.",
".#..................#.",
".####################.",
"......................"};
