/* XPM */
static char*far[]={
"22 22 4 1",
"a c #000000",
"# c #0000ff",
". c None",
"b c #ff0000",
"..........######......",
"..........#....#......",
"...a......#....#......",
"..aaa.....#....#......",
".a.a.a....#....#......",
"...a......######......",
"...a..................",
"...a..................",
"...a..................",
"...a..................",
"......................",
"........bbbbbbbbbbbb..",
"......................",
"...a..................",
"...a..................",
"...a..................",
"...a......######......",
"...a......#....#......",
".a.a.a....#....#......",
"..aaa.....#....#......",
"...a......#....#......",
"..........######......"};
