/* XPM */
static char*addhigher[]={
"22 22 5 1",
"c c #ff1441",
"a c #000000",
"b c #0000ff",
". c None",
"# c #ff0000",
"......................",
"...#..................",
"..###.................",
"..#..a...a............",
"..#...a.a.............",
"..#....a..............",
"..#...a.a.............",
"..#..a...a............",
"..#.....bbbbbbbbbbb...",
"..#.....b.........b...",
"..#.....b.........b...",
"..#.....b.........b...",
"..#.....b.........b...",
"..#.....b.........b...",
"..#.....b.........b...",
"..#.....b.........b...",
"..#.....b.........b...",
"..#.....b.........b...",
"..#.....bbbbbbbbbbb...",
"#.c...................",
".#....................",
"......................"};
