/* XPM */
static char*addlower[]={
"22 22 4 1",
"b c #000000",
"a c #0000ff",
". c None",
"# c #ff0000",
"......................",
"....#.................",
"...#.#................",
"...#..................",
"...#......aaaaaaaaaaaa",
"...#......a..........a",
"...#......a..........a",
"...#......a..........a",
"...#......a..........a",
"...#......a..........a",
"...#......a..........a",
"...#......a..........a",
"...#......a..........a",
"...#......a..........a",
"...#b...b.a..........a",
"...#.b.b..a..........a",
"...#..b...aaaaaaaaaaaa",
"...#.b.b..............",
"...#b...b.............",
".#.#..................",
"..#...................",
"......................"};
