/* XPM */
static char*indexsw[]={
"22 22 4 1",
"a c #00ffff",
". c #0000ff",
"# c None",
"b c #ff0000",
"......##########......",
".####.##########.####.",
".####.##########.####.",
".####.##########.####.",
".####.##########.####.",
".....a##########a.....",
"######a########a######",
"#######a######a#######",
"########bbbbbb########",
"########b####b########",
"########b####b########",
"########b####b########",
"########b####b########",
"########bbbbbb########",
"#######a######a#######",
"######a########a######",
".....a##########a.....",
".####.##########.####.",
".####.##########.####.",
".####.##########.####.",
".####.##########.####.",
"......##########......"};
