/* XPM */
static char * kformula1_0_xpm[] = {
"22 22 3 1",
" 	c None",
".	c #000000000000",
"X	c #FF0000",
"                      ",
"                      ",
"              .     . ",
"               .   .  ",
"                . .   ",
"                 .    ",
"                . .   ",
"               .   .  ",
"XXXXXXXXXXXXXX.     . ",
"X            X        ",
"X            X        ",
"X            X        ",
"X            X        ",
"X            X        ",
"X            X        ",
"X            X        ",
"X            X        ",
"X            X        ",
"X            X        ",
"X            X        ",
"XXXXXXXXXXXXXX        ",
"                      "};
