/* XPM */
static char * kformula2_3_xpm[] = {
"22 22 4 1",
" 	c None",
"O      c #000000000000",
"X	c #51445144FFFF",
".	c #FFFF14514103",
"                      ",
"                O   O ",
"                 O O  ",
"                  O   ",
"                 O O  ",
" ....      .... O   O ",
" .            .       ",
" .            .       ",
" . XXXXXXXXXX .       ",
" . X        X .       ",
" . X        X .       ",
" . X        X .       ",
" . X        X .       ",
" . X        X .       ",
" . X        X .       ",
" . X        X .       ",
" . X        X .       ",
" . X        X .       ",
" . XXXXXXXXXX .       ",
" .            .       ",
" .            .       ",
" ....      ....       "};
