/* XPM */
static char * mini_frac_xpm[] = {
"22 22 3 1",
" 	c None",
".	c #000000000000",
"X	c #51445144FFFF",
"                      ",
"                      ",
"                      ",
"      ... ...         ",
"       .   .          ",
"        ...           ",
"         .            ",
"        ...           ",
"       .   .          ",
"      ... ...         ",
"                      ",
" XXXXXXXXXXXXXXXXXX   ",
"                      ",
"                      ",
"      ... ...         ",
"       .   .          ",
"       .   .          ",
"        . .           ",
"        . .           ",
"         .            ",
"        ..            ",
"        .             "};
