/* XPM */
static char * mini_bra_xpm[] = {
"22 22 3 1",
" 	c None",
".	c #51445144FFFF",
"X	c #000000000000",
"                      ",
"                      ",
"      ..      ..      ",
"     .          .     ",
"    .            .    ",
"    .            .    ",
"   .  XXXX  XXX   .   ",
"   .   XX    X    .   ",
"   .    XX  X     .   ",
"   .     X X      .   ",
"   .     XX       .   ",
"   .      XX      .   ",
"   .     X X      .   ",
"   .    X  XX     .   ",
"   .   X    XX    .   ",
"   .  XXX  XXXX   .   ",
"   .              .   ",
"    .            .    ",
"    .            .    ",
"     .          .     ",
"      ..     ..       ",
"                      "};
