/* XPM */
static char * mini_rootindex_xpm[] = {
"16 16 3 1",
" 	c None",
".	c #000000000000",
"X	c #F7BC10844210",
"                ",
"                ",
"    .   .       ",
"     . .        ",
"      .         ",
"     . .        ",
"    .   .   XXXX",
"            X   ",
"            X   ",
"        X   X   ",
"        X   X   ",
"         X  X   ",
"         X  X   ",
"          X X   ",
"          X X   ",
"          X X   "};
