/* XPM */
static char*remrow[]={
"22 22 3 1",
"# c #0000ff",
". c None",
"a c #ff0000",
"......................",
".###.###.###.###.###..",
".#.#.#.#.#.#.#.#.#.#..",
".###.###.###.###.###..",
"......................",
"aaaaaaaa.###.#aaaaaaaa",
".#.#.#.#aaaaaa.#.#.#..",
"aaaaaaaa.###.aaaaaaaaa",
"......................",
".###.###.###.###.###..",
".#.#.#.#.#.#.#.#.#.#..",
".###.###.###.###.###..",
"......................",
".###.###.###.###.###..",
".#.#.#.#.#.#.#.#.#.#..",
".###.###.###.###.###..",
"......................",
".###.###.###.###.###..",
".#.#.#.#.#.#.#.#.#.#..",
".###.###.###.###.###..",
"......................",
"......................"};
