/* XPM */
static char*split[]={
"22 22 4 1",
"a c #000000",
"b c #0000ff",
". c None",
"# c #ff0000",
".####################.",
".#..................#.",
".#.a...a.....a...a..#.",
".#..a.a.......a.a...#.",
".#...a.........a....#.",
".#..a.a........a....#.",
".#.a...a.......a....#.",
".#..................#.",
".####################.",
".......bb....bb.......",
"......bb......bb......",
".....bb........bb.....",
".###bb####..####bb###.",
".#.......#..#.......#.",
".#.a...a.#..#.a...a.#.",
".#..a.a..#..#..a.a..#.",
".#...a...#..#...a...#.",
".#..a.a..#..#...a...#.",
".#.a...a.#..#...a...#.",
".#.......#..#.......#.",
".#########..#########.",
"......................"};
