/* XPM */
static char*upalign[]={
"22 22 4 1",
"# c #000000",
"a c #0000ff",
". c None",
"b c #ff0000",
"......................",
"......#...............",
".......#.....aaaaaa...",
".########....a....a...",
".......#.....a....a...",
"......#......a....a...",
".............a....a...",
".............aaaaaa...",
"......................",
"......................",
"..........bbbbbbbbbbbb",
"......................",
"......................",
".............aaaaaa...",
".............a....a...",
".............a....a...",
".............a....a...",
".............a....a...",
".............aaaaaa...",
"......................",
"......................",
"......................"};
