<?xml version="1.0" encoding="UTF-8" standalone="no"?>
<!-- Created with Inkscape (http://www.inkscape.org/) -->

<svg
   xmlns:dc="http://purl.org/dc/elements/1.1/"
   xmlns:cc="http://creativecommons.org/ns#"
   xmlns:rdf="http://www.w3.org/1999/02/22-rdf-syntax-ns#"
   xmlns:svg="http://www.w3.org/2000/svg"
   xmlns="http://www.w3.org/2000/svg"
   xmlns:sodipodi="http://sodipodi.sourceforge.net/DTD/sodipodi-0.dtd"
   xmlns:inkscape="http://www.inkscape.org/namespaces/inkscape"
   width="16"
   height="16"
   id="svg3049"
   version="1.1"
   inkscape:version="0.48.5 r10040"
   sodipodi:docname="16-actions-kexi_report.svg"
   inkscape:export-filename="/home/uri/.kde/share/icons/NITRUX-KDE/16x16/actions/view-right-new.png"
   inkscape:export-xdpi="30"
   inkscape:export-ydpi="30">
  <defs
     id="defs3051">
    <inkscape:perspective
       sodipodi:type="inkscape:persp3d"
       inkscape:vp_x="0 : 12 : 1"
       inkscape:vp_y="0 : 1000 : 0"
       inkscape:vp_z="24 : 12 : 1"
       inkscape:persp3d-origin="12 : 8 : 1"
       id="perspective4146" />
    <inkscape:perspective
       id="perspective4146-5"
       inkscape:persp3d-origin="12 : 8 : 1"
       inkscape:vp_z="24 : 12 : 1"
       inkscape:vp_y="0 : 1000 : 0"
       inkscape:vp_x="0 : 12 : 1"
       sodipodi:type="inkscape:persp3d" />
  </defs>
  <sodipodi:namedview
     id="base"
     pagecolor="#ffffff"
     bordercolor="#666666"
     borderopacity="1.0"
     inkscape:pageopacity="0.0"
     inkscape:pageshadow="2"
     inkscape:zoom="32"
     inkscape:cx="9.9922133"
     inkscape:cy="8.9122145"
     inkscape:document-units="px"
     inkscape:current-layer="layer1"
     showgrid="true"
     fit-margin-top="0"
     fit-margin-left="0"
     fit-margin-right="0"
     fit-margin-bottom="0"
     inkscape:window-width="1280"
     inkscape:window-height="960"
     inkscape:window-x="-8"
     inkscape:window-y="-3"
     inkscape:window-maximized="1"
     inkscape:showpageshadow="false"
     borderlayer="true"
     inkscape:snap-bbox="true"
     inkscape:snap-global="true"
     showguides="true">
    <inkscape:grid
       type="xygrid"
       id="grid4085" />
    <sodipodi:guide
       position="2,11"
       orientation="12,0"
       id="guide4075" />
    <sodipodi:guide
       position="17,2"
       orientation="0,12"
       id="guide4077" />
    <sodipodi:guide
       position="14,13"
       orientation="-12,0"
       id="guide4079" />
    <sodipodi:guide
       position="0,14"
       orientation="0,-12"
       id="guide4081" />
  </sodipodi:namedview>
  <metadata
     id="metadata3054">
    <rdf:RDF>
      <cc:Work
         rdf:about="">
        <dc:format>image/svg+xml</dc:format>
        <dc:type
           rdf:resource="http://purl.org/dc/dcmitype/StillImage" />
        <dc:title></dc:title>
      </cc:Work>
    </rdf:RDF>
  </metadata>
  <g
     inkscape:label="Capa 1"
     inkscape:groupmode="layer"
     id="layer1"
     transform="translate(-421.71429,-531.79074)">
    <g
       transform="translate(-38.260002,-6.3485488)"
       id="layer1-0"
       inkscape:label="Capa 1" />
    <path
       style="color:#000000;fill:#27ae60;fill-opacity:1;fill-rule:nonzero;stroke:none;stroke-width:2;marker:none;visibility:visible;display:inline;overflow:visible;enable-background:accumulate"
       d="m 424.71429,533.79074 c 0,0.66667 0,1.33333 0,2 -0.33333,0 -0.66667,0 -1,0 0,0.33333 0,0.66667 0,1 0.33333,0 0.66667,0 1,0 0,0.33333 0,0.66667 0,1 -0.33333,0 -0.66667,0 -1,0 10e-6,0.33334 2e-5,0.66668 3e-5,1.00002 0.33332,-10e-6 0.66665,-10e-6 0.99997,-2e-5 0,0.33333 0,0.66667 0,1 -0.33333,0 -0.66667,0 -1,0 0,0.33333 0,0.66667 0,1 0.33333,0 0.66667,0 1,0 0,0.33333 0,0.66667 0,1 -0.33333,0 -0.66667,0 -1,0 0,0.33333 0,0.66667 0,1 0.33333,0 0.66667,0 1,0 0,0.33333 0,0.66667 0,1 -0.33333,0 -0.66667,0 -1,0 0,0.33333 0,0.66667 0,1 0.33333,0 0.66667,0 1,0 0,0.33333 0,0.66667 0,1 3.33333,0 6.66667,0 10,0 0,-3.99999 0,-7.99998 0,-11.99997 -3.33333,-10e-6 -6.66667,-2e-5 -10,-3e-5 z m 1,1 c 2.66667,0 5.33333,0 8,0 0,3.33333 0,6.66667 0,10 -2.66667,0 -5.33333,0 -8,0 0,-3.33333 0,-6.66667 0,-10 z m 1,1 c 0,1.33333 0,2.66667 0,4 2,0 4,0 6,0 0,-1.33333 0,-2.66667 0,-4 -2,0 -4,0 -6,0 z m 1,1 c 1.33333,0 2.66667,0 4,0 0,0.66667 0,1.33333 0,2 -1.33333,0 -2.66667,0 -4,0 0,-0.66667 0,-1.33333 0,-2 z"
       id="path4413-9"
       inkscape:connector-curvature="0" />
  </g>
</svg>
