<?xml version="1.0" encoding="UTF-8" standalone="no"?>
<!-- Created with Inkscape (http://www.inkscape.org/) -->

<svg
   xmlns:dc="http://purl.org/dc/elements/1.1/"
   xmlns:cc="http://creativecommons.org/ns#"
   xmlns:rdf="http://www.w3.org/1999/02/22-rdf-syntax-ns#"
   xmlns:svg="http://www.w3.org/2000/svg"
   xmlns="http://www.w3.org/2000/svg"
   xmlns:sodipodi="http://sodipodi.sourceforge.net/DTD/sodipodi-0.dtd"
   xmlns:inkscape="http://www.inkscape.org/namespaces/inkscape"
   width="16"
   height="16"
   id="svg3049"
   version="1.1"
   inkscape:version="0.48.5 r10040"
   sodipodi:docname="16-actions-kexi_macro.svg"
   inkscape:export-filename="/home/uri/.kde/share/icons/NITRUX-KDE/16x16/actions/view-right-new.png"
   inkscape:export-xdpi="30"
   inkscape:export-ydpi="30">
  <defs
     id="defs3051">
    <inkscape:perspective
       sodipodi:type="inkscape:persp3d"
       inkscape:vp_x="0 : 12 : 1"
       inkscape:vp_y="0 : 1000 : 0"
       inkscape:vp_z="24 : 12 : 1"
       inkscape:persp3d-origin="12 : 8 : 1"
       id="perspective4146" />
    <inkscape:perspective
       id="perspective4146-5"
       inkscape:persp3d-origin="12 : 8 : 1"
       inkscape:vp_z="24 : 12 : 1"
       inkscape:vp_y="0 : 1000 : 0"
       inkscape:vp_x="0 : 12 : 1"
       sodipodi:type="inkscape:persp3d" />
  </defs>
  <sodipodi:namedview
     id="base"
     pagecolor="#ffffff"
     bordercolor="#666666"
     borderopacity="1.0"
     inkscape:pageopacity="0.0"
     inkscape:pageshadow="2"
     inkscape:zoom="32"
     inkscape:cx="9.3591131"
     inkscape:cy="7.4742734"
     inkscape:document-units="px"
     inkscape:current-layer="layer1"
     showgrid="true"
     fit-margin-top="0"
     fit-margin-left="0"
     fit-margin-right="0"
     fit-margin-bottom="0"
     inkscape:window-width="1280"
     inkscape:window-height="960"
     inkscape:window-x="-8"
     inkscape:window-y="-3"
     inkscape:window-maximized="1"
     inkscape:showpageshadow="false"
     borderlayer="true"
     inkscape:snap-bbox="true"
     inkscape:snap-global="true"
     showguides="true"
     inkscape:guide-bbox="true">
    <inkscape:grid
       type="xygrid"
       id="grid4085" />
    <sodipodi:guide
       position="2,11"
       orientation="12,0"
       id="guide4075" />
    <sodipodi:guide
       position="17,2"
       orientation="0,12"
       id="guide4077" />
    <sodipodi:guide
       position="14,17"
       orientation="-12,0"
       id="guide4079" />
    <sodipodi:guide
       position="0,14"
       orientation="0,-12"
       id="guide4081" />
    <sodipodi:guide
       orientation="1,0"
       position="8,15"
       id="guide3823" />
    <sodipodi:guide
       orientation="0,1"
       position="4,6"
       id="guide3893" />
    <sodipodi:guide
       orientation="1,0"
       position="6.9960938,3.7734375"
       id="guide3899" />
  </sodipodi:namedview>
  <metadata
     id="metadata3054">
    <rdf:RDF>
      <cc:Work
         rdf:about="">
        <dc:format>image/svg+xml</dc:format>
        <dc:type
           rdf:resource="http://purl.org/dc/dcmitype/StillImage" />
        <dc:title></dc:title>
      </cc:Work>
    </rdf:RDF>
  </metadata>
  <g
     inkscape:label="Capa 1"
     inkscape:groupmode="layer"
     id="layer1"
     transform="translate(-421.71429,-531.79074)">
    <g
       transform="translate(-38.260002,-6.3485488)"
       id="layer1-0"
       inkscape:label="Capa 1" />
    <path
       style="color:#000000;fill:#8e44ad;fill-opacity:1;fill-rule:evenodd;stroke:none;stroke-width:0;marker:none;visibility:visible;display:inline;overflow:visible;enable-background:accumulate"
       d="M 8 2 L 4.46875 4.5 L 8 7 L 11.53125 4.5 L 8 2 z M 8 3.21875 L 9.84375 4.5 L 8 5.78125 L 6.15625 4.5 L 8 3.21875 z M 4 8 L 4 9 L 12 9 L 12 8 L 4 8 z M 3.78125 10 C 3.23291 10.0226 2.75561 10.38425 2.40625 10.78125 C 2.1568 11.07219 1.96668 11.44924 2 11.84375 C 2.005 12.16726 1.9551 12.48798 2.125 12.78125 C 2.40952 13.31442 2.88822 13.78518 3.46875 13.96875 C 3.79887 14.05285 4.16337 13.9828 4.5 14 C 4.82878 13.9866 5.14456 14.03545 5.46875 13.96875 C 6.05495 13.80116 6.54794 13.36931 6.84375 12.84375 C 6.9854 12.60805 7.01265 12.33031 7 12.0625 C 7.003 11.77553 7.0255 11.4769 6.875 11.21875 C 6.59048 10.68558 6.11178 10.21482 5.53125 10.03125 C 5.21028 9.94985 4.85883 10.0135 4.53125 10 C 4.27989 9.99999 4.03261 10.00006 3.78125 10 z M 9 10 L 9 14 L 14 14 L 14 10 L 9 10 z M 3.90625 11 C 4.32205 11.003 4.7409 10.988 5.15625 11 C 5.62589 11.0915 6.04778 11.53273 6 12.03125 C 6.0122 12.51361 5.58216 12.92787 5.125 13 C 4.69955 13.00072 4.26881 13.013 3.84375 13 C 3.37411 12.9085 2.95225 12.46727 3 11.96875 C 2.985 11.48071 3.44011 11.05147 3.90625 11 z M 10 11 L 13 11 L 13 13 L 10 13 L 10 11 z "
       transform="translate(421.71429,531.79074)"
       id="path4595" />
  </g>
</svg>
