<?xml version="1.0" encoding="UTF-8" standalone="no"?>
<!-- Created with Inkscape (http://www.inkscape.org/) -->

<svg
   xmlns:dc="http://purl.org/dc/elements/1.1/"
   xmlns:cc="http://creativecommons.org/ns#"
   xmlns:rdf="http://www.w3.org/1999/02/22-rdf-syntax-ns#"
   xmlns:svg="http://www.w3.org/2000/svg"
   xmlns="http://www.w3.org/2000/svg"
   xmlns:sodipodi="http://sodipodi.sourceforge.net/DTD/sodipodi-0.dtd"
   xmlns:inkscape="http://www.inkscape.org/namespaces/inkscape"
   width="16"
   height="16"
   id="svg2"
   version="1.1"
   inkscape:version="0.48.4 r9939"
   viewBox="0 0 16 16"
   sodipodi:docname="breeze-kexi-file-database.svgz">
  <defs
     id="defs4" />
  <sodipodi:namedview
     id="base"
     pagecolor="#ffffff"
     bordercolor="#666666"
     borderopacity="1.0"
     inkscape:pageopacity="0.0"
     inkscape:pageshadow="2"
     inkscape:zoom="64"
     inkscape:cx="9.4504836"
     inkscape:cy="7.7598799"
     inkscape:document-units="px"
     inkscape:current-layer="layer1"
     showgrid="true"
     inkscape:showpageshadow="false"
     borderlayer="true"
     units="px"
     inkscape:window-width="1240"
     inkscape:window-height="943"
     inkscape:window-x="32"
     inkscape:window-y="-3"
     inkscape:window-maximized="1">
    <inkscape:grid
       type="xygrid"
       id="grid4062" />
    <sodipodi:guide
       position="2,14.000017"
       orientation="12,0"
       id="guide4066" />
    <sodipodi:guide
       position="2,2.0000174"
       orientation="0,12"
       id="guide4068" />
    <sodipodi:guide
       position="14,2.0000174"
       orientation="-12,0"
       id="guide4070" />
    <sodipodi:guide
       position="14,14.000017"
       orientation="0,-12"
       id="guide4072" />
  </sodipodi:namedview>
  <metadata
     id="metadata7">
    <rdf:RDF>
      <cc:Work
         rdf:about="">
        <dc:format>image/svg+xml</dc:format>
        <dc:type
           rdf:resource="http://purl.org/dc/dcmitype/StillImage" />
        <dc:title></dc:title>
      </cc:Work>
    </rdf:RDF>
  </metadata>
  <g
     inkscape:label="Capa 1"
     inkscape:groupmode="layer"
     id="layer1"
     transform="translate(0,-1036.3622)">
    <path
       style="fill:#4d4d4d;fill-opacity:1;stroke:none"
       d="m 3,1038.3622 0,1 0,11 1,0 6.011719,0 2.988281,-3 0,-9 -9,0 z m 1,1 8,0 0,7.6094 -2.3945312,2.3906 -5.6054688,0 z"
       id="rect4074"
       inkscape:connector-curvature="0"
       sodipodi:nodetypes="ccccccccccccccc" />
    <path
       style="fill:#4d4d4d;fill-opacity:1;stroke:none"
       d="m 7.9999981,1041.3622 c -1.5707725,0 -2.9999591,0.4764 -2.9999981,1 l 0,4 c 3.9e-5,0.5236 1.4292263,1 2.9999989,1 1.5707717,0 2.9999621,-0.4764 3.0000011,-1 l 0,-4 c -3.9e-5,-0.5236 -1.4292294,-1 -3.0000019,-1 z m 0,0.7604 c 1.3089144,0 1.9027889,0.1199 1.9029199,0.3816 6.5e-5,0.2618 -0.5938796,0.4594 -1.9029199,0.4594 -1.3090395,0 -1.8688915,-0.1976 -1.8688263,-0.4594 1.305e-4,-0.2617 0.559912,-0.3816 1.8688263,-0.3816 z m -2.0014091,1.1337 c 0.5431473,0.2743 1.0152118,0.3815 2.0014091,0.3819 0.9856732,-2e-4 1.4585368,-0.1076 2.0023569,-0.3809 l 0,0.6688 c 6.6e-5,0.2618 -0.6933166,0.6676 -2.0023561,0.6676 -1.3090396,0 -2.0014745,-0.4058 -2.0014092,-0.6676 z m 0,1.6603 c 0.543199,0.2742 1.0152523,0.4572 2.0014091,0.4576 0.9856327,-2e-4 1.4584851,-0.1828 2.0023569,-0.4566 l 0,0.964 c -1.31e-4,0.2618 -0.6934418,0.6846 -2.0023561,0.6846 -1.3089144,0 -2.001278,-0.4228 -2.0014092,-0.6846 z"
       id="path4140"
       inkscape:connector-curvature="0"
       sodipodi:nodetypes="sccsccsscscsccccsccccccscc" />
  </g>
</svg>
