<?xml version="1.0" encoding="UTF-8" standalone="no"?>
<!-- Created with Inkscape (http://www.inkscape.org/) -->

<svg
   xmlns:dc="http://purl.org/dc/elements/1.1/"
   xmlns:cc="http://creativecommons.org/ns#"
   xmlns:rdf="http://www.w3.org/1999/02/22-rdf-syntax-ns#"
   xmlns:svg="http://www.w3.org/2000/svg"
   xmlns="http://www.w3.org/2000/svg"
   xmlns:sodipodi="http://sodipodi.sourceforge.net/DTD/sodipodi-0.dtd"
   xmlns:inkscape="http://www.inkscape.org/namespaces/inkscape"
   width="16"
   height="16"
   id="svg2"
   version="1.1"
   inkscape:version="0.48.5 r10040"
   viewBox="0 0 16 16"
   sodipodi:docname="16-places-kexi_network-server-database.svg">
  <defs
     id="defs4" />
  <sodipodi:namedview
     id="base"
     pagecolor="#ffffff"
     bordercolor="#666666"
     borderopacity="1.0"
     inkscape:pageopacity="0.0"
     inkscape:pageshadow="2"
     inkscape:zoom="64"
     inkscape:cx="9.2817504"
     inkscape:cy="7.0501593"
     inkscape:document-units="px"
     inkscape:current-layer="layer1"
     showgrid="true"
     inkscape:showpageshadow="false"
     borderlayer="true"
     units="px"
     inkscape:window-width="1280"
     inkscape:window-height="960"
     inkscape:window-x="-8"
     inkscape:window-y="-3"
     inkscape:window-maximized="1">
    <inkscape:grid
       type="xygrid"
       id="grid4062"
       empspacing="5"
       visible="true"
       enabled="true"
       snapvisiblegridlinesonly="true" />
    <sodipodi:guide
       position="2,14.000017"
       orientation="12,0"
       id="guide4066" />
    <sodipodi:guide
       position="2,2.0000174"
       orientation="0,12"
       id="guide4068" />
    <sodipodi:guide
       position="14,2.0000174"
       orientation="-12,0"
       id="guide4070" />
    <sodipodi:guide
       position="14,14.000017"
       orientation="0,-12"
       id="guide4072" />
  </sodipodi:namedview>
  <metadata
     id="metadata7">
    <rdf:RDF>
      <cc:Work
         rdf:about="">
        <dc:format>image/svg+xml</dc:format>
        <dc:type
           rdf:resource="http://purl.org/dc/dcmitype/StillImage" />
        <dc:title />
      </cc:Work>
    </rdf:RDF>
  </metadata>
  <g
     inkscape:label="Capa 1"
     inkscape:groupmode="layer"
     id="layer1"
     transform="translate(0,-1036.3622)">
    <g
       transform="translate(-2.96875,0.99999949)"
       id="g3008">
      <path
         inkscape:connector-curvature="0"
         d="m 10.484375,1044.3622 0,4 -5.515625,0 0,1 12,0 0,-1 -5.484375,0 0,-4 z"
         style="fill:#4d4d4d;fill-opacity:1;stroke:none"
         id="rect4069"
         sodipodi:nodetypes="ccccccccc" />
      <g
         style="fill:#4d4d4d;fill-opacity:1"
         inkscape:label="Capa 1"
         id="layer1-2"
         transform="translate(3,-5.0002385)" />
    </g>
    <path
       style="fill:#4d4d4d;fill-opacity:1;stroke:none"
       d="m 7.999995,1038.3622 c -2.094362,0 -3.999943,0.6352 -3.999995,1.3333 l 0,5.3334 c 5.2e-5,0.6981 1.905634,1.3333 3.999996,1.3333 2.094361,0 3.999947,-0.6352 3.999999,-1.3333 l 0,-5.3334 c -5.2e-5,-0.6981 -1.905638,-1.3333 -4,-1.3333 z m 0,1.0139 c 1.745218,0 2.891216,0.1598 2.891391,0.5088 8.7e-5,0.3491 -1.146005,0.5032 -2.891391,0.5032 -1.745385,0 -2.825187,-0.1541 -2.8251,-0.5032 1.74e-4,-0.349 1.079882,-0.5088 2.8251,-0.5088 z m -3.001877,1.5115 c 0.724196,0.3658 1.686948,0.4879 3.001877,0.4885 1.31423,-3e-4 2.298881,-0.1214 3.023974,-0.4872 l 0,0.8413 c 8.7e-5,0.3491 -1.278588,0.8509 -3.023973,0.8509 -1.745385,0 -3.001964,-0.5018 -3.001877,-0.8509 z m 0,2.059 c 0.724265,0.3658 1.687002,0.8256 3.001877,0.8262 1.314176,-3e-4 2.298812,-0.4596 3.023974,-0.8249 l 0,1.4402 c -1.75e-4,0.349 -1.278755,0.897 -3.023973,0.897 -1.745218,0 -3.001702,-0.548 -3.001877,-0.897 z"
       id="path4140-4"
       inkscape:connector-curvature="0"
       sodipodi:nodetypes="sccsccsscscsccccsccccccscc" />
  </g>
</svg>
