<?xml version="1.0" encoding="UTF-8" standalone="no"?>
<!-- Created with Inkscape (http://www.inkscape.org/) -->

<svg
   xmlns:dc="http://purl.org/dc/elements/1.1/"
   xmlns:cc="http://creativecommons.org/ns#"
   xmlns:rdf="http://www.w3.org/1999/02/22-rdf-syntax-ns#"
   xmlns:svg="http://www.w3.org/2000/svg"
   xmlns="http://www.w3.org/2000/svg"
   xmlns:sodipodi="http://sodipodi.sourceforge.net/DTD/sodipodi-0.dtd"
   xmlns:inkscape="http://www.inkscape.org/namespaces/inkscape"
   width="22"
   height="22"
   id="svg3760"
   version="1.1"
   inkscape:version="0.48.5 r10040"
   sodipodi:docname="22-actions-kexi_query.svg">
  <defs
     id="defs3762" />
  <sodipodi:namedview
     id="base"
     pagecolor="#ffffff"
     bordercolor="#666666"
     borderopacity="1.0"
     inkscape:pageopacity="0.0"
     inkscape:pageshadow="2"
     inkscape:zoom="45.254834"
     inkscape:cx="12.831147"
     inkscape:cy="12.401394"
     inkscape:document-units="px"
     inkscape:current-layer="layer1"
     showgrid="true"
     fit-margin-top="0"
     fit-margin-left="0"
     fit-margin-right="0"
     fit-margin-bottom="0"
     inkscape:window-width="1280"
     inkscape:window-height="960"
     inkscape:window-x="-8"
     inkscape:window-y="-3"
     inkscape:window-maximized="1"
     inkscape:showpageshadow="false"
     showguides="true">
    <sodipodi:guide
       position="4.1796875e-06,21.999997"
       orientation="22,0"
       id="guide4116" />
    <sodipodi:guide
       position="4.1796875e-06,-2.6953124e-06"
       orientation="0,22"
       id="guide4118" />
    <sodipodi:guide
       position="22.000004,-2.6953124e-06"
       orientation="-22,0"
       id="guide4120" />
    <sodipodi:guide
       position="22.000004,21.999997"
       orientation="0,-22"
       id="guide4122" />
    <sodipodi:guide
       position="2.0000042,19.999997"
       orientation="18,0"
       id="guide4124" />
    <sodipodi:guide
       position="20.000004,1.9999973"
       orientation="-18,0"
       id="guide4128" />
    <sodipodi:guide
       position="20.000004,19.999997"
       orientation="0,-18"
       id="guide4130" />
    <sodipodi:guide
       position="3.0000042,18.999997"
       orientation="16,0"
       id="guide4132" />
    <sodipodi:guide
       position="3.0000042,2.9999973"
       orientation="0,16"
       id="guide4134" />
    <sodipodi:guide
       position="19.000004,2.9999973"
       orientation="-16,0"
       id="guide4136" />
    <sodipodi:guide
       position="17,19"
       orientation="0,-16"
       id="guide4138" />
    <inkscape:grid
       type="xygrid"
       id="grid4140"
       empspacing="5"
       visible="true"
       enabled="true"
       snapvisiblegridlinesonly="true" />
  </sodipodi:namedview>
  <metadata
     id="metadata3765">
    <rdf:RDF>
      <cc:Work
         rdf:about="">
        <dc:format>image/svg+xml</dc:format>
        <dc:type
           rdf:resource="http://purl.org/dc/dcmitype/StillImage" />
        <dc:title />
      </cc:Work>
    </rdf:RDF>
  </metadata>
  <g
     inkscape:label="Capa 1"
     inkscape:groupmode="layer"
     id="layer1"
     transform="translate(-553.72253,-583.11926)">
    <g
       transform="translate(98.74824,50.97997)"
       id="layer1-0"
       inkscape:label="Capa 1" />
    <path
       style="color:#000000;fill:#2c3e50;fill-opacity:1;fill-rule:nonzero;stroke:none;stroke-width:2;marker:none;visibility:visible;display:inline;overflow:visible;enable-background:accumulate"
       d="m 560.72253,586.11926 c 0,1.33333 0,2.66667 0,4 -1.33333,0 -2.66667,0 -4,0 0,3.66667 0,7.33333 0,11 4,0 8,0 12,0 0,-1.33333 0,-2.66667 0,-4 1.33333,0 2.66667,0 4,0 0,-3.66667 0,-7.33333 0,-11 -4,0 -8,0 -12,0 z m 1,1 c 1,0 2,0 3,0 0,0.33333 0,0.66667 0,1 -1,0 -2,0 -3,0 0,-0.33333 0,-0.66667 0,-1 z m 4,0 c 0.66667,0 1.33333,0 2,0 0,0.33333 0,0.66667 0,1 -0.66667,0 -1.33333,0 -2,0 0,-0.33333 0,-0.66667 0,-1 z m 3,0 c 1,0 2,0 3,0 0,0.33333 0,0.66667 0,1 -1,0 -2,0 -3,0 0,-0.33333 0,-0.66667 0,-1 z m -7,2 c 1,0 2,0 3,0 0,0.33333 0,0.66667 0,1 -1,0 -2,0 -3,0 0,-0.33333 0,-0.66667 0,-1 z m 4,0 c 0.66667,0 1.33333,0 2,0 0,0.33333 0,0.66667 0,1 -0.66667,0 -1.33333,0 -2,0 0,-0.33333 0,-0.66667 0,-1 z m 3,0 c 1,0 2,0 3,0 0,0.33333 0,0.66667 0,1 -1,0 -2,0 -3,0 0,-0.33333 0,-0.66667 0,-1 z m -11,2 c 1,0 2,0 3,0 0,0.33333 0,0.66667 0,1 -1,0 -2,0 -3,0 0,-0.33333 0,-0.66667 0,-1 z m 4,0 c 2,0 4,0 6,0 0,1.66667 0,3.33333 0,5 -2,0 -4,0 -6,0 0,-1.66667 0,-3.33333 0,-5 z m 7,0 c 1,0 2,0 3,0 0,0.33333 0,0.66667 0,1 -1,0 -2,0 -3,0 0,-0.33333 0,-0.66667 0,-1 z m -11,2 c 1,0 2,0 3,0 0,0.33333 0,0.66667 0,1 -1,0 -2,0 -3,0 0,-0.33333 0,-0.66667 0,-1 z m 11,0 c 1,0 2,0 3,0 0,0.33333 0,0.66667 0,1 -1,0 -2,0 -3,0 0,-0.33333 0,-0.66667 0,-1 z m -11,2 c 1,0 2,0 3,0 0,0.33333 0,0.66667 0,1 -1,0 -2,0 -3,0 0,-0.33333 0,-0.66667 0,-1 z m 11,0 c 1,0 2,0 3,0 0,0.33333 0,0.66667 0,1 -1,0 -2,0 -3,0 0,-0.33333 0,-0.66667 0,-1 z m -11,2 c 1,0 2,0 3,0 0,0.33333 0,0.66667 0,1 -1,0 -2,0 -3,0 0,-0.33333 0,-0.66667 0,-1 z m 4,0 c 0.66667,0 1.33333,0 2,0 0,0.33333 0,0.66667 0,1 -0.66667,0 -1.33333,0 -2,0 0,-0.33333 0,-0.66667 0,-1 z m 3,0 c 1,0 2,0 3,0 0,0.33333 0,0.66667 0,1 -1,0 -2,0 -3,0 0,-0.33333 0,-0.66667 0,-1 z m -7,2 c 1,0 2,0 3,0 0,0.33333 0,0.66667 0,1 -1,0 -2,0 -3,0 0,-0.33333 0,-0.66667 0,-1 z m 4,0 c 0.66667,0 1.33333,0 2,0 0,0.33333 0,0.66667 0,1 -0.66667,0 -1.33333,0 -2,0 0,-0.33333 0,-0.66667 0,-1 z m 3,0 c 1,0 2,0 3,0 0,0.33333 0,0.66667 0,1 -1,0 -2,0 -3,0 0,-0.33333 0,-0.66667 0,-1 z"
       id="rect6699"
       inkscape:connector-curvature="0" />
  </g>
</svg>
