<?xml version="1.0" encoding="UTF-8" standalone="no"?>
<!-- Created with Inkscape (http://www.inkscape.org/) -->

<svg
   xmlns:dc="http://purl.org/dc/elements/1.1/"
   xmlns:cc="http://creativecommons.org/ns#"
   xmlns:rdf="http://www.w3.org/1999/02/22-rdf-syntax-ns#"
   xmlns:svg="http://www.w3.org/2000/svg"
   xmlns="http://www.w3.org/2000/svg"
   xmlns:sodipodi="http://sodipodi.sourceforge.net/DTD/sodipodi-0.dtd"
   xmlns:inkscape="http://www.inkscape.org/namespaces/inkscape"
   width="22"
   height="22"
   id="svg2"
   version="1.1"
   inkscape:version="0.48.4 r9939"
   viewBox="0 0 22 22"
   sodipodi:docname="breeze-kexi-file-database.svg">
  <defs
     id="defs4" />
  <sodipodi:namedview
     id="base"
     pagecolor="#ffffff"
     bordercolor="#666666"
     borderopacity="1.0"
     inkscape:pageopacity="0.0"
     inkscape:pageshadow="2"
     inkscape:zoom="16"
     inkscape:cx="7.3268191"
     inkscape:cy="20.13951"
     inkscape:document-units="px"
     inkscape:current-layer="layer1"
     showgrid="true"
     inkscape:showpageshadow="false"
     borderlayer="true"
     inkscape:window-width="1240"
     inkscape:window-height="943"
     inkscape:window-x="32"
     inkscape:window-y="-3"
     inkscape:window-maximized="1"
     units="px"
     showguides="true">
    <sodipodi:guide
       position="2,20.000017"
       orientation="18,0"
       id="guide4085" />
    <sodipodi:guide
       position="2,2.0000174"
       orientation="0,18"
       id="guide4087" />
    <sodipodi:guide
       position="20,2.0000174"
       orientation="-18,0"
       id="guide4089" />
    <sodipodi:guide
       position="20,20.000017"
       orientation="0,-18"
       id="guide4091" />
    <sodipodi:guide
       position="3,19.000017"
       orientation="16,0"
       id="guide4093" />
    <sodipodi:guide
       position="3,3.0000174"
       orientation="0,16"
       id="guide4095" />
    <sodipodi:guide
       position="19,3.0000174"
       orientation="-16,0"
       id="guide4097" />
    <sodipodi:guide
       position="19,19.000017"
       orientation="0,-16"
       id="guide4099" />
    <inkscape:grid
       type="xygrid"
       id="grid4101" />
    <sodipodi:guide
       position="3,19.000017"
       orientation="16,0"
       id="guide4123" />
    <sodipodi:guide
       position="3,3.0000174"
       orientation="0,2.000001"
       id="guide4125" />
    <sodipodi:guide
       position="4,19.000017"
       orientation="-16,0"
       id="guide4127" />
    <sodipodi:guide
       position="5.000001,19.000017"
       orientation="0,-2.000001"
       id="guide4129" />
    <sodipodi:guide
       position="18,19.000017"
       orientation="16,0"
       id="guide4131" />
    <sodipodi:guide
       position="17,3.0000174"
       orientation="0,2"
       id="guide4133" />
    <sodipodi:guide
       position="19,3.0000174"
       orientation="-16,0"
       id="guide4135" />
    <sodipodi:guide
       position="19,19.000017"
       orientation="0,-2"
       id="guide4137" />
  </sodipodi:namedview>
  <metadata
     id="metadata7">
    <rdf:RDF>
      <cc:Work
         rdf:about="">
        <dc:format>image/svg+xml</dc:format>
        <dc:type
           rdf:resource="http://purl.org/dc/dcmitype/StillImage" />
        <dc:title></dc:title>
      </cc:Work>
    </rdf:RDF>
  </metadata>
  <g
     inkscape:label="Capa 1"
     inkscape:groupmode="layer"
     id="layer1"
     transform="translate(0,-1030.3622)">
    <path
       style="fill:#4d4d4d;fill-opacity:1;stroke:none"
       d="m 4,3 0,16 1,0 8,0 1,0 0,-0.0098 L 14.007812,19 18,15.007812 18,15 18,13.59375 18,3 17,3 5,3 z M 5,4 17,4 17,14.609375 13.59375,18 5,18 z"
       transform="translate(0,1030.3622)"
       id="rect4139"
       inkscape:connector-curvature="0"
       sodipodi:nodetypes="cccccccccccccccccccc" />
    <path
       style="fill:#4d4d4d;fill-opacity:1;stroke:none"
       d="m 10.999995,1037.3622 c -2.094362,0 -3.999943,0.6352 -3.999995,1.3333 l 0,5.3334 c 5.2e-5,0.6981 1.905634,1.3333 3.999996,1.3333 2.094361,0 3.999947,-0.6352 3.999999,-1.3333 l 0,-5.3334 c -5.2e-5,-0.6981 -1.905638,-1.3333 -4,-1.3333 z m 0,1.0139 c 1.745218,0 2.891216,0.1598 2.891391,0.5088 8.7e-5,0.3491 -1.146005,0.5916 -2.891391,0.5916 -1.745385,0 -2.825187,-0.2425 -2.8251,-0.5916 1.74e-4,-0.349 1.079882,-0.5088 2.8251,-0.5088 z m -3.001877,1.5115 c 0.724196,0.3658 1.686948,0.4879 3.001877,0.4885 1.31423,-3e-4 2.298881,-0.1218 3.023974,-0.4872 l 0,0.996 c 8.7e-5,0.3491 -1.278588,0.8067 -3.023973,0.8067 -1.745385,0 -3.001964,-0.4576 -3.001877,-0.8067 z m 0,2.2137 c 0.724265,0.3658 1.687002,0.693 3.001877,0.6936 1.314176,-3e-4 2.298812,-0.327 3.023974,-0.6923 l 0,1.2855 c -1.75e-4,0.349 -1.278755,0.8086 -3.023973,0.8086 -1.745218,0 -3.001702,-0.4596 -3.001877,-0.8086 z"
       id="path4140"
       inkscape:connector-curvature="0"
       sodipodi:nodetypes="sccsccsscscsccccsccccccscc" />
  </g>
</svg>
