<?xml version="1.0" encoding="UTF-8" standalone="no"?>
<!-- Created with Inkscape (http://www.inkscape.org/) -->

<svg
   xmlns:dc="http://purl.org/dc/elements/1.1/"
   xmlns:cc="http://creativecommons.org/ns#"
   xmlns:rdf="http://www.w3.org/1999/02/22-rdf-syntax-ns#"
   xmlns:svg="http://www.w3.org/2000/svg"
   xmlns="http://www.w3.org/2000/svg"
   xmlns:sodipodi="http://sodipodi.sourceforge.net/DTD/sodipodi-0.dtd"
   xmlns:inkscape="http://www.inkscape.org/namespaces/inkscape"
   width="32"
   height="32"
   id="svg2"
   version="1.1"
   inkscape:version="0.48.5 r10040"
   viewBox="0 0 32 32"
   sodipodi:docname="32-actions-kexi_script.svg">
  <defs
     id="defs4" />
  <sodipodi:namedview
     id="base"
     pagecolor="#ffffff"
     bordercolor="#666666"
     borderopacity="1.0"
     inkscape:pageopacity="0.0"
     inkscape:pageshadow="2"
     inkscape:zoom="11.313709"
     inkscape:cx="42.426616"
     inkscape:cy="9.8076881"
     inkscape:document-units="px"
     inkscape:current-layer="layer1"
     showgrid="true"
     inkscape:showpageshadow="false"
     borderlayer="true"
     inkscape:window-width="1280"
     inkscape:window-height="960"
     inkscape:window-x="-8"
     inkscape:window-y="-3"
     inkscape:window-maximized="1"
     units="px"
     showguides="false"
     inkscape:guide-bbox="true"
     inkscape:snap-global="false">
    <sodipodi:guide
       position="2,20.000017"
       orientation="18,0"
       id="guide4085" />
    <sodipodi:guide
       position="2,2.0000174"
       orientation="0,18"
       id="guide4087" />
    <sodipodi:guide
       position="28,21"
       orientation="-18,0"
       id="guide4089" />
    <sodipodi:guide
       position="32,28"
       orientation="0,-18"
       id="guide4091" />
    <sodipodi:guide
       position="4,15"
       orientation="16,0"
       id="guide4093" />
    <sodipodi:guide
       position="8,4"
       orientation="0,16"
       id="guide4095" />
    <sodipodi:guide
       position="19,3.0000174"
       orientation="-16,0"
       id="guide4097" />
    <inkscape:grid
       type="xygrid"
       id="grid4101"
       empspacing="5"
       visible="true"
       enabled="true"
       snapvisiblegridlinesonly="true" />
    <sodipodi:guide
       orientation="0,1"
       position="-5,6"
       id="guide3022" />
  </sodipodi:namedview>
  <metadata
     id="metadata7">
    <rdf:RDF>
      <cc:Work
         rdf:about="">
        <dc:format>image/svg+xml</dc:format>
        <dc:type
           rdf:resource="http://purl.org/dc/dcmitype/StillImage" />
        <dc:title />
      </cc:Work>
    </rdf:RDF>
  </metadata>
  <g
     inkscape:label="Capa 1"
     inkscape:groupmode="layer"
     id="layer1"
     transform="translate(0,-1020.3622)"
     style="display:inline">
    <path
       style="fill:#d35400;fill-opacity:1"
       d="m 6,1023.3622 c -1.902959,-0.048 -3.0891772,2.0036 -2.9819768,3.7259 -0.045551,1.4243 -0.00316,2.8494 -0.018023,4.2741 1.6666667,0 3.3333333,0 5,0 0,6 0,12 0,18 6.9999998,0 13.9999998,0 20.9999998,0 l 0,-22 c 0,-0.1368 0.0031,-0.2158 0.0023,-0.3526 0.0198,-1.6143 -2.0023,-3.6474 -4.0023,-3.6474 -6.13721,0 -12.862789,0 -19,0 z m 0.53125,2 c 1.46875,0 1.46875,1 1.46875,2.4413 0,0.5195 0,1.0391 0,1.5587 -1,0 -2,0 -3,0 l 0,-2 c 0.030962,-1.0592 0.023437,-2 1.53125,-2 z m 3.46875,0 c 4.954558,0.036 10.049395,-0.122 15,0 1.522134,0.012 2.011049,1.4198 2,3 0.01087,6.3404 0.0054,12.6602 6e-6,19.0006 -5.666667,0 -11.333333,0 -17,0 -2e-6,-7.3334 4e-6,-14.6669 -3e-6,-22.0003 z m 3,6 0,2 7,0 0,-2 z m 0,5 0,2 11,0 0,-2 z m 0,5 0,2 11,0 0,-2 z"
       id="path11582"
       inkscape:connector-curvature="0"
       sodipodi:nodetypes="ccccccsccccccccccccccccccccccccccccccc" />
  </g>
</svg>
