<?xml version="1.0" encoding="UTF-8" standalone="no"?>
<!-- Created with Inkscape (http://www.inkscape.org/) -->

<svg
   xmlns:dc="http://purl.org/dc/elements/1.1/"
   xmlns:cc="http://creativecommons.org/ns#"
   xmlns:rdf="http://www.w3.org/1999/02/22-rdf-syntax-ns#"
   xmlns:svg="http://www.w3.org/2000/svg"
   xmlns="http://www.w3.org/2000/svg"
   xmlns:sodipodi="http://sodipodi.sourceforge.net/DTD/sodipodi-0.dtd"
   xmlns:inkscape="http://www.inkscape.org/namespaces/inkscape"
   width="32"
   height="32"
   id="svg2"
   version="1.1"
   inkscape:version="0.48.5 r10040"
   viewBox="0 0 32 32"
   sodipodi:docname="32-actions-kexi_table.svg">
  <defs
     id="defs4" />
  <sodipodi:namedview
     id="base"
     pagecolor="#ffffff"
     bordercolor="#666666"
     borderopacity="1.0"
     inkscape:pageopacity="0.0"
     inkscape:pageshadow="2"
     inkscape:zoom="16"
     inkscape:cx="11.321793"
     inkscape:cy="19.122385"
     inkscape:document-units="px"
     inkscape:current-layer="layer1"
     showgrid="true"
     inkscape:showpageshadow="false"
     borderlayer="true"
     inkscape:window-width="1280"
     inkscape:window-height="960"
     inkscape:window-x="-8"
     inkscape:window-y="-3"
     inkscape:window-maximized="1"
     units="px"
     showguides="true"
     inkscape:guide-bbox="true"
     inkscape:snap-global="true">
    <sodipodi:guide
       position="2,20.000017"
       orientation="18,0"
       id="guide4085" />
    <sodipodi:guide
       position="2,2.0000174"
       orientation="0,18"
       id="guide4087" />
    <sodipodi:guide
       position="28,21"
       orientation="-18,0"
       id="guide4089" />
    <sodipodi:guide
       position="7,28"
       orientation="0,-18"
       id="guide4091" />
    <sodipodi:guide
       position="4,15"
       orientation="16,0"
       id="guide4093" />
    <sodipodi:guide
       position="8,4"
       orientation="0,16"
       id="guide4095" />
    <sodipodi:guide
       position="19,3.0000174"
       orientation="-16,0"
       id="guide4097" />
    <inkscape:grid
       type="xygrid"
       id="grid4101"
       empspacing="5"
       visible="true"
       enabled="true"
       snapvisiblegridlinesonly="true" />
    <sodipodi:guide
       orientation="0,1"
       position="-5,6"
       id="guide3022" />
  </sodipodi:namedview>
  <metadata
     id="metadata7">
    <rdf:RDF>
      <cc:Work
         rdf:about="">
        <dc:format>image/svg+xml</dc:format>
        <dc:type
           rdf:resource="http://purl.org/dc/dcmitype/StillImage" />
        <dc:title />
      </cc:Work>
    </rdf:RDF>
  </metadata>
  <g
     inkscape:label="Capa 1"
     inkscape:groupmode="layer"
     id="layer1"
     transform="translate(0,-1020.3622)"
     style="display:inline">
    <path
       style="color:#000000;fill:#2c3e50;fill-opacity:1;fill-rule:nonzero;stroke:none;stroke-width:2;marker:none;visibility:visible;display:inline;overflow:visible;enable-background:accumulate"
       d="M 2 3 L 2 29 L 30 29 L 30 3 L 2 3 z M 4 5 L 11 5 L 11 7 L 4 7 L 4 5 z M 13 5 L 19 5 L 19 7 L 13 7 L 13 5 z M 21 5 L 28 5 L 28 7 L 21 7 L 21 5 z M 4 9 L 11 9 L 11 11 L 4 11 L 4 9 z M 13 9 L 19 9 L 19 11 L 13 11 L 13 9 z M 21 9 L 28 9 L 28 11 L 21 11 L 21 9 z M 4 13 L 11 13 L 11 15 L 4 15 L 4 13 z M 13 13 L 19 13 L 19 15 L 13 15 L 13 13 z M 21 13 L 28 13 L 28 15 L 21 15 L 21 13 z M 4 17 L 11 17 L 11 19 L 4 19 L 4 17 z M 13 17 L 19 17 L 19 19 L 13 19 L 13 17 z M 21 17 L 28 17 L 28 19 L 21 19 L 21 17 z M 4 21 L 11 21 L 11 23 L 4 23 L 4 21 z M 13 21 L 19 21 L 19 23 L 13 23 L 13 21 z M 21 21 L 28 21 L 28 23 L 21 23 L 21 21 z M 4 25 L 11 25 L 11 27 L 4 27 L 4 25 z M 13 25 L 19 25 L 19 27 L 13 27 L 13 25 z M 21 25 L 28 25 L 28 27 L 21 27 L 21 25 z "
       transform="translate(0,1020.3622)"
       id="path4413" />
  </g>
</svg>
