<?xml version="1.0" encoding="UTF-8" standalone="no"?>
<!-- Created with Inkscape (http://www.inkscape.org/) -->

<svg
   xmlns:dc="http://purl.org/dc/elements/1.1/"
   xmlns:cc="http://creativecommons.org/ns#"
   xmlns:rdf="http://www.w3.org/1999/02/22-rdf-syntax-ns#"
   xmlns:svg="http://www.w3.org/2000/svg"
   xmlns="http://www.w3.org/2000/svg"
   xmlns:sodipodi="http://sodipodi.sourceforge.net/DTD/sodipodi-0.dtd"
   xmlns:inkscape="http://www.inkscape.org/namespaces/inkscape"
   width="32"
   height="32"
   id="svg2"
   version="1.1"
   inkscape:version="0.48.5 r10040"
   viewBox="0 0 32 32"
   sodipodi:docname="32-actions-kexi_macro.svg">
  <defs
     id="defs4" />
  <sodipodi:namedview
     id="base"
     pagecolor="#ffffff"
     bordercolor="#666666"
     borderopacity="1.0"
     inkscape:pageopacity="0.0"
     inkscape:pageshadow="2"
     inkscape:zoom="22.627417"
     inkscape:cx="17.143737"
     inkscape:cy="12.182008"
     inkscape:document-units="px"
     inkscape:current-layer="layer1"
     showgrid="true"
     inkscape:showpageshadow="false"
     borderlayer="true"
     inkscape:window-width="1280"
     inkscape:window-height="960"
     inkscape:window-x="-8"
     inkscape:window-y="-3"
     inkscape:window-maximized="1"
     units="px"
     showguides="true"
     inkscape:guide-bbox="true"
     inkscape:snap-global="true">
    <sodipodi:guide
       position="2,20.000017"
       orientation="18,0"
       id="guide4085" />
    <sodipodi:guide
       position="2,2.0000174"
       orientation="0,18"
       id="guide4087" />
    <sodipodi:guide
       position="28,21"
       orientation="-18,0"
       id="guide4089" />
    <sodipodi:guide
       position="7,28"
       orientation="0,-18"
       id="guide4091" />
    <sodipodi:guide
       position="8,4"
       orientation="0,16"
       id="guide4095" />
    <sodipodi:guide
       position="19,3.0000174"
       orientation="-16,0"
       id="guide4097" />
    <inkscape:grid
       type="xygrid"
       id="grid4101"
       empspacing="5"
       visible="true"
       enabled="true"
       snapvisiblegridlinesonly="true" />
    <sodipodi:guide
       orientation="0,1"
       position="-5,6"
       id="guide3022" />
    <sodipodi:guide
       orientation="0,1"
       position="19.136719,23.589844"
       id="guide4668" />
  </sodipodi:namedview>
  <metadata
     id="metadata7">
    <rdf:RDF>
      <cc:Work
         rdf:about="">
        <dc:format>image/svg+xml</dc:format>
        <dc:type
           rdf:resource="http://purl.org/dc/dcmitype/StillImage" />
        <dc:title />
      </cc:Work>
    </rdf:RDF>
  </metadata>
  <g
     inkscape:label="Capa 1"
     inkscape:groupmode="layer"
     id="layer1"
     transform="translate(0,-1020.3622)"
     style="display:inline">
    <path
       style="color:#000000;fill:#8e44ad;fill-opacity:1;fill-rule:evenodd;stroke:none;stroke-width:0;marker:none;visibility:visible;display:inline;overflow:visible;enable-background:accumulate"
       d="M 16 3 L 8.34375 8.40625 L 16 14 L 23.65625 8.40625 L 16 3 z M 16 5.4375 L 20.125 8.40625 L 16 11.53125 L 11.875 8.40625 L 16 5.4375 z M 8 16 L 8 18 L 24 18 L 24 16 L 8 16 z M 8.5 20 C 7.9555595 20 7.4194414 20.03125 6.875 20.03125 C 5.437306 20.31565 4.6629577 21.0156 3.90625 21.875 C 3.3659461 22.5047 2.9278291 23.4584 3 24.3125 C 3.010827 25.0129 2.9132532 25.6776 3.28125 26.3125 C 3.8975152 27.4665 4.9300836 28.50885 6.1875 28.90625 C 6.9025343 29.08815 7.8736963 28.958 8.4375 29 C 10.014321 28.99 9.8290608 29.04925 10.53125 28.90625 C 11.800948 28.54345 12.984281 27.7 13.625 26.5625 C 13.931811 26.0523 14.0274 25.36105 14 24.78125 C 14.0065 24.16015 14.044727 23.3712 13.71875 22.8125 C 13.102486 21.6582 12.476167 20.7878 10.65625 20.125 C 9.9610345 19.9495 9.2095319 20.0281 8.5 20 z M 18 20 L 18 29 L 29 29 L 29 20 L 18 20 z M 7.125 22 C 8.0256152 22 8.9441104 21.974 9.84375 22 C 10.860982 22.197 12.07224 23.45185 11.96875 24.53125 C 11.99518 25.57525 10.77145 26.81265 9.78125 26.96875 C 8.8597331 26.96875 7.9206714 26.99675 7 26.96875 C 5.9827688 26.77165 4.9941153 25.7338 5.03125 24.5 C 4.99876 23.1561 6.1153494 22.1116 7.125 22 z M 20 22 L 27 22 L 27 27 L 20 27 L 20 22 z "
       transform="translate(0,1020.3622)"
       id="path4595" />
  </g>
</svg>
