<?xml version="1.0" encoding="UTF-8" standalone="no"?>
<!-- Created with Inkscape (http://www.inkscape.org/) -->

<svg
   xmlns:dc="http://purl.org/dc/elements/1.1/"
   xmlns:cc="http://creativecommons.org/ns#"
   xmlns:rdf="http://www.w3.org/1999/02/22-rdf-syntax-ns#"
   xmlns:svg="http://www.w3.org/2000/svg"
   xmlns="http://www.w3.org/2000/svg"
   xmlns:sodipodi="http://sodipodi.sourceforge.net/DTD/sodipodi-0.dtd"
   xmlns:inkscape="http://www.inkscape.org/namespaces/inkscape"
   width="32"
   height="32"
   id="svg2"
   version="1.1"
   inkscape:version="0.48.5 r10040"
   viewBox="0 0 32 32"
   sodipodi:docname="32-actions-kexi_query.svg">
  <defs
     id="defs4" />
  <sodipodi:namedview
     id="base"
     pagecolor="#ffffff"
     bordercolor="#666666"
     borderopacity="1.0"
     inkscape:pageopacity="0.0"
     inkscape:pageshadow="2"
     inkscape:zoom="22.627417"
     inkscape:cx="21.849998"
     inkscape:cy="15.469555"
     inkscape:document-units="px"
     inkscape:current-layer="layer1"
     showgrid="true"
     inkscape:showpageshadow="false"
     borderlayer="true"
     inkscape:window-width="1280"
     inkscape:window-height="960"
     inkscape:window-x="-8"
     inkscape:window-y="-3"
     inkscape:window-maximized="1"
     units="px"
     showguides="true"
     inkscape:guide-bbox="true"
     inkscape:snap-global="true">
    <sodipodi:guide
       position="2,20.000017"
       orientation="18,0"
       id="guide4085" />
    <sodipodi:guide
       position="2,2.0000174"
       orientation="0,18"
       id="guide4087" />
    <sodipodi:guide
       position="28,21"
       orientation="-18,0"
       id="guide4089" />
    <sodipodi:guide
       position="7,28"
       orientation="0,-18"
       id="guide4091" />
    <sodipodi:guide
       position="4,15"
       orientation="16,0"
       id="guide4093" />
    <sodipodi:guide
       position="8,4"
       orientation="0,16"
       id="guide4095" />
    <sodipodi:guide
       position="19,3.0000174"
       orientation="-16,0"
       id="guide4097" />
    <inkscape:grid
       type="xygrid"
       id="grid4101"
       empspacing="5"
       visible="true"
       enabled="true"
       snapvisiblegridlinesonly="true" />
    <sodipodi:guide
       orientation="0,1"
       position="-5,6"
       id="guide3022" />
  </sodipodi:namedview>
  <metadata
     id="metadata7">
    <rdf:RDF>
      <cc:Work
         rdf:about="">
        <dc:format>image/svg+xml</dc:format>
        <dc:type
           rdf:resource="http://purl.org/dc/dcmitype/StillImage" />
        <dc:title />
      </cc:Work>
    </rdf:RDF>
  </metadata>
  <g
     inkscape:label="Capa 1"
     inkscape:groupmode="layer"
     id="layer1"
     transform="translate(0,-1020.3622)"
     style="display:inline">
    <path
       style="color:#000000;fill:#2c3e50;fill-opacity:1;fill-rule:nonzero;stroke:none;stroke-width:2;marker:none;visibility:visible;display:inline;overflow:visible;enable-background:accumulate"
       d="m 10,1023.3622 c 0,2.6667 0,5.3333 0,8 -2.6666667,0 -5.3333333,0 -8,0 0,6 0,12 0,18 6.6666667,0 13.333333,0 20,0 0,-2.6667 0,-5.3333 0,-8 2.666667,0 5.333333,0 8,0 0,-6 0,-12 0,-18 -6.666667,0 -13.333333,0 -20,0 z m 2,2 c 2.666667,0 5.333333,0 8,0 0,0.6667 0,1.3333 0,2 -2.666667,0 -5.333333,0 -8,0 0,-0.6667 0,-1.3333 0,-2 z m 10,0 c 2,0 4,0 6,0 0,0.6667 0,1.3333 0,2 -2,0 -4,0 -6,0 0,-0.6667 0,-1.3333 0,-2 z m -10,4 c 2.666667,0 5.333333,0 8,0 0,0.6667 0,1.3333 0,2 -2.666667,0 -5.333333,0 -8,0 0,-0.6667 0,-1.3333 0,-2 z m 10,0 c 2,0 4,0 6,0 0,0.6667 0,1.3333 0,2 -2,0 -4,0 -6,0 0,-0.6667 0,-1.3333 0,-2 z m -18,4 c 2,0 4,0 6,0 0,0.6667 0,1.3333 0,2 -2,0 -4,0 -6,0 0,-0.6667 0,-1.3333 0,-2 z m 8,0 c 2.666667,0 5.333333,0 8,0 0,2 0,4 0,6 -2.666667,0 -5.333333,0 -8,0 0,-2 0,-4 0,-6 z m 10,0 c 2,0 4,0 6,0 0,0.6667 0,1.3333 0,2 -2,0 -4,0 -6,0 0,-0.6667 0,-1.3333 0,-2 z m -18,4 c 2,0 4,0 6,0 0,0.6667 0,1.3333 0,2 -2,0 -4,0 -6,0 0,-0.6667 0,-1.3333 0,-2 z m 18,0 c 2,0 4,0 6,0 0,0.6667 0,1.3333 0,2 -2,0 -4,0 -6,0 0,-0.6667 0,-1.3333 0,-2 z m -18,4 c 2,0 4,0 6,0 0,0.6667 0,1.3333 0,2 -2,0 -4,0 -6,0 0,-0.6667 0,-1.3333 0,-2 z m 8,0 c 2.666667,0 5.333333,0 8,0 0,0.6667 0,1.3333 0,2 -2.666667,0 -5.333333,0 -8,0 0,-0.6667 0,-1.3333 0,-2 z m -8,4 c 2,0 4,0 6,0 0,0.6667 0,1.3333 0,2 -2,0 -4,0 -6,0 0,-0.6667 0,-1.3333 0,-2 z m 8,0 c 2.666667,0 5.333333,0 8,0 0,0.6667 0,1.3333 0,2 -2.666667,0 -5.333333,0 -8,0 0,-0.6667 0,-1.3333 0,-2 z"
       id="rect6699"
       inkscape:connector-curvature="0" />
  </g>
</svg>
