/* XPM */
static char *TemplateClass[]={
"32 32 6 1",
"b c #000000",
"# c #808080",
"a c #c0c0c0",
"c c #c3c3c3",
". c #f8fcf8",
"d c #ffffff",
"...............................#",
".#############################.#",
".#aaaaaaaaaaaaaaaabbbbbbbbbbca.#",
".#aaaaaaaaaaaaaaaabddddddddbca.#",
".#acbbbbbbbbbbbbbbbddddddddbcc.#",
".#acbdddddddddddddbddddddddbcc.#",
".#acbdddddddddddddbbbbbbbbbbcc.#",
".#acbdddddddddddddddddddddb#cc.#",
".#acbbbbbbbbbbbbbbbbbbbbbbb#cc.#",
".#acbdddddddddddddddddddddb#cc.#",
".#acbdddddddddddddddddddddb#cc.#",
".#acbdddddddddddddddddddddb#cc.#",
".#acbdddddddddddddddddddddb#cc.#",
".#acbdddddddddddddddddddddb#cc.#",
".#acbdddddddddddddddddddddb#cc.#",
".#acbdddddddddddddddddddddb#cc.#",
".#acbdddddddddddddddddddddb#cc.#",
".#acbdddddddddddddddddddddb#cc.#",
".#acbdddddddddddddddddddddb#cc.#",
".#acbdddddddddddddddddddddb#cc.#",
".#acbdddddddddddddddddddddb#cc.#",
".#acbdddddddddddddddddddddb#cc.#",
".#acbdddddddddddddddddddddb#cc.#",
".#acbdddddddddddddddddddddb#cc.#",
".#acbdddddddddddddddddddddb#cc.#",
".#acbdddddddddddddddddddddb#cc.#",
".#aabbbbbbbbbbbbbbbbbbbbbbb#aa.#",
".#aaaa######################aa.#",
".#aaaaaaaaaaaaaaaaaaaaaaaaaaaa.#",
".#aaaaaaaaaaaaaaaaaaaaaaaaaaaa.#",
"...............................#",
"################################"};
