/* XPM */
static char*area[]={
"22 22 4 1",
". c None",
"# c #000000",
"a c #ff0000",
"b c #00ff00",
"......................",
"......................",
"..#...................",
"..#...................",
"..#...................",
"..#...................",
"..#...................",
"..#...................",
"..#.......a...........",
"..#......aaa......a...",
"..#.....aaaaa....aaa..",
"..#....aaaaaaa..aaaa..",
"..#...aaaaaaaabaaaaa..",
"..#..aaaaaaaabbbaaaa..",
"..#.aaabaaaabbbbbaaa..",
"..#aaabbbaabbbbbbbaa..",
"..#aabbbbbbbbbbbbbba..",
"..#abbbbbbbbbbbbbbbb..",
"..#bbbbbbbbbbbbbbbbb..",
"..##################..",
"......................",
"......................"};
