/* XPM */
static char*bars[]={
"22 22 4 1",
". c None",
"# c #000000",
"a c #ff0000",
"b c #0000ff",
"......................",
"......................",
"..#...................",
"..#...................",
"..#...................",
"..#...................",
"..#.aaa...............",
"..#.aaa...............",
"..#.aaa........bbb....",
"..#.aaabbb.....bbb....",
"..#.aaabbb.....bbb....",
"..#.aaabbb..aaabbb....",
"..#.aaabbb..aaabbb....",
"..#.aaabbb..aaabbb....",
"..#.aaabbb..aaabbb....",
"..#.aaabbb..aaabbb....",
"..#.aaabbb..aaabbb....",
"..#.aaabbb..aaabbb....",
"..#.aaabbb..aaabbb....",
"..##################..",
"......................",
"......................"};
