/* XPM */
static char * karbon_xpm[] = {
"32 32 146 2",
"  	c None",
". 	c #000000",
"+ 	c #161600",
"@ 	c #E9E900",
"# 	c #DDE400",
"$ 	c #D4E100",
"% 	c #AED100",
"& 	c #313131",
"* 	c #FAFAFA",
"= 	c #E0E0D9",
"- 	c #CCCCC7",
"; 	c #E1E1DC",
"> 	c #E1E1DD",
", 	c #EBE0D8",
"' 	c #0C0C0B",
") 	c #797900",
"! 	c #FCFF00",
"~ 	c #EFFF00",
"{ 	c #D8FF00",
"] 	c #C4EC00",
"^ 	c #A3C400",
"/ 	c #6A8000",
"( 	c #FFF6EE",
"_ 	c #E8DDD5",
": 	c #D5CBC4",
"< 	c #D8CDC6",
"[ 	c #D7CDC5",
"} 	c #B8B0A9",
"| 	c #1B1918",
"1 	c #C2CA00",
"2 	c #ECFF00",
"3 	c #DFFF00",
"4 	c #CBF400",
"5 	c #BFE600",
"6 	c #94B300",
"7 	c #363533",
"8 	c #FAEEE6",
"9 	c #D1C7C0",
"0 	c #C8BEB8",
"a 	c #C3BAB3",
"b 	c #C9BFB8",
"c 	c #CFC5BE",
"d 	c #B3ABA5",
"e 	c #111010",
"f 	c #A0C100",
"g 	c #2C3500",
"h 	c #AACD00",
"i 	c #C0E700",
"j 	c #A4C600",
"k 	c #8EAB00",
"l 	c #E6DBD3",
"m 	c #ABA39D",
"n 	c #6E6865",
"o 	c #837E79",
"p 	c #CCC2BB",
"q 	c #121110",
"r 	c #070800",
"s 	c #C1E800",
"t 	c #C1E900",
"u 	c #95B300",
"v 	c #030400",
"w 	c #040500",
"x 	c #FEF2E9",
"y 	c #CAC0B9",
"z 	c #9F9792",
"A 	c #171615",
"B 	c #DAD0C9",
"C 	c #CCF100",
"D 	c #A9CC00",
"E 	c #8CA900",
"F 	c #F5EEE6",
"G 	c #F4E9E1",
"H 	c #B5ACA6",
"I 	c #625D5A",
"J 	c #4E4B48",
"K 	c #E9DED6",
"L 	c #CBF000",
"M 	c #97B500",
"N 	c #111400",
"O 	c #FDF0E8",
"P 	c #D3C9C2",
"Q 	c #A69E99",
"R 	c #4D4947",
"S 	c #DACFC8",
"T 	c #AFD200",
"U 	c #8EAA00",
"V 	c #CEC8C1",
"W 	c #F6EAE2",
"X 	c #C0B7B0",
"Y 	c #9D9590",
"Z 	c #DDD3CB",
"` 	c #9AB900",
" .	c #272F00",
"..	c #A8A09A",
"+.	c #312F2D",
"@.	c #F1E6DE",
"#.	c #10100F",
"$.	c #A7A29D",
"%.	c #F7EBE3",
"&.	c #A59D97",
"*.	c #181616",
"=.	c #BCB3AC",
"-.	c #11100F",
";.	c #F2E7DF",
">.	c #020202",
",.	c #7D7D7A",
"'.	c #EFE4DC",
").	c #4C4846",
"!.	c #918A85",
"~.	c #938C87",
"{.	c #948C88",
"].	c #9D9691",
"^.	c #B2A9A3",
"/.	c #D2C8C1",
"(.	c #CAC1BA",
"_.	c #CDC3BC",
":.	c #A6C800",
"<.	c #020200",
"[.	c #010101",
"}.	c #BFB6AF",
"|.	c #867F7B",
"1.	c #211F1E",
"2.	c #1C1B1A",
"3.	c #CAEF00",
"4.	c #BEE400",
"5.	c #354000",
"6.	c #2C2E00",
"7.	c #252700",
"8.	c #262800",
"9.	c #272800",
"0.	c #212800",
"a.	c #ECE1D9",
"b.	c #373533",
"c.	c #D6FD00",
"d.	c #CEF700",
"e.	c #E1FF00",
"f.	c #E5FF00",
"g.	c #B8DD00",
"h.	c #BEB5AF",
"i.	c #3F3C39",
"j.	c #A9CB00",
"k.	c #849F00",
"l.	c #819B00",
"m.	c #908985",
"n.	c #8F8883",
"o.	c #3A3735",
"                                                                ",
"                                                                ",
"                                                                ",
"                                                                ",
"                                                                ",
"                                                                ",
"                                                                ",
"            . . . . . . . . . . . . . . . . . . . . . . . .     ",
"        . . + @ # $ % . & * = - ; ; ; ; ; ; ; ; ; ; > , ' .     ",
"  . . . ) ! ~ { ] ^ / . ( _ : < < < < < < < < < < < [ } | .     ",
". . 1 2 3 4 5 5 5 6 . 7 8 9 9 0 a b c 9 9 9 9 9 9 9 9 d e .     ",
". ] f g h i 5 5 j k . 8 l 9 9 m n o p 9 9 9 9 9 9 9 9 d q .     ",
". r . . s t 5 5 u v w x 9 9 y z . A B 9 9 9 9 9 9 9 9 d q .     ",
". .   . C s 5 D E . F G 9 9 H I . J K 9 9 9 9 9 9 9 9 d q .     ",
"      . L s 5 M N . O P 9 9 Q ' . R S 9 9 9 9 9 9 9 9 d q .     ",
"      . L s T U . V W 9 9 X Y . . . Z 9 9 9 9 9 9 9 9 d q .     ",
"      . L s `  .. x [ 9 9 ..+..   . @.9 9 9 9 9 9 9 9 d #..     ",
"      . L s M . $.%.9 9 9 &.. . . *.W 9 9 9 9 9 9 9 9 =.-..     ",
"      . L s ` . ;.B 9 9 9 b . >.. ,.'.9 9 9 9 9 9 9 9 c ).. . . ",
"      . L s ` . } !.~.{.{.].^./.b < P 9 9 9 9 9 9 9 9 c (.B _.. ",
"      . L s :.. . <.[.[.[.[.[.[.. . c 9 9 9 9 9 9 9 9 }.|.1.2.. ",
"      . 3.t 4.5.6.7.8.9.9.9.0.. . . a.9 9 9 9 9 9 9 9 =.b.. . . ",
"      . c.t ] d.e.f.f.f.f.f.g..   . a.9 9 9 9 9 9 9 9 h.i..     ",
"      . j.k.k.k.k.k.k.k.k.k.l..   . } m.m.m.m.m.m.m.m.n.o..     ",
"      . . . . . . . . . . . . .   . . . . . . . . . . . . .     ",
"                                                                ",
"                                                                ",
"                                                                ",
"                                                                ",
"                                                                ",
"                                                                ",
"                                                                "};
