/* XPM */
static char * kformula_xpm[] = {
"32 32 135 2",
"  	c None",
". 	c #BE0000",
"+ 	c #C50000",
"@ 	c #CA0000",
"# 	c #C80000",
"$ 	c #C60000",
"% 	c #C40000",
"& 	c #C20000",
"* 	c #C10000",
"= 	c #BF0000",
"- 	c #BD0000",
"; 	c #BB0000",
"> 	c #B90000",
", 	c #B80000",
"' 	c #B60000",
") 	c #B40000",
"! 	c #B20000",
"~ 	c #A50000",
"{ 	c #940000",
"] 	c #F76F6F",
"^ 	c #FFB3B3",
"/ 	c #FFB2B2",
"( 	c #FFB1B1",
"_ 	c #FFB0B0",
": 	c #F78E8E",
"< 	c #A70B0B",
"[ 	c #8A0000",
"} 	c #F76464",
"| 	c #FFA2A2",
"1 	c #FFA1A1",
"2 	c #FFA0A0",
"3 	c #FF9F9F",
"4 	c #FF9E9E",
"5 	c #F89393",
"6 	c #A51D1D",
"7 	c #850000",
"8 	c #FF9191",
"9 	c #FD7F7F",
"0 	c #C40909",
"a 	c #C00000",
"b 	c #B70000",
"c 	c #B50000",
"d 	c #B30000",
"e 	c #B00000",
"f 	c #AE0000",
"g 	c #AD0909",
"h 	c #EB7373",
"i 	c #F67373",
"j 	c #B61B1B",
"k 	c #FF7F7F",
"l 	c #FC5F5F",
"m 	c #AA0000",
"n 	c #790000",
"o 	c #970808",
"p 	c #9C1010",
"q 	c #800000",
"r 	c #FF6D6D",
"s 	c #FC5252",
"t 	c #A60000",
"u 	c #000000",
"v 	c #FF5B5B",
"w 	c #FC4444",
"x 	c #A80000",
"y 	c #FF4949",
"z 	c #FC3636",
"A 	c #AB0000",
"B 	c #C90000",
"C 	c #C30000",
"D 	c #FF3636",
"E 	c #FC2929",
"F 	c #D00000",
"G 	c #F11B1B",
"H 	c #F01B1B",
"I 	c #D60D0D",
"J 	c #C00404",
"K 	c #FF2424",
"L 	c #FC1B1B",
"M 	c #D10000",
"N 	c #FF1414",
"O 	c #FF1313",
"P 	c #D30606",
"Q 	c #FF1111",
"R 	c #FC0D0D",
"S 	c #A30000",
"T 	c #C20101",
"U 	c #F20303",
"V 	c #FF0303",
"W 	c #BE0101",
"X 	c #FF0202",
"Y 	c #FC0202",
"Z 	c #A10000",
"` 	c #F10101",
" .	c #FF0101",
"..	c #A20000",
"+.	c #BC0000",
"@.	c #FC0101",
"#.	c #9E0000",
"$.	c #FA0101",
"%.	c #BA0000",
"&.	c #9D0000",
"*.	c #FD0000",
"=.	c #9C0000",
"-.	c #F00101",
";.	c #9F0000",
">.	c #FF0707",
",.	c #990000",
"'.	c #B00101",
").	c #EF0B0B",
"!.	c #FF0808",
"~.	c #F90101",
"{.	c #FF0F0F",
"].	c #FF1717",
"^.	c #970000",
"/.	c #AB0202",
"(.	c #EE1F1F",
"_.	c #FF2323",
":.	c #F91313",
"<.	c #F30808",
"[.	c #FF2727",
"}.	c #950000",
"|.	c #A60303",
"1.	c #ED2B2B",
"2.	c #FF2D2D",
"3.	c #920000",
"4.	c #A20404",
"5.	c #EC3838",
"6.	c #FF4646",
"7.	c #900000",
"8.	c #9D0505",
"9.	c #EB4545",
"0.	c #FF5656",
"a.	c #8D0000",
"b.	c #970606",
"c.	c #A91818",
"d.	c #8B0000",
"                                                                ",
"                                                                ",
"                                                                ",
"                                                                ",
"                                                                ",
"                                                                ",
"                        . + @ # $ % & * = - ; > , ' ) ! ~ {     ",
"                      . # ] ^ ^ ^ / / / / ( ( ( ( _ _ _ : < [   ",
"                      + } | | 1 1 1 1 2 2 2 2 3 3 3 3 4 4 5 6 7 ",
"                      @ 8 9 0 & a . - ; > b c d ! e f g h i j [ ",
"                      # k l m                         n o p q   ",
"                      $ r s t           u     u u               ",
"                      % v w x           u u u u                 ",
"                      & y z A             u u u                 ",
"B + C a -             a D E x             u u u                 ",
"F G H H I b           J K L t           u u u u u               ",
"M N N N O P !         J Q R S                                   ",
"* a T U V V F x       W X Y Z   u u u u u u u u u u u u         ",
"      - `  . .C ..    +. .@.#.  u u u u u u u u u u u u         ",
"        > `  .$.%.&.  %. .*.=.  u u u u u u u u u u u u         ",
"          ) -. .$.' ;., V >.,.          u     u u               ",
"            '.).!.~.! b {.].^.          u     u u               ",
"              /.(._.:.<.[.[.}.          u     u u               ",
"                |.1.D 2.D D 3.          u u u u u               ",
"                  4.5.6.6.6.7.          u u u u u               ",
"                    8.9.0.0.a.          u u u u u               ",
"                      3.b.c.d.          u u u                   ",
"                                                                ",
"                                                                ",
"                                                                ",
"                                                                ",
"                                                                "};
