/* XPM */
static char * kformula_xpm[] = {
"32 32 23 1",
" 	c None",
".	c #323232",
"+	c #BE00BE",
"@	c #B300B3",
"#	c #000000",
"$	c #282828",
"%	c #0B0B0B",
"&	c #A500A5",
"*	c #582158",
"=	c #8D008D",
"-	c #990099",
";	c #141414",
">	c #910091",
",	c #212121",
"'	c #242424",
")	c #111111",
"!	c #060606",
"~	c #482148",
"{	c #730073",
"]	c #070707",
"^	c #3C193C",
"/	c #460046",
"(	c #392139",
"                                ",
"            ................    ",
"           .++++++++++++++++.   ",
"          .++++++++++++++++++.  ",
"         .+++...............++. ",
"         .++.               ..  ",
"         .++.                   ",
"         .++.                   ",
"         .@@.     ###$##%       ",
"         .@@.    .# ### ##      ",
"        .@@.         #          ",
"        .@@.        ##          ",
"   ..   .@@.     .  #  .#       ",
"  .@.   .@@.     #..#..#        ",
"  .@@.  .@@.     ### ###        ",
"  .&&*  .&&.                    ",
"   .&&. .&&.  ..............    ",
"   .&&. .&&.  ==============.   ",
"    .&&..&&.                    ",
"    .---.--.           .        ",
"     .--.--.     ###  ;#        ",
"     .-----.     . #  ##        ",
"      .----.      #   #         ",
"      .>>>>.      #   #         ",
"       .>>=.      %, '#         ",
"       .>>=.       #)!#         ",
"        ~{{.     #'  ]#         ",
"        .{{.      #''#          ",
"         ^/.       ##           ",
"          (                     ",
"                                ",
"                                "};
