/* XPM */
static char * killustrator_xpm[] = {
"32 32 10 1",
" 	c None",
".	c #000000",
"+	c #FFFFFF",
"@	c #00FFFF",
"#	c #585858",
"$	c #FF0000",
"%	c #FFDCA8",
"&	c #FFA858",
"*	c #C05800",
"=	c #C3C3C3",
"                 ..             ",
"               ..++.            ",
"       ........................ ",
"         ..@@@@@@@@@@@@@@@@@@@. ",
"         .+..@@#@@@.........@@. ",
"       ..++++..@@#@@@..    .@@. ",
"     ..++++++++..@@#@@@..  .@@. ",
"   ..+++++++++.$$..@@#@@@...@@. ",
" ..++++++++++.$$$$$..@@#@@@.@@. ",
".+++++++++++.$$$$$$$+..@@#@@@@. ",
" .++++++++++.$$$$$$$.++..@@#@@. ",
" .+++++++....$$$$$+++.++...@@@. ",
"  .+++++.$$$$.$$$$$$$.++.  ..@. ",
"  .++++.$$$$$.$$+++++.+++.   .. ",
"   .+++.$$$$.$$$$$+++.+++.      ",
"   .+++.$$$..$+++++++.++++.     ",
"    .++.$$...$$$+++++.++++.     ",
"    .+++..%%.++++++++.+++++.    ",
"     .++..&*.++++++++.+++++.    ",
"     .++.%&.+++++++++.++++++.   ",
"      .+.&*...=++++++.++++++.   ",
"      ..%&.++=....=++.+++++++.  ",
"       .&*.++++++=....+++++++.  ",
"      .%&.+++++++++++++++++..   ",
"      .&*.+++++++++++++++..     ",
"     .%&.++++++++++++++..       ",
"     .&*..+++++++++++..         ",
"    .%&. .+++++++++..           ",
"    .&*.  .++++++..             ",
"     ..   .++++..               ",
"           .+..                 ",
"           ..                   "};
