/* XPM */
static char * kivio_xpm[] = {
"32 32 129 2",
"  	c None",
". 	c #DADE01",
"+ 	c #940000",
"@ 	c #B80000",
"# 	c #B50000",
"$ 	c #06006D",
"% 	c #070075",
"& 	c #959700",
"* 	c #EFF100",
"= 	c #C6C900",
"- 	c #090096",
"; 	c #11098C",
"> 	c #F8FA00",
", 	c #BABD00",
"' 	c #090099",
") 	c #08008E",
"! 	c #760000",
"~ 	c #7D7F00",
"{ 	c #C40C0C",
"] 	c #07007B",
"^ 	c #160E95",
"/ 	c #080089",
"( 	c #990200",
"_ 	c #797A00",
": 	c #C0C401",
"< 	c #050057",
"[ 	c #060063",
"} 	c #B6150C",
"| 	c #AE0909",
"1 	c #850000",
"2 	c #CACC00",
"3 	c #C60000",
"4 	c #B1B200",
"5 	c #090091",
"6 	c #BE0000",
"7 	c #04004E",
"8 	c #ACAE00",
"9 	c #A5A300",
"0 	c #05005B",
"a 	c #05005E",
"b 	c #09009E",
"c 	c #C20000",
"d 	c #880000",
"e 	c #A30000",
"f 	c #0D058E",
"g 	c #FCFF00",
"h 	c #F6F900",
"i 	c #F5F900",
"j 	c #B30A0A",
"k 	c #09009C",
"l 	c #C90000",
"m 	c #0B0384",
"n 	c #CDCF00",
"o 	c #0E049A",
"p 	c #C3C500",
"q 	c #640000",
"r 	c #0E0592",
"s 	c #BCBF00",
"t 	c #B2B500",
"u 	c #0E0686",
"v 	c #080084",
"w 	c #8A0000",
"x 	c #828500",
"y 	c #8E0000",
"z 	c #6A0000",
"A 	c #080082",
"B 	c #CA0000",
"C 	c #FBFE00",
"D 	c #140C8F",
"E 	c #CC0000",
"F 	c #7B7D00",
"G 	c #F3F600",
"H 	c #F8FB00",
"I 	c #BEC000",
"J 	c #E4E700",
"K 	c #F9FD00",
"L 	c #C30E05",
"M 	c #2118A2",
"N 	c #130B8F",
"O 	c #ADB000",
"P 	c #0B028D",
"Q 	c #B6B800",
"R 	c #A9AB00",
"S 	c #AAAC00",
"T 	c #C7C903",
"U 	c #BC0D0D",
"V 	c #D8DA01",
"W 	c #B2130A",
"X 	c #10078C",
"Y 	c #F0F400",
"Z 	c #E0D700",
"` 	c #AB0505",
" .	c #C52118",
"..	c #0D039A",
"+.	c #808200",
"@.	c #E6EA00",
"#.	c #848600",
"$.	c #D3CA00",
"%.	c #D0D300",
"&.	c #2A23A9",
"*.	c #DCD200",
"=.	c #A80D04",
"-.	c #7E8000",
";.	c #C1C600",
">.	c #C01F16",
",.	c #FBFD00",
"'.	c #C01910",
").	c #0D058A",
"!.	c #4B42CD",
"~.	c #5951DA",
"{.	c #958B00",
"].	c #E9ED00",
"^.	c #868800",
"/.	c #C0C301",
"(.	c #888900",
"_.	c #DACE00",
":.	c #1A1198",
"<.	c #070076",
"[.	c #BCB100",
"}.	c #08007A",
"|.	c #0A019C",
"1.	c #F3F500",
"2.	c #B5B700",
"3.	c #B8BB00",
"4.	c #0900A1",
"5.	c #CB0000",
"6.	c #F9FC00",
"7.	c #FAFD00",
"8.	c #FFFFFF",
"                                                                ",
"  ~.!.M N ; ; ; ; ; X ).P / / v A 0   T I s :                   ",
"  &.M o - - - - - - ' ' - v $ a 0   7.. 2 : /.I , :             ",
"  ^ r k 4.4.4.4.4.4.4.5 $ < 7 0   7.h > * J V 2 s 2.t :         ",
"  D f k 4.4.4.4.4.b ) [ 7 7 0   7.6.7.7.7.H i * . ;.4 O :       ",
"  D f k 4.4.4.4.b / [ 7 7 0   7.6.6.6.6.6.6.7.7.H ].2 t 8 :     ",
"  D f k 4.4.4.b / [ 7 7 0   7.6.6.6.6.6.6.6.6.6.,.7.Y %.4 9 :   ",
"  D f k 4.4.b / a 7 7 a   7.6.6.7.7.7.7.7.6.6.6.6.6.7.1.n R 9   ",
"  N f b 4.b / a 7 7 a   7.6.6.7.7.7.7.7.7.7.7.6.6.6.K C * p 9   ",
"  N f b 4./ a 7 7 a   7.6.7.7.7.7.7.7.7.7.7.7.7.6.6.6.7.7.J 8   ",
"  ; P b ) a 7 7 a   7.6.6.7.7.7.7.7.7.7.7.7.7.7.7.6.6.6.C i ,   ",
"  u 5 - [ 7 7 a   7.6.7.7.7.7.7.7.7.7.7.7.7.7.7.7.7.6.6.C H =   ",
"  m 5 ] 7 7 a   7.6.6.7.7.7.7.7.7.7.7.7.7.7.7.7.7.7.7.6.C 6.=   ",
"  / ) [ 7 a   7.6.6.6.7.7.7.7.7.7.7.7.7.7.7.7.7.7.7.7.6.C 6.=   ",
"  - 5 [ a   7.7.6.6.7.7.7.7.7.7.7.7.7.7.7.7.7.7.7.7.7.7.C 6.=   ",
"  k ' a   7.G 7.6.7.7.7.7.7.7.7.7.7.7.7.7.7.7.7.7.7.7.7.C 6.=   ",
"  |.' a   c L '. .>.'.} } } } } } } } } } } } } } } } } W =.(   ",
"  ..- <.0   # @ { { U j j | | | | | | | | | | | | | | | ` e +   ",
"  ^ ' ] $ 0   ( e # c 3 c 6 6 6 6 6 6 6 6 6 6 6 6 6 6 6 c # d   ",
"  :.o / $ $ 0   w y e 6 B 5.5.B B B B B B B B B B B E 5.6 + z   ",
"  ^ o ' ] $ $ 0   w d ( @ l 5.5.5.5.5.5.5.5.5.5.5.5.B @ d q =   ",
"  D r b 5 <.$ $ 0   d d + @ l 5.5.5.5.E E E 5.5.5.l @ 1 q H p   ",
"  D f b b ) % $ $ 0   w d + # l 5.5.5.5.5.5.5.5.B @ d q C h 9   ",
"  D f b 4.b ) % $ $ 0   w d + @ 3 5.5.5.5.5.5.l @ 1 q 7.C $.&   ",
"  D f k 4.4.b ) % $ $ 0   w d + @ 3 5.5.5.5.B @ d q 7.g _.S -.  ",
"  D f k 4.4.4.b 5 <.$ $ 0   w d + # 3 5.5.l @ 1 q 6.C Z 3.x F   ",
"  D f k 4.4.4.4.b 5 <.$ $ 0   w d + @ 3 l @ 1 q 7.C *., (._ ~   ",
"  ; P k 4.4.4.4.4.4.- ] $ $ 0   w d + # @ d q C H $.O x _ ~     ",
"  m / - k k k k k b b ' v % $ 0   w d + y z G @.[.& ~ _ ~       ",
"  }.<.] <.<.<.<.<.<.] v ) / A ] 0   1 ! ! n Q {.#._ F ~         ",
"  $ [ 0 < < < < < < < < a $ v ) ) 0   1 & ^.+.~ ~ ~             ",
"                                                                "};
