/* XPM */
static char *kivio[] = {
/* columns rows colors chars-per-pixel */
"32 32 21 1",
"  c black",
". c #191919",
"X c gray20",
"o c #00007F",
"O c #007F7F",
"+ c #7F0000",
"@ c #7F007F",
"# c #7F7F00",
"$ c #4C4C4C",
"% c #666667",
"& c gray50",
"* c blue",
"= c cyan",
"- c red",
"; c yellow",
": c gray60",
"> c #B2B2B2",
", c gray80",
"< c gray90",
"1 c gray100",
"2 c None",
/* pixels */
"22222222222222222222222222222222",
"22222222222222222222222222222222",
"2*&OO*Oo&**OoO%ooo  222222222222",
"2OO*=O:*O*O*O**OOO-#-#+. 2222222",
"2*=>>>=:=>=>,=*Oo#-#-;-#+. 22222",
"2*:,,<,,<<<,>*Oo#-;<,,;#-#  2222",
"2O>,=,,,<<<,*OO+-;<<<<<;;##  222",
"2*=,<,,,=,,*Oo+-;1<<<<<,<>-#  22",
"2o>,>=,,=<=o@+#;,<,,;,<1,,;#+  2",
"2O=,>>,>,*Oo##;,;<;,<,,;<;,--# 2",
"2O*,>>=>:%o%-:;,<,<,,;,,,<<>#+  ",
"2*>==>>:*o#-;;,,,;;<;<;>;;;;;#  ",
"2O>=>>:*O$-;>;,;;;,;;>;:;;;;--X.",
"2**==*Oo#-;>>;;,;,,;>;;;;-;;;## ",
"2o:>>oO##;;;;;;;;;;;;;;;;;;;;#+ ",
"2O*=*OX--#-#-#-#&-#--#-#-+-#-+# ",
"2*O*OX.+-#+$#++++++#+++#++++#+. ",
"2o=&*oo-++--+----++-+--++++++++ ",
"2o*=O*%+----->-::-->-::-::--++  ",
"2O=*=Ooo++-->>:>>>>>:>>>---++#  ",
"2O*=*=*$o+---,>:->>>->:--+++#-..",
"2o=*=*=*oO+++--::-->:----++--# .",
"2o*=*=*=O*o+---&--:-----++-;##  ",
"2OO*=*=*=Ooo++---------$+##;-.  ",
"2oO=*=*===*oo+---:--:-++#-;##   ",
"2o*==*=**=O*oo++-->:-++-#;-#.  2",
"2o=**=*==**=Ooo+%->-++##;;+.   2",
"2o*==*=**:=**Oo.++-++#-;#-.   22",
"2o*O&*=*O*=O*Oooo+++##-#+    222",
"2oOoooo$oooo$oooo..#-##..   2222",
"2           .              22222",
"2                        2222222"
};
