/* XPM */
static char * kivio_xpm[] = {
"32 32 33 1",
" 	c None",
".	c #06024E",
"+	c #FAFE02",
"@	c #C8CA02",
"#	c #AE0A0A",
"$	c #BABC02",
"%	c #8E0202",
"&	c #B3B202",
"*	c #838502",
"=	c #7D7E02",
"-	c #A9A802",
";	c #820202",
">	c #969602",
",	c #06025C",
"'	c #7A7A02",
")	c #06026E",
"!	c #908A02",
"~	c #670202",
"{	c #F5F802",
"]	c #524AD4",
"^	c #060277",
"/	c #B8170F",
"(	c #B50605",
"_	c #0C048F",
":	c #E7E902",
"<	c #221AA2",
"[	c #BA0202",
"}	c #0A02A0",
"|	c #C70202",
"1	c #160E90",
"2	c #E0D402",
"3	c #DADD02",
"4	c #9E0202",
"                                ",
" ]]<111_11____^_^, @$$@         ",
" <<}}_}_}_}}}^),, +3@@$$$@      ",
" 1_}}}}}}}}^),., +{{{:3@$&&@    ",
" 1_}}}}}}}_).., ++++{+{{3@&-@   ",
" 1^}}}}}}^,.., +{{+{+{+{+:@&-@  ",
" 1_}}}}}^).., +++{+{++++++{3--$ ",
" 1_}}}}},.., +{++++++{+{++{{@-- ",
" 1^}}}^,.., ++{++++++{+{{+++{$- ",
" 1_}}^,.., +++++++++++++++{++:- ",
" 1^}}).., {+++++++++++++{++{+{$ ",
" _}},.,, +++++++++++++++++{+++@ ",
" ^_^.., +{++{++{++++{+{+++++++@ ",
" }^,., +++{+++++{++++{+++++{+{@ ",
" }},, {++++++{++++{++++++++++{@ ",
" }}, +{+++{+++++++++++++++++++@ ",
" }}, |//////#///#///////#////#% ",
" _}), ||/|/((((##((((((###((44% ",
" 1}^), 4([|||[|[[[[[[[[|[[[[|[% ",
" 1}_)), %%4[|||||||||||||||||%~ ",
" 1_}^)), %%4[||||||||||||||[%~@ ",
" 1_}_))), ;%%|||||||||||||[;~{@ ",
" 1_}}_))), %;4[|||||||||||%~+{- ",
" 1_}}}_^)), %%4|||||||||[;~{+@> ",
" 1_}}}}^^)), %%%||||||||%~++2-* ",
" 1^}}}}}_^)), %%4|||||[;~{+2$*' ",
" 1_}}}}}}_^)), %%4||||%~++2$!'= ",
" __}}}}}}}}^)), ;%4|[%~++@-='*  ",
" _^}}}}}}}}}^^), ;%%%~{:&>*'=   ",
" ^^^^^^)))^^__^^, ;;;@&!*='=    ",
" )),.,,,,,,,,)___, ;>!**==      ",
"                                "};
