/* XPM */
static char * kivio_xpm[] = {
"32 32 33 1",
" 	c None",
".	c #620202",
"+	c #FAFE02",
"@	c #B9BC0A",
"#	c #C50505",
"$	c #878702",
"%	c #760202",
"&	c #727602",
"*	c #FE6060",
"=	c #7E8202",
"-	c #060255",
";	c #787A02",
">	c #4D45C9",
",	c #3E36B9",
"'	c #FB4F4F",
")	c #C1B9FE",
"!	c #070270",
"~	c #5852D8",
"{	c #A59DFE",
"]	c #827AFE",
"^	c #E9EC02",
"/	c #D73535",
"(	c #3028AF",
"_	c #08047C",
":	c #8A82FE",
"<	c #251DA6",
"[	c #D31E1E",
"}	c #FE9696",
"|	c #940606",
"1	c #DADA6E",
"2	c #9DA00B",
"3	c #0D0598",
"4	c #D1D20E",
"                                ",
" )){]~>>>>>,(<3___              ",
" {))]~>>,,(<__!!! @@4           ",
" ]{:,<<<33_3_!-- 4@@@@4         ",
" ~]>3333333_--- ^^44@@@@        ",
" >>,333333!--- ++++^^@2@2       ",
" >>(33333!--- +++++^+^4@22      ",
" >>(333_---- +++++++++^4@22     ",
" >><333!--- +++^+++++++^422@    ",
" >,333!--- +++++++^++++^^@22    ",
" >,33_--- ++++++++++++++^422@   ",
" ,(3_--- ++++++++++++++++^@2$   ",
" ,<3!-- +++++++++++^+++++^42$1  ",
" (3_-- ++++^++++++++++^+++422@  ",
" (3_- ++++++++++++++++++++^2$2  ",
" <33 ++++++++++++++++++^+^^2$$  ",
" (33 ['*}}****''*'*'****''//[||#",
" >33! /'''******'**'*''''[#|||| ",
" ~(33! [[/[[[#[[[[[[[[[###||%.  ",
" ~~<3!! |||##############|%..1  ",
" ~~<3_!_ |||###########||...&   ",
" ~~(33!!_ |||##########%...;2   ",
" >~(33_!!! ||||#######%%..=&    ",
" >>(333_!!! |||######%...=;2    ",
" >>(3333!!!! ||||###%%..=;&     ",
" >>(33333_!!! |||||%...$;&      ",
" ,,<333333_!!! |||%%..=;&       ",
" (<33333333_!!! %%%..;;&        ",
" <__!!_!!_____!! %%.;&2         ",
" 3_-!-------!!!_! %;2           ",
" !-!----------!!__              ",
"                                "};
