/* XPM */
static char * krayon_xpm[] = {
"32 32 11 1",
" 	c None",
".	c #303030",
"+	c #FFFFFF",
"@	c #FF0000",
"#	c #C0FFFF",
"$	c #C0FFC0",
"%	c #00C000",
"&	c #FFC0C0",
"*	c #008080",
"=	c #FFFF00",
"-	c #58A8FF",
"                  ...           ",
"                ..+++....       ",
"       .@.    ..+++#.$%$.       ",
"      .@@@. ..+%+++.$%%%.       ",
"      .@&@..+++%++.$%%%.        ",
"      .@@@.+$$$%#.$%%%..        ",
"      .@&@.$$$$%.$%%%.#.        ",
"    ...@&@.$$$$.$%%%.#%#.       ",
"  ..++.@&@.%$$.$%%%.#%##.       ",
"..++++.@&@.$%.$%%%.#%####.      ",
".+++++.@&@.$.$%%%.**#####.      ",
" .++++.@&@..$%%%.==*######.     ",
" .++++.@&@.&.%%.&==+*#####.     ",
"  .+++.@&@.&&..&&&=+*######.    ",
"  .%%%.@&@.*&&&&&&=+*%%%%%%.    ",
"   .++.@&@.&&..&&&=+*#######.   ",
"   .++.@&@.&.-#.&&==*#######.   ",
"    .+.@&@..---#.==*++#######.  ",
"    .+.@&@..*---#.*%++#######.  ",
"     ..@&@.+.*---#.+%++#######. ",
"     ..@&@.++.*---#.+%++######. ",
"      .@&@.+++.*---#.+%++######.",
"      .@&@.++++.*---#.+%+#####..",
"      .@&@.++++%.*---#.+%###..  ",
"      .@&@.++++%+.*---#.##..    ",
"      .@&@.++++%++.*---#..      ",
"      .@@@.+#++%+##.*---.       ",
"      .@@@.++#+%+##+.*--.       ",
"      .....+#++%#+.. ....       ",
"          .++##+..              ",
"          .+##..                ",
"           ...                  "};
