/* XPM */
static char * kspread_xpm[] = {
"32 32 256 2",
"  	c None",
". 	c #494989",
"+ 	c #068606",
"@ 	c #CE6202",
"# 	c #666696",
"$ 	c #42A64A",
"% 	c #B2AA52",
"& 	c #B6AE8A",
"* 	c #46AE46",
"= 	c #5E5E9E",
"- 	c #AED6B2",
"; 	c #42BE42",
"> 	c #AECEBE",
", 	c #FEFAD2",
"' 	c #DA0606",
") 	c #86E286",
"! 	c #DEC012",
"~ 	c #E2E20A",
"{ 	c #BA7E5E",
"] 	c #F8EEBE",
"^ 	c #DA1212",
"/ 	c #169E16",
"( 	c #6ABE72",
"_ 	c #C69EAE",
": 	c #F29602",
"< 	c #8A8A6E",
"[ 	c #CECEE2",
"} 	c #FECA02",
"| 	c #7ADE7A",
"1 	c #E21A1A",
"2 	c #02BE02",
"3 	c #B6B6BA",
"4 	c #B2DAB2",
"5 	c #DCCE10",
"6 	c #D6E6DA",
"7 	c #CECE52",
"8 	c #FEB802",
"9 	c #CAC8B4",
"0 	c #92523E",
"a 	c #9A9AC2",
"b 	c #D66E02",
"c 	c #6ADE6A",
"d 	c #36A236",
"e 	c #E6CE6E",
"f 	c #CA5E02",
"g 	c #CCF0CC",
"h 	c #F6D686",
"i 	c #D67602",
"j 	c #2AB62A",
"k 	c #B6424A",
"l 	c #827E86",
"m 	c #B27282",
"n 	c #8282B8",
"o 	c #8AB296",
"p 	c #FAC6C6",
"q 	c #B2D6C2",
"r 	c #A29A62",
"s 	c #FED266",
"t 	c #FEF2A7",
"u 	c #D6D626",
"v 	c #FEEEC6",
"w 	c #CECABA",
"x 	c #CBD2F7",
"y 	c #DCA602",
"z 	c #AE4A02",
"A 	c #BEDEBE",
"B 	c #E2DA46",
"C 	c #BAB2AE",
"D 	c #B6968E",
"E 	c #CA7A02",
"F 	c #C6B23A",
"G 	c #C2BEC2",
"H 	c #CEAEBE",
"I 	c #02C202",
"J 	c #C25A02",
"K 	c #E6C84E",
"L 	c #E6C24E",
"M 	c #FE9292",
"N 	c #C2C2DF",
"O 	c #FE5656",
"P 	c #CE8602",
"Q 	c #FEF402",
"R 	c #E6DA96",
"S 	c #FEDE66",
"T 	c #FEB92D",
"U 	c #A0A2D1",
"V 	c #CAAABC",
"W 	c #FEE28E",
"X 	c #DCDEF1",
"Y 	c #DADAC6",
"Z 	c #FEFAE2",
"` 	c #E6BC1A",
" .	c #D6F6D6",
"..	c #E2CA46",
"+.	c #8686BE",
"@.	c #26C226",
"#.	c #DAD4B0",
"$.	c #1ED31E",
"%.	c #22BA22",
"&.	c #D2AE3A",
"*.	c #CEC296",
"=.	c #EA8A02",
"-.	c #96C696",
";.	c #E9EEFC",
">.	c #DEC646",
",.	c #4E4E92",
"'.	c #E2E4EE",
").	c #CEB636",
"!.	c #827A9A",
"~.	c #7272B3",
"{.	c #FEDE02",
"].	c #B6BADE",
"^.	c #FEC65A",
"/.	c #2E9A32",
"(.	c #BAB6C2",
"_.	c #C25E62",
":.	c #5EA65E",
"<.	c #DECEDE",
"[.	c #D2D2E6",
"}.	c #CEC69A",
"|.	c #BE5202",
"1.	c #FE0E0E",
"2.	c #9A96AE",
"3.	c #BCC2EC",
"4.	c #FEE202",
"5.	c #FEB822",
"6.	c #EAD26E",
"7.	c #D69296",
"8.	c #D6E6E6",
"9.	c #A6B6C2",
"0.	c #9AE89A",
"a.	c #D6D2C4",
"b.	c #F0F2FD",
"c.	c #E6DAA6",
"d.	c #D3D6F5",
"e.	c #CEB26A",
"f.	c #A6AEE2",
"g.	c #FEFAE6",
"h.	c #E6A81A",
"i.	c #E2D246",
"j.	c #CEC636",
"k.	c #AEAED3",
"l.	c #A696BE",
"m.	c #82C086",
"n.	c #6E6EAE",
"o.	c #FEEAB6",
"p.	c #09CB09",
"q.	c #1E8220",
"r.	c #C2BA8E",
"s.	c #A2AACA",
"t.	c #26D226",
"u.	c #AEB6E2",
"v.	c #BEC6F1",
"w.	c #DEDE12",
"x.	c #5656A2",
"y.	c #FEC202",
"z.	c #7677B9",
"A.	c #EED202",
"B.	c #FED876",
"C.	c #FEFE02",
"D.	c #62629A",
"E.	c #16C216",
"F.	c #38D038",
"G.	c #E6E6F2",
"H.	c #BA5202",
"I.	c #9294C8",
"J.	c #DEE2F2",
"K.	c #FECE02",
"L.	c #D6DEFD",
"M.	c #CAB6CE",
"N.	c #FAFAFE",
"O.	c #9AB6AE",
"P.	c #CACEF0",
"Q.	c #FEF6BE",
"R.	c #9ACE9E",
"S.	c #D3DAFD",
"T.	c #8A8AC2",
"U.	c #E7EAFC",
"V.	c #6565AD",
"W.	c #C3C6EA",
"X.	c #CACAE2",
"Y.	c #E2DABA",
"Z.	c #BEBEDA",
"`.	c #A1A5DD",
" +	c #969AD2",
".+	c #AEB2E6",
"++	c #3E9A3E",
"@+	c #A6EAA6",
"#+	c #FEEA02",
"$+	c #FED602",
"%+	c #FEF2B5",
"&+	c #F19202",
"*+	c #B64E02",
"=+	c #F6F6FC",
"-+	c #FEE266",
";+	c #E2CE46",
">+	c #DEAE12",
",+	c #FECE66",
"'+	c #FED666",
")+	c #C2CAFA",
"!+	c #CEBA82",
"~+	c #D4D6EC",
"{+	c #A6AADB",
"]+	c #0FCB0F",
"^+	c #E2DE46",
"/+	c #C05602",
"(+	c #B1B2DB",
"_+	c #7E7EBE",
":+	c #FEFEF6",
"<+	c #DED612",
"[+	c #8EBA9A",
"}+	c #D6DAF5",
"|+	c #BABEE5",
"1+	c #9E9EC6",
"2+	c #898ECB",
"3+	c #C7CEF9",
"4+	c #E2E6FC",
"5+	c #FEB612",
"6+	c #A6D2AE",
"7+	c #8E8282",
"8+	c #DACA8A",
"9+	c #A4A6D4",
"0+	c #52529C",
"a+	c #66A66E",
"b+	c #B5BBE9",
"c+	c #C5CAEF",
"d+	c #CED6FA",
"e+	c #C65A02",
"f+	c #DADAEE",
"g+	c #9A9AD2",
"h+	c #D26A02",
"i+	c #DEC612",
"j+	c #CEF6CE",
"k+	c #FEBE3A",
"l+	c #DEDABA",
"m+	c #E6AE1A",
"n+	c #FEDE6A",
"o+	c #E2DAC6",
"p+	c #F49A02",
"q+	c #DADEFB",
"r+	c #C65E02",
"s+	c #7E82C6",
"t+	c #DCE2FE",
"u+	c #2ECF2E",
"v+	c #BA4E02",
"w+	c #C6C6E0",
"x+	c #F2F6FE",
"y+	c #8E8EC2",
"z+	c #B6B6D6",
"A+	c #E6C25A",
"B+	c #9ECAAE",
"C+	c #5E5EAA",
"D+	c #CECAA6",
"E+	c #B3B6DF",
"F+	c #AEAEDC",
"G+	c #9D9ECF",
"                  f f f f r+e+e+e+e+e+e+e+e+J J J /+/+/+/+/+H.  ",
"                r+@ =.&+&+&+: : : : : : &+&+&+&+&+: : : &+i /+  ",
"                r+p+^.Z :+:+:+:+g.N.g.:+:+:+:+:+g.N.g.:+o.T i H.",
"              r+h+T :+Z a.a.a.a.a.a.a.#.G a.a.a.a.Y a.a.Y o.: /+",
"              J b s Q., #.l+G 3 o+Y Y o+D+o+o+o+Y o+o+o+#., 5.|.",
"              J b W Q.] C a +.n w Y.Y.Y.D+l+l+Y.Y.l+l+l+c.Q.T /+",
"              r+b h G 1+y+(+4+T.2.D+D+}.r.}.}.*.!+e.e.!+8+t T H.",
"              { D U U 9.a+d q.s.n.o.%+Q.c.%+W ,+s ,+,+,+h.5.5+/+",
"            (+k.k.O.:.m.g ) / [+V.3 t %+R B.s s s s s s h.5+5+|.",
"        Z.z+N o :.-. .| E.2 2 q.I.n.t t A+'+'+'+'+'+'+'+m+8 8 H.",
"  [ w+Z.[.[+:.- g @+F.2 2 I $.+ W.x.& e &.L L L L L L L >+y.y.H.",
"  w+~+6 ++- g 0.c u+I p.$.%./.> G.n.!.S K S S S B.S S S ` } } H.",
"  N w+A * 0.c F.]+p.t.%.$ -.<.H 4+F+x.e K -+-+-+-+-+-+-+` K.K.H.",
"    z+U.d u+p.]+t.j ( q U.<.7.p _.t+C+7+).>.>.>.>.>.>.>.! $+$+H.",
"    k.N -.@.t.; m.8.U.X }+V M O ' V g+= F >.............! {.{.v+",
"      9+U.6+- ;.;.;.X N.b.l.1 1.^ M.P.0+r i.i.;+;+;+;+;+i+4.4.H.",
"      1+N x+b.X G.~+q+4+d+G+_ k m t+L._+D.i.i.i.i.i.i.B i+#+#+v+",
"      y+I.U.4+b.b.v.(+3.S.G+t+S.f+[.3+].x.% j.j.j.j.j.j.5 Q #+H.",
"        T.N U.}+L.S.F+d.P.c+t+X x+4+U S.V.l B B B B B ^+<+C.Q *+",
"        n y+;.x E+G+t+4+}+G.P.P.t+L.`.d+`.x.7 ^+^+^+^+B w.C.A.*+",
"          z.w+U.U.}+}+w+U.U.3+`.E+(+`.v.)+C+< u u u u u w.C.P *+",
"          ~.T.U.X x+=+|+c+L.d+{+S.d+J.x+9.2+= y y y y y y E *+  ",
"            V.d+f+;.L.b+.+(+s.v.x P.x+4+b+s.x.0 H.*+*+*+*+z     ",
"            D.y+t+3.q+U x S.d.N.J.u.P.L.b+u.V.0+                ",
"            x.C+}+L.|+W.c+S.X U.d+ +3.u.2+z.x.,.                ",
"              x.G+q+d+b.:+E+c+S.L. +)+s+x.0+                    ",
"              0+V.q+}+;.t+u.v..+`.2+C+x..                       ",
"                x.{+d+x q+9+x f.V.0+.                           ",
"                x.z.S.v.b+G+z.x.0+                              ",
"                  x.|+3+T.x.0+                                  ",
"                  x.n.C+0+.                                     ",
"                  ,.x.,.                                        "};
