/* XPM */
static char * kspread_xpm[] = {
"32 32 33 1",
" 	c None",
".	c #020202",
"+	c #029292",
"@	c #FA9902",
"#	c #9A4602",
"$	c #028282",
"%	c #D29E16",
"&	c #027E7E",
"*	c #CBCBCB",
"=	c #027A7A",
"-	c #02B2B2",
";	c #828282",
">	c #024444",
",	c #FE7E02",
"'	c #F1DD5D",
")	c #02D1D1",
"!	c #FEB302",
"~	c #DDDAD6",
"{	c #023E3E",
"]	c #FEFEC2",
"^	c #FEAA5A",
"/	c #884C02",
"(	c #02ECEC",
"_	c #E2BE3A",
":	c #E2E2E2",
"<	c #BE8202",
"[	c #023434",
"}	c #FECC02",
"|	c #F9F9F9",
"1	c #A2A2A2",
"2	c #5D5D5D",
"3	c #B4B4B4",
"4	c #C25A02",
"                 ..             ",
"               ..$&.            ",
"             ..+++&.            ",
"           ..-+.++$&.           ",
"         ..----.++...           ",
"       ..)).---+..313.          ",
"     ..)))).--...3333.          ",
"   ..((.)))-..133.3333.         ",
" ..((((.))...3333.**...         ",
".(((((()..113.3*3*..***.        ",
" .((()...1313.3*...****.        ",
" .()..))).3333..***.~~~~.       ",
"  ..))))).133..**~~.~~...       ",
"  .))))-.....23.*~~:..::~.      ",
"   .)-.2|||||*..3~...::::.      ",
"   .-.||}}}!!@']...:|.||::.     ",
"    .2|'44###@@@@.3:;.;|::.     ",
"    .|}4.....####...&..;..      ",
"  ...]}#..........&$)$&..       ",
" .|]|}}^]]]]]]..&=))((||;..     ",
" .]}}}}!!!@@4.1&-))(||;.;|;..   ",
".###^!#######..|11||;.;|;;.;|.. ",
" ...]}#.......$&>|1.;|;;.;|;.;;.",
" .|]|!^]]]]].2..=&{|11.;|;.;;.{.",
" .]}}!!!@@@4.   ..&&>1|;.;;.{>. ",
".###^!#####.   .]...==[;;[{{..  ",
" ...'@@#...  ..],.  ..&>{{..    ",
"    .!@@#....'],,.    ....      ",
"    ._<@,<<%_,,,#.              ",
"     ./,,,,,,,##.               ",
"      ../#####..                ",
"        ......                  "};
