/* XPM */
static char *kword[] = {
/* columns rows colors chars-per-pixel */
"32 32 21 1",
"  c black",
". c #191919",
"X c gray20",
"o c #00007F",
"O c #007F7F",
"+ c #7F0000",
"@ c #7F007F",
"# c #7F7F00",
"$ c #4C4C4C",
"% c #666667",
"& c gray50",
"* c blue",
"= c cyan",
"- c red",
"; c yellow",
": c gray60",
"> c #B2B2B2",
", c gray80",
"< c gray90",
"1 c gray100",
"2 c None",
/* pixels */
"22222222222222222222222222222222",
":$o...o$,%o  2222222222222222222",
":%oo...o<:o.  222222222222222222",
",:%ooo..$,%o  222222222222222222",
"<,:o.o..o&>o.OO*Oo*%OoO@%ooOo 22",
":<>&o..o..,:o*%o*OO*O*oO*Oo*oO  ",
"o><:&oo..o$<$%o=:*=OO*=*O**O*oo.",
" o>,:$o.o..#,>%,<<1<11<111<,=Oo ",
"  $<>&@o..:<<:X<<<<<<1<,<<,<==o.",
"  .%<>&o$><<&X><,,,,<=,,,<,,,*oo",
"   o:<:#;,;$++@,=,=,,>,>,,,,,=o.",
"    .:,;;#+%%##&=,>>,=>,=,=>>Ooo",
"    O%1,+$#;:>;#&>>>>=*=*=*=>*oX",
"2   $o:@%#><<,<;#&:=:==*=*=**=o.",
"22  o&=&*&>1<<<;>+*==*=*=**==*oo",
"222 O**==:%1<<<,;;+O*=*=*===*Oo.",
"2222O*=>&=&:1<<<<;#-O=*=*==*=*Oo",
"2222%O****=%<<;<,>>;+==*=**=*Oo.",
"2222*O===**&#1,,X+,;-&*=*=*==*o.",
"2222O**=*==O%,;>>%>;#$=*=*=**Ooo",
"2222&*=*==*OO><;,,#<;$*==**==Ooo",
"2222O**==**=*%;,;;,-<+=**==**=o.",
"2222oO=*=*=*=O%>>;,:;#*==:*==Oo.",
"2222O*:=*=:=*:OO%#&,%+:==*=*=*o.",
"2222o&=*:=**=:=:=:%+#+%*=*=*>:oo",
"2222O*>==*>=*=*=*=*=%+X&=>=*=*o.",
"2222O*=::==:==*:>==>=%@=:*=:>Oo ",
"2222oO*:=>*=>>>==:*:=:=>=:>==oo ",
"2222 oO*:O*::O&O*&O*O&*O*&*Ooo. ",
"2222  o%ooOo*o*ooooooooooXoooo  ",
"22222 .           ..    .       ",
"222222             .            "
};
