/* XPM */
static char * ArrowRightSlim_xpm[] = {
"32 32 2 1",
" 	c white",
".	c black",
"                                ",
"                                ",
"                                ",
"                                ",
"                                ",
"                                ",
"                                ",
"                                ",
"                                ",
"                                ",
"                                ",
"                                ",
"                                ",
"                                ",
"                                ",
"                           .    ",
"                           ...  ",
"  ............................. ",
"                           ...  ",
"                           .    ",
"                                ",
"                                ",
"                                ",
"                                ",
"                                ",
"                                ",
"                                ",
"                                ",
"                                ",
"                                ",
"                                ",
"                                "};
