/* XPM */
static char * ArrowDownSlim_xpm[] = {
"32 32 2 1",
" 	c white",
".	c black",
"                                ",
"                                ",
"                .               ",
"                .               ",
"                .               ",
"                .               ",
"                .               ",
"                .               ",
"                .               ",
"                .               ",
"                .               ",
"                .               ",
"                .               ",
"                .               ",
"                .               ",
"                .               ",
"                .               ",
"                .               ",
"                .               ",
"                .               ",
"                .               ",
"                .               ",
"                .               ",
"                .               ",
"                .               ",
"                .               ",
"                .               ",
"              .....             ",
"               ...              ",
"               ...              ",
"                .               ",
"                                "};
