/* XPM */
static char*Plain[]={
"80 64 3 1",
"a c #000000",
"# c #585858",
". c #ffffff",
"................................................................................",
"................................................................................",
"................................................................................",
"................................................................................",
"................................................................................",
"................................................................................",
".....#####################################################################......",
".....#####################################################################......",
".....#####################################################################......",
".....#####################################################################......",
".....#####################################################################......",
".....#####################################################################......",
".....#####################################################################......",
".....#####################################################################......",
"................................................................................",
"................................................................................",
"................................................................................",
"................................................................................",
".....aaaaaaaaaaaaaaaaaaaaaaaaaaaaaaaaaaaaaaaaaaaaaaaaaaaaaaaaaaaaaaaaaaaaa......",
".....a...................................................................a......",
".....a...................................................................a......",
".....a...................................................................a......",
".....a...##############################################..................a......",
".....a...##############################################..................a......",
".....a...................................................................a......",
".....a...................................................................a......",
".....a...................................................................a......",
".....a...#####################################################...........a......",
".....a...#####################################################...........a......",
".....a...................................................................a......",
".....a...................................................................a......",
".....a...................................................................a......",
".....a...############################################....................a......",
".....a...############################################....................a......",
".....a...................................................................a......",
".....a...................................................................a......",
".....a...................................................................a......",
".....a...#################################################...............a......",
".....a...#################################################...............a......",
".....a...................................................................a......",
".....a...................................................................a......",
".....a...................................................................a......",
".....a...###################################################.............a......",
".....a...###################################################.............a......",
".....a...................................................................a......",
".....a...................................................................a......",
".....a...................................................................a......",
".....a...##################################################..............a......",
".....a...##################################################..............a......",
".....a...................................................................a......",
".....a...................................................................a......",
".....a...................................................................a......",
".....a...#########################################################.......a......",
".....a...#########################################################.......a......",
".....a...................................................................a......",
".....a...................................................................a......",
".....a...................................................................a......",
".....a...................................................................a......",
".....aaaaaaaaaaaaaaaaaaaaaaaaaaaaaaaaaaaaaaaaaaaaaaaaaaaaaaaaaaaaaaaaaaaaa......",
"................................................................................",
"................................................................................",
"................................................................................",
"................................................................................",
"................................................................................"};
