/* XPM */
static char*Plain[]={
"80 64 2 1",
"# c #585858",
". c #ffffff",
"................................................................................",
"................................................................................",
"................................................................................",
"................................................................................",
"................................................................................",
"................................................................................",
".....#####################################################################......",
".....#####################################################################......",
".....#####################################################################......",
".....#####################################################################......",
".....#####################################################################......",
".....#####################################################################......",
".....#####################################################################......",
".....#####################################################################......",
"................................................................................",
"................................................................................",
"................................................................................",
"................................................................................",
"................................................................................",
"................................................................................",
"................................................................................",
"................................................................................",
"................................................................................",
"................................................................................",
"................................................................................",
"................................................................................",
"................................................................................",
"................................................................................",
"................................................................................",
"................................................................................",
"................................................................................",
"................................................................................",
"................................................................................",
"................................................................................",
"................................................................................",
"................................................................................",
"................................................................................",
"................................................................................",
"................................................................................",
"................................................................................",
"................................................................................",
"................................................................................",
"................................................................................",
"................................................................................",
"................................................................................",
"................................................................................",
"................................................................................",
"................................................................................",
"................................................................................",
"................................................................................",
"................................................................................",
"................................................................................",
"................................................................................",
"................................................................................",
"................................................................................",
"................................................................................",
"................................................................................",
"................................................................................",
"................................................................................",
"................................................................................",
"................................................................................",
"................................................................................",
"................................................................................",
"................................................................................"};
