/* XPM */
static char *magick[] = {
/* columns rows colors chars-per-pixel */
"22 22 8 1",
"  c Gray100",
". c #848284",
"X c #000084",
"o c Gray0",
"O c None",
"+ c Gray0",
"@ c Gray0",
"# c Gray0",
/* pixels */
"OOOOOOOOOOOOOOOOOOOOOO",
"OOOOOOOOOOOOOOOOOOOOOO",
"OOOOOOOOOOOOOOOOOOOOOO",
"OOOOOOOOOOOOOOOOOOOOOO",
"OOOOOOOOOOOOOOOOOOOOOO",
"OOOO.XXXXXXOOOOOOOOOOO",
"OOOXXXXXXXXXXOOOOOOXOO",
"OO.XXOOOOOOXXXXOOOXXOO",
"OOXXOOOOOOOOOXXXOXXXOO",
"OOXXOOOOOOOOOOXXXXXXOO",
"OOXXOOOOOOOOOOOXXXXXOO",
"OOXXOOOOOOOOOOXXXXXXOO",
"OOXXOOOOOOOOOXXXXXXXOO",
"OO.XXOOOOOOOXXXXXXXXOO",
"OOOXXX.OOOOOOOOOOOOOOO",
"OOOOXXXOOOOOOOOOOOOOOO",
"OOOOOOOOOOOOOOOOOOOOOO",
"OOOOOOOOOOOOOOOOOOOOOO",
"OOOOOOOOOOOOOOOOOOOOOO",
"OOOOOOOOOOOOOOOOOOOOOO",
"OOOOOOOOOOOOOOOOOOOOOO",
"OOOOOOOOOOOOOOOOOOOOOO"
};
