<?xml version="1.0" encoding="UTF-8" standalone="no"?>
<svg
   xmlns:dc="http://purl.org/dc/elements/1.1/"
   xmlns:cc="http://web.resource.org/cc/"
   xmlns:rdf="http://www.w3.org/1999/02/22-rdf-syntax-ns#"
   xmlns:svg="http://www.w3.org/2000/svg"
   xmlns="http://www.w3.org/2000/svg"
   xmlns:sodipodi="http://inkscape.sourceforge.net/DTD/sodipodi-0.dtd"
   xmlns:inkscape="http://www.inkscape.org/namespaces/inkscape"
   inkscape:export-ydpi="72.000000"
   inkscape:export-xdpi="72.000000"
   inkscape:export-filename="/home/danny/work/kde/koffice/templates/kspread/cr48-action-template_studentidcard.png"
   sodipodi:docbase="/home/danny/work/kde/koffice/templates/kspread"
   sodipodi:docname="crsc-action-template_studentidcard.svg"
   inkscape:version="0.41"
   sodipodi:version="0.32"
   id="svg1"
   x="0"
   y="0"
   version="1.0"
   _SVGFile__filename="oldscale/apps/gksu.svg"
   width="60"
   height="60">
  <sodipodi:namedview
     inkscape:current-layer="svg1"
     inkscape:window-y="0"
     inkscape:window-x="0"
     inkscape:window-height="691"
     inkscape:window-width="1020"
     inkscape:cy="6.3182625"
     inkscape:cx="39.940703"
     inkscape:zoom="9.5213352"
     inkscape:pageshadow="2"
     inkscape:pageopacity="0.0"
     borderopacity="1.0"
     bordercolor="#666666"
     pagecolor="#ffffff"
     id="base" />
  <defs
     id="defs3" />
  <metadata
     id="metadata16">
    <RDF
       id="RDF17">
      <Work
         id="Work18"
         about="">
        <format
           id="format19">image/svg+xml</format>
        <type
           resource="http://purl.org/dc/dcmitype/StillImage"
           id="type21" />
      </Work>
    </RDF>
    <rdf:RDF
       id="RDF23">
      <cc:Work
         id="Work24"
         rdf:about="">
        <dc:format
           id="format25">image/svg+xml</dc:format>
        <dc:type
           rdf:resource="http://purl.org/dc/dcmitype/StillImage"
           id="type27" />
      </cc:Work>
    </rdf:RDF>
  </metadata>
  <g
     style="stroke:#ffffff;stroke-opacity:1.0000000;"
     transform="translate(75.00000,0.000000)"
     id="g1736">
    <path
       transform="matrix(0.983821,0.000000,0.000000,0.983821,-74.63174,0.292940)"
       id="path1712"
       d="M 13.996500,27.171840 C 11.706170,12.666370 27.738520,-2.8570240 34.355050,8.5946610 C 40.971580,20.046340 63.365990,-1.0756510 41.480550,28.189770"
       style="font-size:12.000000;fill:none;fill-opacity:0.75000000;fill-rule:evenodd;stroke:#ffffff;stroke-width:8.2586164;stroke-linecap:round;stroke-linejoin:round;stroke-miterlimit:4.0000000;stroke-dashoffset:0.0000000;stroke-opacity:1.0000000;" />
    <path
       transform="matrix(0.983821,0.000000,0.000000,0.983821,-74.63174,0.292940)"
       id="path1713"
       d="M 6.1499670,25.674980 C 4.9986100,25.674980 4.0717060,26.601880 4.0717060,27.753240 L 4.0717060,54.007300 C 4.0717060,55.158660 4.9986100,56.085560 6.1499670,56.085560 L 54.088100,56.085560 C 55.239460,56.085560 56.166360,55.158660 56.166360,54.007300 L 56.166360,27.753240 C 56.166360,26.601880 55.239460,25.674980 54.088100,25.674980 L 6.1499670,25.674980 z "
       style="font-size:12.000000;fill:none;fill-opacity:1.0000000;fill-rule:evenodd;stroke:#ffffff;stroke-width:7.6233382;stroke-linecap:round;stroke-linejoin:round;stroke-miterlimit:4.0000000;stroke-opacity:1.0000000;" />
  </g>
  <g
     transform="matrix(0.983821,0.000000,0.000000,0.983821,0.435235,0.272484)"
     id="g1698">
    <path
       transform="translate(-6.807373e-2,2.079274e-2)"
       id="path891"
       d="M 13.996500,27.171840 C 11.706170,12.666370 27.738520,-2.8570240 34.355050,8.5946610 C 40.971580,20.046340 63.365990,-1.0756510 41.480550,28.189770"
       style="font-size:12.000000;fill:none;fill-opacity:0.75000000;fill-rule:evenodd;stroke:#000000;stroke-width:3.1763930;stroke-linecap:round;stroke-linejoin:round;stroke-dasharray:3.1763931 3.1763931 ;stroke-dashoffset:0.0000000;stroke-opacity:1.0000000" />
    <path
       transform="translate(-6.807373e-2,2.079274e-2)"
       id="rect825"
       d="M 6.1499670,25.674980 C 4.9986100,25.674980 4.0717060,26.601880 4.0717060,27.753240 L 4.0717060,54.007300 C 4.0717060,55.158660 4.9986100,56.085560 6.1499670,56.085560 L 54.088100,56.085560 C 55.239460,56.085560 56.166360,55.158660 56.166360,54.007300 L 56.166360,27.753240 C 56.166360,26.601880 55.239460,25.674980 54.088100,25.674980 L 6.1499670,25.674980 z "
       style="font-size:12.000000;fill:#ffffff;fill-opacity:1.0000000;fill-rule:evenodd;stroke:#000000;stroke-width:2.5411143;stroke-linecap:round;stroke-linejoin:round;stroke-opacity:1.0000000" />
    <path
       transform="translate(-6.807373e-2,2.079274e-2)"
       id="path827"
       d="M 30.875590,30.806410 L 50.782110,30.806410"
       style="font-size:12.000000;fill:none;fill-opacity:0.75000000;fill-rule:evenodd;stroke:#000000;stroke-width:3.1763930;stroke-linecap:round;stroke-linejoin:round;stroke-opacity:1.0000000" />
    <path
       transform="translate(-6.807373e-2,2.079274e-2)"
       id="path828"
       d="M 30.250590,36.441120 L 41.621500,36.441120"
       style="font-size:12.000000;fill:none;fill-opacity:0.75000000;fill-rule:evenodd;stroke:#000000;stroke-width:2.5411143;stroke-linecap:round;stroke-linejoin:round;stroke-miterlimit:4.0000000;stroke-opacity:1.0000000" />
    <path
       transform="translate(-6.807373e-2,2.079274e-2)"
       id="path852"
       d="M 30.250590,41.450840 L 47.439180,41.450840"
       style="font-size:12.000000;fill:none;fill-opacity:0.75000000;fill-rule:evenodd;stroke:#000000;stroke-width:2.5411143;stroke-linecap:round;stroke-linejoin:round;stroke-miterlimit:4.0000000;stroke-opacity:1.0000000" />
    <path
       transform="translate(-6.807373e-2,2.079274e-2)"
       id="path853"
       d="M 30.250590,46.460560 L 44.530340,46.460560"
       style="font-size:12.000000;fill:none;fill-opacity:0.75000000;fill-rule:evenodd;stroke:#000000;stroke-width:2.5411143;stroke-linecap:round;stroke-linejoin:round;stroke-miterlimit:4.0000000;stroke-opacity:1.0000000" />
    <path
       transform="translate(-6.807373e-2,2.079274e-2)"
       id="path836"
       d="M 8.6626380,51.470280 L 46.335350,51.470280"
       style="font-size:12.000000;fill:none;fill-opacity:0.75000000;fill-rule:evenodd;stroke:#000000;stroke-width:2.5411143;stroke-linecap:round;stroke-linejoin:round;stroke-miterlimit:4.0000000;stroke-opacity:1.0000000" />
    <g
       style="font-size:12.000000"
       id="g1549"
       transform="translate(0.291818,0.560631)">
      <path
         id="rect874"
         d="M 10.381007,29.641571 L 23.677515,29.641571 C 24.828871,29.641571 25.755775,30.568475 25.755775,31.719832 L 25.755775,44.487463 C 25.755775,45.638819 24.828871,46.565723 23.677515,46.565723 L 10.381007,46.565723 C 9.2296502,46.565723 8.3027458,45.638819 8.3027458,44.487463 L 8.3027458,31.719832 C 8.3027458,30.568475 9.2296502,29.641571 10.381007,29.641571 z "
         style="fill:#ffffff;fill-opacity:1.0000000;fill-rule:evenodd;stroke-width:1.0000000" />
      <path
         id="path849"
         d="M 23.292480,46.303820 C 22.646540,44.424230 21.768590,42.582790 20.153390,41.580250 C 18.443950,41.505930 16.285150,41.580250 14.204090,41.580250 C 12.444860,42.516610 11.470340,44.377670 10.766040,46.303820"
         style="fill:#ffffff;fill-opacity:1.0000000;fill-rule:evenodd;stroke:#000000;stroke-width:1.2705572;stroke-linecap:round;stroke-linejoin:round;stroke-opacity:1.0000000" />
      <path
         id="path716"
         transform="matrix(0.428118,0.000000,0.000000,0.428118,8.670631,28.17490)"
         d="M 31.850420,22.301340 C 31.850420,29.105450 26.328240,34.627630 19.524130,34.627630 C 12.720010,34.627630 7.1978350,29.105450 7.1978350,22.301340 C 7.1978350,15.497230 12.720010,9.9750510 19.524130,9.9750510 C 26.328240,9.9750510 31.850420,15.497230 31.850420,22.301340 z "
         style="fill:#ffffff;fill-opacity:1.0000000;fill-rule:evenodd;stroke:#000000;stroke-width:2.9677777;stroke-linecap:round;stroke-linejoin:round;stroke-opacity:1.0000000" />
      <path
         id="rect826"
         d="M 10.381007,29.641571 L 23.677515,29.641571 C 24.828871,29.641571 25.755775,30.568475 25.755775,31.719832 L 25.755775,44.487463 C 25.755775,45.638819 24.828871,46.565723 23.677515,46.565723 L 10.381007,46.565723 C 9.2296502,46.565723 8.3027458,45.638819 8.3027458,44.487463 L 8.3027458,31.719832 C 8.3027458,30.568475 9.2296502,29.641571 10.381007,29.641571 z "
         style="fill:none;fill-opacity:0.75000000;fill-rule:evenodd;stroke:#000000;stroke-width:1.9058359;stroke-linejoin:round;stroke-opacity:1.0000000" />
    </g>
  </g>
</svg>
