/* XPM */
static char * 3FloppyDisk_xpm[] = {
"32 32 522 2",
"  	c None",
". 	c #ADAEC3",
"+ 	c #A8A9BF",
"@ 	c #A3A3BC",
"# 	c #404273",
"$ 	c #2F3066",
"% 	c #AEAEC4",
"& 	c #EAEDF2",
"* 	c #E6E9F0",
"= 	c #E3E7EE",
"- 	c #A4A4BC",
"; 	c #A0A0B9",
"> 	c #9C9CB5",
", 	c #9797B2",
"' 	c #9393AE",
") 	c #8E8EAB",
"! 	c #8989A8",
"~ 	c #8585A4",
"{ 	c #8080A1",
"] 	c #7B7B9D",
"^ 	c #77779A",
"/ 	c #727296",
"( 	c #6E6E93",
"_ 	c #696990",
": 	c #64648C",
"< 	c #606089",
"[ 	c #5B5B85",
"} 	c #565682",
"| 	c #B6C0D2",
"1 	c #B2BACD",
"2 	c #414273",
"3 	c #A9AAC0",
"4 	c #E2E6ED",
"5 	c #03033F",
"6 	c #D3D9E4",
"7 	c #E9EDF1",
"8 	c #E5E8EF",
"9 	c #E0E4EC",
"0 	c #FFFFFF",
"a 	c #D2D8E3",
"b 	c #92A1BC",
"c 	c #8F9EB9",
"d 	c #8387A7",
"e 	c #181854",
"f 	c #A4A5BD",
"g 	c #DFE3EB",
"h 	c #CFD5E1",
"i 	c #ABACC2",
"j 	c #DBE0E9",
"k 	c #D7DCE6",
"l 	c #072764",
"m 	c #203C74",
"n 	c #284479",
"o 	c #304B7E",
"p 	c #8E9DB9",
"q 	c #8B9AB7",
"r 	c #7D81A1",
"s 	c #1C1C56",
"t 	c #A0A1BA",
"u 	c #CED5E1",
"v 	c #CAD1DE",
"w 	c #B3B4C8",
"x 	c #CDD4E0",
"y 	c #12316B",
"z 	c #526893",
"A 	c #63769D",
"B 	c #7385A7",
"C 	c #8A99B6",
"D 	c #8696B4",
"E 	c #6D7193",
"F 	c #1A1A54",
"G 	c #9B9CB6",
"H 	c #D8DEE7",
"I 	c #C9D0DE",
"J 	c #C6CEDC",
"K 	c #BBBDCE",
"L 	c #C9D0DD",
"M 	c #C4CCDA",
"N 	c #18366F",
"O 	c #6B7EA3",
"P 	c #7B8CAD",
"Q 	c #8595B3",
"R 	c #7786A6",
"S 	c #64678B",
"T 	c #181853",
"U 	c #9798B3",
"V 	c #D5DAE5",
"W 	c #C5CDDB",
"X 	c #C2CAD9",
"Y 	c #C2C5D5",
"Z 	c #BFC8D7",
"` 	c #BBC4D4",
" .	c #8494B2",
"..	c #94A2BC",
"+.	c #A4B0C7",
"@.	c #7585A5",
"#.	c #6B789A",
"$.	c #5D6186",
"%.	c #171752",
"&.	c #9294AF",
"*.	c #D1D7E2",
"=.	c #C1C9D8",
"-.	c #BDC6D6",
";.	c #CACEDB",
">.	c #B6C0D1",
",.	c #B1BCCE",
"'.	c #FDFDFD",
").	c #E7E7ED",
"!.	c #697799",
"~.	c #647395",
"{.	c #585B81",
"].	c #151550",
"^.	c #8E8FAC",
"/.	c #CED4E1",
"(.	c #BCC5D6",
"_.	c #B9C2D4",
":.	c #DADFE8",
"<.	c #D8DDE7",
"[.	c #D6DCE6",
"}.	c #D0D6E2",
"|.	c #CCD3DF",
"1.	c #CBD2DE",
"2.	c #C7CFDC",
"3.	c #BDC5D4",
"4.	c #A9B0C4",
"5.	c #9EA5BC",
"6.	c #637195",
"7.	c #5F6D91",
"8.	c #52557C",
"9.	c #14144F",
"0.	c #898AA9",
"a.	c #CBD2DF",
"b.	c #B8C1D3",
"c.	c #B5BFD1",
"d.	c #B1BBCF",
"e.	c #AEB9CD",
"f.	c #AAB5CA",
"g.	c #A7B3C8",
"h.	c #A4B0C6",
"i.	c #A0ADC4",
"j.	c #9DAAC2",
"k.	c #99A7C0",
"l.	c #96A4BE",
"m.	c #93A1BC",
"n.	c #8C9BB8",
"o.	c #8898B5",
"p.	c #8393B1",
"q.	c #7685A6",
"r.	c #6B799B",
"s.	c #677597",
"t.	c #627094",
"u.	c #5E6B90",
"v.	c #59678C",
"w.	c #4C5077",
"x.	c #12124E",
"y.	c #8486A5",
"z.	c #C7CEDC",
"A.	c #B4BED0",
"B.	c #B0BACE",
"C.	c #ADB8CC",
"D.	c #A9B5CA",
"E.	c #A6B2C8",
"F.	c #A3AFC6",
"G.	c #9FACC3",
"H.	c #9CA9C2",
"I.	c #98A6BF",
"J.	c #95A3BD",
"K.	c #92A0BB",
"L.	c #7988A8",
"M.	c #6F7D9E",
"N.	c #6A789A",
"O.	c #667496",
"P.	c #616E93",
"Q.	c #5C6A8F",
"R.	c #58668B",
"S.	c #546287",
"T.	c #474B72",
"U.	c #11114D",
"V.	c #8081A2",
"W.	c #AFBACE",
"X.	c #ACB7CB",
"Y.	c #A9B4C9",
"Z.	c #A5B1C7",
"`.	c #A2AEC5",
" +	c #9EABC3",
".+	c #9BA8C1",
"++	c #97A5BF",
"@+	c #94A2BD",
"#+	c #909FBA",
"$+	c #8998B4",
"%+	c #8291AE",
"&+	c #7987A6",
"*+	c #7280A1",
"=+	c #6D7B9D",
"-+	c #647295",
";+	c #606D92",
">+	c #5B698E",
",+	c #57658A",
"'+	c #526186",
")+	c #4E5D83",
"!+	c #42456E",
"~+	c #10104C",
"{+	c #7B7D9F",
"]+	c #C0C9D8",
"^+	c #ABB6CB",
"/+	c #A8B3C9",
"(+	c #BBC4D5",
"_+	c #B9C2D3",
":+	c #B1BCCF",
"<+	c #ABB5CA",
"[+	c #A3ADC4",
"}+	c #9AA4BC",
"|+	c #95A0B9",
"1+	c #909BB5",
"2+	c #8C96B1",
"3+	c #8792AD",
"4+	c #838DAA",
"5+	c #7F89A7",
"6+	c #7A84A3",
"7+	c #76809F",
"8+	c #727C9C",
"9+	c #6D7898",
"0+	c #4D5C82",
"a+	c #49577E",
"b+	c #3C4069",
"c+	c #0F0F4B",
"d+	c #76789B",
"e+	c #FCFCFD",
"f+	c #F2F2F6",
"g+	c #EBEBF0",
"h+	c #E3E3EA",
"i+	c #DFDFE8",
"j+	c #DBDBE5",
"k+	c #D8D8E2",
"l+	c #D4D4DF",
"m+	c #D0D0DC",
"n+	c #CCCCD9",
"o+	c #C8C8D6",
"p+	c #C4C4D3",
"q+	c #C0C0D1",
"r+	c #BCBCCE",
"s+	c #48567D",
"t+	c #44527A",
"u+	c #373B64",
"v+	c #0D0D49",
"w+	c #727498",
"x+	c #BAC3D4",
"y+	c #F8F8FA",
"z+	c #EEEEF2",
"A+	c #EAEAEF",
"B+	c #E6E6ED",
"C+	c #E2E2EA",
"D+	c #DEDEE7",
"E+	c #DADAE4",
"F+	c #D7D7E1",
"G+	c #D2D2DE",
"H+	c #CFCFDB",
"I+	c #CBCBD8",
"J+	c #C7C7D6",
"K+	c #C3C3D3",
"L+	c #BFBFD0",
"M+	c #BBBBCD",
"N+	c #B7B7CA",
"O+	c #435179",
"P+	c #3F4D76",
"Q+	c #333660",
"R+	c #0C0C48",
"S+	c #6D6F95",
"T+	c #FEFEFE",
"U+	c #F3F3F6",
"V+	c #EDEDF1",
"W+	c #E9E9EF",
"X+	c #E5E5EC",
"Y+	c #E1E1E9",
"Z+	c #DDDDE6",
"`+	c #D9D9E3",
" @	c #D5D5E0",
".@	c #D1D1DD",
"+@	c #CDCDDA",
"@@	c #CACAD8",
"#@	c #C6C6D5",
"$@	c #C2C2D2",
"%@	c #BEBECF",
"&@	c #BABACC",
"*@	c #B6B6C9",
"=@	c #B2B2C6",
"-@	c #3E4C75",
";@	c #3A4971",
">@	c #2F325C",
",@	c #0B0B47",
"'@	c #686A91",
")@	c #B3BDD0",
"!@	c #9AA7C0",
"~@	c #96A3BD",
"{@	c #F2F2F5",
"]@	c #BDBDD8",
"^@	c #B9B9D6",
"/@	c #B6B6D3",
"(@	c #B3B3D0",
"_@	c #B0B0CE",
":@	c #ADADCB",
"<@	c #AAAAC9",
"[@	c #A7A7C6",
"}@	c #A4A4C3",
"|@	c #A1A1C1",
"1@	c #9D9DBE",
"2@	c #9A9ABC",
"3@	c #9797B9",
"4@	c #9494B7",
"5@	c #9191B4",
"6@	c #8E8EB1",
"7@	c #ADADC3",
"8@	c #394870",
"9@	c #36446D",
"0@	c #2A2E58",
"a@	c #0A0A46",
"b@	c #63668E",
"c@	c #8B98B5",
"d@	c #EAEAF0",
"e@	c #DBDBE7",
"f@	c #D7D7E4",
"g@	c #D4D4E1",
"h@	c #D0D0DE",
"i@	c #CCCCDC",
"j@	c #C9C9D9",
"k@	c #C5C5D6",
"l@	c #C1C1D3",
"m@	c #BDBDD1",
"n@	c #BABACE",
"o@	c #B6B6CB",
"p@	c #B2B2C8",
"q@	c #AEAEC5",
"r@	c #ABABC3",
"s@	c #A7A7C0",
"t@	c #A3A3BD",
"u@	c #A8A8BF",
"v@	c #35436D",
"w@	c #324069",
"x@	c #262A54",
"y@	c #090945",
"z@	c #5F618A",
"A@	c #ACB7CC",
"B@	c #8C9AB6",
"C@	c #818FAD",
"D@	c #E6E6EC",
"E@	c #CBCBDD",
"F@	c #C8C8DB",
"G@	c #C4C4D8",
"H@	c #C1C1D5",
"I@	c #BDBDD3",
"J@	c #BABAD0",
"K@	c #B6B6CD",
"L@	c #B3B3CA",
"M@	c #AFAFC8",
"N@	c #ACACC5",
"O@	c #A8A8C2",
"P@	c #A5A5BF",
"Q@	c #A1A1BD",
"R@	c #9D9DBA",
"S@	c #9A9AB7",
"T@	c #9797B4",
"U@	c #A4A4BB",
"V@	c #313F68",
"W@	c #2D3B65",
"X@	c #222650",
"Y@	c #080844",
"Z@	c #5A5D87",
"`@	c #808EAC",
" #	c #7B89A8",
".#	c #BBBBD4",
"+#	c #B8B8D1",
"@#	c #B5B5CF",
"##	c #B2B2CC",
"$#	c #AEAEC9",
"%#	c #ABABC7",
"&#	c #A8A8C4",
"*#	c #A4A4C2",
"=#	c #A1A1BF",
"-#	c #9E9EBC",
";#	c #9A9AB9",
">#	c #9797B7",
",#	c #9494B4",
"'#	c #9090B1",
")#	c #8D8DAF",
"!#	c #8A8AAC",
"~#	c #9F9FB7",
"{#	c #2C3A64",
"]#	c #293861",
"^#	c #1E224C",
"/#	c #070743",
"(#	c #555884",
"_#	c #9EA9C0",
":#	c #7988A6",
"<#	c #7583A3",
"[#	c #C8C8D7",
"}#	c #C4C4D4",
"|#	c #B8B8CB",
"1#	c #B5B5C8",
"2#	c #B1B1C5",
"3#	c #ADADC2",
"4#	c #A9A9BF",
"5#	c #A5A5BC",
"6#	c #A2A2BA",
"7#	c #9E9EB7",
"8#	c #9A9AB4",
"9#	c #283760",
"0#	c #26345D",
"a#	c #1B1E48",
"b#	c #060642",
"c#	c #50527F",
"d#	c #96A1B9",
"e#	c #7381A2",
"f#	c #6E7C9E",
"g#	c #A8A8C8",
"h#	c #A5A5C5",
"i#	c #A3A3C3",
"j#	c #9F9FC0",
"k#	c #9C9CBD",
"l#	c #9999BB",
"m#	c #9696B8",
"n#	c #9393B6",
"o#	c #9090B3",
"p#	c #8C8CB1",
"q#	c #8989AE",
"r#	c #8686AB",
"s#	c #8484A9",
"t#	c #8181A6",
"u#	c #7D7DA4",
"v#	c #7A7AA1",
"w#	c #9595B0",
"x#	c #25335D",
"y#	c #223059",
"z#	c #181B44",
"A#	c #060641",
"B#	c #494C7A",
"C#	c #919CB6",
"D#	c #697699",
"E#	c #D2D2DD",
"F#	c #C3C3D5",
"G#	c #C0C0D2",
"H#	c #BCBCCF",
"I#	c #B8B8CD",
"J#	c #B4B4CA",
"K#	c #B1B1C7",
"L#	c #ADADC4",
"M#	c #A9A9C1",
"N#	c #A6A6BF",
"O#	c #A2A2BC",
"P#	c #9E9EB9",
"Q#	c #9B9BB6",
"R#	c #9797B3",
"S#	c #9494B1",
"T#	c #9090AE",
"U#	c #8D8DAB",
"V#	c #9090AC",
"W#	c #212F58",
"X#	c #1E2C56",
"Y#	c #141841",
"Z#	c #050540",
"`#	c #444776",
" $	c #8D97B2",
".$	c #637194",
"+$	c #C9C9D7",
"@$	c #C5C5D4",
"#$	c #C1C1D1",
"$$	c #BDBDCE",
"%$	c #B9B9CB",
"&$	c #B5B5C9",
"*$	c #B1B1C6",
"=$	c #AAAAC0",
"-$	c #A6A6BD",
";$	c #9B9BB4",
">$	c #9393AF",
",$	c #8F8FAC",
"'$	c #8B8BA9",
")$	c #1D2C55",
"!$	c #11143D",
"~$	c #040440",
"{$	c #3E3E70",
"]$	c #8184A1",
"^$	c #595C82",
"/$	c #54587E",
"($	c #AAAAB6",
"_$	c #A7A7B4",
":$	c #A3A3B1",
"<$	c #A0A0AF",
"[$	c #9D9DAC",
"}$	c #9999AA",
"|$	c #9696A8",
"1$	c #9393A5",
"2$	c #8F8FA2",
"3$	c #8C8CA0",
"4$	c #89899E",
"5$	c #86869B",
"6$	c #838399",
"7$	c #7F7F96",
"8$	c #7C7C94",
"9$	c #797991",
"0$	c #75758F",
"a$	c #72728C",
"b$	c #12163D",
"c$	c #10143C",
"d$	c #0C0D35",
"e$	c #2F2F64",
"f$	c #202058",
"g$	c #2A2A5E",
"h$	c #27275C",
"i$	c #26265B",
"j$	c #25255A",
"k$	c #24245A",
"l$	c #232359",
"m$	c #222258",
"n$	c #212158",
"o$	c #202057",
"p$	c #202056",
"q$	c #1F1F56",
"r$	c #1E1E55",
"s$	c #1D1D55",
"t$	c #1C1C54",
"u$	c #1C1C53",
"v$	c #1B1B53",
"w$	c #04043F",
"                                                                ",
"                                                                ",
"                                                                ",
"        . + @                                     # $           ",
"      % & * = - ; > , ' ) ! ~ { ] ^ / ( _ : < [ } | 1 2         ",
"      3 4 5 6 @ 7 8 9 6 0 0 0 0 0 0 0 a a a a 0 0 b c d e       ",
"      f g a h i 9 j k 6 0 0 0 0 0 0 0 l m n o 0 0 p q r s       ",
"      t j u v w k a x 6 0 0 0 0 0 0 0 y z A B 0 0 C D E F       ",
"      G H I J K x L M 6 0 0 0 0 0 0 0 N O P q 0 0 Q R S T       ",
"      U V W X Y M Z ` 6 0 0 0 0 0 0 0 o  ...+.0 0 @.#.$.%.      ",
"      &.*.=.-.;.` >.,.6 0 0 0 0 0 0 0 0 0 0 0 '.).!.~.{.].      ",
"      ^./.(._.:.<.[.V 6 *.}./.|.1.L 2.W M X 3.4.5.6.7.8.9.      ",
"      0.a.b.c.d.e.f.g.h.i.j.k.l.m.c n.o.p.q.r.s.t.u.v.w.x.      ",
"      y.z.A.B.C.D.E.F.G.H.I.J.K.p q  .L.M.N.O.P.Q.R.S.T.U.      ",
"      V.M W.X.Y.Z.`. +.+++@+#+$+%+&+*+=+!.-+;+>+,+'+)+!+~+      ",
"      {+]+^+/+(+_+| A.:+<+[+}+|+1+2+3+4+5+6+7+8+9+0+a+b+c+      ",
"      d+-.g.F.0 0 0 e+f+g+).h+i+j+k+l+m+n+o+p+q+r+s+t+u+v+      ",
"      w+x+`.G.0 0 y+z+A+B+C+D+E+F+G+H+I+J+K+L+M+N+O+P+Q+R+      ",
"      S+|  +.+T+U+V+W+X+Y+Z+`+ @.@+@@@#@$@%@&@*@=@-@;@>@,@      ",
"      '@)@!@~@{@]@^@/@(@_@:@<@[@}@|@1@2@3@4@5@6@7@8@9@0@a@      ",
"      b@B.J.c@d@e@f@g@h@i@j@k@l@m@n@o@p@q@r@s@t@u@v@w@x@y@      ",
"      z@A@B@C@D@E@F@G@H@I@J@K@L@M@N@O@P@Q@R@S@T@U@V@W@X@Y@      ",
"      Z@g.`@ #Y+.#+#@###$#%#&#*#=#-#;#>#,#'#)#!#~#{#]#^#/#      ",
"      (#_#:#<#j+k+l+m+n+[#}#q+r+|#1#2#3#4#5#6#7#8#9#0#a#b#      ",
"      c#d#e#f#F+g#h#i#j#k#l#m#n#o#p#q#r#s#t#u#v#w#x#y#z#A#      ",
"      B#C#=+D#E#F#G#H#I#J#K#L#M#N#O#P#Q#R#S#T#U#V#W#X#Y#Z#      ",
"      `# $5 .$+@+$@$#$$$%$&$*$7@=$-$6#~#;$, >$,$'$)$5 !$~$      ",
"      {$]$^$/$($_$:$<$[$}$|$1$2$3$4$5$6$7$8$9$0$a$b$c$d$5       ",
"        e$f$F g$h$h$i$j$k$l$l$m$n$o$p$q$r$s$t$u$v$w$w$5         ",
"                                                                ",
"                                                                ",
"                                                                "};
