/* XPM */
static char*borderleft[]={
"20 20 2 1",
"# c #000000",
". c None",
"....................",
"....................",
"....................",
"....................",
"...##.#.#.#.#.#.#...",
"...##...............",
"...##...........#...",
"...##...............",
"...##...........#...",
"...##...............",
"...##...........#...",
"...##...............",
"...##...........#...",
"...##...............",
"...##...........#...",
"...##...............",
"...##.#.#.#.#.#.#...",
"....................",
"....................",
"...................."};
