/* XPM */
static char*edittool[]={
"20 20 3 1",
"# c #000000",
". c None",
"a c #ffffff",
"....................",
"........##.##.......",
"..........#.........",
"..........#.........",
"..........#.........",
"...####...#.........",
"......##..#.........",
"......##..#.........",
"...#####..#.........",
"..##..##..#.........",
"..##..##..#.##......",
"..##..##..#.#a#.....",
"...###.###.##aa#....",
"............#aaa#...",
"............#aaaa#..",
"............#aaaa##.",
"............#a#a#...",
"............####a#..",
"............#..#a#..",
"................##.."};
