/* XPM */
static char*editframetool[]={
"20 20 5 1",
"c c #808080",
"# c #000000",
". c None",
"a c #dcdcdc",
"b c #ffffff",
"....................",
".###ab#####ba###....",
".#babababababab#c...",
".#ababababababa#c...",
".abababababababac...",
".babababababababc...",
".#babababababab#c...",
".#ababababababa#c...",
".#babababababab#c...",
".#ababababababa#c...",
".abababababa##bac...",
".bababababab#b#bc...",
".#bababababa#bb#c...",
".#ababababab#bbb#...",
".###ba#####a#bbbb#..",
"..cccccccccc#bbbb##.",
"............#b#b#...",
"............####b#..",
"............#..#b#..",
"................##.."};
