/* XPM */
static char * run_contur_xpm[] = {
"40 41 64 1",
" 	c #000000000000",
".	c #FFFFFBEEFFFF",
"X	c #D75CD34CD75C",
"o	c #186118611861",
"O	c #CF3CCB2BCF3C",
"+	c #28A228A228A2",
"@	c #208120812081",
"#	c #AEBAAAAAAEBA",
"$	c #104010401040",
"%	c #A699A2899658",
"&	c #38E338E338E3",
"*	c #71C671C671C6",
"=	c #104010400000",
"-	c #69A669A669A6",
";	c #861782078617",
":	c #30C230C230C2",
">	c #F7DEF3CEF7DE",
",	c #208138E338E3",
"<	c #514451444924",
"1	c #C71BC30BC71B",
"2	c #EFBEEBADEFBE",
"3	c #410341031861",
"4	c #CF3CCB2B0000",
"5	c #E79DEBAD0000",
"6	c #9E799A6938E3",
"7	c #79E779E75144",
"8	c #79E779E70000",
"9	c #DF7DDB6C0000",
"0	c #F7DEF3CE0000",
"q	c #A699A2890000",
"w	c #B6DAB2CA1861",
"e	c #965892489658",
"r	c #79E779E779E7",
"t	c #9E799A69A699",
"y	c #8E388A288617",
"u	c #4103410338E3",
"i	c #E79DE38DE79D",
"p	c #514471C671C6",
"a	c #B6DAB2CAB6DA",
"s	c #BEFBBAEABEFB",
"d	c #618561856185",
"f	c #FFFFFBEEEFBE",
"g	c #596559655965",
"h	c #618561850820",
"j	c #618561852081",
"k	c #CF3CCB2BC71B",
"l	c #EFBEEBAD0000",
"z	c #BEFBBAEA0000",
"x	c #79E779E76185",
"c	c #FFFFFBEEDF7D",
"v	c #596559655144",
"b	c #965892480000",
"n	c #30C230C20000",
"m	c #AEBAAAAA0000",
"M	c #208120810000",
"N	c #71C679E779E7",
"B	c #BEFBBAEA0820",
"V	c #9E79A2890820",
"C	c #96589A6979E7",
"Z	c #5965596530C2",
"A	c #C71BC30B0000",
"S	c #514451440000",
"D	c #B6DAB2CAAEBA",
"F	c #492449240000",
"                                        ",
" ...................................... ",
"                                        ",
" ...................................... ",
" ...................................... ",
"                                        ",
" ...................................... ",
" ...................................... ",
"       .Xo  oX.                         ",
" ......O+   @+O........................ ",
" ......#    $ %........................ ",
"      .#&*=-; :>                        ",
" ......#+O,<1  2....................... ",
" ......#34567  2....................... ",
"      .#8909q  2.                       ",
" ......#<w46%: e....................... ",
" .....>rete1>y=+2...................... ",
"     .*u222>.X:=-i.                     ",
" ....#o%.....ip  y..................... ",
" ...2<:2.....>ao  >.................... ",
"   .s=e.......>d  t.                    ",
" ...*&i..f.....r  &.................... ",
" ..> g2..f.....y  &.................... ",
"   > gi...ff..>;  &.                    ",
" ..%hjyi......O-  h1................... ",
" ku8lzjx2.c.c2t6uvbx................... ",
" n4lzzmMN>>..X;B4l98y.                  ",
" nzzzzzVC>f.>rZzAAAmM.................. ",
" 3bmzzzb7eeeg=SzAz83D.................. ",
" XjFqqqS      Sqqh-a.                   ",
" .XaMMM=-aaaaaZMM;..................... ",
" ...................................... ",
"                                        ",
" ...................................... ",
" ...................................... ",
"                                        ",
" ...................................... ",
" ...................................... ",
"                                        ",
" ...................................... ",
"                                        "};
