/* XPM */
static char*sl_delrecord[]={
"20 20 7 1",
"b c #a0a0a0",
"# c #000000",
"c c #ffdca8",
"d c #0000ff",
". c None",
"a c #ffffff",
"e c #ff0000",
"....................",
"....................",
".....############...",
".....##aaaaaaaa##...",
".....#a#aaaaaa#a#...",
".....baa#aaaa#aa#...",
"...#####a####a#a#...",
"..#######aaaaaa##...",
"..########aaaaaa#...",
"...#cc####b######...",
"...cdccc##..........",
"..#ccccc##..ee..ee..",
".###cccc##..ee.eee..",
"...#cccc##...eeee...",
"...##ccc#.....ee....",
".....#cc.....eee....",
"............ee..e...",
"............e...e...",
"....................",
"...................."};
