/* XPM */
static char*index0[]={
"22 22 3 1",
"# c #000000",
". c None",
"a c #ff0000",
"......................",
".#......#.............",
"..#....#..............",
"...#..#...............",
"....##................",
"....##................",
"...#..#...............",
"..#....#..............",
".#......#.............",
".........aaaaaaaaaaaa.",
".........a..........a.",
".........a..........a.",
".........a..........a.",
".........a..........a.",
".........a..........a.",
".........a..........a.",
".........a..........a.",
".........a..........a.",
".........a..........a.",
".........a..........a.",
".........aaaaaaaaaaaa.",
"......................"};
