/* XPM */
static char * table_xpm[] = {
"22 22 5 1",
" 	c None",
".	c #000000",
"+	c #A0A0A4",
"@	c #FFFFFF",
"#	c #C0C0C0",
".................     ",
".+++.+++.+++.+++.     ",
".+++.+++.+++.+++.     ",
".................     ",
".@@@.@@@.@@@.@@@.     ",
".@@@.@@@.@@@.@@@.     ",
".................     ",
".@@@.@@@.@@@.@@@.     ",
".@@@.@@@.@@@.@@@.     ",
".................     ",
".@@@.@@@.@@@.@@@.     ",
".@@@.@@@.@@@.@@@.     ",
".................     ",
"               .......",
"                ..... ",
"                 ...  ",
"                  .   ",
"......................",
".@@@@@@@@@@@@@@@@@@@+.",
".@##################+.",
".++++++++++++++++++++.",
"......................"};
