/* XPM */
static char * unsotedList_xpm[] = {
"22 22 3 1",
" 	c None",
".	c #00000000FFFF",
"X	c #000000000000",
"                      ",
"                      ",
"  ...                 ",
"  ... XXXXXXXXXXXXXX  ",
"  ...                 ",
"                      ",
"                      ",
"  ...                 ",
"  ... XXXXXXXXXXXXXX  ",
"  ...                 ",
"                      ",
"                      ",
"  ...                 ",
"  ... XXXXXXXXXXXXXX  ",
"  ...                 ",
"                      ",
"                      ",
"  ...                 ",
"  ... XXXXXXXXXXXXXX  ",
"  ...                 ",
"                      ",
"                      "};
