/* XPM */
/* Drawn  by Mark Donohoe for the K Desktop Environment */
/* See http://www.kde.org */
static char*add_point[]={
"22 22 5 1",
"a c #000000",
"b c #ffffff",
"# c #a0a0a4",
"c c #dcdcdc",
". c None",
"......................",
"......................",
"........#aaaaaa#......",
"......aaa......a......",
".....a.........a#.....",
"....a.........aaa#....",
"....a........abaca#...",
"...a.........ababa#...",
"...a.........ababa#...",
"..aaa.......abcacca#..",
"..aaa#......abcacca#..",
"..aaa#.....abcaaacca#.",
"...a##.....abc#a#cca#.",
"...a........accccca##.",
"...a.........accca##..",
"...a.........aaaaa#...",
"...a.........a#aaa#...",
"..a..........a#aaa#...",
"..a..........a#aaa#...",
".a...........a#aaa#...",
"..............#####...",
"......................"};

