/* XPM */
static const char * rn_xpm[] = {
"7 4 2 1",
" 	c None",
".	c #000000",
" .. .. ",
".  .  .",
".  .  .",
" .. .. "};
