/* XPM */
static char *Start[]={
"32 32 4 1",
"b c #000000",
"# c #808080",
"a c #c0c0c0",
". c #f8fcf8",
"...............................#",
".#############################.#",
".#aaaaaaaaaaaaaaaaaaaaaaaaaaaa.#",
".#aaaaaaaaaaaaaaaaaaaaaaaaaaaa.#",
".#aaaaaaaaaaaaaaaaaaaaaaaaaaaa.#",
".#aaaaaaaaaaaaaaaaaaaaaaaaaaaa.#",
".#aaaaaaaaaaaaaaaaaaaaaaaaaaaa.#",
".#aaaaaaaaaaabbbbbaaaaaaaaaaaa.#",
".#aaaaaaaaabbbbbbbbbaaaaaaaaaa.#",
".#aaaaaaabbbbbbbbbbbbbaaaaaaaa.#",
".#aaaaaaabbbbbbbbbbbbb#aaaaaaa.#",
".#aaaaaabbbbbbbbbbbbbbbaaaaaaa.#",
".#aaaaaabbbbbbbbbbbbbbb#aaaaaa.#",
".#aaaaabbbbbbbbbbbbbbbbbaaaaaa.#",
".#aaaaabbbbbbbbbbbbbbbbb#aaaaa.#",
".#aaaaabbbbbbbbbbbbbbbbb#aaaaa.#",
".#aaaaabbbbbbbbbbbbbbbbb#aaaaa.#",
".#aaaaabbbbbbbbbbbbbbbbb#aaaaa.#",
".#aaaaaabbbbbbbbbbbbbbb#aaaaaa.#",
".#aaaaaabbbbbbbbbbbbbbb#aaaaaa.#",
".#aaaaaaabbbbbbbbbbbbb#aaaaaaa.#",
".#aaaaaaabbbbbbbbbbbbb#aaaaaaa.#",
".#aaaaaaaaabbbbbbbbb##aaaaaaaa.#",
".#aaaaaaaaaaabbbbb##aaaaaaaaaa.#",
".#aaaaaaaaaaaa####aaaaaaaaaaaa.#",
".#aaaaaaaaaaaaaaaaaaaaaaaaaaaa.#",
".#aaaaaaaaaaaaaaaaaaaaaaaaaaaa.#",
".#aaaaaaaaaaaaaaaaaaaaaaaaaaaa.#",
".#aaaaaaaaaaaaaaaaaaaaaaaaaaaa.#",
".#aaaaaaaaaaaaaaaaaaaaaaaaaaaa.#",
"...............................#",
"################################"};
