<?xml version="1.0" standalone="no"?>
<!DOCTYPE svg PUBLIC "-//W3C//DTD SVG 20010904//EN" "http://www.w3.org/TR/2001/REC-SVG-20010904/DTD/svg10.dtd">
<!-- Created using Karbon14, part of calligra: http://www.calligra.org/karbon -->
<svg xmlns="http://www.w3.org/2000/svg" xmlns:xlink="http://www.w3.org/1999/xlink" width="102.4pt" height="102.4pt">
  <defs>
    <linearGradient id="defitem2" gradientUnits="userSpaceOnUse" gradientTransform="translate(-16, -24.0529)" x1="89.0909" y1="103.897" x2="89.0909" y2="30.8495" spreadMethod="pad" >
      <stop stop-color="#003100" offset="0" stop-opacity="1" />
      <stop stop-color="#008c00" offset="1" stop-opacity="1" />
    </linearGradient>
    <radialGradient id="defitem3" gradientUnits="userSpaceOnUse" gradientTransform="matrix(1.09614 0.0879121 -0.10023 1.24973 -14.94 -46.7403)" cx="53.6334" cy="51.9196" fx="53.6334" fy="51.9196" r="52" spreadMethod="pad" >
      <stop stop-color="#ffffff" offset="0" stop-opacity="1" />
      <stop stop-color="#ffffff" offset="1" stop-opacity="0" />
    </radialGradient>
    <radialGradient id="defitem4" gradientUnits="userSpaceOnUse" gradientTransform="matrix(1.96467 3.4243e-07 -1.04145e-06 5.97527 -192.991 -170.179)" cx="99.7656" cy="29.3749" fx="99.7656" fy="29.3749" r="3.01562" spreadMethod="pad" >
      <stop stop-color="#f0ff80" offset="0" stop-opacity="1" />
      <stop stop-color="#f0ff80" offset="1" stop-opacity="0" />
    </radialGradient>
    <radialGradient id="defitem5" gradientUnits="userSpaceOnUse" gradientTransform="matrix(1.96467 3.4243e-07 -1.04145e-06 5.97527 -192.991 -170.179)" cx="99.7656" cy="29.3749" fx="99.7656" fy="29.3749" r="3.01562" spreadMethod="pad" >
      <stop stop-color="#ffffff" offset="0" stop-opacity="1" />
      <stop stop-color="#ffffff" offset="1" stop-opacity="0" />
    </radialGradient>
    <radialGradient id="defitem6" gradientUnits="userSpaceOnUse" gradientTransform="matrix(1.96467 3.4243e-07 -1.04145e-06 5.97527 -192.991 -170.179)" cx="99.7656" cy="29.3749" fx="99.7656" fy="29.3749" r="3.01562" spreadMethod="pad" >
      <stop stop-color="#ffffff" offset="0" stop-opacity="1" />
      <stop stop-color="#ffffff" offset="1" stop-opacity="0" />
    </radialGradient>
    <radialGradient id="defitem7" gradientUnits="userSpaceOnUse" gradientTransform="matrix(1.96467 3.4243e-07 -1.04145e-06 5.97527 -192.991 -170.179)" cx="99.7656" cy="29.3749" fx="99.7656" fy="29.3749" r="3.01562" spreadMethod="pad" >
      <stop stop-color="#ffffff" offset="0" stop-opacity="1" />
      <stop stop-color="#ffffff" offset="1" stop-opacity="0" />
    </radialGradient>
    <radialGradient id="defitem8" gradientUnits="userSpaceOnUse" gradientTransform="matrix(1.96467 3.4243e-07 -1.04145e-06 5.97527 -192.991 -170.179)" cx="99.7656" cy="29.3749" fx="99.7656" fy="29.3749" r="3.01562" spreadMethod="pad" >
      <stop stop-color="#ffffff" offset="0" stop-opacity="1" />
      <stop stop-color="#ffffff" offset="1" stop-opacity="0" />
    </radialGradient>
    <radialGradient id="defitem9" gradientUnits="userSpaceOnUse" gradientTransform="matrix(0.564662 8.53233e-08 -1.3866e-07 0.91764 8.4242 -27.909)" cx="52.7919" cy="95.4593" fx="53.1599" fy="87.0809" r="52" spreadMethod="pad" >
      <stop stop-color="#001400" offset="0" stop-opacity="1" />
      <stop stop-color="#001400" offset="1" stop-opacity="0" />
    </radialGradient>
    <radialGradient id="defitem10" gradientUnits="userSpaceOnUse" gradientTransform="matrix(1.31172 5.84702e-08 -4.38526e-08 0.983793 -32.906 -26.7391)" cx="54.5376" cy="77.5421" fx="54.5376" fy="99.8838" r="48" spreadMethod="pad" >
      <stop stop-color="#66f515" offset="0" stop-opacity="1" />
      <stop stop-color="#002e00" offset="1" stop-opacity="1" />
    </radialGradient>
    <linearGradient id="defitem11" gradientUnits="userSpaceOnUse" gradientTransform="translate(-16, -24.0625)" x1="83.3247" y1="24.0625" x2="83.3247" y2="89.9945" spreadMethod="pad" >
      <stop stop-color="#bfffbf" offset="0" stop-opacity="1" />
      <stop stop-color="#bfffbf" offset="1" stop-opacity="0" />
    </linearGradient>
    <linearGradient id="defitem12" gradientUnits="userSpaceOnUse" gradientTransform="translate(-16, -28.0529)" x1="71.6039" y1="96.884" x2="71.6039" y2="47.3787" spreadMethod="pad" >
      <stop stop-color="#f0ff80" offset="0" stop-opacity="1" />
      <stop stop-color="#f0ff80" offset="1" stop-opacity="0" />
    </linearGradient>
    <linearGradient id="defitem13" gradientUnits="userSpaceOnUse" gradientTransform="translate(-32.1562, -28.0625)" x1="87.5333" y1="74.8386" x2="77.1377" y2="46.2771" spreadMethod="pad" >
      <stop stop-color="#ffffff" offset="0" stop-opacity="1" />
      <stop stop-color="#ffffff" offset="1" stop-opacity="0" />
    </linearGradient>
    <linearGradient id="defitem14" gradientUnits="userSpaceOnUse" gradientTransform="translate(-16, -24.0625)" x1="83.3247" y1="24.0625" x2="83.3247" y2="69.8378" spreadMethod="pad" >
      <stop stop-color="#ffffff" offset="0" stop-opacity="1" />
      <stop stop-color="#ffffff" offset="1" stop-opacity="0" />
    </linearGradient>
  </defs>
  <g id="layer1">
    <rect id="defitem0" transform="matrix(1 0 0 1 3.25767 3.72213)" fill="#a0a0a0" fill-opacity="1" fill-rule="evenodd" stroke="#000000" stroke-opacity="1" stroke-width="7.08663" stroke-linecap="square" stroke-linejoin="miter" stroke-miterlimit="2" width="97.147pt" height="97.1063pt" rx="14.9854pt" ry="14.9792pt"/>
    <rect id="defitem1" transform="matrix(1 0 0 1 21.7124 22.9883)" fill="#ffffff" fill-opacity="1" fill-rule="evenodd" stroke="#000000" stroke-opacity="1" stroke-width="7.08663" stroke-linecap="square" stroke-linejoin="miter" stroke-miterlimit="2" width="67.1638pt" height="67.1357pt" rx="10.3604pt" ry="10.356pt"/>
    <g id="g2358" transform="translate(10.2724, 17.776)">
      <path id="path3503" fill="none" stroke="#004d00" stroke-opacity="1" stroke-width="8.1" stroke-linecap="square" stroke-linejoin="round" d="M38.2943 45.7834C30.1674 37.4908 12.5981 19.5613 12.5981 19.5613L0 32.42L38.2943 71.5034L95.7507 12.8578L83.1508 0C83.1508 0 47.9804 35.8981 38.2943 45.7834Z"  transform="translate(5.72756, 5.72756)" />
      <path id="path2365" fill="none" stroke="url(#defitem2)" stroke-opacity="1" stroke-width="8" stroke-linecap="square" stroke-linejoin="round" d="M38.2943 45.7834C30.1674 37.4908 12.5981 19.5613 12.5981 19.5613L0 32.42L38.2943 71.5034L95.7507 12.8578L83.1508 0C83.1508 0 47.9804 35.8981 38.2943 45.7834Z"  transform="translate(5.72756, 5.72756)" />
      <path id="path3509" fill="none" stroke="url(#defitem3)" stroke-opacity="1" stroke-width="8" stroke-linecap="square" stroke-linejoin="round" d="M38.2943 45.7834C30.1674 37.4908 12.5981 19.5613 12.5981 19.5613L0 32.42L38.2943 71.5034L95.7507 12.8578L83.1508 0C83.1508 0 47.9804 35.8981 38.2943 45.7834Z"  transform="translate(5.72756, 5.72756)" />
      <path id="path3455" fill="url(#defitem4)" fill-rule="nonzero" d="M2.56328 0.000197123C2.41864 -0.00208672 2.28672 0.0159456 2.14109 0.0298852C1.34286 0.107835 0.6016 0.435621 0 0.950216L1.62844 10.1535C1.73547 10.0455 2.44904 9.34773 2.53313 9.26288L2.895 9.61914L5.82016 1.69242L5.27734 1.15803C4.56194 0.436404 3.57577 0.0161869 2.56328 0.000197123Z"  transform="matrix(1 0 0 -1 41.4776 81.3934)" />
      <path id="path3290" fill="url(#defitem5)" fill-rule="nonzero" d="M2.56328 0.000197123C2.41864 -0.00208672 2.28672 0.0159456 2.14109 0.0298852C1.34286 0.107835 0.6016 0.435621 0 0.950216L1.62844 10.1535C1.73547 10.0455 2.44904 9.34773 2.53313 9.26288L2.895 9.61914L5.82016 1.69242L5.27734 1.15803C4.56194 0.436404 3.57577 0.0161869 2.56328 0.000197123Z"  transform="matrix(-0.34202 0.939693 0.939693 0.34202 3.42869 34.6058)" />
      <path id="path3286" fill="url(#defitem6)" fill-rule="nonzero" d="M2.56328 0.000197123C2.41864 -0.00208672 2.28672 0.0159456 2.14109 0.0298852C1.34286 0.107835 0.6016 0.435621 0 0.950216L1.62844 10.1535C1.73547 10.0455 2.44904 9.34773 2.53312 9.26288L2.895 9.61914L5.82016 1.69242L5.27734 1.15803C4.56194 0.436404 3.57577 0.0161869 2.56328 0.000197123Z"  transform="translate(15.4776, 21.7057)" />
      <path id="path3254" fill="url(#defitem7)" fill-rule="nonzero" d="M2.56328 0.000197123C2.41864 -0.00208672 2.28672 0.0159456 2.14109 0.0298852C1.34286 0.107835 0.6016 0.435621 0 0.950216L1.62844 10.1535C1.73547 10.0455 2.44904 9.34773 2.53313 9.26288L2.895 9.61914L5.82016 1.69242L5.27734 1.15803C4.56194 0.436404 3.57577 0.0161869 2.56328 0.000197123Z"  transform="matrix(0.34202 0.939693 -0.939693 0.34202 104.77 14.6058)" />
      <path id="path2989" fill="url(#defitem8)" fill-rule="nonzero" d="M2.56328 0.000197123C2.41864 -0.00208672 2.28672 0.0159456 2.14109 0.0298852C1.34286 0.107835 0.6016 0.435621 0 0.950216L1.62844 10.1535C1.73547 10.0455 2.44904 9.34773 2.53312 9.26288L2.895 9.61914L5.82016 1.69242L5.27734 1.15803C4.56194 0.436404 3.57577 0.0161869 2.56328 0.000197123Z"  transform="translate(86.4776, 1.70569)" />
      <path id="path2979" fill="none" stroke="url(#defitem9)" stroke-opacity="1" stroke-width="8" stroke-linecap="square" stroke-linejoin="round" d="M38.2943 45.7834C30.1674 37.4908 12.5981 19.5613 12.5981 19.5613L0 32.42L38.2943 71.5034L95.7507 12.8578L83.1508 0C83.1508 0 47.9804 35.8981 38.2943 45.7834Z"  transform="translate(5.72756, 5.72756)" />
      <path id="path24" fill="url(#defitem10)" fill-rule="nonzero" d="M38.2943 45.7834C30.1674 37.4908 12.5981 19.5613 12.5981 19.5613L0 32.42L38.2943 71.5034L95.7507 12.8578L83.1508 0C83.1508 0 47.9804 35.8981 38.2943 45.7834Z"  transform="translate(5.72756, 5.72756)" />
      <path id="path2964" fill="url(#defitem11)" fill-rule="nonzero" d="M83.1584 0C83.1584 0 47.9926 35.7785 38.3065 45.633C30.1797 37.3662 12.5922 19.4907 12.5922 19.4907L0 32.2989L16.426 49.0052C16.6144 49.0057 16.7984 49.0052 16.987 49.0052C34.4712 49.0052 51.0346 46.933 65.8909 43.2199L95.7507 12.8082Z"  transform="translate(5.72756, 5.73719)" />
      <path id="path3413" fill="none" stroke="url(#defitem12)" stroke-opacity="1" stroke-width="1.25" stroke-linecap="square" stroke-linejoin="miter" stroke-miterlimit="2" d="M38.2943 45.7834C30.1674 37.4908 12.5981 19.5613 12.5981 19.5613L0 32.42L38.2943 71.5034L95.7507 12.8578L83.1508 0C83.1508 0 47.9804 35.8981 38.2943 45.7834Z"  transform="translate(5.72756, 5.72756)" />
      <path id="path3427" fill="url(#defitem13)" fill-rule="nonzero" d="M67.0875 0C67.0875 0 66.688 0.42703 66.682 0.433127L78.8457 12.5916L48.9043 42.5083C34.0062 46.1591 17.9077 48.6649 0.374268 48.6649C0.248159 48.6649 0.124665 48.6649 0 48.6649L0.31189 49.0052C0.500432 49.0057 0.684538 49.0052 0.873291 49.0052C18.3688 49.0052 34.9429 46.933 49.8088 43.2199L79.6878 12.8082Z"  transform="translate(21.8838, 5.73719)" />
      <path id="path3444" fill="url(#defitem14)" fill-rule="nonzero" d="M83.1584 0C83.1584 0 47.9926 35.8307 38.3065 45.6995C30.1797 37.4207 12.5922 19.5191 12.5922 19.5191L0 32.346L0.498701 32.8417L12.5922 20.5106C12.5922 20.5106 30.1797 38.4121 38.3065 46.691C47.9926 36.8221 83.1584 0.991447 83.1584 0.991447L95.2519 13.3226L95.7506 12.8269Z"  transform="translate(5.72756, 5.73719)" />
    </g>
  </g>
</svg>
