/* XPM */
static const char *magick[] = {
/* columns rows colors chars-per-pixel */
"16 16 3 1",
"  c Gray0",
". c #808080",
"X c None",
/* pixels */
"XXXXXXXXXXXXXXXX",
"XXXXXXXXXXXXXXXX",
"XXXXXXXXXXXXXXXX",
"XXXXXXXX     XXX",
"XXXXXXXXX  .XXXX",
"XXXXXXXX.  XXXXX",
"XXXXXXXX  .XXXXX",
"XXXXXXX.  XXXXXX",
"XXXXXXX  .XXXXXX",
"XXXXXX.  XXXXXXX",
"XXXXXX  .XXXXXXX",
"XXXX      XXXXXX",
"XXXXXXXXXXXXXXXX",
"XXXXXXXXXXXXXXXX",
"XXXXXXXXXXXXXXXX",
"XXXXXXXXXXXXXXXX"
};
