/* XPM */
static const char *magick[] = {
/* columns rows colors chars-per-pixel */
"16 16 3 1",
"  c Gray0",
". c #808080",
"X c None",
/* pixels */
"XXXXXXXXXXXXXXXX",
"XXXXXXXXXXXXXXXX",
"XXXXXXXXXXXXXXXX",
"XXX    X    XXXX",
"XXXX  XXX  XXXXX",
"XXXX  XXX  XXXXX",
"XXXX  XXX  XXXXX",
"XXXX  XXX  XXXXX",
"XXXX  XXX  XXXXX",
"XXXX  XXX  XXXXX",
"XXXX  .X.  XXXXX",
"XXXXX     XXXXXX",
"XXXXXXXXXXXXXXXX",
"XXX         XXXX",
"XXXXXXXXXXXXXXXX",
"XXXXXXXXXXXXXXXX"
};
