/* XPM */
static char *magick[] = {
/* columns rows colors chars-per-pixel */
"16 16 3 1",
"  c Gray0",
". c #808080",
"X c None",
/* pixels */
"XXXXXXXXXXXXXXXX",
"XXXXXXXXXXXXXXXX",
"XXXXXX. . . . .X",
"XXXXX. .XXXXXX X",
"XXXXX   XXXXX   ",
"XXXX.   .XXXXX X",
"XXXX  .  XXXXX X",
"XXX. .X  .XXXX X",
"XXX  XX.  XXXX X",
"XX.       .XXX X",
"XX  XXXX.  XXX X",
"X. XXXXXX  .X   ",
"    XXXX     X X",
"XXXXXXXXXXXXXXXX",
"XXXXXXXXXXXXXXXX",
"XXXXXXXXXXXXXXXX"
};
