/* XPM */
static char * group_xpm[] = {
"16 16 9 1",
" 	c None",
".	c #000000",
"+	c #FFFFFF",
"@	c #96A1E8",
"#	c #DDA6A6",
"$	c #0022FF",
"%	c #D80D0D",
"&	c #AFEAAF",
"*	c #09F409",
"................",
".              .",
".         ..+  .",
". .....  .@@.+ .",
". .###.+.@$$$.+.",
". .#%%.+.@$$$.+.",
". .#%%.+ .$$.+ .",
". .....+  ..+  .",
".  ++++.+      .",
".     .&.+     .",
".    .&**.+    .",
".   .&****.+   .",
".  .........+  .",
".   +++++++++  .",
".              .",
"................"};
