/* XPM */
static const char *magick[] = {
/* columns rows colors chars-per-pixel */
"15 12 3 1",
"  c Gray0",
". c #c0c0c0",
"X c None",
/* pixels */
"XXXXXX       XX",
"XXXXX XXXXXX XX",
"XXXXX X   X XXX",
"XXXX XXXXXX XXX",
"XXXX X   X   XX",
"XXX XXXXXX .  X",
"XX        . . X",
"X ........ .  X",
"X           . X",
"X ......... . X",
"X .....XX..  XX",
"XX          XXX"
};
