/* XPM */
static char * view_ruler_xpm[] = {
"22 22 5 1",
" 	c None",
".	c #EDEDED",
"+	c #000000",
"@	c #BEBEBE",
"#	c #FFFFFF",
"++++++++++++++++++++++",
"+@+@+@+@+@+@+@+@+@+@+@",
"++@@+@@@+@@@+@@@+@@@+@",
"+@@@@@@@+@@@@@@@+@@@@@",
"+++@@@@@@@@@@@@@@@@@@@",
"+@@@@.................",
"++@@@.                ",
"+@@@@.                ",
"++++@.                ",
"+@@@@.                ",
"++@@@.                ",
"+@@@@.                ",
"+++@@.                ",
"+@@@@.                ",
"++@@@.                ",
"+@@@@.                ",
"++++@.                ",
"+@@@@.                ",
"++@@@.                ",
"+@@@@.                ",
"+++@@.                ",
"+@@@@..               "};
