/* XPM */
static char * open_stencilset_xpm[] = {
"22 22 7 1",
" 	c None",
".	c #000000",
"+	c #CC0000",
"@	c #17A500",
"#	c #0B00A5",
"$	c #0C01A5",
"%	c #0D02A6",
"                      ",
"      .      ........ ",
"     .+.     .@@@@@@. ",
"    .+++.    .@@@@@@. ",
"   .+++++.   .@@@@@@. ",
"  .+++++++.  .@@@@@@. ",
" .+++++++++. .@@@@@@. ",
"  .+++++++.  .@@@@@@. ",
"   .+++++.   ........ ",
"    .+++.             ",
"     .+.              ",
"      .      .........",
"             .       .",
"             .   .   .",
"      .      .   .   .",
"     .#.     . ..... .",
"    .###.    .   .   .",
"   .####$.   .   .   .",
"  .#####%#.  .       .",
" ........... .........",
"                      ",
"                      "};
