/* XPM */
static char * view_margins_xpm[] = {
"22 22 129 2",
"  	c None",
". 	c #2B2A2B",
"+ 	c #ABACAB",
"@ 	c #878687",
"# 	c #A2A1A2",
"$ 	c #1A191A",
"% 	c #DCE3DE",
"& 	c #020102",
"* 	c #343234",
"= 	c #D6DBD7",
"- 	c #BBBBBB",
"; 	c #656565",
"> 	c #0D0C0D",
", 	c #171617",
"' 	c #828282",
") 	c #706F70",
"! 	c #222222",
"~ 	c #111111",
"{ 	c #393739",
"] 	c #201F20",
"^ 	c #252525",
"/ 	c #FCFEFC",
"( 	c #8B8B8B",
"_ 	c #F0F0F0",
": 	c #8B898B",
"< 	c #131414",
"[ 	c #DFE6E1",
"} 	c #919191",
"| 	c #A6A5A6",
"1 	c #ABAFAB",
"2 	c #B3B3B3",
"3 	c #E1E3E2",
"4 	c #676767",
"5 	c #E1E0E1",
"6 	c #828882",
"7 	c #DCE0DE",
"8 	c #C6CCC6",
"9 	c #898989",
"0 	c #C7CBC8",
"a 	c #232423",
"b 	c #C4C4C4",
"c 	c #686868",
"d 	c #CCCBCC",
"e 	c #EAEAEA",
"f 	c #959995",
"g 	c #E8E8E8",
"h 	c #8C8B8C",
"i 	c #515151",
"j 	c #B5BBB5",
"k 	c #BAB9BA",
"l 	c #F5F5F5",
"m 	c #C1BFC1",
"n 	c #FEFFFF",
"o 	c #CDCDCD",
"p 	c #AEB1AE",
"q 	c #F3FAF5",
"r 	c #5D5C5D",
"s 	c #BCBCBC",
"t 	c #FBFEFC",
"u 	c #CACDCA",
"v 	c #9CA19C",
"w 	c #565656",
"x 	c #4D4D4D",
"y 	c #D2D5D3",
"z 	c #939293",
"A 	c #7C827C",
"B 	c #6B696B",
"C 	c #A8ABA8",
"D 	c #A8A8A8",
"E 	c #EAECEB",
"F 	c #E9ECE9",
"G 	c #AFAEAF",
"H 	c #818280",
"I 	c #8F918F",
"J 	c #8D928D",
"K 	c #9F9F9F",
"L 	c #9D9E9E",
"M 	c #D4DAD6",
"N 	c #BCBFBC",
"O 	c #2E2F2E",
"P 	c #565B56",
"Q 	c #252124",
"R 	c #F8F9F8",
"S 	c #D2D0D2",
"T 	c #4F5250",
"U 	c #C9C9C9",
"V 	c #B6B4B6",
"W 	c #FBFDFC",
"X 	c #6F756F",
"Y 	c #151315",
"Z 	c #7C7E7C",
"` 	c #F5FBF8",
" .	c #F7FCF8",
"..	c #DDDDDD",
"+.	c #ECECEC",
"@.	c #D8D8D8",
"#.	c #F0F4F1",
"$.	c #DEDEDE",
"%.	c #BDBDBD",
"&.	c #292729",
"*.	c #7C7EE9",
"=.	c #F6FBF8",
"-.	c #CECDCE",
";.	c #B8B9B8",
">.	c #5A5A5A",
",.	c #969696",
"'.	c #9B9B9B",
").	c #CFD2D0",
"!.	c #DAE0DB",
"~.	c #E0E7E1",
"{.	c #615E61",
"].	c #606260",
"^.	c #EAE9EA",
"/.	c #484C48",
"(.	c #414241",
"_.	c #F7FCF9",
":.	c #FEFFFE",
"<.	c #AFB0AF",
"[.	c #5F5E5F",
"}.	c #FBFFFD",
"|.	c #9DA39D",
"1.	c #545454",
"2.	c #D6D6D6",
"3.	c #040204",
"4.	c #0402DC",
"5.	c #000000",
"6.	c #999999",
"7.	c #FFFFFF",
"8.	c #FFFFFF",
"6.6.6.6.6.6.6.6.6.6.6.6.6.6.6.              ",
"6.7.7.7.7.7.7.7.7.7.7.7.7.7.6.2.            ",
"6.7.4.7.4.7.4.7.4.7.4.7.4.7.6.2.            ",
"6.7.7.7.7.7.7.7.7.7.7.7.7.7.6.2.            ",
"6.7.4.7.7.7.7.7.7.7.7.7.4.7.6.2.            ",
"6.7.7.7.7.7.7.7.7.7.7.7.7.7.6.2.            ",
"6.7.4.7.7.7.7.7.7.7.7.7.4.c > b   D & s     ",
"6.7.7.7.7.7.7.7.7.7.7.7.@ ; r 2.K ; h ..    ",
"6.7.4.7.7.7.7.7.7.$.-.- & 1.9 G ! $ g   +.U ",
"6.7.7.7.7.7.7.7.7.[., Y 3.> > Y 3.3.] _ # ~ ",
"6.7.4.7.7.7.2 ; ; ~ 5.5.5.3.& 3.3.& 3.w ' | ",
"6.7.7.7.7.%.w * a ] O * > 3.3.3.3.& 5.5.x 5 ",
"6.7.4.7.7.3.) N A X v <.&.5.3.3.3.& 5.5.3.. ",
"6.7.7.7.7.+ @.7 ( ( C |.^ 5.3.3.& , /.P O , ",
"6.7.4.7.7.7.7.% ' {.>./.~ & 3.3.5.* j 8 ].! ",
"6.7.7.7.7./ 7.[ J a 5.& & 3.3.3.& i }.^.B ^ ",
"6.7.4.7.7.=.t R % &.5.5.5.3.5.5.Q L n 4 * ) ",
"6.7.7.7.7._. .7.7.,.T ! 5.5.5.(.'.E 3 , { d ",
"6.7.4.7.4.7.*.` / 7.~.A . < { ;.q #.V . z   ",
"6.7.7.7.7.7.:.W / 7.7.F = M y S 1 f : # e   ",
"6.6.6.6.6.6.6.L o 0 u _ !.= ).+ H ' k l     ",
"  2.2.2.2.2.2.2.2.p I m J Z @ 6 } -         "};
