/* XPM */
static char * open_stencilset_xpm[] = {
"32 32 5 1",
" 	c None",
".	c #000000",
"+	c #17A500",
"@	c #CC0000",
"#	c #0B00A5",
"                                ",
"                   ............ ",
"                   .++++++++++. ",
"         .         .++++++++++. ",
"        .@.        .++++++++++. ",
"       .@@@.       .++++++++++. ",
"      .@@@@@.      .++++++++++. ",
"     .@@@@@@@.     .++++++++++. ",
"    .@@@@@@@@@.    .++++++++++. ",
"   .@@@@@@@@@@@.   .++++++++++. ",
"    .@@@@@@@@@.    .++++++++++. ",
"     .@@@@@@@.     .++++++++++. ",
"      .@@@@@.      .++++++++++. ",
"       .@@@.       ............ ",
"        .@.                     ",
"         .                      ",
"                                ",
"                                ",
"                                ",
"                                ",
"                                ",
"                     .......... ",
"         .           .        . ",
"        .#.          .   ..   . ",
"       .###.         .   ..   . ",
"      .#####.        . ...... . ",
"     .#######.       . ...... . ",
"    .#########.      .   ..   . ",
"   .###########.     .   ..   . ",
"  ...............    .        . ",
"                     .......... ",
"                                "};
