/* XPM */
static const char *magick[] = {
/* columns rows colors chars-per-pixel */
"16 16 8 1",
"  c Gray0",
". c Blue",
"X c #008000",
"o c Yellow",
"O c #808080",
"+ c #c0c0c0",
"@ c None",
"# c Gray100",
/* pixels */
"@@@@@@@@@@@@@@@@",
"@@@@@@@@@@   @@@",
"@@@@@@@@@  #. @@",
"@@@@@@@@ ## . @@",
"@@@@@@@ ##XO @@@",
"@@@@@@ ##XO @@@@",
"@@@@@ .OXO @@@@@",
"@@@@ ..OO @@@@@@",
"@@@ +#.O @@@@@@@",
"@@ +### @@@@@@@@",
"@@     @@@@@@@@@",
"@@@@@@@@@@@@@@@@",
"oooooooooooooooo",
"oooooooooooooooo",
"oooooooooooooooo",
"oooooooooooooooo"
};
