/* XPM */
static char * remove_stencil_xpm[] = {
"18 18 5 1",
" 	c None",
".	c #000000",
"+	c #D81C1C",
"@	c #FFFFFF",
"#	c #2E27EA",
"                  ",
"                  ",
".......           ",
".+++++.@  .       ",
".+++++.@ .#.      ",
".......@.###.     ",
" @@@@@@@#####.    ",
"      .#######.   ",
"     .#########.  ",
"    .###########. ",
"     .#########.  ",
"      .#######.   ",
"       .#####.    ",
"        .###.     ",
"         .#.      ",
"          .       ",
"                  ",
"                  "};
