/* XPM */
static const char *magick[] = {
/* columns rows colors chars-per-pixel */
"16 16 4 1",
"  c Gray0",
". c #868686",
"X c None",
"o c Gray100",
/* pixels */
"XX            XX",
"XX oooooooooo XX",
"XX oo  o  o o .X",
"XX o oooooo o .X",
"XX o oooooooo .X",
"XX oooooooo o .X",
"XX o oooooo o .X",
"XX o oooooooo .X",
"XX oooooooo o .X",
"XX o oooooo o .X",
"XX o oooooooo .X",
"XX oooooooo o .X",
"XX o  o   o o .X",
"XX oooooooooo .X",
"XX            .X",
"XXXX...........X"
};
