/* XPM */
static char *magick[] = {
/* columns rows colors chars-per-pixel */
"16 16 5 1",
"  c Gray0",
". c Cyan",
"X c #868686",
"o c None",
"O c Gray100",
/* pixels */
"                ",
" .O.O O O O O O ",
"    . .O. .O. . ",
" .O.O.O.O.O.O.O ",
"   O.           ",
" .O.O XXXXXXXXXo",
"  .O. Xooooooooo",
" .O.O Xooooooooo",
"   O. Xooooooooo",
" .O.O Xooooooooo",
"    . Xooooooooo",
" .O.O Xooooooooo",
"  .O. Xooooooooo",
" .O.O Xooooooooo",
"      Xooooooooo",
"oXXXXXXooooooooo"
};
