/* XPM */
static char*ahcenter[]={
"30 30 6 1",
"d c #c3c3c3",
"# c #000000",
". c None",
"a c #ffff00",
"c c #dcdcdc",
"b c #ffffff",
"..............................",
"..............#...............",
"..............#...............",
"........######a######.........",
"........#bcbcbabcbcb#.........",
"........#cbcbc#cbcbc#.........",
"........#bcbcb#bcbcb#.........",
"........#cbcbcacbcbc#.........",
"........#bcbcbabcbcb#.........",
"........#cbcbc#cbcbc#.........",
"........#bcbcb#bcbcb#.........",
"........#cbcbcacbcbc#.........",
"........#bcbcbabcbcb#.........",
"........#cbcbc#cbcbc#.........",
"........#bcb#####bcb#.........",
"........####ddadd####.........",
".........#ddddadddd#..........",
"........#ddddd#ddddd#.........",
"........#ddddd#ddddd#.........",
".......#ddddddadddddd#........",
".......#ddddddadddddd#........",
".......#dddddd#dddddd#........",
".......#dddddd#dddddd#........",
".......#ddddddadddddd#........",
"........#dddddaddddd#.........",
"........#ddddd#ddddd#.........",
".........#dddd#dddd#..........",
"..........##ddadd##...........",
"............##a##.............",
".............................."};
