/* XPM */
static char*ahcenter[]={
"30 30 11 1",
"c c #ffa858",
"f c #000080",
"e c #c05800",
"i c #c0c0ff",
"# c #000000",
"b c #ff8000",
"g c #0000c0",
"a c #ffff00",
"d c #ffdca8",
"h c #0000ff",
". c None",
"..............................",
"..............#...............",
"..............#...............",
"........######a######.........",
"........#bbbbbacccdd#.........",
"........#ebbbc#ccddd#.........",
"........#bbbbb#ccccd#.........",
"........#eebbbacccdd#.........",
"........#ebbbbabcccc#.........",
"........#eeebb#ccccd#.........",
"........#eebbb#bbccc#.........",
"........#eeeebabcccc#.........",
"........#eeebbabbbcc#.........",
"........#eeeee#bbccc#.........",
"........#eee#####bbc#.........",
"........####ffaff####.........",
".........#ffgfahfff#..........",
"........#ffggh#iihff#.........",
"........#fgggh#hiihf#.........",
".......#ffgghgahhihhf#........",
".......#fgfgghahhhhhf#........",
".......#ffgggh#hhhghf#........",
".......#fffggg#hghhgf#........",
".......#ffggggaghgggf#........",
"........#fffgfaggfgf#.........",
"........#fffgg#gggff#.........",
".........#ffff#ffff#..........",
"..........##ffaff##...........",
"............##a##.............",
".............................."};
