/* XPM */
static char*aleft[]={
"30 30 6 1",
"d c #c3c3c3",
"# c #000000",
". c None",
"a c #ffff00",
"c c #dcdcdc",
"b c #ffffff",
"..............................",
"......#.......................",
"......#.......................",
"......a#############..........",
"......a#bcbcbcbcbcb#..........",
"......##cbcbcbcbcbc#..........",
"......##bcbcbcbcbcb#..........",
"......a#cbcbcbcbcbc#..........",
"......a#bcbcbcbcbcb#..........",
"......##cbcbcbcbcbc#..........",
"......##bcbcbcbcbcb#..........",
"......a#cbcbcbcbcbc#..........",
"......a#bcbcbcbcbcb#..........",
"......##cbcbcbcbcbc#..........",
"......##bcbc#####cb#..........",
"......a#####ddddd###..........",
"......a..#ddddddddd#..........",
"......#.#ddddddddddd#.........",
"......#.#ddddddddddd#.........",
"......a#ddddddddddddd#........",
"......a#ddddddddddddd#........",
"......##ddddddddddddd#........",
"......##ddddddddddddd#........",
"......a#ddddddddddddd#........",
"......a.#ddddddddddd#.........",
"......#.#ddddddddddd#.........",
"......#..#ddddddddd#..........",
"......a...##ddddd##...........",
"......a.....#####.............",
".............................."};
