/* XPM */
static char*aright[]={
"30 30 6 1",
"d c #c3c3c3",
"# c #000000",
". c None",
"a c #ffff00",
"c c #dcdcdc",
"b c #ffffff",
"..............................",
"......................#.......",
"......................#.......",
".........#############a.......",
".........#bcbcbcbcbcb#a.......",
".........#cbcbcbcbcbc##.......",
".........#bcbcbcbcbcb##.......",
".........#cbcbcbcbcbc#a.......",
".........#bcbcbcbcbcb#a.......",
".........#cbcbcbcbcbc##.......",
".........#bcbcbcbcbcb##.......",
".........#cbcbcbcbcbc#a.......",
".........#bcbcbcbcbcb#a.......",
".........#cbcbcbcbcbc##.......",
".........#bc#####cbcb##.......",
".........###ddddd#####a.......",
".........#ddddddddd#..a.......",
"........#ddddddddddd#.#.......",
"........#ddddddddddd#.#.......",
".......#ddddddddddddd#a.......",
".......#ddddddddddddd#a.......",
".......#ddddddddddddd##.......",
".......#ddddddddddddd##.......",
".......#ddddddddddddd#a.......",
"........#ddddddddddd#.a.......",
"........#ddddddddddd#.#.......",
".........#ddddddddd#..#.......",
"..........##ddddd##...a.......",
"............#####.....a.......",
".............................."};
