/* XPM */
static char*atop[]={
"30 30 11 1",
"c c #ffa858",
"e c #000080",
"i c #c05800",
"h c #c0c0ff",
"# c #000000",
"b c #ff8000",
"f c #0000c0",
"a c #ffff00",
"d c #ffdca8",
"g c #0000ff",
". c None",
"..............................",
"..............................",
"..............................",
"..............................",
"..............................",
"..............................",
"..............................",
".##aa##aa##aa##aa##aa##aa##aa.",
"...#############...#####......",
"...#bbbbccccddd#.##eeeee##....",
"...#bbbccccdddd##eefeggeee#...",
"...#bbbbbccccdd#eeffgghhgee#..",
"...#ibbbccccddd#efffggghhge#..",
"...#bbbbbbcccc#eeffgfggghgge#.",
"...#iibbbccccd#efeffggggggge#.",
"...#ibbbbbbccc#eefffgfgggfge#.",
"...#iiibbbcccc#eeefffggfggfe#.",
"...#iibbbbbbcc#eeffffffgfffe#.",
"...#iiiibbbcccc#eeefefffefe#..",
"...#iiibbbbbbcc#eeeffffffee#..",
"...##############eeeeeeeee#...",
".................##eeeee##....",
"...................#####......",
"..............................",
"..............................",
"..............................",
"..............................",
"..............................",
"..............................",
".............................."};
