/* XPM */
static char*avcenter[]={
"30 30 11 1",
"c c #ffa858",
"a c #000080",
"h c #c05800",
"g c #c0c0ff",
"# c #000000",
"b c #ff8000",
"e c #0000c0",
"i c #ffff00",
"d c #ffdca8",
"f c #0000ff",
". c None",
"..............................",
"..............................",
"..............................",
"..............................",
"..............................",
"..............................",
"..............................",
"..............................",
"...................#####......",
"...#############.##aaaaa##....",
"...#bbbccccdddd##aaeaffaaa#...",
"...#bbbbbccccdd#aaeeffggfaa#..",
"...#hbbbccccddd#aeeefffggfa#..",
"...#bbbbbbcccc#aaeefefffgffa#.",
"...#hhbbbccccd#aeaeefffffffa#.",
".##ii##ii##ii##ii##ii##ii##ii.",
"...#hhhbbbcccc#aaaeeeffeffea#.",
"...#hhbbbbbbcc#aaeeeeeefeeea#.",
"...#hhhhbbbcccc#aaaeaeeeaea#..",
"...#hhhbbbbbbcc#aaaeeeeeeaa#..",
"...#hhhhhbbbccc##aaaaaaaaa#...",
"...#############.##aaaaa##....",
"...................#####......",
"..............................",
"..............................",
"..............................",
"..............................",
"..............................",
"..............................",
".............................."};
