/* XPM */
static char*beziertool[]={
"20 20 6 1",
"c c #ffa858",
"d c #c05800",
"# c #00ffff",
"a c #000000",
"b c #ffdca8",
". c None",
"....................",
"............###.....",
"............#a#.aa..",
"..........aa###abca.",
"........aa.....acda.",
"......a.a.....abcda.",
".###a..a......acda..",
".#a#...a.....abcda..",
".###....a....acda...",
".........a..abcda...",
"..........a.abba....",
"...........aaaa.....",
".###........aa......",
".#a#........a.......",
".###aa....aa........",
".....aaaaa..........",
".......a.###........",
".........#a#........",
".........###........",
"...................."};
