/* XPM */
static char *magick[] = {
/* columns rows colors chars-per-pixel */
"22 22 4 1",
"  c None",
"X c White",
". c Gray0",
"o c White",
/* pixels */
"                      ",
"                      ",
"               ..     ",
"              .XX.X   ",
"              ..X.X   ",
"             .oo..    ",
"             .oo.     ",
"            .ooo.     ",
"   XX       .oo.      ",
"   X.       ...       ",
"      .     ..        ",
"        .   .         ",
"         ...          ",
"         .o.          ",
"         ....         ",
"              .       ",
"               .      ",
"                 .X   ",
"                 XX   ",
"                      ",
"                      ",
"                      "
};
