/* XPM */
static char*dhcenter[]={
"30 30 5 1",
"# c #000000",
". c None",
"a c #ffff00",
"c c #dcdcdc",
"b c #ffffff",
"..............................",
".......#..............#.......",
".......################.......",
".......################.......",
".......#..............#.......",
".......a..............a.......",
".......a..............a.......",
".......#..............#.......",
".......#..............#.......",
"..#####a#####....#####a#####..",
"..#bcbcabcbc#....#bcbcabcbc#..",
"..#cbcb#cbcb#....#cbcb#cbcb#..",
"..#bcbc#bcbc#....#bcbc#bcbc#..",
"..#cbcbacbcb#....#cbcbacbcb#..",
"..#bcbcabcbc#....#bcbcabcbc#..",
"..#cbcb#cbcb#....#cbcb#cbcb#..",
"..#bcbc#bcbc#....#bcbc#bcbc#..",
"..#cbcbacbcb#....#cbcbacbcb#..",
"..#bcbcabcbc#....#bcbcabcbc#..",
"..#cbcb#cbcb#....#cbcb#cbcb#..",
"..#bcbc#bcbc#....#bcbc#bcbc#..",
"..#cbcbacbcb#....#cbcbacbcb#..",
"..#####a#####....#####a#####..",
".......#..............#.......",
".......#..............#.......",
".......a..............a.......",
".......a..............a.......",
".......#..............#.......",
".......#..............#.......",
".............................."};
