/* XPM */
static char*dtop[]={
"30 30 5 1",
"# c #000000",
". c None",
"a c #ffff00",
"c c #dcdcdc",
"b c #ffffff",
"..............................",
"..............................",
"..####aa##aa##aa##aa##aa##aa..",
"...##....##############.......",
"...##....#bcbcbcbcbcbc#.......",
"...##....#cbcbcbcbcbcb#.......",
"...##....#bcbcbcbcbcbc#.......",
"...##....#cbcbcbcbcbcb#.......",
"...##....#bcbcbcbcbcbc#.......",
"...##....#cbcbcbcbcbcb#.......",
"...##....#bcbcbcbcbcbc#.......",
"...##....#cbcbcbcbcbcb#.......",
"...##....##############.......",
"...##.........................",
"...##.........................",
"...##.........................",
"...##.........................",
"..####aa##aa##aa##aa##aa##aa..",
".........##############.......",
".........#bcbcbcbcbcbc#.......",
".........#cbcbcbcbcbcb#.......",
".........#bcbcbcbcbcbc#.......",
".........#cbcbcbcbcbcb#.......",
".........#bcbcbcbcbcbc#.......",
".........#cbcbcbcbcbcb#.......",
".........#bcbcbcbcbcbc#.......",
".........#cbcbcbcbcbcb#.......",
".........##############.......",
"..............................",
".............................."};
