/* XPM */
static char*dvcenter[]={
"30 30 5 1",
"# c #000000",
". c None",
"c c #ffff00",
"b c #dcdcdc",
"a c #ffffff",
"..............................",
"..............................",
".........##############.......",
".........#abababababab#.......",
".........#babababababa#.......",
".........#abababababab#.......",
".........#babababababa#.......",
"..####cc##cc##cc##cc##cc##cc..",
"...##....#babababababa#.......",
"...##....#abababababab#.......",
"...##....#babababababa#.......",
"...##....#abababababab#.......",
"...##....##############.......",
"...##.........................",
"...##.........................",
"...##.........................",
"...##.........................",
"...##....##############.......",
"...##....#abababababab#.......",
"...##....#babababababa#.......",
"...##....#abababababab#.......",
"...##....#babababababa#.......",
"..####cc##cc##cc##cc##cc##cc..",
".........#babababababa#.......",
".........#abababababab#.......",
".........#babababababa#.......",
".........#abababababab#.......",
".........##############.......",
"..............................",
".............................."};
