/* XPM */
static char*joinNodes[]={
"22 22 4 1",
"b c #c0c0ff",
"a c #00ffff",
"# c #000000",
". c None",
"................#ab...",
"...............#ab#...",
"..............#ab#..#a",
".............#ab##.#ab",
".............#b#a##ab#",
"..............#ab#ab#.",
"..........##.#ab#ab#..",
".........#ab#ab#.##...",
"........#ab#ab#.......",
".......#ab##b#a#......",
"......#ab#.##ab#......",
".....#ab#..#ab#.......",
"....#ab##.#ab#........",
"....#b#a##ab#.........",
".....#ab#ab#..........",
".##.#ab#bb#...........",
"#ab#ab#.##............",
"ab#ab#................",
"b##b#a#...............",
"..##ab#...............",
"..#ab#................",
"..ab#................."};
