/* XPM */
static char*linetool[]={
"22 22 3 1",
"# c #000000",
". c None",
"a c #ffffff",
"......................",
"......................",
"......................",
".......####...........",
"......#aaaa#..........",
"......#aaaaa#.........",
".....#a###aa#.........",
".....#aaaa#a#.........",
"....#aaaaaa#..........",
"....#aaaaaa#..........",
"....#aaaaa#...........",
"....##aaaa#...........",
"....####a#............",
"....#####.............",
"....####..............",
"....###...............",
"....##...##...........",
"....#..##..#..........",
".....##.....#.........",
".............#........",
"......................",
"......................"
};
