/* XPM */
static char*linetool[]={
"22 22 5 1",
"b c #ffa858",
"c c #c05800",
"# c #000000",
"a c #ffdca8",
". c None",
"......................",
"......................",
"..........##..........",
".........#ab#.........",
".........#bc#.........",
"........#abc#.........",
"........#bc#..........",
".......#abc#..........",
".......#bc#...........",
"......#abc#...........",
"......#bc#............",
".....#abc#............",
".....#bc#.............",
"....#abc#.............",
"....#aa#..........#...",
"....###..........#....",
"....##...##.....#.....",
"....#..##..#...#......",
".....##.....#.#.......",
".............#........",
"......................",
"......................"};
