/* XPM */
static char*newlayer[]={
"16 16 6 1",
"b c #c0c0ff",
"# c #000000",
"c c #ffff00",
"a c #0000ff",
". c None",
"d c #ffffff",
"................",
"................",
"......#########.",
".....#aaaaaaa#..",
"....#aaaaaaa#...",
"...#aaaaaaa#....",
"..#aaaaaaa#b#...",
".#########bbc...",
"...#.bbbbbc#c#c.",
"..#bbbbbbb#ccc#.",
".######c#ccc#cc.",
"...#dddddd#ccc#.",
"..#dddddddc#c#c.",
".#########..c...",
"............#...",
"................"};
