/* XPM */
static char*newNode[]={
"22 22 5 1",
"a c #808080",
"b c #00ffff",
"# c #000000",
"c c #ffff00",
". c None",
"......................",
"......................",
"......................",
".................###..",
"...............##.aaa.",
"..............#.aa....",
".............#.a......",
"........#####.a.......",
"........#bbb#a........",
"........#bbb#a........",
"........#bbb#a........",
"........#####a........",
".......#.aaaaa..#.....",
"......#.a....c..c..c..",
"....##.a......c#c#c...",
".###.aa.......#ccc#...",
"..aaa.......#ccc#ccc#.",
"..............#ccc#...",
"..............c#c#c...",
".............c..c..c..",
"................#.....",
"......................"};
