/* XPM */
static char *magick[] = {
/* columns rows colors chars-per-pixel */
"22 20 2 1",
"  c Gray0",
". c none",
/* pixels */
"......................",
"......................",
"......................",
"......................",
"....... ..............",
".......  .............",
".......   ............",
".......    ...........",
".......     ..........",
".......      .........",
".......       ........",
".......     ..........",
".......     ..........",
"....... ..   .........",
"..........   .........",
"...........   ........",
"...........   ........",
"......................",
"......................",
"......................"
};
