/* XPM */
static char*tcenteralign[]={
"30 30 4 1",
"b c #000000",
"a c #303030",
". c None",
"# c #ffffff",
"..............................",
"..............................",
"..............................",
"....#######################...",
"....aaaaaaaaaaaaaaaaaaaaaa....",
"..............................",
"..............................",
"......###################.....",
".....bbbbbbbbbbbbbbbbbbb......",
"..............................",
"..............................",
".........#############........",
"........bbbbbbbbbbbbb.........",
"..............................",
"..............................",
"......###################.....",
".....bbbbbbbbbbbbbbbbbbb......",
"..............................",
"..............................",
"....#######################...",
"...bbbbbbbbbbbbbbbbbbbbbbb....",
"..............................",
"..............................",
"........###############.......",
".......bbbbbbbbbbbbbbb........",
"..............................",
"..............................",
"..............................",
"..............................",
".............................."};
