/* XPM */
static char*vmirror[]={
"30 31 6 1",
"b c #808080",
"# c #000000",
". c None",
"c c #ffff00",
"d c #dcdcdc",
"a c #ffffff",
"..............................",
"..............................",
".......#......................",
".......##.....................",
".......#a##...................",
".......#aaa#..................",
".......#aaaa##................",
".......#aaaaaa#...............",
".......#aaaaaaa##.............",
".......#aaaaaaaaa#............",
"...##..#aaaaaaaaaa##.....##...",
"..#....#aaaaaaaaaaaa#......#..",
"..#....################....#..",
".#......bbbbbbbbbbbbbbbb....#.",
".#..........................#.",
".#..c##cc##cc##cc##cc##cc#..#.",
".#..........................#.",
".#..........................#.",
"..#....################....#..",
"..#.#..#dddddddddddd#bbb.#.#..",
"...##..#dddddddddd##bb...##...",
"..####.#ddddddddd#bbb...####..",
".......#ddddddd##bb...........",
".......#dddddd#bbb............",
".......#dddd##bb..............",
".......#ddd#bbb...............",
".......#d##bb.................",
".......##bbb..................",
".......#bb....................",
"........b.....................",
".............................."};
