/* XPM */
static char*colout[]={
"20 20 5 1",
"c c #c5c2c5",
"# c #000000",
". c None",
"a c #ffffff",
"b c #ff0000",
"....................",
"....................",
"..#aaa#bbb#aaa#ccc..",
"..#aaa#bbb#aaa#ccc..",
"..#aaa#bbb#aaa#ccc..",
"..#aaa#bbb#aaa#ccc..",
"..#aaa#bbb#aaa#ccc..",
"..#aaa#bbb#aaa#ccc..",
"..#aaa#bbb#aaa#ccc..",
"..#############ccc..",
"..cccccccccccccccc..",
"..ccccccccccbbccbb..",
"..ccccccccccbbcbbb..",
"..cccccccccccbbbbc..",
"..ccccccccccccbbcc..",
"..cccccccccccbbbcc..",
"..ccccccccccbbccbc..",
"..ccccccccccbcccbc..",
"....................",
"...................."};
