/* XPM */
static char*money[]={
"20 20 6 1",
"c c #008000",
"# c #000000",
"a c #ffff00",
". c None",
"d c #00c000",
"b c #ff0000",
"....................",
".....###............",
"....#aab#...........",
"....#####...........",
"....#aab####........",
"....#aaa#aab#.......",
"....#aab#####.......",
"..###aaa#aab#.......",
".#aab#ab#aaa#.......",
".#####aa####........",
".#aab###.....cc.....",
".#aaa#.....ccddcc...",
".#aab#...cccccccdcc.",
".#aaa#.ccddddcccc...",
"..###ccccddddcc.....",
"...ccdccccccc.......",
".....ccddcc.........",
".......cc...........",
"....................",
"...................."};
