/* XPM */
static char * tab_left_xpm[] = {
"11 12 2 1",
" 	c None",
".	c #000000000000",
"           ",
"           ",
"  .    .   ",
"  .   ..   ",
"  .  ...   ",
"  . ....   ",
"  .  ...   ",
"  .   ..   ",
"  .    .   ",
"           ",
"           ",
"           "};
