<?xml version="1.0" encoding="UTF-8" standalone="no"?>
<!-- Created with Inkscape (http://www.inkscape.org/) -->

<svg
   xmlns:dc="http://purl.org/dc/elements/1.1/"
   xmlns:cc="http://creativecommons.org/ns#"
   xmlns:rdf="http://www.w3.org/1999/02/22-rdf-syntax-ns#"
   xmlns:svg="http://www.w3.org/2000/svg"
   xmlns="http://www.w3.org/2000/svg"
   xmlns:xlink="http://www.w3.org/1999/xlink"
   xmlns:sodipodi="http://sodipodi.sourceforge.net/DTD/sodipodi-0.dtd"
   xmlns:inkscape="http://www.inkscape.org/namespaces/inkscape"
   width="8"
   height="48"
   id="svg3463"
   version="1.1"
   inkscape:version="0.48.3.1 r9886"
   sodipodi:docname="icon-link_chain-closed.svg">
  <defs
     id="defs3465">
    <linearGradient
       y2="56.055851"
       x2="65.687874"
       y1="55.998959"
       x1="80.010139"
       gradientTransform="matrix(1.0606604,-1.0606604,1.0606604,1.0606604,-71.968564,109.54959)"
       gradientUnits="userSpaceOnUse"
       id="linearGradient7095"
       xlink:href="#linearGradient4214-9-6-6"
       inkscape:collect="always" />
    <linearGradient
       id="linearGradient4214-9-6-6">
      <stop
         style="stop-color:#78001e;stop-opacity:1;"
         offset="0"
         id="stop4216-3-1-6" />
      <stop
         id="stop4218-02-2-7"
         offset="0.79447055"
         style="stop-color:#78001e;stop-opacity:0.47058824;" />
      <stop
         style="stop-color:#78001e;stop-opacity:0;"
         offset="1"
         id="stop4220-56-7-0" />
    </linearGradient>
    <linearGradient
       inkscape:collect="always"
       xlink:href="#linearGradient6936"
       id="linearGradient6944"
       x1="176"
       y1="88"
       x2="176"
       y2="112"
       gradientUnits="userSpaceOnUse" />
    <linearGradient
       inkscape:collect="always"
       id="linearGradient6936">
      <stop
         style="stop-color:#78001e;stop-opacity:1;"
         offset="0"
         id="stop6938" />
      <stop
         style="stop-color:#78001e;stop-opacity:0;"
         offset="1"
         id="stop6940" />
    </linearGradient>
    <linearGradient
       inkscape:collect="always"
       xlink:href="#linearGradient6936"
       id="linearGradient3601"
       x1="176"
       y1="88"
       x2="176"
       y2="112"
       gradientUnits="userSpaceOnUse" />
    <linearGradient
       inkscape:collect="always"
       xlink:href="#linearGradient6936"
       id="linearGradient6942"
       x1="184"
       y1="88"
       x2="184"
       y2="112"
       gradientUnits="userSpaceOnUse" />
    <linearGradient
       inkscape:collect="always"
       xlink:href="#linearGradient6936"
       id="linearGradient3616"
       x1="184"
       y1="88"
       x2="184"
       y2="112"
       gradientUnits="userSpaceOnUse" />
    <linearGradient
       y2="112"
       x2="184"
       y1="88"
       x1="184"
       gradientUnits="userSpaceOnUse"
       id="linearGradient3630"
       xlink:href="#linearGradient6936"
       inkscape:collect="always" />
    <linearGradient
       id="linearGradient9325">
      <stop
         style="stop-color:#78001e;stop-opacity:0.58823532;"
         offset="0"
         id="stop9327" />
      <stop
         style="stop-color:#78001e;stop-opacity:0;"
         offset="1"
         id="stop9329" />
    </linearGradient>
  </defs>
  <sodipodi:namedview
     id="base"
     pagecolor="#ffffff"
     bordercolor="#666666"
     borderopacity="1.0"
     inkscape:pageopacity="0.0"
     inkscape:pageshadow="2"
     inkscape:zoom="3.5"
     inkscape:cx="28.170429"
     inkscape:cy="26.892404"
     inkscape:current-layer="layer1"
     showgrid="true"
     inkscape:grid-bbox="true"
     inkscape:document-units="px"
     inkscape:window-width="645"
     inkscape:window-height="418"
     inkscape:window-x="1005"
     inkscape:window-y="137"
     inkscape:window-maximized="0">
    <inkscape:grid
       type="xygrid"
       id="grid3517"
       empspacing="8"
       visible="true"
       enabled="true"
       snapvisiblegridlinesonly="true" />
  </sodipodi:namedview>
  <metadata
     id="metadata3468">
    <rdf:RDF>
      <cc:Work
         rdf:about="">
        <dc:format>image/svg+xml</dc:format>
        <dc:type
           rdf:resource="http://purl.org/dc/dcmitype/StillImage" />
        <dc:title></dc:title>
      </cc:Work>
    </rdf:RDF>
  </metadata>
  <g
     id="layer1"
     inkscape:label="Layer 1"
     inkscape:groupmode="layer">
    <g
       transform="translate(-16,-608)"
       style="display:inline"
       id="g3452">
      <path
         id="rect6655-4"
         d="m 17,636 c -0.554,0 -1,1.784 -1,4 l 0,8 c 0,2.216 0.446,4 1,4 l 6,0 c 0.554,0 1,-1.784 1,-4 l 0,-8 c 0,-2.216 -0.446,-4 -1,-4 l -6,0 z m 2,2 2,0 c 0.554,0 1,1.784 1,4 l 0,4 c 0,2.216 -0.446,4 -1,4 l -2,0 c -0.554,0 -1,-1.784 -1,-4 l 0,-4 c 0,-2.216 0.446,-4 1,-4 z"
         style="color:#000000;fill:#2a2a2a;fill-opacity:0.5098038;fill-rule:nonzero;stroke:none;stroke-width:0;marker:none;visibility:visible;display:inline;overflow:visible;enable-background:accumulate"
         inkscape:connector-curvature="0" />
      <g
         id="g3424">
        <path
           style="color:#000000;fill:#2a2a2a;fill-opacity:0.5098038;fill-rule:nonzero;stroke:none;stroke-width:0;marker:none;visibility:visible;display:inline;overflow:visible;enable-background:accumulate"
           d="m 17,612 c -0.554,0 -1,1.784 -1,4 l 0,8 c 0,2.216 0.446,4 1,4 l 6,0 c 0.554,0 1,-1.784 1,-4 l 0,-8 c 0,-2.216 -0.446,-4 -1,-4 l -6,0 z m 2,2 2,0 c 0.554,0 1,1.784 1,4 l 0,4 c 0,2.216 -0.446,4 -1,4 l -2,0 c -0.554,0 -1,-1.784 -1,-4 l 0,-4 c 0,-2.216 0.446,-4 1,-4 z"
           id="rect6655"
           inkscape:connector-curvature="0" />
        <rect
           style="color:#000000;fill:#2a2a2a;fill-opacity:0.5098038;fill-rule:nonzero;stroke:none;stroke-width:0;marker:none;visibility:visible;display:inline;overflow:visible;enable-background:accumulate"
           id="rect6681"
           width="2"
           height="8"
           x="19"
           y="624"
           rx="0"
           ry="0" />
      </g>
      <rect
         ry="0"
         rx="0"
         y="632"
         x="19"
         height="8"
         width="2"
         id="rect6681-6"
         style="color:#000000;fill:#2a2a2a;fill-opacity:0.5098038;fill-rule:nonzero;stroke:none;stroke-width:0;marker:none;visibility:visible;display:inline;overflow:visible;enable-background:accumulate" />
    </g>
  </g>
</svg>
