<?xml version="1.0" encoding="UTF-8" standalone="no"?>
<!-- Created with Inkscape (http://www.inkscape.org/) -->

<svg
   xmlns:dc="http://purl.org/dc/elements/1.1/"
   xmlns:cc="http://creativecommons.org/ns#"
   xmlns:rdf="http://www.w3.org/1999/02/22-rdf-syntax-ns#"
   xmlns:svg="http://www.w3.org/2000/svg"
   xmlns="http://www.w3.org/2000/svg"
   xmlns:sodipodi="http://sodipodi.sourceforge.net/DTD/sodipodi-0.dtd"
   xmlns:inkscape="http://www.inkscape.org/namespaces/inkscape"
   version="1.1"
   width="48"
   height="48"
   id="svg3930"
   inkscape:version="0.48.3.1 r9886"
   sodipodi:docname="icon-filesave.svg">
  <sodipodi:namedview
     pagecolor="#ffffff"
     bordercolor="#666666"
     borderopacity="1"
     objecttolerance="10"
     gridtolerance="10"
     guidetolerance="10"
     inkscape:pageopacity="0"
     inkscape:pageshadow="2"
     inkscape:window-width="645"
     inkscape:window-height="480"
     id="namedview3981"
     showgrid="false"
     inkscape:zoom="4.9166667"
     inkscape:cx="24"
     inkscape:cy="20.372701"
     inkscape:window-x="0"
     inkscape:window-y="35"
     inkscape:window-maximized="0"
     inkscape:current-layer="svg3930" />
  <defs
     id="defs3932" />
  <metadata
     id="metadata3935">
    <rdf:RDF>
      <cc:Work
         rdf:about="">
        <dc:format>image/svg+xml</dc:format>
        <dc:type
           rdf:resource="http://purl.org/dc/dcmitype/StillImage" />
        <dc:title></dc:title>
      </cc:Work>
    </rdf:RDF>
  </metadata>
  <g
     style="display:inline"
     id="g4182"
     transform="matrix(0.75000001,0,0,0.75,-114,-138)">
    <path
       inkscape:connector-curvature="0"
       style="color:#000000;fill:#ffffff;fill-opacity:1;fill-rule:nonzero;stroke:none;stroke-width:1.5;marker:none;visibility:visible;display:inline;overflow:visible;enable-background:accumulate"
       d="m 184,184 c -17.67311,0 -32,14.32689 -32,32 0,17.67311 14.32689,32 32,32 17.67311,0 32,-14.32689 32,-32 0,-17.67311 -14.32689,-32 -32,-32 z m 0,5.33333 c 14.72759,0 26.66666,11.93907 26.66666,26.66667 0,14.72759 -11.93907,26.66666 -26.66666,26.66666 -14.7276,0 -26.66667,-11.93907 -26.66667,-26.66666 0,-14.7276 11.93907,-26.66667 26.66667,-26.66667 z"
       id="path3850-7" />
    <rect
       ry="0"
       rx="0"
       y="266.84271"
       x="-26.627415"
       height="31.999996"
       width="8"
       id="rect3905"
       style="color:#000000;fill:#ffffff;fill-opacity:1;fill-rule:nonzero;stroke:none;stroke-width:1.5;marker:none;visibility:visible;display:inline;overflow:visible;enable-background:accumulate"
       transform="matrix(0.70710678,-0.70710679,0.70710678,0.70710679,0,0)" />
    <rect
       ry="0"
       rx="0"
       y="278.84271"
       x="-38.627415"
       height="7.9999957"
       width="32"
       id="rect3907"
       style="color:#000000;fill:#ffffff;fill-opacity:1;fill-rule:nonzero;stroke:none;stroke-width:1.5;marker:none;visibility:visible;display:inline;overflow:visible;enable-background:accumulate"
       transform="matrix(0.70710678,-0.70710679,0.70710678,0.70710679,0,0)" />
  </g>
</svg>
