/* XPM */
static char *icon[]={
"16 16 152 2",
"Qt c None",
"#A c #000000",
".w c #0058c0",
"#3 c #010101",
"#D c #030303",
"#i c #050505",
"#d c #070707",
"#o c #080808",
"#l c #090909",
".n c #0a0a0a",
"#J c #0b0b0b",
".k c #0c0c0c",
".V c #0e0e0e",
".t c #0f0f0f",
"#L c #111111",
"ak c #121212",
"#4 c #141414",
".D c #171717",
"#E c #1a1a1a",
".c c #1d1d1d",
"#2 c #1e1e1e",
"#K c #202020",
".I c #262626",
".Q c #282828",
"#I c #292929",
"ab c #2a2a2a",
".d c #2c2c2c",
".2 c #2d2d2d",
"#5 c #2e2e2e",
".N c #2f2f2f",
"#u c #303030",
".8 c #323232",
".y c #333333",
".j c #3a3a3a",
".H c #3b3b3b",
"#N c #3c3c3c",
".9 c #3d3d3d",
".u c #3e3e3e",
".m c #444444",
"#f c #454545",
".R c #484848",
"#z c #494949",
"aj c #4b4b4b",
"#6 c #4c4d4f",
".E c #4d4d4d",
".o c #4e4e4e",
"#k c #505050",
"#F c #515151",
"#e c #515354",
"#a c #535353",
"#t c #545454",
"#v c #595959",
"#p c #595b5e",
".l c #5b5b5b",
".1 c #5c5c5c",
"#j c #5c6065",
"#9 c #666666",
".X c #686868",
"#H c #6a6a6a",
"ac c #6b6d6f",
"#G c #747474",
"#s c #757575",
"at c #767676",
"#w c #777777",
".W c #777a7e",
"#0 c #7a7a7a",
".s c #7b7b7b",
".5 c #7c7c7c",
".b c #86888a",
"#X c #8a8b8d",
"aa c #8c8c8c",
"ai c #8c8e91",
".z c #8f9498",
"#r c #949494",
".e c #959799",
".4 c #969ca1",
".U c #979797",
"#7 c #999a9c",
"#O c #9a9a9a",
"#S c #9aa2ab",
"#x c #9d9d9d",
"as c #9ea2a6",
"#T c #9ea6ae",
".C c #a1a4a7",
"#R c #a4acb5",
"ad c #a8acb0",
".i c #a9abad",
"an c #aaaaaa",
"#U c #acb4bc",
"#M c #aeaeae",
".P c #b0b3b5",
".Y c #b0b3b7",
".3 c #b0b6bb",
".x c #b1b4b8",
"## c #b4babf",
".J c #b5b8bb",
"#1 c #b6b6b6",
"#q c #b6bbc0",
".G c #b6bcc1",
"#Q c #b6bec6",
"#C c #b7b7b7",
"#Z c #b9b9b9",
".p c #bbbdbe",
".O c #bdc4cb",
"#n c #c0c0c0",
".v c #c0c3c7",
"#8 c #c3c3c3",
"#h c #c5c5c5",
".M c #c5cbd2",
"ao c #c7cbcf",
".F c #c7ccd2",
"ah c #c8ccd0",
"au c #c8cfd6",
".a c #c8d0d9",
"#y c #c9c9c9",
"#P c #cacfd3",
".S c #cad4de",
"#. c #cbd0d6",
"al c #cccccc",
"#V c #ccd1d6",
"#m c #cdd8e3",
"#g c #d0dbe6",
"ae c #d2d6da",
"#B c #d3dae1",
".7 c #d3dee9",
".f c #d4dce4",
"#Y c #d5d5d5",
"#W c #d6d8da",
"a. c #d8d8d8",
"#b c #d8e3ee",
".0 c #d9e4ef",
"#c c #dadada",
"ar c #dae2ea",
".r c #dde5ed",
".6 c #dee8f4",
".A c #dfeaf5",
"a# c #e0eaf6",
".T c #e2ecf8",
"am c #e2edf8",
".B c #e4eef9",
"ag c #e5e9ee",
"ap c #e5effb",
".Z c #e5f0fc",
"av c #e5f1fd",
".L c #e6f2fe",
".K c #e7f2fd",
".# c #e8f2fc",
"aq c #e8f3fe",
".h c #e9f2fb",
".g c #eaf4fe",
".q c #edf5fe",
"af c #f2f6fa",
"QtQtQtQt.#.a.b.c.d.e.f.gQtQtQtQt",
"QtQtQt.h.i.j.k.l.m.n.o.p.qQtQtQt",
"QtQt.r.s.t.u.v.w.w.x.y.c.z.AQtQt",
"Qt.B.C.D.E.F.w.w.w.w.G.H.I.J.KQt",
".L.M.N.u.O.w.w.w.w.w.w.P.Q.R.SQt",
".T.U.V.W.w.w.w.w.w.w.w.w.X.k.Y.Z",
".0.1.2.3.w.w.w.w.w.w.w.w.4.c.5.6",
".7.8.9#..w.w.w.w.w.w.w.w##.N#a#b",
"#c#d#e.w.w.w.w.w.w.w.w.w.w#f.c#g",
"#h#i#j.w.w.w.w.w.w.w.w.w.w#k#l#m",
"#n#o#p#q#r#s#t#u.j#v#w#x#y#z#A#B",
"#C#D.D#E.t.d#F#G#H.E#I#J#K#L#A#c",
"#M#d#N#O#P#Q#R#S#T#U#V#W#X.N#i#Y",
"#Z#0#1#0.u#2#J#3#i#4#5#6#7#8#9a.",
"a#aa.Vabacadaeafagahaiajak.Nal.K",
"aman#HaoapQtQtQtQtQtaqarasatauav"};
