/* XPM */
static char *magick[] = {
/* columns rows colors chars-per-pixel */
"12 13 29 1",
"  c gray1",
". c #0b0b0b",
"X c #151515",
"o c gray10",
"O c #232323",
"+ c #2a2a2a",
"@ c #313131",
"# c gray24",
"$ c #454545",
"% c #494949",
"& c gray33",
"* c gray36",
"= c #6a6a6a",
"- c gray46",
"; c #7a7a7a",
": c gray52",
"> c #8d8d8d",
", c #9b9b9b",
"< c #a2a2a2",
"1 c #b1b1b1",
"2 c gray72",
"3 c #c3c3c3",
"4 c gray79",
"5 c gray84",
"6 c #e7e7e7",
"7 c #ececec",
"8 c #f3f3f3",
"9 c #fefefe",
"0 c None",
/* pixels */
"000009=90000",
"00008O.$9000",
"0000*.8 >000",
"00007oX+9000",
"00000; 10000",
"00007.-X9000",
"0000$&0+-000",
"0003.705 700",
"009o>000*#00",
"00:O90008.20",
"07.400000,o9",
"0% @@@@@@+ ;",
"9<,,,,,,,,,1"
};
