/* XPM */
static char * dock_xpm[] = {
"10 10 4 1",
" 	c None",
".	c #565656",
"+	c #000000",
"@	c #151515",
"          ",
"          ",
"          ",
"          ",
"    .+    ",
"    @.    ",
"          ",
"          ",
"          ",
"          "};
