/* XPM */
static char * editcut_xpm[] = {
"22 22 6 1",
" 	c None",
".	c #9E799A699E79",
"X	c #618565956185",
"o	c #30C230C230C2",
"O	c #CF3CCF3CCF3C",
"+	c #FFFFFFFFFFFF",
"                      ",
"                      ",
"                      ",
"                      ",
"    .XoX.             ",
"    o   X.     Xo.    ",
"    X    o   .XoXX.   ",
"    .XX XX  .XoX.     ",
"     .oXo. .Xo.       ",
"       .XXXoX.        ",
"  XXXXXXXXOX.XXXXXX   ",
"       .oXXXX+++++O   ",
"     .XXX. .OO.       ",
"    .Xo oX  OXoX.     ",
"    X    o  +.XoXo.   ",
"    o   X. +   XX.    ",
"    .XoX.  +          ",
"           O          ",
"           +          ",
"                      ",
"                      ",
"                      "};
