/* XPM */
static char * editpaste_xpm[] = {
"22 22 3 1",
" 	c None",
".	c #000000000000",
"X	c #FFFFFFFFFFFF",
"                      ",
"                      ",
"                      ",
"                      ",
"                      ",
"         ....         ",
"     .....XX.....     ",
"    .   .X..X.   .    ",
"    .  .XXXXXX.  .    ",
"    .  ........  .    ",
"    .      .......    ",
"    .      .XXXX..    ",
"    .      .XXXX.X.   ",
"    .      .X..X...   ",
"    .      .XXXXXX.   ",
"    .      .X....X.   ",
"     .......XXXXXX.   ",
"           ........   ",
"                      ",
"                      ",
"                      ",
"                      "};
