/* XPM */
/* Drawn  by Mark Donohoe for the K Desktop Environment */
/* See http://www.kde.org */
static char*exit[]={
"22 22 7 1",
"# c #000000",
"e c #808080",
"b c #dcdcdc",
"a c #ffffff",
"d c #a0a0a4",
"c c #dcdcdc",
". c None",
"......................",
"......................",
"......................",
"......................",
"......................",
"........#####.........",
"......##aaaaa##.......",
".....#aabbbbbbb#......",
"....c#abbb#bbbb#d.....",
"....#abbbb#bbbbd#.....",
"....#abbbb#bbbbd#d....",
"....#abbbb#bbbbd#d....",
"....#abbbb#bbbbd#d....",
"....#abbbb#bbbbd#d....",
".....#bbbb#bbbd#ed....",
".....#bbbbbbbdd#d.....",
"......##ddddd##dd.....",
".......d#####ddd......",
".........ddddd........",
"......................",
"......................",
"......................"};

