/* XPM */
static char *socket[] = {
/* width height num_colors chars_per_pixel */
"    25    25       11            1",
/* colors */
". c #000000",
"# c #808000",
"a c #c0c0c0",
"b c #ffc0c0",
"c c #ffff00",
"d c #800000",
"e c #c0c000",
"f c #ffffc0",
"g c #ffa858",
"h c #ff0000",
"i c #b2c0dc",
/* pixels */
"iiiiiiiiiiiiiiiiiiiiiiiii",
"iiiiiiiiiiiiiiiiiiiiiiiii",
"iiiiiiiiiiiiiii#iiiiiiiii",
"iiiiiiiiiiiiiii#.iiiiiiii",
"iiiiiiiiii##i#a.iiiiiiiii",
"iiiiiiiii.bi.i.iii#iiiiii",
"iiiiiiii.bhhhh.iii#.iiiii",
"iiiiiii#ghhhhhhd#a.iiiiii",
"iiiiii.ghhhhhhhhi.iiiiiii",
"iiiiii.ghhhhhhhh.iiiiiiii",
"iiiiii.ghhhhhhhhd.iiiiiii",
"iiiiii.ghhhhhhhhd.iiiiiii",
"iiiiii.ghhhhhhhd..iiiiiii",
"iiiiii.ghhhhhhhd.iiiiiiii",
"iiiiii.ghhhhhhd.iiiiiiiii",
"iiiia#fhddhdh..aiiiiiiiii",
"iiii#ce.......iiiiiiiiiii",
"iii.fe#......iiiiiiiiiiii",
"i##f##.aiiiiiiiiiiiiiiiii",
"i.ce..iiiiiiiiiiiiiiiiiii",
"ii.#.iiiiiiiiiiiiiiiiiiii",
"iii.#iiiiiiiiiiiiiiiiiiii",
"iiiiiiiiiiiiiiiiiiiiiiiii",
"iiiiiiiiiiiiiiiiiiiiiiiii",
"iiiiiiiiiiiiiiiiiiiiiiiii"
};
