/* XPM */
static char*originalsize[]={
"16 16 3 1",
"# c #000000",
"a c #400000",
". c None",
"................",
".##############.",
".#............#.",
".#............#.",
".#............#.",
".#.....aa.....#.",
".#....aaa.....#.",
".#....aaaaa...#.",
".#...aaaaaaa..#.",
".#..aaaaaaaa..#.",
".#..aaaaaaaaa.#.",
".#.aaaaaaaaaaa#.",
".#aaaaaaaaaaaa#.",
".#aaaaaaaaaaaa#.",
".##############.",
"................"};
