<?xml version="1.0" encoding="UTF-8" standalone="no"?>
<!-- Created with Inkscape (http://www.inkscape.org/) -->
<svg
   xmlns:svg="http://www.w3.org/2000/svg"
   xmlns="http://www.w3.org/2000/svg"
   version="1.0"
   width="744.09448"
   height="1052.3622"
   id="svg2414">
  <defs
     id="defs2416" />
  <g
     id="layer1">
    <g
       transform="translate(165.71429,-208.57143)"
       id="graphic">
      <path
         d="M 220.70312,442.04514 L 220.70312,622.67922 L 529.29688,622.67922 L 529.29688,442.04514 L 220.70312,442.04514 z"
         id="rect2383"
         style="fill:#ffffff;fill-opacity:1;stroke:#000000;stroke-width:1;stroke-linecap:round;stroke-linejoin:miter;stroke-miterlimit:4;stroke-dasharray:none;stroke-dashoffset:10;stroke-opacity:1" />
      <text
         x="247.89062"
         y="553.20203"
         id="text2646"
         xml:space="preserve"
         style="font-size:80px;font-style:normal;font-variant:normal;font-weight:normal;font-stretch:normal;text-align:start;line-height:100%;writing-mode:lr-tb;text-anchor:start;fill:#000000;fill-opacity:1;stroke:none;stroke-width:1px;stroke-linecap:butt;stroke-linejoin:miter;stroke-opacity:1;font-family:Bitstream Vera Sans;-inkscape-font-specification:Bitstream Vera Sans"><tspan
           x="247.89062"
           y="553.20203"
           id="tspan2648">Image</tspan></text>
    </g>
    <path
       d="M 386.41741,467.75943 L 386.41741,648.39351 L 695.01117,648.39351 L 695.01117,467.75943 L 386.41741,467.75943 z"
       id="object"
       style="fill:#ffffff;fill-opacity:1;stroke:#000000;stroke-width:1;stroke-linecap:round;stroke-linejoin:miter;stroke-miterlimit:4;stroke-dasharray:none;stroke-dashoffset:10;stroke-opacity:1" />
    <g
       transform="translate(-179.99777,-82.856564)"
       id="title">
      <path
         d="M 202.84375,115.21875 L 202.84375,155.21875 L 511.4375,155.21875 L 511.4375,115.21875 L 202.84375,115.21875 z"
         id="path2448"
         style="opacity:1;fill:#ffffff;fill-opacity:1;stroke:#000000;stroke-width:1;stroke-linecap:round;stroke-linejoin:miter;stroke-miterlimit:4;stroke-dasharray:none;stroke-dashoffset:10;stroke-opacity:1" />
      <rect
         width="292.20084"
         height="23.35619"
         x="211.19958"
         y="123.08399"
         id="rect3158"
         style="opacity:1;fill:#b4b4b4;fill-opacity:1;stroke:none;stroke-width:1;stroke-linecap:round;stroke-linejoin:miter;stroke-miterlimit:4;stroke-dasharray:none;stroke-dashoffset:10;stroke-opacity:1" />
    </g>
    <g
       transform="translate(165,-419.99999)"
       id="subtitle">
      <g
         id="g2560">
        <path
           d="M 220.70312,442.04514 L 220.70312,622.67922 L 529.29688,622.67922 L 529.29688,442.04514 L 220.70312,442.04514 z"
           id="path2465"
           style="fill:#ffffff;fill-opacity:1;stroke:#000000;stroke-width:1;stroke-linecap:round;stroke-linejoin:miter;stroke-miterlimit:4;stroke-dasharray:none;stroke-dashoffset:10;stroke-opacity:1" />
        <rect
           width="269.34369"
           height="23.35619"
           x="240.32816"
           y="520.68408"
           id="rect2467"
           style="fill:#b4b4b4;fill-opacity:1;stroke:none;stroke-width:1;stroke-linecap:round;stroke-linejoin:miter;stroke-miterlimit:4;stroke-dasharray:none;stroke-dashoffset:10;stroke-opacity:1" />
      </g>
    </g>
    <g
       transform="translate(-165.71206,118.25496)"
       id="outline">
      <path
         d="M 202.84375,115.21875 L 202.84375,295.85283 L 511.4375,295.85283 L 511.4375,115.21875 L 202.84375,115.21875 z"
         id="path2492"
         style="opacity:1;fill:#ffffff;fill-opacity:1;stroke:#000000;stroke-width:1;stroke-linecap:round;stroke-linejoin:miter;stroke-miterlimit:4;stroke-dasharray:none;stroke-dashoffset:10;stroke-opacity:1" />
      <g
         transform="translate(20.000004,0)"
         id="g3382">
        <rect
           width="250"
           height="23.167046"
           x="230.58861"
           y="190.36009"
           id="rect3216"
           style="fill:#b4b4b4;fill-opacity:1;stroke:none;stroke-width:1;stroke-linecap:round;stroke-linejoin:miter;stroke-miterlimit:4;stroke-dasharray:none;stroke-dashoffset:10;stroke-opacity:1" />
        <path
           d="M 363.2633,288.81354 C 363.2633,346.58579 342.79443,393.41945 317.5448,393.41945 C 292.29517,393.41945 271.8263,346.58579 271.8263,288.81354 C 271.8263,231.04129 292.29517,184.20763 317.5448,184.20763 C 342.79443,184.20763 363.2633,231.04129 363.2633,288.81354 L 363.2633,288.81354 z"
           transform="matrix(0.1312379,0,0,5.7358152e-2,178.01873,185.28324)"
           id="path3218"
           style="fill:#666666;fill-opacity:1;stroke:none;stroke-width:1;stroke-linecap:round;stroke-linejoin:miter;stroke-miterlimit:4;stroke-dasharray:none;stroke-dashoffset:10;stroke-opacity:1" />
      </g>
      <g
         transform="translate(1.1616253,-65.404885)"
         id="g3302">
        <rect
           width="270"
           height="23.241756"
           x="229.42699"
           y="190.28539"
           id="rect3304"
           style="fill:#b4b4b4;fill-opacity:1;stroke:none;stroke-width:1;stroke-linecap:round;stroke-linejoin:miter;stroke-miterlimit:4;stroke-dasharray:none;stroke-dashoffset:10;stroke-opacity:1" />
        <path
           d="M 363.2633,288.81354 C 363.2633,346.58579 342.79443,393.41945 317.5448,393.41945 C 292.29517,393.41945 271.8263,346.58579 271.8263,288.81354 C 271.8263,231.04129 292.29517,184.20763 317.5448,184.20763 C 342.79443,184.20763 363.2633,231.04129 363.2633,288.81354 L 363.2633,288.81354 z"
           transform="matrix(0.1312379,0,0,5.7358152e-2,176.8571,185.28324)"
           id="path3306"
           style="fill:#666666;fill-opacity:1;stroke:none;stroke-width:1;stroke-linecap:round;stroke-linejoin:miter;stroke-miterlimit:4;stroke-dasharray:none;stroke-dashoffset:10;stroke-opacity:1" />
      </g>
      <g
         transform="translate(1.1616253,-33.600712)"
         id="g3308">
        <rect
           width="270"
           height="23.241756"
           x="229.42699"
           y="190.28539"
           id="rect3310"
           style="fill:#b4b4b4;fill-opacity:1;stroke:none;stroke-width:1;stroke-linecap:round;stroke-linejoin:miter;stroke-miterlimit:4;stroke-dasharray:none;stroke-dashoffset:10;stroke-opacity:1" />
        <path
           d="M 363.2633,288.81354 C 363.2633,346.58579 342.79443,393.41945 317.5448,393.41945 C 292.29517,393.41945 271.8263,346.58579 271.8263,288.81354 C 271.8263,231.04129 292.29517,184.20763 317.5448,184.20763 C 342.79443,184.20763 363.2633,231.04129 363.2633,288.81354 L 363.2633,288.81354 z"
           transform="matrix(0.1312379,0,0,5.7358152e-2,176.8571,185.28324)"
           id="path3312"
           style="fill:#666666;fill-opacity:1;stroke:none;stroke-width:1;stroke-linecap:round;stroke-linejoin:miter;stroke-miterlimit:4;stroke-dasharray:none;stroke-dashoffset:10;stroke-opacity:1" />
      </g>
      <g
         transform="translate(40.000004,0)"
         id="g3386">
        <rect
           width="230"
           height="23.241756"
           x="230.58861"
           y="222.28078"
           id="rect3316"
           style="fill:#b4b4b4;fill-opacity:1;stroke:none;stroke-width:1;stroke-linecap:round;stroke-linejoin:miter;stroke-miterlimit:4;stroke-dasharray:none;stroke-dashoffset:10;stroke-opacity:1" />
        <path
           d="M 363.2633,288.81354 C 363.2633,346.58579 342.79443,393.41945 317.5448,393.41945 C 292.29517,393.41945 271.8263,346.58579 271.8263,288.81354 C 271.8263,231.04129 292.29517,184.20763 317.5448,184.20763 C 342.79443,184.20763 363.2633,231.04129 363.2633,288.81354 L 363.2633,288.81354 z"
           transform="matrix(0.1312379,0,0,5.7358152e-2,178.01873,217.27863)"
           id="path3318"
           style="fill:#666666;fill-opacity:1;stroke:none;stroke-width:1;stroke-linecap:round;stroke-linejoin:miter;stroke-miterlimit:4;stroke-dasharray:none;stroke-dashoffset:10;stroke-opacity:1" />
      </g>
    </g>
    <g
       transform="translate(-109.85067,328.00648)"
       id="chart">
      <g
         id="g2464">
        <path
           d="M 146.98236,139.75295 L 146.98236,320.38703 L 455.57612,320.38703 L 455.57612,139.75295 L 146.98236,139.75295 z"
           id="path2524"
           style="fill:#ffffff;fill-opacity:1;stroke:#000000;stroke-width:1;stroke-linecap:round;stroke-linejoin:miter;stroke-miterlimit:4;stroke-dasharray:none;stroke-dashoffset:10;stroke-opacity:1" />
        <rect
           width="35.714287"
           height="128.11758"
           x="174.83095"
           y="179.28757"
           id="rect2526"
           style="fill:#b4b4b4;fill-opacity:1;stroke:none;stroke-width:1;stroke-linecap:round;stroke-linejoin:miter;stroke-miterlimit:4;stroke-dasharray:none;stroke-dashoffset:10;stroke-opacity:1" />
        <rect
           width="35.714287"
           height="91.395699"
           x="229.12653"
           y="216.00946"
           id="rect2444"
           style="fill:#b4b4b4;fill-opacity:1;stroke:none;stroke-width:1;stroke-linecap:round;stroke-linejoin:miter;stroke-miterlimit:4;stroke-dasharray:none;stroke-dashoffset:10;stroke-opacity:1" />
        <rect
           width="35.714287"
           height="131.50729"
           x="283.42209"
           y="175.89786"
           id="rect2446"
           style="fill:#b4b4b4;fill-opacity:1;stroke:none;stroke-width:1;stroke-linecap:round;stroke-linejoin:miter;stroke-miterlimit:4;stroke-dasharray:none;stroke-dashoffset:10;stroke-opacity:1" />
        <rect
           width="35.714287"
           height="154.67033"
           x="337.71768"
           y="152.73482"
           id="rect2448"
           style="fill:#b4b4b4;fill-opacity:1;stroke:none;stroke-width:1;stroke-linecap:round;stroke-linejoin:miter;stroke-miterlimit:4;stroke-dasharray:none;stroke-dashoffset:10;stroke-opacity:1" />
        <rect
           width="35.714287"
           height="104.3896"
           x="392.01324"
           y="203.01555"
           id="rect2450"
           style="fill:#b4b4b4;fill-opacity:1;stroke:none;stroke-width:1;stroke-linecap:round;stroke-linejoin:miter;stroke-miterlimit:4;stroke-dasharray:none;stroke-dashoffset:10;stroke-opacity:1" />
      </g>
    </g>
  </g>
</svg>
