<?xml version="1.0" encoding="UTF-8" standalone="no"?>
<!-- Created with Inkscape (http://www.inkscape.org/) -->

<svg
   xmlns:dc="http://purl.org/dc/elements/1.1/"
   xmlns:cc="http://creativecommons.org/ns#"
   xmlns:rdf="http://www.w3.org/1999/02/22-rdf-syntax-ns#"
   xmlns:svg="http://www.w3.org/2000/svg"
   xmlns="http://www.w3.org/2000/svg"
   xmlns:xlink="http://www.w3.org/1999/xlink"
   xmlns:sodipodi="http://sodipodi.sourceforge.net/DTD/sodipodi-0.dtd"
   xmlns:inkscape="http://www.inkscape.org/namespaces/inkscape"
   width="48px"
   height="48px"
   id="svg3463"
   version="1.1"
   inkscape:version="0.48.3.1 r9886"
   sodipodi:docname="icon-visible_on-red.svg">
  <defs
     id="defs3465">
    <linearGradient
       y2="56.055851"
       x2="65.687874"
       y1="55.998959"
       x1="80.010139"
       gradientTransform="matrix(1.0606604,-1.0606604,1.0606604,1.0606604,-71.968564,109.54959)"
       gradientUnits="userSpaceOnUse"
       id="linearGradient7095"
       xlink:href="#linearGradient4214-9-6-6"
       inkscape:collect="always" />
    <linearGradient
       id="linearGradient4214-9-6-6">
      <stop
         style="stop-color:#78001e;stop-opacity:1;"
         offset="0"
         id="stop4216-3-1-6" />
      <stop
         id="stop4218-02-2-7"
         offset="0.79447055"
         style="stop-color:#78001e;stop-opacity:0.47058824;" />
      <stop
         style="stop-color:#78001e;stop-opacity:0;"
         offset="1"
         id="stop4220-56-7-0" />
    </linearGradient>
    <linearGradient
       inkscape:collect="always"
       xlink:href="#linearGradient6936"
       id="linearGradient6944"
       x1="176"
       y1="88"
       x2="176"
       y2="112"
       gradientUnits="userSpaceOnUse" />
    <linearGradient
       inkscape:collect="always"
       id="linearGradient6936">
      <stop
         style="stop-color:#78001e;stop-opacity:1;"
         offset="0"
         id="stop6938" />
      <stop
         style="stop-color:#78001e;stop-opacity:0;"
         offset="1"
         id="stop6940" />
    </linearGradient>
    <linearGradient
       inkscape:collect="always"
       xlink:href="#linearGradient6936"
       id="linearGradient3601"
       x1="176"
       y1="88"
       x2="176"
       y2="112"
       gradientUnits="userSpaceOnUse" />
    <linearGradient
       inkscape:collect="always"
       xlink:href="#linearGradient6936"
       id="linearGradient6942"
       x1="184"
       y1="88"
       x2="184"
       y2="112"
       gradientUnits="userSpaceOnUse" />
    <linearGradient
       inkscape:collect="always"
       xlink:href="#linearGradient6936"
       id="linearGradient3616"
       x1="184"
       y1="88"
       x2="184"
       y2="112"
       gradientUnits="userSpaceOnUse" />
    <linearGradient
       y2="112"
       x2="184"
       y1="88"
       x1="184"
       gradientUnits="userSpaceOnUse"
       id="linearGradient3630"
       xlink:href="#linearGradient6936"
       inkscape:collect="always" />
    <linearGradient
       inkscape:collect="always"
       xlink:href="#linearGradient9325"
       id="linearGradient9331"
       x1="72"
       y1="256"
       x2="72"
       y2="272"
       gradientUnits="userSpaceOnUse" />
    <linearGradient
       id="linearGradient9325">
      <stop
         style="stop-color:#78001e;stop-opacity:0.58823532;"
         offset="0"
         id="stop9327" />
      <stop
         style="stop-color:#78001e;stop-opacity:0;"
         offset="1"
         id="stop9329" />
    </linearGradient>
  </defs>
  <sodipodi:namedview
     id="base"
     pagecolor="#ffffff"
     bordercolor="#666666"
     borderopacity="1.0"
     inkscape:pageopacity="0.0"
     inkscape:pageshadow="2"
     inkscape:zoom="3.5"
     inkscape:cx="28.170429"
     inkscape:cy="26.892404"
     inkscape:current-layer="layer1"
     showgrid="true"
     inkscape:grid-bbox="true"
     inkscape:document-units="px"
     inkscape:window-width="645"
     inkscape:window-height="418"
     inkscape:window-x="1005"
     inkscape:window-y="137"
     inkscape:window-maximized="0">
    <inkscape:grid
       type="xygrid"
       id="grid3517"
       empspacing="8"
       visible="true"
       enabled="true"
       snapvisiblegridlinesonly="true" />
  </sodipodi:namedview>
  <metadata
     id="metadata3468">
    <rdf:RDF>
      <cc:Work
         rdf:about="">
        <dc:format>image/svg+xml</dc:format>
        <dc:type
           rdf:resource="http://purl.org/dc/dcmitype/StillImage" />
        <dc:title></dc:title>
      </cc:Work>
    </rdf:RDF>
  </metadata>
  <g
     id="layer1"
     inkscape:label="Layer 1"
     inkscape:groupmode="layer">
    <g
       transform="matrix(0.9999989,0,0,0.99999897,-127.99986,-287.99965)"
       style="display:inline"
       id="g3419">
      <path
         inkscape:connector-curvature="0"
         d="M 152.00002,287.99995 C 138.74518,287.99995 128,298.74513 128,311.99997 128,325.25482 138.74518,336 152.00002,336 c 13.25485,0 24.00003,-10.74518 24.00003,-24.00003 0,-13.25484 -10.74518,-24.00002 -24.00003,-24.00002 z m 0,4 c 11.0457,0 20.00002,8.95431 20.00002,20.00002 0,11.0457 -8.95432,20.00002 -20.00002,20.00002 -11.04571,0 -20.00002,-8.95432 -20.00002,-20.00002 0,-11.04571 8.95431,-20.00002 20.00002,-20.00002 z"
         id="path3850-7-3-4"
         style="color:#000000;fill:#78001e;fill-opacity:1;fill-rule:nonzero;stroke:none;stroke-width:1.5;marker:none;visibility:visible;display:inline;overflow:visible;enable-background:accumulate" />
      <g
         transform="translate(0,48)"
         id="g9456">
        <path
           inkscape:connector-curvature="0"
           style="fill:#78001e;fill-opacity:1;stroke:none"
           d="m 140,262 0,16 24,0 0,-16 -24,0 z m 18.5,5 c 0.82843,0 1.5,0.67157 1.5,1.5 0,0.65584 -0.41359,1.20241 -1,1.40625 l 0,3.09375 -1,0 0,-1 0,-2 0,-0.0937 c -0.58641,-0.20384 -1,-0.75041 -1,-1.40625 0,-0.82843 0.67157,-1.5 1.5,-1.5 z"
           id="path9337" />
        <path
           style="font-size:medium;font-style:normal;font-variant:normal;font-weight:normal;font-stretch:normal;text-indent:0;text-align:start;text-decoration:none;line-height:normal;letter-spacing:normal;word-spacing:normal;text-transform:none;direction:ltr;block-progression:tb;writing-mode:lr-tb;text-anchor:start;baseline-shift:baseline;color:#000000;fill:#78001e;fill-opacity:1;stroke:none;stroke-width:3;marker:none;visibility:visible;display:inline;overflow:visible;enable-background:accumulate;font-family:Sans;-inkscape-font-specification:Sans"
           d="m 152,248.5 c -4.375,0 -6.85524,1.86672 -7.84375,3.84375 -0.88739,1.77479 -0.67351,3.31776 -0.625,3.65625 l -0.0312,0 0,8 3,0 0,-8 0,-0.125 -0.0312,-0.125 c 0,0 -0.13649,-1.07078 0.375,-2.09375 C 147.35524,252.63328 148.375,251.5 152,251.5 c 3.625,0 4.64476,1.13328 5.15625,2.15625 0.51149,1.02297 0.375,2.34375 0.375,2.34375 l 2.9375,0.0625 c 0,0 0.36351,-1.74172 -0.625,-3.71875 C 158.85524,250.36672 156.375,248.5 152,248.5 z"
           id="path9346"
           inkscape:connector-curvature="0"
           sodipodi:nodetypes="ssccccccccssccss" />
      </g>
    </g>
  </g>
</svg>
