/* XPM */
static char*doubleslash[]={
"22 22 3 1",
"# c #afb49f",
"a c #000000",
". c None",
"........########......",
"......##########......",
"..####aa##########aa##",
"..####aa##########aa..",
"..####aa##########aa..",
"..####aa##########aa..",
"#####aa##########aa...",
"..###aa##########aa...",
"...##aa##########aa...",
"....aa##########aa....",
"....aa##########aa....",
"....aa##########aa....",
"....aa##########aa#...",
"...aa##########aa##...",
"...aa##########aa###..",
"...aa##########aa###..",
"..aa##########aa####..",
"..aa##########aa####..",
"..aa##########aa####..",
"..aa##########aa####..",
".......##.#...#...##..",
".........###.........."};
