/* XPM */
static char*doublebracket[]={
"22 22 3 1",
"# c #afb49f",
"a c #000000",
". c None",
"......................",
".......#..............",
"..aaaaaa######aaaaaa..",
".#aaaaaa######aaaaaa..",
".#aa...#######....aa..",
"..aa...#######....aa..",
"..aa...#######....aa..",
"..aa...#######....aa..",
"..aa...#######....aa..",
"..aa...#######....aa..",
"..aa...#######....aa..",
"..aa...#######....aa..",
"..aa...#######....aa..",
"..aa...#######....aa..",
"..aa...#######....aa..",
"..aa...#######....aa..",
"..aa...#######....aa..",
"..aa...#######....aa..",
"..aaaaaa######aaaaaa..",
"..aaaaaa######aaaaaa..",
".......#..............",
"......................"};
