/* XPM */
static char*doubleparenthesis[]={
"22 22 3 1",
"# c #afb49f",
"a c #000000",
". c None",
".........#######......",
"......##########......",
"......#aa####aa#......",
"......aaa####aaa......",
"......aa######aa......",
".....aa########aa.....",
".....aa########aa.....",
"....aa##########aa....",
"....aa##########aa....",
"....aa##########aa....",
"....aa##########aa....",
"....aa##########aa....",
"....aa##########aa....",
"....aa##########aa....",
"....aa##########aa....",
".....aa########aa#....",
".....aa########aa#....",
"......aa######aa......",
"......aaa####aaa......",
"......#aa####aa#......",
".......##.............",
"......................"};
