/* XPM */
static char*leftparenthesis[]={
"22 22 3 1",
"# c #afb49f",
"a c #000000",
". c None",
".........#######......",
"......##########......",
"......#####aa###......",
"......####aaa###......",
"......####aa####......",
"......###aa#####......",
"......###aa#####......",
"......##aa######......",
"......##aa######......",
"......##aa######......",
"......##aa######......",
"......##aa######......",
"......##aa######......",
"......##aa######......",
"......##aa######......",
"......###aa#####......",
"......###aa#####......",
"......####aa####......",
"......####aaa###......",
"......#####aa###......",
".......##.............",
"......................"};
