/* XPM */
static char*rightbracket[]={
"22 22 3 1",
"# c #afb49f",
"a c #000000",
". c None",
"......................",
".......#..............",
".......#aaaaaa........",
".......#aaaaaa........",
".......###..aa........",
".......###..aa........",
".......###..aa........",
".......###..aa........",
".......###..aa........",
".......###..aa........",
".......###..aa........",
".......###..aa........",
".......###..aa........",
".......###..aa........",
".......###..aa........",
".......###..aa........",
".......###..aa........",
".......###..aa........",
".......#aaaaaa........",
".......#aaaaaa........",
".......#..............",
"......................"};
