<?xml version="1.0" encoding="UTF-8" standalone="no"?>
<svg
   xmlns:dc="http://purl.org/dc/elements/1.1/"
   xmlns:cc="http://web.resource.org/cc/"
   xmlns:rdf="http://www.w3.org/1999/02/22-rdf-syntax-ns#"
   xmlns:svg="http://www.w3.org/2000/svg"
   xmlns="http://www.w3.org/2000/svg"
   xmlns:sodipodi="http://inkscape.sourceforge.net/DTD/sodipodi-0.dtd"
   xmlns:inkscape="http://www.inkscape.org/namespaces/inkscape"
   inkscape:export-ydpi="72.000000"
   inkscape:export-xdpi="72.000000"
   inkscape:export-filename="/home/danny/work/kde/koffice/templates/kspread/cr48-action-template_creditcardtracker.png"
   sodipodi:docbase="/home/danny/work/kde/koffice/templates/kspread"
   sodipodi:docname="crsc-action-template_creditcardtracker.svg"
   inkscape:version="0.41"
   sodipodi:version="0.32"
   id="svg1"
   x="0"
   y="0"
   version="1.0"
   _SVGFile__filename="oldscale/actions/aobottom.svg"
   width="60"
   height="60">
  <sodipodi:namedview
     inkscape:current-layer="svg1"
     inkscape:window-y="0"
     inkscape:window-x="0"
     inkscape:window-height="691"
     inkscape:window-width="1020"
     inkscape:cy="29.172597"
     inkscape:cx="64.719876"
     inkscape:zoom="6.0612328"
     inkscape:pageshadow="2"
     inkscape:pageopacity="0.0000000"
     borderopacity="1.0"
     bordercolor="#666666"
     pagecolor="#ffffff"
     id="base" />
  <defs
     id="defs3" />
  <metadata
     id="metadata7">
    <RDF
       id="RDF8">
      <Work
         id="Work9"
         about="">
        <title
           id="title10">Part of the Flat Icon Collection (Thu Aug 26 14:38:01 2004)</title>
        <description
           id="description12" />
        <subject
           id="subject13">
          <Bag
             id="Bag14">
            <li
               id="li15" />
          </Bag>
        </subject>
        <publisher
           id="publisher16">
          <Agent
             id="Agent17"
             about="">
            <title
               id="title18" />
          </Agent>
        </publisher>
        <creator
           id="creator19">
          <Agent
             id="Agent20"
             about="">
            <title
               id="title21">Danny Allen</title>
          </Agent>
        </creator>
        <rights
           id="rights23">
          <Agent
             id="Agent24"
             about="">
            <title
               id="title25">Danny Allen</title>
          </Agent>
        </rights>
        <date
           id="date27" />
        <format
           id="format28">image/svg+xml</format>
        <type
           resource="http://purl.org/dc/dcmitype/StillImage"
           id="type30" />
        <license
           resource="http://creativecommons.org/licenses/LGPL/2.1/"
           id="license31">
          <date
             id="date32" />
        </license>
        <language
           id="language33">en</language>
      </Work>
    </RDF>
    <rdf:RDF
       id="RDF35">
      <cc:Work
         id="Work36"
         rdf:about="">
        <dc:format
           id="format37">image/svg+xml</dc:format>
        <dc:type
           rdf:resource="http://purl.org/dc/dcmitype/StillImage"
           id="type39" />
      </cc:Work>
    </rdf:RDF>
  </metadata>
  <path
     sodipodi:nodetypes="cccccc"
     id="path2077"
     d="M 10.814596,55.624341 L 10.814596,4.3756594 L 39.921219,4.3756594 L 49.185404,13.639844 L 49.185404,55.624341 L 10.814596,55.624341 z "
     style="color:#000000;fill:none;fill-opacity:1.0000000;fill-rule:nonzero;stroke:#ffffff;stroke-width:7.5000019;stroke-linecap:round;stroke-linejoin:round;stroke-miterlimit:4.0000000;stroke-dashoffset:0.0000000;stroke-opacity:1.0000000;marker:none;marker-start:none;marker-mid:none;marker-end:none;visibility:visible;display:block" />
  <path
     sodipodi:nodetypes="cccccc"
     id="rect1089"
     d="M 10.814596,55.624341 L 10.814596,4.3756594 L 39.921219,4.3756594 L 49.185404,13.639844 L 49.185404,55.624341 L 10.814596,55.624341 z "
     style="display:block;visibility:visible;marker-end:none;marker-mid:none;marker-start:none;marker:none;stroke-opacity:1.0000000;stroke-dashoffset:0.0000000;stroke-miterlimit:4.0000000;stroke-linejoin:round;stroke-linecap:round;stroke-width:2.5000007;stroke:none;fill-rule:nonzero;fill-opacity:1.0000000;fill:#ffffff;color:#000000" />
  <path
     sodipodi:nodetypes="cccc"
     id="path1713"
     d="M 39.921218,13.639845 L 39.921218,4.3756604 L 49.185403,13.639845 L 39.921218,13.639845 z "
     style="color:#000000;fill:#000000;fill-opacity:1.0000000;fill-rule:nonzero;stroke:#000000;stroke-width:2.5000007;stroke-linecap:round;stroke-linejoin:round;stroke-miterlimit:4.0000000;stroke-dashoffset:0.0000000;stroke-opacity:1.0000000;marker:none;marker-start:none;marker-mid:none;marker-end:none;visibility:visible;display:block" />
  <path
     id="path944"
     d="M 23.458651,30.690870 C 22.714398,30.587541 22.037218,31.105436 21.933889,31.849689 L 20.022855,45.613202 C 19.919526,46.357461 20.437421,47.034634 21.181674,47.137963 L 48.098795,50.878711 C 48.572074,50.944424 48.967377,50.705075 49.257613,50.370457 L 49.257613,34.268977 L 23.458651,30.690870 z "
     style="font-size:12.000000;fill:#ffffff;fill-opacity:1.0000000;fill-rule:evenodd;stroke-width:1.8749990" />
  <path
     id="path940"
     d="M 22.238842,39.554816 C 21.492702,39.455618 20.831982,39.861812 20.754740,40.449343 L 20.368468,43.397215 C 20.291226,43.984753 20.821807,44.538156 21.567947,44.637354 L 48.566388,48.235791 C 48.824923,48.270167 49.039973,48.185262 49.257613,48.113810 L 49.257613,43.153253 C 49.250841,43.152277 49.244088,43.154164 49.237283,43.153253 L 22.238842,39.554816 z "
     style="font-size:12.000000;fill:#000000;fill-opacity:1.0000000;fill-rule:evenodd;stroke-width:1.0000000" />
  <path
     id="path942"
     d="M 49.257613,34.268977 L 23.458651,30.690870 C 22.714398,30.587541 22.037218,31.105436 21.933889,31.849689 L 20.022855,45.613202 C 19.919526,46.357461 20.437421,47.034634 21.181674,47.137963 L 48.098795,50.878711 C 48.572074,50.944424 48.967377,50.705075 49.257613,50.370457"
     style="stroke-miterlimit:4.0000000;stroke-dasharray:none;stroke-opacity:1.0000000;stroke-linejoin:round;stroke-linecap:round;stroke-width:1.2500000;stroke:#000000;fill-rule:evenodd;fill:none;font-size:12.000000" />
  <path
     id="rect1177"
     d="M 17.400103,26.684705 C 16.660128,26.815189 16.169456,27.515958 16.299942,28.255936 L 18.713314,41.941895 C 18.843801,42.681867 19.544570,43.172536 20.284545,43.042052 L 47.056382,38.321124 C 47.796360,38.190641 48.287029,37.489872 48.156545,36.749893 L 45.743171,23.063936 C 45.612687,22.323962 44.911918,21.833291 44.171940,21.963777 L 17.400103,26.684705 z "
     style="stroke-miterlimit:4.0000000;stroke-dasharray:none;stroke-opacity:1.0000000;stroke-linejoin:round;stroke-linecap:round;stroke-width:1.8750000;stroke:#000000;fill-rule:evenodd;fill-opacity:1.0000000;fill:#ffffff;font-size:12.000000" />
  <path
     sodipodi:nodetypes="cccccc"
     id="path2312"
     d="M 10.814596,55.624341 L 10.814596,4.3756594 L 39.921219,4.3756594 L 49.185404,13.639844 L 49.185404,55.624341 L 10.814596,55.624341 z "
     style="color:#000000;fill:none;fill-opacity:1.0000000;fill-rule:nonzero;stroke:#000000;stroke-width:2.5000007;stroke-linecap:round;stroke-linejoin:round;stroke-miterlimit:4.0000000;stroke-dashoffset:0.0000000;stroke-opacity:1.0000000;marker:none;marker-start:none;marker-mid:none;marker-end:none;visibility:visible;display:block" />
  <path
     id="path828"
     d="M 24.599891,39.539306 L 24.494967,38.968048 C 24.083967,39.013579 23.659744,39.033728 23.222305,39.028490 C 22.784862,39.023250 22.378720,38.943798 22.003878,38.790124 C 21.632416,38.631554 21.413230,38.370127 21.346322,38.005845 C 21.296141,37.732634 21.337834,37.470365 21.471400,37.219033 C 21.609102,36.966942 21.806282,36.817328 22.062935,36.770188 C 22.174704,36.749660 22.386876,36.774878 22.699458,36.845841 C 23.012033,36.916806 23.265097,36.966608 23.458643,36.995247 C 23.656327,37.023126 23.879357,37.014255 24.127732,36.968635 L 23.761639,34.975438 C 23.202122,34.911315 22.726325,34.825396 22.334249,34.717684 C 21.941413,34.605830 21.613840,34.464872 21.351527,34.294811 C 21.088453,34.120612 20.884431,33.918450 20.739464,33.688321 C 20.598633,33.457436 20.500469,33.190901 20.444965,32.888710 C 20.367413,32.466476 20.371215,32.067810 20.456373,31.692714 C 20.540768,31.313481 20.688104,30.974037 20.898378,30.674382 C 21.112030,30.369829 21.378654,30.109040 21.698243,29.892007 C 22.017834,29.674977 22.365389,29.516998 22.740909,29.418071 L 22.630282,28.815765 C 22.583903,28.563253 22.686967,28.413806 22.939482,28.367426 C 23.196135,28.320286 23.347650,28.422974 23.394029,28.675487 L 23.504656,29.277793 C 23.816645,29.229049 24.154484,29.216209 24.518174,29.239271 C 24.885243,29.257437 25.209143,29.343438 25.489872,29.497278 C 25.770602,29.651118 25.941381,29.893622 26.002206,30.224785 C 26.031858,30.386229 26.023493,30.550377 25.977113,30.717226 C 25.934114,30.879176 25.854744,31.017849 25.739004,31.133252 C 25.627403,31.247890 25.490884,31.320039 25.329440,31.349691 C 25.230092,31.367939 25.104342,31.358940 24.952192,31.322698 C 24.804179,31.285696 24.668968,31.248480 24.546557,31.211054 C 24.423382,31.169493 24.304562,31.139964 24.190091,31.122477 C 24.074859,31.100849 23.959287,31.100681 23.843379,31.121971 L 24.177539,32.941307 C 25.086049,33.018356 25.840631,33.224237 26.441288,33.558953 C 27.046087,33.892906 27.422617,34.463489 27.570880,35.270706 C 27.659077,35.750894 27.648768,36.195686 27.539958,36.605080 C 27.434523,37.009573 27.262183,37.364307 27.022930,37.669284 C 26.787060,37.969358 26.513637,38.216424 26.202663,38.410476 C 25.891689,38.604529 25.577040,38.743625 25.258714,38.827769 L 25.363638,39.399027 C 25.410018,39.651541 25.304882,39.801368 25.048229,39.848508 C 24.795715,39.894888 24.646271,39.791820 24.599891,39.539306 z M 23.371594,32.851839 L 23.079632,31.262249 C 22.881016,31.345798 22.729161,31.474251 22.624066,31.647606 C 22.522350,31.816062 22.492403,32.014126 22.534220,32.241802 C 22.569195,32.432223 22.662249,32.577741 22.813386,32.678360 C 22.968662,32.778213 23.154731,32.836043 23.371594,32.851839 z M 24.561881,35.033858 L 24.891479,36.828357 C 25.094320,36.791101 25.249765,36.670548 25.357816,36.466695 C 25.470008,36.262082 25.505194,36.045939 25.463376,35.818263 C 25.415476,35.557471 25.316888,35.370177 25.167608,35.256381 C 25.021712,35.137686 24.819803,35.063509 24.561881,35.033858 z "
     style="font-size:12.000000;font-weight:900;fill:#000000;fill-opacity:1.0000000;stroke-width:1.0000000;font-family:VAG Rounded Black SSi" />
  <path
     style="fill:none;fill-opacity:0.75000000;fill-rule:evenodd;stroke:#000000;stroke-width:2.5000000;stroke-linecap:round;stroke-linejoin:round;stroke-miterlimit:4.0000000;stroke-opacity:1.0000000"
     d="M 32.006690,36.242457 L 42.565598,34.262662"
     id="path1361" />
</svg>
