<?xml version="1.0" encoding="UTF-8" standalone="no"?>
<svg
   xmlns:dc="http://purl.org/dc/elements/1.1/"
   xmlns:cc="http://web.resource.org/cc/"
   xmlns:rdf="http://www.w3.org/1999/02/22-rdf-syntax-ns#"
   xmlns:svg="http://www.w3.org/2000/svg"
   xmlns="http://www.w3.org/2000/svg"
   xmlns:sodipodi="http://inkscape.sourceforge.net/DTD/sodipodi-0.dtd"
   xmlns:inkscape="http://www.inkscape.org/namespaces/inkscape"
   height="60"
   width="60"
   _SVGFile__filename="oldscale/actions/aobottom.svg"
   version="1.0"
   y="0"
   x="0"
   id="svg1"
   sodipodi:version="0.32"
   inkscape:version="0.41"
   sodipodi:docname="crsc-action-template_vacationchecklist.svg"
   sodipodi:docbase="/home/danny/work/kde/koffice/templates/kspread"
   inkscape:export-filename="/home/danny/work/kde/koffice/templates/kspread/cr48-action-template_vacationchecklist.png"
   inkscape:export-xdpi="72.000000"
   inkscape:export-ydpi="72.000000">
  <sodipodi:namedview
     id="base"
     pagecolor="#ffffff"
     bordercolor="#666666"
     borderopacity="1.0"
     inkscape:pageopacity="0.0000000"
     inkscape:pageshadow="2"
     inkscape:zoom="6.0612328"
     inkscape:cx="64.719876"
     inkscape:cy="29.172597"
     inkscape:window-width="1020"
     inkscape:window-height="691"
     inkscape:window-x="0"
     inkscape:window-y="0"
     inkscape:current-layer="svg1" />
  <defs
     id="defs3" />
  <metadata
     id="metadata7">
    <RDF
       id="RDF8">
      <Work
         about=""
         id="Work9">
        <title
           id="title10">Part of the Flat Icon Collection (Thu Aug 26 14:38:01 2004)</title>
        <description
           id="description12" />
        <subject
           id="subject13">
          <Bag
             id="Bag14">
            <li
               id="li15" />
          </Bag>
        </subject>
        <publisher
           id="publisher16">
          <Agent
             about=""
             id="Agent17">
            <title
               id="title18" />
          </Agent>
        </publisher>
        <creator
           id="creator19">
          <Agent
             about=""
             id="Agent20">
            <title
               id="title21">Danny Allen</title>
          </Agent>
        </creator>
        <rights
           id="rights23">
          <Agent
             about=""
             id="Agent24">
            <title
               id="title25">Danny Allen</title>
          </Agent>
        </rights>
        <date
           id="date27" />
        <format
           id="format28">image/svg+xml</format>
        <type
           id="type30"
           resource="http://purl.org/dc/dcmitype/StillImage" />
        <license
           id="license31"
           resource="http://creativecommons.org/licenses/LGPL/2.1/">
          <date
             id="date32" />
        </license>
        <language
           id="language33">en</language>
      </Work>
    </RDF>
    <rdf:RDF
       id="RDF35">
      <cc:Work
         rdf:about=""
         id="Work36">
        <dc:format
           id="format37">image/svg+xml</dc:format>
        <dc:type
           id="type39"
           rdf:resource="http://purl.org/dc/dcmitype/StillImage" />
      </cc:Work>
    </rdf:RDF>
  </metadata>
  <path
     style="color:#000000;fill:none;fill-opacity:1.0000000;fill-rule:nonzero;stroke:#ffffff;stroke-width:7.5000019;stroke-linecap:round;stroke-linejoin:round;stroke-miterlimit:4.0000000;stroke-dashoffset:0.0000000;stroke-opacity:1.0000000;marker:none;marker-start:none;marker-mid:none;marker-end:none;visibility:visible;display:block"
     d="M 10.814596,55.624341 L 10.814596,4.3756594 L 39.921219,4.3756594 L 49.185404,13.639844 L 49.185404,55.624341 L 10.814596,55.624341 z "
     id="path2077"
     sodipodi:nodetypes="cccccc" />
  <path
     style="display:block;visibility:visible;marker-end:none;marker-mid:none;marker-start:none;marker:none;stroke-opacity:1.0000000;stroke-dashoffset:0.0000000;stroke-miterlimit:4.0000000;stroke-linejoin:round;stroke-linecap:round;stroke-width:2.5000007;stroke:#000000;fill-rule:nonzero;fill-opacity:1.0000000;fill:#ffffff;color:#000000"
     d="M 10.814596,55.624341 L 10.814596,4.3756594 L 39.921219,4.3756594 L 49.185404,13.639844 L 49.185404,55.624341 L 10.814596,55.624341 z "
     id="path2312"
     sodipodi:nodetypes="cccccc" />
  <path
     style="color:#000000;fill:#000000;fill-opacity:1.0000000;fill-rule:nonzero;stroke:#000000;stroke-width:2.5000007;stroke-linecap:round;stroke-linejoin:round;stroke-miterlimit:4.0000000;stroke-dashoffset:0.0000000;stroke-opacity:1.0000000;marker:none;marker-start:none;marker-mid:none;marker-end:none;visibility:visible;display:block"
     d="M 39.921218,13.639845 L 39.921218,4.3756604 L 49.185403,13.639845 L 39.921218,13.639845 z "
     id="path1713"
     sodipodi:nodetypes="cccc" />
  <g
     id="g1688"
     transform="matrix(0.592564,0.000000,0.000000,0.592564,-20.65529,16.84612)">
    <path
       style="font-size:12.000000;fill:#ffffff;fill-opacity:1.0000000;fill-rule:evenodd;stroke:#000000;stroke-width:2.1094768;stroke-linecap:round;stroke-linejoin:round;stroke-miterlimit:4.0000000;stroke-opacity:1.0000000"
       d="M 63.060639,33.612734 C 62.501186,33.612734 62.050796,34.063125 62.050796,34.622577 L 62.050796,56.498769 C 62.050796,57.058229 62.501186,57.508619 63.060639,57.508619 L 84.936831,57.508619 C 85.496290,57.508619 85.946681,57.058229 85.946681,56.498769 L 85.946681,34.622577 C 85.946681,34.063125 85.496290,33.612734 84.936831,33.612734 L 63.060639,33.612734 z "
       id="rect839" />
    <path
       style="font-size:12.000000;fill:none;fill-opacity:0.75000000;fill-rule:evenodd;stroke:#000000;stroke-width:3.1642151;stroke-linecap:round;stroke-linejoin:round;stroke-miterlimit:4.0000000;stroke-opacity:1.0000000"
       d="M 67.193417,38.755357 L 80.627752,52.189692 M 80.874579,38.684837 L 67.122897,52.436518"
       id="path845" />
    <path
       style="font-size:12.000000;fill:#ffffff;fill-opacity:1.0000000;fill-rule:evenodd;stroke:#000000;stroke-width:2.1094768;stroke-linecap:round;stroke-linejoin:round;stroke-miterlimit:4.0000000;stroke-opacity:1.0000000"
       d="M 63.060639,3.7574407 C 62.501186,3.7574407 62.050796,4.2078317 62.050796,4.7672837 L 62.050796,26.643476 C 62.050796,27.202936 62.501186,27.653326 63.060639,27.653326 L 84.936831,27.653326 C 85.496290,27.653326 85.946681,27.202936 85.946681,26.643476 L 85.946681,4.7672837 C 85.946681,4.2078317 85.496290,3.7574407 84.936831,3.7574407 L 63.060639,3.7574407 z "
       id="path1104" />
    <path
       style="font-size:12.000000;fill:none;fill-opacity:0.75000000;fill-rule:evenodd;stroke:#000000;stroke-width:3.1642151;stroke-linecap:round;stroke-linejoin:round;stroke-miterlimit:4.0000000;stroke-opacity:1.0000000"
       d="M 67.193417,8.9000627 L 80.627752,22.334400 M 80.874579,8.8295427 L 67.122897,22.581225"
       id="path1105" />
    <path
       style="fill:#000000;fill-opacity:1.0000000;fill-rule:evenodd;stroke:none;stroke-width:10.000000;stroke-linecap:round;stroke-linejoin:round;stroke-miterlimit:4.0000000;stroke-opacity:1.0000000"
       d="M 97.238300,4.7425370 C 94.476878,4.8806081 92.350229,7.2311133 92.488300,9.9925370 C 92.626371,12.753961 94.976876,14.880608 97.738300,14.742537 L 118.30080,14.742537 L 118.30080,4.7425370 C 118.30080,4.7425370 97.404862,4.7341993 97.238300,4.7425370 z "
       id="path1741"
       sodipodi:nodetypes="cccccc" />
    <path
       style="fill:#000000;fill-opacity:1.0000000;fill-rule:evenodd;stroke:none;stroke-width:5.0000000;stroke-linecap:round;stroke-linejoin:round;stroke-miterlimit:4.0000000;stroke-opacity:1.0000000"
       d="M 98.050800,21.555037 C 96.670088,21.624074 95.606764,22.799325 95.675800,24.180037 C 95.744836,25.560750 96.920088,26.624073 98.300800,26.555037 L 118.30080,26.555037 L 118.30080,21.555037 L 98.300800,21.555037 C 98.217519,21.550869 98.134081,21.550868 98.050800,21.555037 z M 98.050800,31.555037 C 96.670088,31.624074 95.606764,32.799325 95.675800,34.180037 C 95.744836,35.560750 96.920088,36.624073 98.300800,36.555037 L 118.30080,36.555037 L 118.30080,31.555037 L 98.300800,31.555037 C 98.217519,31.550869 98.134081,31.550868 98.050800,31.555037 z M 98.050800,41.555037 C 96.670088,41.624074 95.606764,42.799325 95.675800,44.180037 C 95.744836,45.560750 96.920088,46.624073 98.300800,46.555037 L 118.30080,46.555037 L 118.30080,41.555037 L 98.300800,41.555037 C 98.217519,41.550869 98.134081,41.550868 98.050800,41.555037 z M 98.050800,51.555037 C 96.670088,51.624074 95.606764,52.799325 95.675800,54.180037 C 95.744836,55.560750 96.920088,56.624073 98.300800,56.555037 L 118.30080,56.555037 L 118.30080,51.555037 L 98.300800,51.555037 C 98.217519,51.550869 98.134081,51.550868 98.050800,51.555037 z "
       id="path1742" />
  </g>
</svg>
