/* XPM */
static char*Connection7[]={
"32 32 2 1",
"# c #000000",
". c #ffffff",
"................................",
".################...............",
"................#...............",
"................#...............",
"................#...............",
"................#...............",
"................#...............",
"................#...............",
"................#...............",
"................#...............",
"................#...............",
"................#...............",
"................#...............",
"................#...............",
"................#...............",
"................#...............",
"................###############.",
"................#...............",
"................#...............",
"................#...............",
"................#...............",
"................#...............",
"................#...............",
"................#...............",
"................#...............",
"................#...............",
"................#...............",
"................#...............",
"................#...............",
"................#...............",
"................#...............",
".################..............."};
