/* XPM */
static char*Connection2[]={
"32 32 2 1",
". c #f8fcf8",
"# c #000000",
"................................",
"................###############.",
"................#...............",
"................#...............",
"................#...............",
"................#...............",
"................#...............",
"................#...............",
"................#...............",
"................#...............",
"................#...............",
"................#...............",
"................#...............",
"................#...............",
"................#...............",
"................#...............",
"................#...............",
"................#...............",
"................#...............",
"................#...............",
"................#...............",
"................#...............",
"................#...............",
"................#...............",
"................#...............",
"................#...............",
"................#...............",
"................#...............",
"................#...............",
"................#...............",
"................#...............",
".################..............."};
