/* XPM */
static char * fdiag_cursor_xpm[] = {
"32 32 2 1",
" 	c None",
".	c #000000",
"                                ",
"                                ",
"                                ",
"                                ",
"                                ",
"                                ",
"      .........                 ",
"      ........                  ",
"      .......                   ",
"      ......                    ",
"      ......                    ",
"      .......                   ",
"      ... ....                  ",
"      ..   ....                 ",
"      .     ....                ",
"             ....               ",
"              ....              ",
"               ....             ",
"                ....     .      ",
"                 ....   ..      ",
"                  .... ...      ",
"                   .......      ",
"                    ......      ",
"                    ......      ",
"                  ........      ",
"                 .........      ",
"                 .........      ",
"                                ",
"                                ",
"                                ",
"                                ",
"                                "};
