/* XPM */
static char * openhand_cursor_xpm[] = {
"32 32 3 1",
" 	g None",
".	g #000000",
"+	g #FFFFFF",
"              ....              ",
"             ......             ",
"       ...  ...++.. ....        ",
"      ..... ..++++.......       ",
"     ..+++....++++..++++..      ",
"    ..++++....++++..++++..      ",
"    ..+++++...++++..++++..  ..  ",
"     ..++++...++++..++++.. .... ",
"     ..+++++..++++..++++....++..",
"      ..++++..++++..++++...+++..",
"      ..++++..++++.+++++..++++..",
"       ..++++.++++.+++++..++++..",
"  .... ..+++++++++++++++..++++..",
" .....  .+++++++++++++++.+++++..",
"...++.....+++++++++++++++++++...",
"..++++....+++++++++++++++++++...",
"..++++++..+++++++++++++++++++.. ",
"...+++++..++++++++++++++++++... ",
"  ..++++++++++++++++++++++++..  ",
"  ..++++++++++++++++++++++++..  ",
"   ..++++++++++++++++++++++...  ",
"    ..+++++++++++++++++++++..   ",
"    ..++++++++++++++++++++...   ",
"     ..+++++++++++++++++++..    ",
"      ..++++++++++++++++++..    ",
"       ..++++++++++++++++..     ",
"        ..++++++++++++++...     ",
"         ..+++++++++++++..      ",
"          ..++++++++++++..      ",
"          ..++++++++++++..      ",
"                                ",
"                                "};
