/* XPM */
static char * Gradient_Blue_Red_xpm[] = {
"60 45 42 1",
" 	c #10400000FFFF",
".	c #18610000F7DE",
"X	c #18610000EFBE",
"o	c #20810000EFBE",
"O	c #20810000E79D",
"+	c #28A20000DF7D",
"@	c #28A20000D75C",
"#	c #30C20000D75C",
"$	c #30C20000CF3C",
"%	c #38E30000C71B",
"&	c #38E30000BEFB",
"*	c #41030000BEFB",
"=	c #41030000B6DA",
"-	c #41030000AEBA",
";	c #49240000AEBA",
":	c #49240000A699",
">	c #514400009E79",
",	c #514400009658",
"<	c #596500009658",
"1	c #596500008E38",
"2	c #618500008617",
"3	c #6185000079E7",
"4	c #69A6000071C6",
"5	c #69A6000069A6",
"6	c #71C6000069A6",
"7	c #71C600006185",
"8	c #79E700005965",
"9	c #79E700005144",
"0	c #861700004924",
"q	c #861700004103",
"w	c #8E3800004103",
"e	c #8E38000038E3",
"r	c #9658000030C2",
"t	c #9658000028A2",
"y	c #9E7900002081",
"u	c #9E7900001861",
"i	c #A69900001861",
"p	c #A69900001040",
"a	c #AEBA00000820",
"s	c #AEBA00000000",
"d	c #B6DA00000000",
"f	c #0000FFFFFFFF",
"  ..XoOO+@#$$%%&*=-;::>>,<1123344567789900qweerrtyyuippaasdd",
"  ..XoOO+@#$$%%&*=-;::>>,<1123344567789900qweerrtyyuippaasdd",
"  ..XoOO+@#$$%%&*=-;::>>,<1123344567789900qweerrtyyuippaasdd",
"  ..XoOO+@#$$%%&*=-;::>>,<1123344567789900qweerrtyyuippaasdd",
"  ..XoOO+@#$$%%&*=-;::>>,<1123344567789900qweerrtyyuippaasdd",
"  ..XoOO+@#$$%%&*=-;::>>,<1123344567789900qweerrtyyuippaasdd",
"ffffffffffffffffffffffffffffffffffffffffffffffffffffffffffff",
"  ..XoOO+@#$$%%&*=-;::>>,<1123344567789900qweerrtyyuippaasdd",
"  ..XoOO+@#$$%%&*=-;::>>,<1123344567789900qweerrtyyuippaasdd",
"  ..XoOO+@#$$%%&*=-;::>>,<1123344567789900qweerrtyyuippaasdd",
"  ..XoOO+@#$$%%&*=-;::>>,<1123344567789900qweerrtyyuippaasdd",
"  ..XoOO+@#$$%%&*=-;::>>,<1123344567789900qweerrtyyuippaasdd",
"  ..XoOO+@#$$%%&*=-;::>>,<1123344567789900qweerrtyyuippaasdd",
"  ..XoOO+@#$$%%&*=-;::>>,<1123344567789900qweerrtyyuippaasdd",
"  ..XoOO+@#$$%%&*=-;::>>,<1123344567789900qweerrtyyuippaasdd",
"  ..XoOO+@#$$%%&*=-;::>>,<1123344567789900qweerrtyyuippaasdd",
"  ..XoOO+@#$$%%&*=-;::>>,<1123344567789900qweerrtyyuippaasdd",
"  ..XoOO+@#$$%%&*=-;::>>,<1123344567789900qweerrtyyuippaasdd",
"  ..XoOO+@#$$%%&*=-;::>>,<1123344567789900qweerrtyyuippaasdd",
"  ..XoOO+@#$$%%&*=-;::>>,<1123344567789900qweerrtyyuippaasdd",
"  ..XoOO+@#$$%%&*=-;::>>,<1123344567789900qweerrtyyuippaasdd",
"  ..XoOO+@#$$%%&*=-;::>>,<1123344567789900qweerrtyyuippaasdd",
"  ..XoOO+@#$$%%&*=-;::>>,<1123344567789900qweerrtyyuippaasdd",
"  ..XoOO+@#$$%%&*=-;::>>,<1123344567789900qweerrtyyuippaasdd",
"  ..XoOO+@#$$%%&*=-;::>>,<1123344567789900qweerrtyyuippaasdd",
"  ..XoOO+@#$$%%&*=-;::>>,<1123344567789900qweerrtyyuippaasdd",
"  ..XoOO+@#$$%%&*=-;::>>,<1123344567789900qweerrtyyuippaasdd",
"  ..XoOO+@#$$%%&*=-;::>>,<1123344567789900qweerrtyyuippaasdd",
"  ..XoOO+@#$$%%&*=-;::>>,<1123344567789900qweerrtyyuippaasdd",
"  ..XoOO+@#$$%%&*=-;::>>,<1123344567789900qweerrtyyuippaasdd",
"  ..XoOO+@#$$%%&*=-;::>>,<1123344567789900qweerrtyyuippaasdd",
"  ..XoOO+@#$$%%&*=-;::>>,<1123344567789900qweerrtyyuippaasdd",
"  ..XoOO+@#$$%%&*=-;::>>,<1123344567789900qweerrtyyuippaasdd",
"  ..XoOO+@#$$%%&*=-;::>>,<1123344567789900qweerrtyyuippaasdd",
"  ..XoOO+@#$$%%&*=-;::>>,<1123344567789900qweerrtyyuippaasdd",
"  ..XoOO+@#$$%%&*=-;::>>,<1123344567789900qweerrtyyuippaasdd",
"  ..XoOO+@#$$%%&*=-;::>>,<1123344567789900qweerrtyyuippaasdd",
"  ..XoOO+@#$$%%&*=-;::>>,<1123344567789900qweerrtyyuippaasdd",
"ffffffffffffffffffffffffffffffffffffffffffffffffffffffffffff",
"  ..XoOO+@#$$%%&*=-;::>>,<1123344567789900qweerrtyyuippaasdd",
"  ..XoOO+@#$$%%&*=-;::>>,<1123344567789900qweerrtyyuippaasdd",
"  ..XoOO+@#$$%%&*=-;::>>,<1123344567789900qweerrtyyuippaasdd",
"  ..XoOO+@#$$%%&*=-;::>>,<1123344567789900qweerrtyyuippaasdd",
"  ..XoOO+@#$$%%&*=-;::>>,<1123344567789900qweerrtyyuippaasdd",
"  ..XoOO+@#$$%%&*=-;::>>,<1123344567789900qweerrtyyuippaasdd"};
