/* XPM */
static char * Sand1_xpm[] = {
"60 45 63 1",
" 	c #208110400000",
".	c #41032CB21861",
"X	c #28A218610820",
"o	c #71C665955144",
"O	c #618561854924",
"+	c #618555554103",
"@	c #082004100000",
"#	c #4103410330C2",
"$	c #30C228A21040",
"%	c #18610C300000",
"&	c #28A220810820",
"*	c #208118610820",
"=	c #6185514438E3",
"-	c #104004100000",
";	c #30C228A21861",
":	c #79E76DB66185",
">	c #410338E328A2",
",	c #71C665955965",
"<	c #5144492438E3",
"1	c #861771C65965",
"2	c #71C661855144",
"3	c #5965492430C2",
"4	c #410334D32081",
"5	c #71C661854924",
"6	c #8E3879E75965",
"7	c #79E769A65144",
"8	c #8E386DB65144",
"9	c #965879E75965",
"0	c #AEBA924879E7",
"q	c #79E76DB65144",
"w	c #9E798E3879E7",
"e	c #BEFBA6998E38",
"r	c #8E387DF769A6",
"t	c #8E3882076185",
"y	c #4924451430C2",
"u	c #30C220811040",
"i	c #5965492438E3",
"p	c #082000000000",
"a	c #69A659654924",
"s	c #38E32CB21861",
"d	c #69A655554103",
"f	c #618551444103",
"g	c #59654D3430C2",
"h	c #51443CF328A2",
"j	c #514438E32081",
"k	c #79E75D754924",
"l	c #9E798A2871C6",
"z	c #5144410328A2",
"x	c #596551444103",
"c	c #30C230C22081",
"v	c #861775D66185",
"b	c #41033CF328A2",
"n	c #9658861771C6",
"m	c #000000000000",
"M	c #38E334D328A2",
"N	c #208114510000",
"B	c #38E328A21040",
"V	c #28A220811861",
"C	c #596555554103",
"Z	c #FFFFFFFFFFFF",
"A	c #861769A65965",
"S	c #71C659654924",
"D	c #861761855144",
" .XoO+O@#$% &@* *=-;:>,<123455=67890qw78eqr50www0ee689q1twww",
"yu&>&ip-y.apys#pXu@adfag331hj196k67e0t98tlrwee0eeetqqqlkwrz3",
".yfaafiixO<@p>p+fc@y>y,21vzbnnnn9rn063tlwnrn0n0e0tddtq95rrd5",
"b2$wrui+2- -m+Ma N#pa22n>gf5560nk0k==8dedde6w9r0n1=7r1rrqryy",
"yOvz.xpB+p&V;*-p-&s@sviBryOhv1qd=7z6=lnq6nkq0rw7135df5rnC,fu",
"aawiii paNm@p+b;MV*#a,pc13fh6=5l5=9=leq0jt8n9en=1h1h7rv772,h",
"ZZZZZZZZZZZZZZZZZZZZZZZZZZZZZZZZZZZZZZZZZZZZZZZZZZZZZZZZZZZZ",
"xibb.fyapip%M;c;@pN+>*4c51*f65l60kqk6dqwq9d=8775=3dsdv3B3p44",
"3B*-yNy>pam%&p-bps4.2Af1h2zvk0t966d96=t9rd6t=d=3dk87rnSsp@mp",
"cfpf2;yuNp->%<pfpcpaaf1312%A9t568nnvtdkwrdn785=7d1=1vzXb%M;b",
"1>,pfi--=c-m&>Cbb4fwf.q1y47dfS8n3qntn=t=eq7813pdowSvi@-m:@p&",
">h@1Cc2yb-c-O##bXgOxvCbvs71zt0C1vr=wv3tqlk7af.drvi3vymMVm<#*",
"anqo,&p%;>%#@>@u3qn$Nqf1B*gnr1ld=73B=O3do4A7Oviav>f &--#CObp",
"wav3dfc4$mMNcpOCCO$5>$i@do1751ug>p,i-r20n=->ui-f,p<Cp;zbNp@y",
"qp4ai2-pp;; .xcB4d$zgcx-#.$5if3@vi4hfilv53po<f>p>#>ccpcxNx$p",
"7t5u4bsBCn;--pma$Nyppppy2paaB=ui >iCviy 2iiui4X&cNbC.ii@dh>5",
"6qd,1,is<cOm-##-2uy>;C;+=pp.aB2iya@.ufsX@z<B2&yip@X,da2r Xtd",
"<,-*pu@&pNbC>OBmp4,pfzp .g1a2yy-OszxO3p>%#*V-M>V;f,pa;&w<.z9",
"o:=Bd1bB,V@%@pNop>p2-@-a2ONbg*Bzh>r$bC-Oxsisaxb#.;.>c+lipN=n",
"BxazB gpB,xm@%4@puXfpB2,xX>iif,,:i.o=B&ypVxs4sMfchOrqvvq-g75",
"f. d>,@ox@;yp&O;iMu>ygry;a;:p#V,i*c*2=uuuNi -=sX22v*r2dCftrd",
"Cs1iwfgzB-ammy>c.pcc.yO@x o4@-;v@c*.>$@s,a##a4Bi3di,r=d528rq",
"s57>i4@p*X-p<<>cB-O%OOcuNbrp>p-%ppB;BpBru .p&.f#5lnNrp+rrr6r",
"Ap5oVgppbz-mNNx;pys4O%%p%;mNcp@ p=,X%4>fyVi@s@4251d79=dkvrlw",
"5rdda-*p*Nz-xb;m+pu%c-<m&;p@>MV.pa,fp@S,f2Be3d5=q00nS1qqltee",
"9n5>2,4z>bM<#Om-Xp,pNNN<#cmN->%V+4aB>xa->3r41vlvq96g7qqer0l=",
"kdf+fyay*3c&>:X>m>pp<;+ss*<NmV&>p#Oyya4+xdoq=988qr9n=e9wv8tn",
"qv43,pysfuc<Xm#<+&VMNm@ >4VVmx.uy>yf>s2f5vqq5eq898=wz1w7=50+",
"5h.q@ap; >4#X<c>m#ppMpmpss-m&x&spi,>ac.Bg4v8qo8l97tqlerl6t55",
"Cv,Xp;%mua#pi;<u.Np#b +4Vp>c@&+%-a3Cp*vio5=erS=z7tll7wq995nl",
"cuMb%;O*<Nm>p*<i&m@;bBX;4%;m-u3fxqhshs=23=d6e08z88697q0t=55=",
"i>>+MMbbbcN;c+c;&;@V->>;p;#&a>@pCo1vgvo7v70n0l=8=rlB0deq171=",
"O@-;pMMm%ppCM+#<w@#@*u>+x i>#gh&2vrv-ro9lqrqt8sqrd70797sq5ed",
"&spp;Vb zbN&<>pm-%-@fN-,XO*r5sasnvgrq7rkww6l9t=jqg9n0rg7=zd1",
".V>s-@<cpdCMO#>O.mybia*O#,yi2142r51=9lqdqDlrrtknze=9e00rqr3d",
"p@<pV&&h@p-&XNpp#mzu@up+$m2ABpd7v171=8dS889re=9=g6qvt.61d153",
"ic,cfB#puup$Bz&-4qcB>uc@:,anvziBw=w0511o9l98en8qtk77707hidCi",
"pf.py><>pNzu;ccy.*.BBhbfrSv+i,d375q=778lsl0897nr9q6tvvf>i1pz",
">;%pc@<,&byp##&X# <pBff=i,.v,Bdteqr=gk1vdd8q=5d=2B2,iiu2-Cof",
"f;+>uN-.---pp<x# ;4czBSvv4Basahd35qg=r+,3rlkd7vefor+l.-iys5a",
"uNy%Bx<ipp<444X@4;V#s;vspip5=5d50=3q55vv5ldqd7vg2,r>+pp<xyb2",
"-%&NfpONpNc@p@%@Vpp>=$fvp,px4=10wnt56gaqvkw062ag.4fBfy*#xs>u",
"bpyc pxB%-cpsMpysy->o*f:B,ii535766=n=.7drr0rvv.Cyzvyuyp&cspx",
"#&<vxB<#*>%#<m#x>yM<=orfaCBOve60e554*idnC11.2y,s>%hv$CfXxs&s",
"%@pc.*N4Xf;pi#X-&4x.de,,BBla5v515nr=Avv5lnwwipXpp5crdbObbp V"};
