/* XPM */
static char * SimpleLayout_xpm[] = {
"45 60 5 1",
" 	c none",
".	c #000000000000",
"X	c #FFFFFFFFFFFF",
"o	c #9E799A699E79",
"O	c #CF3CCF3CCF3C",
"                                             ",
"                                             ",
"                                             ",
"                                             ",
"                                             ",
"                                             ",
"     ..........................              ",
"     .XXXXXXXXXXXXXXXXXXXXXXXX..             ",
"     .XXXXXXXXXXXXXXXXXXXXXXXX.X.            ",
"     .XXooooooooooooooXXoooooo.XX.           ",
"     .XXoXXXXXXXXXXXXoXXoXXXXX.XXX.          ",
"     .XXoXXXXXXXXXXXXoXXoXXXXX.XXXX.         ",
"     .XXoXXXXXXXXXXXXoXXoXXXXX.XXXXX.        ",
"     .XXoX..........XoXXoX...X.XXXXXX.       ",
"     .XXoXXXXXXXXXXXXoXXoXXXXX.XXXXXXX.      ",
"     .XXoXXXXXXXXXXXXoXXoXXXXX..........     ",
"     .XXoXXXXXXXXXXXXoXXoXXXXXXXXXXXoXX.     ",
"     .XXoXX.....XX..XoXXoX.........XoXX.OO   ",
"     .XXoXXXXXXXXXXXXoXXoXXXXXXXXXXXoXX.OO   ",
"     .XXoXXXXXXXXXXXXoXXoXXXXXXXXXXXoXX.OO   ",
"     .XXoXXXXXXXXXXXXoXXoXXXXXXXXXXXoXX.OO   ",
"     .XXoX..........XoXXoX.........XoXX.OO   ",
"     .XXoXXXXXXXXXXXXoXXoXXXXXXXXXXXoXX.OO   ",
"     .XXoXXXXXXXXXXXXoXXoXXXXXXXXXXXoXX.OO   ",
"     .XXoXXXXXXXXXXXXoXXoXXXXXXXXXXXoXX.OO   ",
"     .XXoX......XX..XoXXoX.........XoXX.OO   ",
"     .XXoXXXXXXXXXXXXoXXoXXXXXXXXXXXoXX.OO   ",
"     .XXooooooooooooooXXoXXXXXXXXXXXoXX.OO   ",
"     .XXXXXXXXXXXXXXXXXXoXXXXXXXXXXXoXX.OO   ",
"     .XXXXXXXXXXXXXXXXXXoX.........XoXX.OO   ",
"     .XXooooooooooooooXXoXXXXXXXXXXXoXX.OO   ",
"     .XXoXXXXXXXXXXXXoXXoXXXXXXXXXXXoXX.OO   ",
"     .XXoXXXXXXXXXXXXoXXoXXXXXXXXXXXoXX.OO   ",
"     .XXoX......XX..XoXXoX.........XoXX.OO   ",
"     .XXoXXXXXXXXXXXXoXXoXXXXXXXXXXXoXX.OO   ",
"     .XXoXXXXXXXXXXXXoXXoXXXXXXXXXXXoXX.OO   ",
"     .XXoXXXXXXXXXXXXoXXoXXXXXXXXXXXoXX.OO   ",
"     .XXoX..........XoXXoX.........XoXX.OO   ",
"     .XXoXXXXXXXXXXXXoXXoXXXXXXXXXXXoXX.OO   ",
"     .XXoXXXXXXXXXXXXoXXoXXXXXXXXXXXoXX.OO   ",
"     .XXoXXXXXXXXXXXXoXXoXXXXXXXXXXXoXX.OO   ",
"     .XXoX......XX..XoXXoX.........XoXX.OO   ",
"     .XXoXXXXXXXXXXXXoXXoXXXXXXXXXXXoXX.OO   ",
"     .XXoXXXXXXXXXXXXoXXoXXXXXXXXXXXoXX.OO   ",
"     .XXoXXXXXXXXXXXXoXXoXXXXXXXXXXXoXX.OO   ",
"     .XXoX..........XoXXoX.........XoXX.OO   ",
"     .XXoXXXXXXXXXXXXoXXoXXXXXXXXXXXoXX.OO   ",
"     .XXoXXXXXXXXXXXXoXXoXXXXXXXXXXXoXX.OO   ",
"     .XXoXXXXXXXXXXXXoXXoXXXXXXXXXXXoXX.OO   ",
"     .XXoXXXXXXXXXXXXoXXoXXXXXXXXXXXoXX.OO   ",
"     .XXooooooooooooooXXoooooooooooooXX.OO   ",
"     .XXXXXXXXXXXXXXXXXXXXXXXXXXXXXXXXX.OO   ",
"     .XXXXXXXXXXXXXXXXXXXXXXXXXXXXXXXXX.OO   ",
"     ...................................OO   ",
"       OOOOOOOOOOOOOOOOOOOOOOOOOOOOOOOOOOO   ",
"       OOOOOOOOOOOOOOOOOOOOOOOOOOOOOOOOOOO   ",
"                                             ",
"                                             ",
"                                             ",
"                                             "};
